<svg width="26" height="27" viewBox="0 0 26 27" fill="none" xmlns="http://www.w3.org/2000/svg">
<g clip-path="url(#clip0_2229_4381)">
<path d="M9.76462 13.5146L11.375 15.125L17.0479 9.45212C17.1812 9.31871 17.3396 9.21287 17.5138 9.14065C17.6881 9.06844 17.8749 9.03126 18.0635 9.03125C18.4445 9.03125 18.8099 9.1826 19.0793 9.45199C19.3487 9.72139 19.5 10.0868 19.5 10.4677C19.5 10.6564 19.4628 10.8432 19.3906 11.0174C19.3184 11.1917 19.2125 11.35 19.0791 11.4834L12.7619 17.8006C12.5798 17.9827 12.3636 18.1272 12.1256 18.2257C11.8876 18.3243 11.6326 18.375 11.375 18.375C11.1174 18.375 10.8624 18.3243 10.6244 18.2257C10.3864 18.1272 10.1702 17.9827 9.98806 17.8006L7.73337 15.5459C7.59996 15.4125 7.49412 15.2542 7.4219 15.0799C7.34969 14.9057 7.31251 14.7189 7.3125 14.5302C7.3125 14.3416 7.34966 14.1548 7.42185 13.9805C7.49404 13.8062 7.59985 13.6479 7.73324 13.5145C7.86663 13.3811 8.02499 13.2753 8.19928 13.2031C8.37356 13.1309 8.56036 13.0938 8.749 13.0938C8.93763 13.0938 9.12442 13.1309 9.29868 13.2032C9.47294 13.2754 9.63127 13.3812 9.76462 13.5146Z" fill="#009EAA" fill-opacity="0.12"/>
<path d="M13 1.71875V0.90625C9.66109 0.910013 6.46 2.23806 4.09903 4.59903C1.73806 6.96 0.410013 10.1611 0.40625 13.5H1.21875C1.2223 10.3765 2.46467 7.38196 4.67332 5.17332C6.88196 2.96467 9.87651 1.7223 13 1.71875Z" fill="#009EAA"/>
<path d="M24.7812 13.5C24.7776 16.6235 23.5352 19.6179 21.3266 21.8266C19.1179 24.0352 16.1235 25.2776 13 25.2812V26.0938C16.3389 26.0901 19.5401 24.7621 21.9011 22.4011C24.2621 20.0401 25.5901 16.8389 25.5938 13.5H24.7812Z" fill="#009EAA"/>
<path d="M13.5107 3.20703C16.0572 3.33596 18.4728 4.40441 20.2842 6.21582L20.6367 6.58594C22.3481 8.47574 23.3038 10.9384 23.3066 13.5L23.2988 13.8818C23.2329 15.6594 22.7082 17.3897 21.7754 18.9043L21.5693 19.2256C20.5077 20.8145 19.0266 22.0751 17.2939 22.8691L16.9443 23.0215C15.1789 23.7528 13.247 23.9781 11.3652 23.6758L10.9893 23.6084C9.1151 23.2356 7.38397 22.3496 5.9873 21.0527L5.71191 20.7881C4.36073 19.4369 3.41445 17.738 2.97363 15.8838L2.8916 15.5107C2.49393 13.5115 2.69846 11.4389 3.47852 9.55566L3.63086 9.20605C4.42494 7.47337 5.68551 5.99234 7.27441 4.93066L7.5957 4.72461C9.21855 3.72516 11.0891 3.19336 13 3.19336L13.5107 3.20703ZM16.5186 5.00586C14.9435 4.35343 13.2199 4.15299 11.541 4.42285L11.2061 4.48242C9.42273 4.83719 7.78474 5.71331 6.49902 6.99902C5.29356 8.20449 4.44885 9.71977 4.05566 11.374L3.98242 11.7061C3.62768 13.4895 3.81001 15.3386 4.50586 17.0186L4.64258 17.3301C5.35094 18.8758 6.47514 20.1974 7.89258 21.1445L8.17871 21.3281C9.62644 22.2198 11.2953 22.6934 13 22.6934L13.4561 22.6816C15.7274 22.5665 17.8823 21.6138 19.498 19.998L19.8125 19.668C21.3392 17.9821 22.1908 15.7852 22.1934 13.5L22.1875 13.1592C22.1287 11.5735 21.6603 10.0298 20.8281 8.67871L20.6445 8.39258C19.6974 6.97514 18.3758 5.85094 16.8301 5.14258L16.5186 5.00586Z" fill="#009EAA" stroke="#009EAA" stroke-width="0.3"/>
<path d="M7.73706 24.9126C7.9865 25.026 8.24284 25.132 8.49837 25.2283L8.78275 24.4682C8.54144 24.3772 8.30432 24.2787 8.0714 24.1729L7.73706 24.9126Z" fill="#009EAA"/>
<path d="M1.21469 14.6113L0.40625 14.6926C0.433333 14.9675 0.469219 15.2394 0.513906 15.5083L1.31544 15.3759C1.274 15.1237 1.24042 14.8689 1.21469 14.6113Z" fill="#009EAA"/>
<path d="M10.8813 25.866C11.1506 25.9104 11.4225 25.946 11.6971 25.9728L11.7783 25.1644C11.5211 25.1392 11.2666 25.1059 11.015 25.0645L10.8813 25.866Z" fill="#009EAA"/>
<path d="M9.27832 25.4931C9.53791 25.572 9.80644 25.6439 10.0734 25.706L10.2578 24.9159C10.0073 24.8576 9.75946 24.7913 9.51435 24.7168L9.27832 25.4931Z" fill="#009EAA"/>
<path d="M1.46577 16.1299L0.674805 16.3147C0.736555 16.5804 0.808461 16.8477 0.888492 17.1098L1.66565 16.8717C1.59144 16.6279 1.52482 16.3807 1.46577 16.1299Z" fill="#009EAA"/>
<path d="M6.28589 24.1347C6.51826 24.2796 6.75592 24.4171 6.99886 24.5471L7.38236 23.8313C7.15567 23.7094 6.93359 23.5807 6.71611 23.4453L6.28589 24.1347Z" fill="#009EAA"/>
<path d="M3.74841 22.0505C3.9361 22.2509 4.13015 22.4448 4.33057 22.6322L4.88591 22.0395C4.69877 21.864 4.51731 21.6825 4.34154 21.4951L3.74841 22.0505Z" fill="#009EAA"/>
<path d="M4.94934 23.1751C5.16113 23.3495 5.37861 23.5168 5.60178 23.6768L6.07587 23.0167C5.86679 22.8669 5.66366 22.7106 5.4665 22.5479L4.94934 23.1751Z" fill="#009EAA"/>
<path d="M1.91341 17.6035L1.15332 17.8879C1.2492 18.1418 1.35645 18.3973 1.46898 18.6472L2.20835 18.3108C2.10273 18.0787 2.00441 17.8429 1.91341 17.6035Z" fill="#009EAA"/>
<path d="M3.36373 20.3057L2.70398 20.7798C2.86404 21.0029 3.03115 21.2203 3.20529 21.4318L3.83295 20.9163C3.67018 20.718 3.51377 20.5145 3.36373 20.3057Z" fill="#009EAA"/>
<path d="M2.55008 19.001L1.83386 19.3845C1.96332 19.6266 2.10077 19.8639 2.24621 20.0962L2.93683 19.6664C2.80033 19.4489 2.67141 19.2271 2.55008 19.001Z" fill="#009EAA"/>
<path d="M24.4112 10.7488L25.2026 10.5636C25.1404 10.2983 25.0685 10.0306 24.9889 9.76855L24.2125 10.0058C24.2865 10.2496 24.3527 10.4972 24.4112 10.7488Z" fill="#009EAA"/>
<path d="M24.6623 12.2671L25.4707 12.1859C25.4436 11.911 25.4079 11.6391 25.3635 11.3701L24.5615 11.5026C24.6032 11.7552 24.6368 12.0101 24.6623 12.2671Z" fill="#009EAA"/>
<path d="M23.3269 7.87788L24.0432 7.49398C23.9134 7.25185 23.776 7.0146 23.6308 6.78223L22.9402 7.21204C23.0767 7.42925 23.2056 7.6512 23.3269 7.87788Z" fill="#009EAA"/>
<path d="M23.9635 9.27754L24.7236 8.99073C24.6281 8.73682 24.5205 8.48129 24.4084 8.23145L23.6686 8.56782C23.7742 8.80074 23.8725 9.03731 23.9635 9.27754Z" fill="#009EAA"/>
<path d="M22.1285 4.82882C21.9408 4.62867 21.7469 4.43476 21.5467 4.24707L20.991 4.8402C21.1782 5.01529 21.3602 5.19729 21.5353 5.38416L22.1285 4.82882Z" fill="#009EAA"/>
<path d="M22.5132 6.57331L23.1733 6.09922C23.0127 5.87632 22.8455 5.65966 22.6716 5.44922L22.0439 5.96475C22.2067 6.16165 22.3631 6.3645 22.5132 6.57331Z" fill="#009EAA"/>
<path d="M16.5986 1.38573C16.339 1.30691 16.0705 1.23541 15.8036 1.17285L15.6191 1.96423C15.8697 2.02273 16.1175 2.08908 16.3626 2.16329L16.5986 1.38573Z" fill="#009EAA"/>
<path d="M14.996 1.01309C14.7267 0.968948 14.4542 0.933333 14.1782 0.90625L14.0969 1.71469C14.3539 1.73988 14.6084 1.77319 14.8603 1.81463L14.996 1.01309Z" fill="#009EAA"/>
<path d="M18.1399 1.96702C17.8905 1.85409 17.6346 1.74765 17.3786 1.65137L17.0942 2.41146C17.3356 2.50246 17.5728 2.60091 17.806 2.7068L18.1399 1.96702Z" fill="#009EAA"/>
<path d="M20.9279 3.70387C20.7161 3.52972 20.4987 3.36248 20.2755 3.20215L19.8014 3.8623C20.0102 4.01235 20.2133 4.16875 20.4108 4.33152L20.9279 3.70387Z" fill="#009EAA"/>
<path d="M19.591 2.74438C19.3586 2.59948 19.1209 2.46203 18.878 2.33203L18.4945 3.04784C18.7212 3.16972 18.9434 3.29836 19.1612 3.43378L19.591 2.74438Z" fill="#009EAA"/>
<path d="M18.0639 8.62501C17.8218 8.62425 17.582 8.67159 17.3583 8.76427C17.1347 8.85696 16.9317 8.99314 16.7611 9.16492L11.375 14.5506L10.0514 13.2274C9.88038 13.0563 9.67729 12.9206 9.45378 12.828C9.23026 12.7354 8.99069 12.6877 8.74875 12.6877C8.26013 12.6877 7.7915 12.8817 7.44597 13.2272C7.10043 13.5727 6.90629 14.0413 6.90625 14.5299C6.90623 14.7719 6.95387 15.0114 7.04644 15.235C7.13901 15.4585 7.2747 15.6616 7.44576 15.8327L9.70086 18.0878C10.1449 18.5318 10.7471 18.7812 11.375 18.7812C12.0029 18.7812 12.6052 18.5318 13.0492 18.0878L19.3668 11.7706C19.6244 11.5129 19.7999 11.1846 19.8709 10.8272C19.942 10.4698 19.9055 10.0993 19.7661 9.76262C19.6266 9.42594 19.3905 9.13817 19.0875 8.93568C18.7845 8.73319 18.4283 8.62508 18.0639 8.62501ZM18.7923 11.1962L12.4747 17.5134C12.183 17.8049 11.7875 17.9687 11.375 17.9687C10.9626 17.9687 10.567 17.8049 10.2753 17.5134L8.0202 15.2583C7.82707 15.0651 7.71859 14.8031 7.71863 14.5299C7.71866 14.2567 7.82722 13.9948 8.0204 13.8016C8.21359 13.6085 8.47558 13.5 8.74875 13.5001C9.02192 13.5001 9.28388 13.6087 9.47701 13.8019L11.0878 15.4122C11.164 15.4884 11.2673 15.5312 11.375 15.5312C11.4827 15.5312 11.586 15.4884 11.6622 15.4122L17.3355 9.73935C17.5297 9.55117 17.7901 9.44689 18.0606 9.44902C18.331 9.45116 18.5897 9.55952 18.7809 9.75075C18.9722 9.94197 19.0805 10.2007 19.0827 10.4711C19.0848 10.7415 18.9805 11.002 18.7923 11.1962Z" fill="#009EAA"/>
</g>
<defs>
<clipPath id="clip0_2229_4381">
<rect width="26" height="26" fill="white" transform="translate(0 0.5)"/>
</clipPath>
</defs>
</svg>
