<svg width="22" height="22" viewBox="0 0 22 22" fill="none" xmlns="http://www.w3.org/2000/svg">
<g clip-path="url(#clip0_2498_498)">
<path d="M20.8998 10.45H18.4578L19.7118 9.19599C19.9318 8.97599 19.9318 8.62399 19.7118 8.42599C19.4918 8.20599 19.1398 8.20599 18.9418 8.42599L16.9178 10.45H12.3198L15.5538 7.21599H18.4138C18.7218 7.21599 18.9638 6.97399 18.9638 6.66599C18.9638 6.35799 18.7218 6.11599 18.4138 6.11599H16.6538L18.3918 4.37799C18.6118 4.15799 18.6118 3.80599 18.3918 3.60799C18.1718 3.40999 17.8198 3.38799 17.6218 3.60799L15.8838 5.34599V3.58599C15.8838 3.27799 15.6418 3.03599 15.3338 3.03599C15.0258 3.03599 14.7838 3.27799 14.7838 3.58599V6.44599L11.5498 9.67999V5.10399L13.5738 3.07999C13.7938 2.85999 13.7938 2.50799 13.5738 2.30999C13.3538 2.11199 13.0018 2.08999 12.8038 2.30999L11.5498 3.56399V1.09999C11.5498 0.791988 11.3078 0.549988 10.9998 0.549988C10.6918 0.549988 10.4498 0.791988 10.4498 1.09999V3.54199L9.1958 2.28799C8.9758 2.06799 8.62381 2.06799 8.4258 2.28799C8.2278 2.50799 8.2058 2.85999 8.4258 3.05799L10.4498 5.08199V9.67999L7.21581 6.44599V3.58599C7.21581 3.27799 6.9738 3.03599 6.6658 3.03599C6.3578 3.03599 6.1158 3.27799 6.1158 3.58599V5.34599L4.3778 3.60799C4.1578 3.38799 3.8058 3.38799 3.6078 3.60799C3.4098 3.82799 3.3878 4.17999 3.6078 4.37799L5.3458 6.11599H3.5858C3.2778 6.11599 3.0358 6.35799 3.0358 6.66599C3.0358 6.97399 3.2778 7.21599 3.5858 7.21599H6.44581L9.6798 10.45H5.10381L3.0798 8.42599C2.8598 8.20599 2.5078 8.20599 2.3098 8.42599C2.0898 8.64599 2.0898 8.99799 2.3098 9.19599L3.56381 10.45H1.0998C0.791805 10.45 0.549805 10.692 0.549805 11C0.549805 11.308 0.791805 11.55 1.0998 11.55H3.54181L2.2878 12.804C2.06781 13.024 2.06781 13.376 2.2878 13.574C2.3978 13.684 2.52981 13.728 2.6838 13.728C2.83781 13.728 2.96981 13.684 3.0798 13.574L5.10381 11.55H9.6798L6.44581 14.784H3.5858C3.2778 14.784 3.0358 15.026 3.0358 15.334C3.0358 15.642 3.2778 15.884 3.5858 15.884H5.3458L3.6078 17.622C3.3878 17.842 3.3878 18.194 3.6078 18.392C3.7178 18.502 3.8498 18.546 4.0038 18.546C4.1578 18.546 4.2898 18.502 4.3998 18.392L6.1378 16.654V18.414C6.1378 18.722 6.3798 18.964 6.6878 18.964C6.9958 18.964 7.2378 18.722 7.2378 18.414V15.554L10.4498 12.32V16.896L8.4258 18.92C8.2058 19.14 8.2058 19.492 8.4258 19.69C8.5358 19.8 8.6678 19.844 8.8218 19.844C8.9758 19.844 9.1078 19.8 9.2178 19.69L10.4718 18.436V20.9C10.4718 21.208 10.7138 21.45 11.0218 21.45C11.3298 21.45 11.5718 21.208 11.5718 20.9V18.458L12.8258 19.712C12.9358 19.822 13.0678 19.866 13.2218 19.866C13.3758 19.866 13.5078 19.822 13.6178 19.712C13.8378 19.492 13.8378 19.14 13.6178 18.942L11.5938 16.918V12.32L14.8278 15.554V18.414C14.8278 18.722 15.0698 18.964 15.3778 18.964C15.6858 18.964 15.9278 18.722 15.9278 18.414V16.654L17.6658 18.392C17.7758 18.502 17.9078 18.546 18.0618 18.546C18.2158 18.546 18.3478 18.502 18.4578 18.392C18.6778 18.172 18.6778 17.82 18.4578 17.622L16.7198 15.884H18.4798C18.7878 15.884 19.0298 15.642 19.0298 15.334C19.0298 15.026 18.7878 14.784 18.4798 14.784H15.6198L12.3198 11.55H16.8958L18.9198 13.574C19.0298 13.684 19.1618 13.728 19.3158 13.728C19.4698 13.728 19.6018 13.684 19.7118 13.574C19.9318 13.354 19.9318 13.002 19.7118 12.804L18.4578 11.55H20.8998C21.2078 11.55 21.4498 11.308 21.4498 11C21.4498 10.692 21.2078 10.45 20.8998 10.45Z" fill="url(#paint0_linear_2498_498)"/>
</g>
<defs>
<linearGradient id="paint0_linear_2498_498" x1="-0.0114155" y1="-1.06723" x2="20.2321" y2="21.1178" gradientUnits="userSpaceOnUse">
<stop stop-color="#97E0FF"/>
<stop offset="1" stop-color="#1075FF"/>
</linearGradient>
<clipPath id="clip0_2498_498">
<rect width="22" height="22" fill="white"/>
</clipPath>
</defs>
</svg>
