<svg width="22" height="22" viewBox="0 0 22 22" fill="none" xmlns="http://www.w3.org/2000/svg">
<path d="M4.27385 15.5867C4.78329 15.73 5.24047 15.9992 5.6076 16.3608L8.76288 13.7173L7.81654 12.771L4.27385 15.5867Z" fill="#009EAA"/>
<path d="M2.4695 18.2187H3.09375V17.5945C2.80259 17.6983 2.57331 17.9276 2.4695 18.2187Z" fill="#009EAA"/>
<path d="M3.09375 19.5305V18.9062H2.4695C2.57331 19.1974 2.80259 19.4267 3.09375 19.5305Z" fill="#009EAA"/>
<path d="M3.78125 19.5305C4.07241 19.4267 4.30169 19.1974 4.4055 18.9062H3.78125V19.5305Z" fill="#009EAA"/>
<path d="M3.4375 16.1562C2.11063 16.1562 1.03125 17.2356 1.03125 18.5625C1.03125 19.8894 2.11063 20.9688 3.4375 20.9688C4.76437 20.9688 5.84375 19.8894 5.84375 18.5625C5.84375 17.2356 4.76437 16.1562 3.4375 16.1562ZM3.4375 20.2812C2.48978 20.2812 1.71875 19.5102 1.71875 18.5625C1.71875 17.6148 2.48978 16.8438 3.4375 16.8438C4.38522 16.8438 5.15625 17.6148 5.15625 18.5625C5.15625 19.5102 4.38522 20.2812 3.4375 20.2812Z" fill="#009EAA"/>
<path d="M3.78125 17.5945V18.2187H4.4055C4.30169 17.9276 4.07241 17.6983 3.78125 17.5945Z" fill="#009EAA"/>
<path d="M7.96091 10.4163L8.85637 9.96875H3.78125V10.6562H7.62575C7.72303 10.5617 7.83475 10.4796 7.96091 10.4163Z" fill="#009EAA"/>
<path d="M16.5 9.96875H14.3076L13.4867 10.6562H16.5V9.96875Z" fill="#009EAA"/>
<path d="M12.4348 12.5627L13.8218 13.7517C14.3268 13.5307 14.8833 13.4062 15.4688 13.4062C15.8252 13.4062 16.1697 13.4564 16.5 13.542V11.3438H12.9147C12.9298 11.5414 12.8899 11.7435 12.7903 11.9226L12.4348 12.5627Z" fill="#009EAA"/>
<path d="M17.2318 6.62173L16.5794 5.80566L11.7501 9.64432L12.5204 10.569L17.2318 6.62173Z" fill="#009EAA"/>
<path d="M3.78125 11.3438V14.0938H5.04728L7.37859 12.2406C7.27787 12.0502 7.21875 11.8394 7.21875 11.6174C7.21875 11.5235 7.23147 11.4328 7.24969 11.3438H3.78125Z" fill="#009EAA"/>
<path d="M1.95181 9.9687H3.09375C3.09375 9.58955 3.40209 9.2812 3.78125 9.2812H9.48269L2.90778 2.7063C2.31275 3.25424 1.91194 3.97645 1.76928 4.78564L1.04534 8.8883C1.03572 8.94158 1.03125 8.99486 1.03125 9.04814C1.03125 9.55586 1.44409 9.9687 1.95181 9.9687Z" fill="#009EAA"/>
<path d="M10.3919 8.88628C10.5648 8.62675 10.6563 8.32494 10.6563 8.01316C10.6563 7.59275 10.4926 7.19744 10.1953 6.90009L9.82644 6.53125L10.1492 6.20847C10.4761 5.88122 10.6563 5.44672 10.6563 4.98438C10.6563 4.52203 10.4761 4.08753 10.1492 3.76028L9.82644 3.4375L10.3297 2.93425C10.5404 2.72353 10.6563 2.44372 10.6563 2.14603C10.6563 1.53141 10.1561 1.03125 9.54147 1.03125C9.19944 1.03125 8.85672 1.11203 8.55079 1.26534L8.40332 1.33891C7.90625 1.58744 7.34972 1.71875 6.79388 1.71875H5.42472C4.72313 1.71875 4.04869 1.91469 3.45813 2.28456L10.2589 9.08531L10.3919 8.88628ZM9.28125 1.71875H9.96875V2.40625H9.28125V1.71875ZM9.28125 4.46875H9.96875V5.15625H9.28125V4.46875ZM9.96875 7.90625H9.28125V7.21875H9.96875V7.90625Z" fill="#009EAA"/>
<path d="M12.1529 11.2018L11.0846 9.91965C11.0172 9.83887 10.9202 9.7959 10.8209 9.7959C10.7687 9.7959 10.7161 9.80793 10.6666 9.83234L8.26822 11.0313C8.04512 11.1431 7.90625 11.3675 7.90625 11.6174C7.90625 11.7896 7.97638 11.9588 8.09806 12.0808L9.91031 13.8931C10.0382 14.0206 10.2145 14.0938 10.3947 14.0938C10.6432 14.0938 10.8725 13.9587 10.9935 13.7415L12.1894 11.5886C12.2578 11.4655 12.2433 11.3101 12.1529 11.2018ZM10.9801 11.4957L10.6583 12.4613C10.57 12.7267 10.2331 12.8061 10.0354 12.6085L9.39159 11.9646C9.19394 11.767 9.27334 11.4304 9.53872 11.3417L10.5043 11.02C10.7982 10.922 11.078 11.2018 10.9801 11.4957Z" fill="#009EAA"/>
<path d="M15.125 16.7015V15.4998C14.8125 15.5527 14.5238 15.6751 14.2756 15.8521L15.125 16.7015Z" fill="#009EAA"/>
<path d="M15.8125 19.5628C16.125 19.5099 16.4137 19.3875 16.6619 19.2105L15.8125 18.3611V19.5628Z" fill="#009EAA"/>
<path d="M15.4688 14.0938C13.5733 14.0938 12.0312 15.6358 12.0312 17.5312C12.0312 19.4267 13.5733 20.9688 15.4688 20.9688C17.3642 20.9688 18.9062 19.4267 18.9062 17.5312C18.9062 15.6358 17.3642 14.0938 15.4688 14.0938ZM15.4688 20.2812C13.9525 20.2812 12.7188 19.0475 12.7188 17.5312C12.7188 16.015 13.9525 14.7812 15.4688 14.7812C16.985 14.7812 18.2188 16.015 18.2188 17.5312C18.2188 19.0475 16.985 20.2812 15.4688 20.2812Z" fill="#009EAA"/>
<path d="M17.148 18.7244C17.325 18.4762 17.4474 18.1875 17.5003 17.875H16.2986L17.148 18.7244Z" fill="#009EAA"/>
<path d="M16.2986 17.1875H17.5003C17.4474 16.8751 17.325 16.5863 17.148 16.3381L16.2986 17.1875Z" fill="#009EAA"/>
<path d="M20.8746 3.42616L20.251 2.59497C20.1623 2.47672 20.0214 2.40625 19.8736 2.40625C19.7691 2.40625 19.6663 2.44166 19.5838 2.50559L17.027 4.49453C16.9104 4.58494 16.8438 4.72141 16.8438 4.86922C16.8438 4.97681 16.8805 5.082 16.9479 5.16588L17.9128 6.37209C18.0651 6.56219 18.3728 6.57938 18.5446 6.40716L20.8306 4.12122C20.9186 4.03288 20.9688 3.91153 20.9688 3.78744V3.70941C20.9688 3.608 20.9351 3.50728 20.8746 3.42616Z" fill="#009EAA"/>
<path d="M15.8125 15.4998V16.7015L16.6619 15.8521C16.4137 15.6751 16.125 15.5527 15.8125 15.4998Z" fill="#009EAA"/>
<path d="M13.1766 14.1041L12.0938 13.176L11.6717 13.9357L12.4572 14.7212C12.6734 14.4902 12.913 14.2812 13.1766 14.1041Z" fill="#009EAA"/>
<path d="M13.7895 16.3381C13.6125 16.5863 13.4901 16.8751 13.4372 17.1875H14.6389L13.7895 16.3381Z" fill="#009EAA"/>
<path d="M15.125 19.5628V18.3611L14.2756 19.2105C14.5238 19.3875 14.8125 19.5099 15.125 19.5628Z" fill="#009EAA"/>
<path d="M13.4372 17.875C13.4901 18.1875 13.6125 18.4762 13.7895 18.7244L14.6389 17.875H13.4372Z" fill="#009EAA"/>
</svg>
