<svg width="17" height="17" viewBox="0 0 17 17" fill="none" xmlns="http://www.w3.org/2000/svg">
<g clip-path="url(#clip0_1813_22466)">
<path d="M11.5374 8.87842C9.43092 8.87842 7.32449 8.87842 5.21802 8.87842C4.95896 8.87842 4.74927 9.08842 4.74927 9.34717C4.74927 9.60623 4.95896 9.81592 5.21802 9.81592H7.90896V15.2159H6.92989C6.67274 15.2159 6.46114 15.4275 6.46114 15.6847C6.46114 15.9418 6.67274 16.1534 6.92989 16.1534H9.82552C10.0827 16.1534 10.2943 15.9418 10.2943 15.6847C10.2943 15.4275 10.0827 15.2159 9.82552 15.2159H8.84646V9.81592H11.5374C11.7945 9.81592 12.0061 9.60432 12.0061 9.34717C12.0061 9.09001 11.7945 8.87842 11.5374 8.87842Z" fill="#009EAA"/>
<path d="M16.0691 13.3173L16.0651 12.3154L16.3763 7.89047C16.3947 7.63234 16.2001 7.40828 15.9419 7.38984C15.6835 7.37172 15.4594 7.5664 15.4413 7.82453L15.1507 11.3689C15.0085 11.3155 14.8547 11.2864 14.6941 11.2864H12.9141C12.1926 11.2864 11.6057 11.8733 11.6057 12.5948C11.6057 12.9186 11.6017 13.3151 11.6017 13.3151L11.2969 15.6233C11.2635 15.8782 11.4456 16.1156 11.7004 16.1492C11.9553 16.1829 12.1929 16.0008 12.2266 15.7458L12.4854 13.7864H15.1854L15.4441 15.7458C15.4777 16.0007 15.7151 16.1828 15.9701 16.1492C16.225 16.1156 16.4071 15.8782 16.3735 15.6233L16.0691 13.3173Z" fill="#009EAA"/>
<path d="M0.686113 13.3172L0.690144 12.3154L0.378894 7.89047C0.360457 7.63234 0.555144 7.40828 0.813269 7.38984C1.07171 7.37172 1.29577 7.5664 1.31389 7.82453L1.60452 11.3689C1.74671 11.3155 1.90046 11.2864 2.06108 11.2864H3.84108C4.56264 11.2864 5.14952 11.8733 5.14952 12.5948C5.14952 12.9186 5.15355 13.3151 5.15355 13.3151L5.45827 15.6233C5.49174 15.8782 5.30964 16.1156 5.05483 16.1492C4.79989 16.1829 4.5623 16.0008 4.52858 15.7458L4.26983 13.7864H1.56983L1.31108 15.7458C1.27749 16.0007 1.04008 16.1828 0.785144 16.1492C0.530207 16.1156 0.348113 15.8782 0.381707 15.6233L0.686113 13.3172Z" fill="#009EAA"/>
<path d="M1.85987 3.28906V4.72281C1.85987 5.13156 1.52737 5.46406 1.11862 5.46406C0.710186 5.46406 0.377686 5.13156 0.377686 4.72281V3.28906H1.85987Z" fill="#009EAA"/>
<path d="M4.27955 3.28906V4.72281C4.27955 5.13156 3.94705 5.46406 3.5383 5.46406C3.12986 5.46406 2.79736 5.13156 2.79736 4.72281V3.28906H4.27955Z" fill="#009EAA"/>
<path d="M6.69923 3.28906V4.72281C6.69923 5.13156 6.36673 5.46406 5.95798 5.46406C5.54954 5.46406 5.21704 5.13156 5.21704 4.72281V3.28906H6.69923Z" fill="#009EAA"/>
<path d="M9.11859 3.28906V4.72281C9.11859 5.13156 8.78641 5.46406 8.37766 5.46406C7.96891 5.46406 7.63672 5.13156 7.63672 4.72281V3.28906H9.11859Z" fill="#009EAA"/>
<path d="M11.5383 3.28906V4.72281C11.5383 5.13156 11.2058 5.46406 10.7974 5.46406C10.3887 5.46406 10.0562 5.13156 10.0562 4.72281V3.28906H11.5383Z" fill="#009EAA"/>
<path d="M13.958 3.28906V4.72281C13.958 5.13156 13.6255 5.46406 13.2171 5.46406C12.8083 5.46406 12.4758 5.13156 12.4758 4.72281V3.28906H13.958Z" fill="#009EAA"/>
<path d="M16.3777 3.28906V4.72281C16.3777 5.13156 16.0452 5.46406 15.6364 5.46406C15.228 5.46406 14.8955 5.13156 14.8955 4.72281V3.28906H16.3777Z" fill="#009EAA"/>
<path d="M16.1629 2.35176H0.592285L1.32438 0.453414C1.3941 0.27257 1.56791 0.15332 1.76172 0.15332H14.9935C15.1873 0.15332 15.3611 0.27257 15.4308 0.453414L16.1629 2.35176Z" fill="#009EAA"/>
</g>
<defs>
<clipPath id="clip0_1813_22466">
<rect width="16" height="16" fill="white" transform="translate(0.377686 0.15332)"/>
</clipPath>
</defs>
</svg>
