<svg width="20" height="21" viewBox="0 0 20 21" fill="none" xmlns="http://www.w3.org/2000/svg">
<path fill-rule="evenodd" clip-rule="evenodd" d="M6.25 3.94453C5.38215 4.04743 4.74557 4.24612 4.21756 4.62975C3.86383 4.88674 3.55276 5.19782 3.29576 5.55154C2.5 6.64682 2.5 8.20921 2.5 11.334C2.5 14.4587 2.5 16.0212 3.29576 17.1164C3.55276 17.4702 3.86383 17.7812 4.21756 18.0382C5.31283 18.834 6.87522 18.834 10 18.834C10.6991 18.834 11.32 18.834 11.875 18.8251V18.7667C11.8749 18.0567 11.8749 17.6242 11.934 17.2511C12.2587 15.2007 13.8667 13.5927 15.9171 13.268C16.2902 13.2089 16.7227 13.2089 17.4327 13.209H17.4911C17.5 12.6542 17.5 12.0333 17.5 11.3344C17.5 8.20959 17.5 6.64682 16.7042 5.55154C16.4472 5.19782 16.1362 4.88674 15.7824 4.62975C15.2544 4.24613 14.6178 4.04743 13.75 3.94453V4.66732C13.75 5.35768 13.1903 5.91732 12.5 5.91732C11.8097 5.91732 11.25 5.35768 11.25 4.66732V3.83633C10.8632 3.83398 10.4477 3.83398 10 3.83398C9.55233 3.83398 9.13675 3.83398 8.75 3.83633V4.66732C8.75 5.35768 8.19036 5.91732 7.5 5.91732C6.80964 5.91732 6.25 5.35768 6.25 4.66732V3.94453ZM5.83333 8.83398C6.29357 8.83398 6.66667 8.46088 6.66667 8.00065C6.66667 7.54042 6.29357 7.16732 5.83333 7.16732C5.3731 7.16732 5 7.54042 5 8.00065C5 8.46088 5.3731 8.83398 5.83333 8.83398ZM6.66667 11.334C6.66667 11.7942 6.29357 12.1673 5.83333 12.1673C5.3731 12.1673 5 11.7942 5 11.334C5 10.8737 5.3731 10.5007 5.83333 10.5007C6.29357 10.5007 6.66667 10.8737 6.66667 11.334ZM10 8.83398C10.4602 8.83398 10.8333 8.46088 10.8333 8.00065C10.8333 7.54042 10.4602 7.16732 10 7.16732C9.53975 7.16732 9.16667 7.54042 9.16667 8.00065C9.16667 8.46088 9.53975 8.83398 10 8.83398ZM10.8333 11.334C10.8333 11.7942 10.4602 12.1673 10 12.1673C9.53975 12.1673 9.16667 11.7942 9.16667 11.334C9.16667 10.8737 9.53975 10.5007 10 10.5007C10.4602 10.5007 10.8333 10.8737 10.8333 11.334ZM10 15.5007C10.4602 15.5007 10.8333 15.1276 10.8333 14.6673C10.8333 14.2071 10.4602 13.834 10 13.834C9.53975 13.834 9.16667 14.2071 9.16667 14.6673C9.16667 15.1276 9.53975 15.5007 10 15.5007ZM15 8.00065C15 8.46088 14.6269 8.83398 14.1667 8.83398C13.7064 8.83398 13.3333 8.46088 13.3333 8.00065C13.3333 7.54042 13.7064 7.16732 14.1667 7.16732C14.6269 7.16732 15 7.54042 15 8.00065ZM14.1667 12.1673C14.6269 12.1673 15 11.7942 15 11.334C15 10.8737 14.6269 10.5007 14.1667 10.5007C13.7064 10.5007 13.3333 10.8737 13.3333 11.334C13.3333 11.7942 13.7064 12.1673 14.1667 12.1673ZM6.66667 14.6673C6.66667 15.1276 6.29357 15.5007 5.83333 15.5007C5.3731 15.5007 5 15.1276 5 14.6673C5 14.2071 5.3731 13.834 5.83333 13.834C6.29357 13.834 6.66667 14.2071 6.66667 14.6673Z" fill="#009EAA"/>
<path d="M17.4456 14.459C16.6869 14.4591 16.3696 14.4619 16.1127 14.5026C14.5972 14.7427 13.4087 15.9312 13.1686 17.4467C13.1279 17.7036 13.1251 18.0209 13.125 18.7796C14.3247 18.7009 15.1352 18.5085 15.7824 18.0382C16.1362 17.7812 16.4472 17.4702 16.7042 17.1164C17.1745 16.4692 17.3669 15.6587 17.4456 14.459Z" fill="#009EAA"/>
<path d="M8.125 2.16699C8.125 1.82182 7.84517 1.54199 7.5 1.54199C7.15483 1.54199 6.875 1.82182 6.875 2.16699V4.66699C6.875 5.01217 7.15483 5.29199 7.5 5.29199C7.84517 5.29199 8.125 5.01217 8.125 4.66699V2.16699Z" fill="#009EAA"/>
<path d="M13.125 2.16699C13.125 1.82182 12.8452 1.54199 12.5 1.54199C12.1548 1.54199 11.875 1.82182 11.875 2.16699V4.66699C11.875 5.01217 12.1548 5.29199 12.5 5.29199C12.8452 5.29199 13.125 5.01217 13.125 4.66699V2.16699Z" fill="#009EAA"/>
</svg>
