<svg width="39" height="38" viewBox="0 0 39 38" fill="none" xmlns="http://www.w3.org/2000/svg">
<g clip-path="url(#clip0_2031_11048)">
<path d="M5.79895 34.1644H33.2003C36.5084 34.1644 38.1946 32.51 38.1946 29.2339V12.5824C38.1946 9.30628 36.5084 7.66821 33.2003 7.66821H29.4791C28.2386 7.66821 27.8573 7.41375 27.1414 6.61846L25.8528 5.18668C25.0738 4.31268 24.2629 3.83496 22.6085 3.83496H16.2788C14.6407 3.83496 13.8292 4.31268 13.0346 5.18668L11.7459 6.61846C11.0463 7.39746 10.6487 7.66821 9.40827 7.66821H5.79827C2.49024 7.66821 0.803986 9.30628 0.803986 12.5824V29.2339C0.803986 32.51 2.49091 34.1644 5.79895 34.1644ZM19.4918 29.0751C14.6882 29.0751 10.8238 25.21 10.8238 20.3758C10.8238 15.5403 14.6882 11.6765 19.4912 11.6765C24.326 11.6765 28.1748 15.5403 28.1748 20.3758C28.1748 25.21 24.3104 29.0751 19.4912 29.0751M30.9258 16.4944C29.8441 16.4944 28.9538 15.6204 28.9538 14.5387C28.9538 14.0158 29.1616 13.5142 29.5314 13.1444C29.9012 12.7746 30.4028 12.5668 30.9258 12.5668C31.4488 12.5668 31.9503 12.7746 32.3201 13.1444C32.6899 13.5142 32.8977 14.0158 32.8977 14.5387C32.8977 15.6204 32.0074 16.4944 30.9258 16.4944ZM19.4918 26.658C20.3171 26.659 21.1345 26.4972 21.8971 26.1818C22.6597 25.8665 23.3527 25.4038 23.9362 24.8202C24.5198 24.2367 24.9825 23.5437 25.2978 22.7811C25.6132 22.0184 25.775 21.2011 25.7741 20.3758C25.7749 19.5506 25.6131 18.7333 25.2977 17.9708C24.9823 17.2082 24.5195 16.5153 23.936 15.9319C23.3524 15.3484 22.6595 14.8857 21.8969 14.5704C21.1344 14.2551 20.3171 14.0933 19.4918 14.0943C16.0243 14.0943 13.2259 16.8934 13.2259 20.3758C13.2259 23.8589 16.0406 26.658 19.4918 26.658Z" fill="#B3B3B3"/>
</g>
<defs>
<clipPath id="clip0_2031_11048">
<rect width="38" height="38" fill="white" transform="translate(0.5)"/>
</clipPath>
</defs>
</svg>
