<svg width="27" height="27" viewBox="0 0 27 27" fill="none" xmlns="http://www.w3.org/2000/svg">
<g clip-path="url(#clip0_2231_4440)">
<path d="M15.5311 13.4999L17.954 11.077C18.091 10.9444 18.2002 10.7859 18.2752 10.6107C18.3503 10.4355 18.3898 10.2472 18.3913 10.0566C18.3929 9.86596 18.3565 9.67696 18.2843 9.50057C18.212 9.32417 18.1054 9.16392 17.9706 9.02914C17.8359 8.89436 17.6756 8.78775 17.4992 8.71553C17.3228 8.6433 17.1338 8.6069 16.9432 8.60845C16.7526 8.60999 16.5642 8.64946 16.389 8.72454C16.2138 8.79962 16.0553 8.90882 15.9228 9.04577L13.4999 11.4686L11.077 9.04577C10.9444 8.90882 10.7859 8.79962 10.6107 8.72454C10.4355 8.64946 10.2472 8.60999 10.0566 8.60845C9.86596 8.6069 9.67696 8.6433 9.50057 8.71553C9.32417 8.78775 9.16392 8.89436 9.02914 9.02914C8.89436 9.16392 8.78775 9.32417 8.71553 9.50057C8.6433 9.67696 8.6069 9.86596 8.60845 10.0566C8.60999 10.2472 8.64946 10.4355 8.72454 10.6107C8.79962 10.7859 8.90882 10.9444 9.04577 11.077L11.4686 13.4999L9.04577 15.9228C8.90882 16.0553 8.79962 16.2138 8.72454 16.389C8.64946 16.5642 8.60999 16.7526 8.60845 16.9432C8.6069 17.1338 8.6433 17.3228 8.71553 17.4992C8.78775 17.6756 8.89436 17.8359 9.02914 17.9706C9.16392 18.1054 9.32417 18.212 9.50057 18.2843C9.67696 18.3565 9.86596 18.3929 10.0566 18.3913C10.2472 18.3898 10.4355 18.3503 10.6107 18.2752C10.7859 18.2002 10.9444 18.091 11.077 17.954L13.4999 15.5311L15.9228 17.954C16.0553 18.091 16.2138 18.2002 16.389 18.2752C16.5642 18.3503 16.7526 18.3898 16.9432 18.3913C17.1338 18.3929 17.3228 18.3565 17.4992 18.2843C17.6756 18.212 17.8359 18.1054 17.9706 17.9706C18.1054 17.8359 18.212 17.6756 18.2843 17.4992C18.3565 17.3228 18.3929 17.1338 18.3913 16.9432C18.3898 16.7526 18.3503 16.5642 18.2752 16.389C18.2002 16.2138 18.091 16.0553 17.954 15.9228L15.5311 13.4999Z" fill="#009EAA" fill-opacity="0.12"/>
<path d="M13.5 1.71875V0.90625C10.1611 0.910121 6.9601 2.2382 4.59915 4.59915C2.2382 6.9601 0.910121 10.1611 0.90625 13.5H1.71875C1.72219 10.3765 2.96453 7.38187 5.1732 5.1732C7.38187 2.96453 10.3765 1.72219 13.5 1.71875Z" fill="#009EAA"/>
<path d="M25.2812 13.5C25.2777 16.6235 24.0353 19.618 21.8267 21.8267C19.618 24.0353 16.6235 25.2777 13.5 25.2812V26.0938C16.8389 26.09 20.04 24.7619 22.401 22.401C24.7619 20.04 26.09 16.8389 26.0938 13.5H25.2812Z" fill="#009EAA"/>
<path d="M14.0107 3.20703C16.5572 3.33596 18.9728 4.40441 20.7842 6.21582L21.1367 6.58594C22.8481 8.47574 23.8038 10.9384 23.8066 13.5L23.7988 13.8818C23.7329 15.6594 23.2082 17.3897 22.2754 18.9043L22.0693 19.2256C21.0077 20.8145 19.5266 22.0751 17.7939 22.8691L17.4443 23.0215C15.6789 23.7528 13.747 23.9781 11.8652 23.6758L11.4893 23.6084C9.6151 23.2356 7.88397 22.3496 6.4873 21.0527L6.21191 20.7881C4.86073 19.4369 3.91445 17.738 3.47363 15.8838L3.3916 15.5107C2.99393 13.5115 3.19846 11.4389 3.97852 9.55566L4.13086 9.20605C4.92494 7.47337 6.18551 5.99234 7.77441 4.93066L8.0957 4.72461C9.71855 3.72516 11.5891 3.19336 13.5 3.19336L14.0107 3.20703ZM17.0186 5.00586C15.4435 4.35343 13.7199 4.15299 12.041 4.42285L11.7061 4.48242C10.0342 4.81502 8.49003 5.60582 7.24414 6.7627L6.99902 6.99902C5.79356 8.20449 4.94885 9.71977 4.55566 11.374L4.48242 11.7061C4.12768 13.4895 4.31001 15.3386 5.00586 17.0186L5.14258 17.3301C5.85094 18.8758 6.97514 20.1974 8.39258 21.1445L8.67871 21.3281C10.1264 22.2198 11.7953 22.6934 13.5 22.6934L13.9561 22.6816C16.2274 22.5664 18.3823 21.6138 19.998 19.998L20.3125 19.668C21.8392 17.9821 22.6907 15.7851 22.6934 13.5L22.6875 13.1592C22.6287 11.5735 22.1603 10.0298 21.3281 8.67871L21.1445 8.39258C20.1974 6.97514 18.8758 5.85094 17.3301 5.14258L17.0186 5.00586Z" fill="#009EAA" stroke="#009EAA" stroke-width="0.3"/>
<path d="M2.02705 16.1904L1.23608 16.3753C1.29824 16.6406 1.37015 16.9083 1.44977 17.1703L2.22693 16.9339C2.15245 16.6893 2.08582 16.4415 2.02705 16.1904Z" fill="#009EAA"/>
<path d="M2.47469 17.6621L1.7146 17.9489C1.81047 18.2028 1.91772 18.4584 2.03026 18.7082L2.76963 18.3718C2.66482 18.1389 2.56651 17.9023 2.47469 17.6621Z" fill="#009EAA"/>
<path d="M1.77637 14.6719L0.967529 14.7531C0.994613 15.028 1.0305 15.2999 1.07519 15.5689L1.87712 15.4364C1.83541 15.1843 1.80183 14.9294 1.77637 14.6719Z" fill="#009EAA"/>
<path d="M3.11132 19.0615L2.39551 19.4454C2.52524 19.6876 2.66269 19.9248 2.80785 20.1572L3.49848 19.7274C3.36171 19.5099 3.23265 19.2879 3.11132 19.0615Z" fill="#009EAA"/>
<path d="M9.8396 25.553C10.0992 25.6318 10.3677 25.7037 10.635 25.7658L10.8195 24.9745C10.5684 24.9162 10.3205 24.8499 10.0756 24.7754L9.8396 25.553Z" fill="#009EAA"/>
<path d="M11.4429 25.9265C11.7124 25.9709 11.9844 26.0066 12.259 26.0334L12.3378 25.2249C12.0811 25.1997 11.8266 25.1664 11.5745 25.125L11.4429 25.9265Z" fill="#009EAA"/>
<path d="M8.30005 24.9732C8.54949 25.0865 8.80542 25.1926 9.06095 25.2888L9.34533 24.5287C9.10456 24.4377 8.86744 24.3393 8.63399 24.2334L8.30005 24.9732Z" fill="#009EAA"/>
<path d="M4.30981 22.113C4.4975 22.3134 4.69155 22.5073 4.89197 22.6947L5.44731 22.1016C5.2599 21.9266 5.07844 21.7453 4.90294 21.5576L4.30981 22.113Z" fill="#009EAA"/>
<path d="M5.51074 23.2351C5.72253 23.4095 5.94001 23.5767 6.16318 23.7368L6.63727 23.0766C6.42846 22.9269 6.22534 22.7705 6.0279 22.6074L5.51074 23.2351Z" fill="#009EAA"/>
<path d="M6.84766 24.1953C7.08003 24.3402 7.31755 24.4776 7.56022 24.6076L7.94412 23.8918C7.71744 23.7699 7.49522 23.6413 7.27747 23.5059L6.84766 24.1953Z" fill="#009EAA"/>
<path d="M3.92513 20.3652L3.26538 20.8397C3.42571 21.0626 3.59295 21.28 3.7671 21.4918L4.39435 20.9746C4.23185 20.7774 4.07544 20.5743 3.92513 20.3652Z" fill="#009EAA"/>
<path d="M24.5252 9.33809L25.2853 9.05127C25.1894 8.79737 25.0821 8.54184 24.9696 8.29199L24.2302 8.62837C24.335 8.86128 24.4334 9.09786 24.5252 9.33809Z" fill="#009EAA"/>
<path d="M15.5573 1.07364C15.2881 1.02949 15.0161 0.99388 14.7412 0.966797L14.6624 1.77523C14.9191 1.80042 15.1736 1.83373 15.4257 1.87517L15.5573 1.07364Z" fill="#009EAA"/>
<path d="M25.2236 12.3277L26.0324 12.2464C26.0053 11.9715 25.9694 11.6996 25.9247 11.4307L25.1228 11.5631C25.1648 11.8155 25.1984 12.0704 25.2236 12.3277Z" fill="#009EAA"/>
<path d="M23.8886 7.93843L24.6044 7.55452C24.4747 7.3124 24.3373 7.07515 24.1921 6.84277L23.5015 7.27259C23.6382 7.49007 23.7673 7.71201 23.8886 7.93843Z" fill="#009EAA"/>
<path d="M24.9728 10.809L25.7638 10.6241C25.7016 10.3589 25.6297 10.0911 25.5501 9.8291L24.7729 10.0655C24.8474 10.3101 24.9141 10.5579 24.9728 10.809Z" fill="#009EAA"/>
<path d="M17.1602 1.44627C16.9006 1.36746 16.6321 1.29555 16.3648 1.2334L16.1812 2.02477C16.4322 2.08273 16.6802 2.14909 16.925 2.22384L17.1602 1.44627Z" fill="#009EAA"/>
<path d="M21.4893 3.76482C21.2778 3.59067 21.0603 3.4233 20.8369 3.2627L20.3628 3.92326C20.5716 4.07303 20.7747 4.22943 20.9722 4.39248L21.4893 3.76482Z" fill="#009EAA"/>
<path d="M18.7001 2.02757C18.4506 1.91423 18.1947 1.8082 17.9392 1.71191L17.6548 2.47201C17.8956 2.56301 18.1327 2.66146 18.3661 2.76735L18.7001 2.02757Z" fill="#009EAA"/>
<path d="M20.1524 2.80492C19.92 2.65976 19.6825 2.52231 19.4398 2.39258L19.0559 3.10839C19.2826 3.23027 19.5048 3.35891 19.7226 3.49433L20.1524 2.80492Z" fill="#009EAA"/>
<path d="M22.6902 4.88741C22.5025 4.687 22.3085 4.49308 22.1081 4.30566L21.5527 4.89879C21.7399 5.07375 21.9213 5.25507 22.0971 5.44276L22.6902 4.88741Z" fill="#009EAA"/>
<path d="M23.0749 6.63394L23.7347 6.15984C23.5743 5.93668 23.4071 5.71933 23.233 5.50781L22.6057 6.02456C22.7682 6.22173 22.9246 6.42485 23.0749 6.63394Z" fill="#009EAA"/>
<path d="M18.7812 10.0617C18.7814 9.69722 18.6734 9.34088 18.4709 9.03778C18.2685 8.73468 17.9806 8.49845 17.6439 8.35897C17.3071 8.21949 16.9366 8.18304 16.5791 8.25423C16.2216 8.32541 15.8933 8.50104 15.6356 8.75888L13.5 10.8945L11.3643 8.75888C11.1932 8.58779 10.9901 8.45207 10.7666 8.35947C10.543 8.26688 10.3035 8.21922 10.0615 8.21922C9.81953 8.21922 9.57994 8.26688 9.3564 8.35947C9.13286 8.45207 8.92974 8.58779 8.75865 8.75888C8.58756 8.92997 8.45184 9.13308 8.35925 9.35663C8.26665 9.58017 8.21899 9.81976 8.21899 10.0617C8.21899 10.3037 8.26665 10.5433 8.35925 10.7668C8.45184 10.9904 8.58756 11.1935 8.75865 11.3646L10.8943 13.5002L8.75865 15.6363C8.41311 15.9818 8.21899 16.4505 8.21899 16.9391C8.21899 17.4278 8.41311 17.8964 8.75865 18.242C9.10419 18.5875 9.57283 18.7816 10.0615 18.7816C10.5502 18.7816 11.0188 18.5875 11.3643 18.242L13.5 16.1059L15.6356 18.242C15.9812 18.5875 16.4498 18.7816 16.9385 18.7816C17.4272 18.7816 17.8958 18.5875 18.2413 18.242C18.5869 17.8964 18.781 17.4278 18.781 16.9391C18.781 16.4505 18.5869 15.9818 18.2413 15.6363L16.1057 13.5002L18.2413 11.3646C18.413 11.1939 18.5491 10.9909 18.6418 10.7672C18.7345 10.5436 18.7819 10.3038 18.7812 10.0617ZM17.6669 10.7901L15.244 13.213C15.1679 13.2892 15.1251 13.3925 15.1251 13.5002C15.1251 13.6079 15.1679 13.7113 15.244 13.7874L17.6669 16.2107C17.8551 16.4049 17.9594 16.6653 17.9572 16.9358C17.9551 17.2062 17.8467 17.4649 17.6555 17.6561C17.4643 17.8474 17.2055 17.9557 16.9351 17.9579C16.6647 17.96 16.4043 17.8557 16.2101 17.6675L13.7872 15.2443C13.711 15.1681 13.6077 15.1253 13.5 15.1253C13.3923 15.1253 13.289 15.1681 13.2128 15.2443L10.7899 17.6675C10.6948 17.7657 10.5811 17.8439 10.4555 17.8977C10.3299 17.9515 10.1948 17.9798 10.0581 17.9808C9.92147 17.9819 9.78597 17.9558 9.6595 17.904C9.53304 17.8522 9.41815 17.7757 9.32151 17.6791C9.22488 17.5825 9.14844 17.4676 9.09664 17.3411C9.04484 17.2147 9.01871 17.0791 9.01979 16.9425C9.02087 16.8058 9.04912 16.6708 9.10291 16.5451C9.1567 16.4195 9.23494 16.3058 9.33309 16.2107L11.756 13.7874C11.8321 13.7113 11.8749 13.6079 11.8749 13.5002C11.8749 13.3925 11.8321 13.2892 11.756 13.213L9.33309 10.7901C9.23494 10.695 9.1567 10.5814 9.10291 10.4557C9.04912 10.3301 9.02087 10.195 9.01979 10.0584C9.01871 9.9217 9.04484 9.7862 9.09664 9.65973C9.14844 9.53327 9.22488 9.41837 9.32151 9.32174C9.41815 9.22511 9.53304 9.14866 9.6595 9.09686C9.78597 9.04506 9.92147 9.01894 10.0581 9.02002C10.1948 9.0211 10.3299 9.04935 10.4555 9.10314C10.5811 9.15693 10.6948 9.23517 10.7899 9.33331L13.2128 11.7562C13.289 11.8324 13.3923 11.8751 13.5 11.8751C13.6077 11.8751 13.711 11.8324 13.7872 11.7562L16.2101 9.33331C16.3052 9.23517 16.4189 9.15693 16.5445 9.10314C16.6701 9.04935 16.8052 9.0211 16.9419 9.02002C17.0785 9.01894 17.214 9.04506 17.3405 9.09686C17.4669 9.14866 17.5818 9.22511 17.6785 9.32174C17.7751 9.41837 17.8515 9.53327 17.9033 9.65973C17.9551 9.7862 17.9813 9.9217 17.9802 10.0584C17.9791 10.195 17.9509 10.3301 17.8971 10.4557C17.8433 10.5814 17.765 10.695 17.6669 10.7901Z" fill="#009EAA"/>
</g>
<defs>
<clipPath id="clip0_2231_4440">
<rect width="26" height="26" fill="white" transform="translate(0.5 0.5)"/>
</clipPath>
</defs>
</svg>
