<svg width="23" height="17" viewBox="0 0 23 17" fill="none" xmlns="http://www.w3.org/2000/svg">
<g clip-path="url(#clip0_2209_7394)">
<g clip-path="url(#clip1_2209_7394)">
<path d="M21.4804 4.62286H19.7033C19.6052 4.62438 19.5112 4.66222 19.4394 4.72908C18.8719 3.8231 18.2845 3.09784 17.8288 2.64207C16.2435 1.05681 6.7319 1.05681 5.14664 2.64207C4.69246 3.09705 4.10829 3.81755 3.54393 4.71719C3.47605 4.65844 3.38957 4.62559 3.2998 4.62445H1.52193C1.30395 4.62445 1.12561 4.80358 1.12561 5.02076V5.82132C1.12561 6.03851 1.29999 6.24935 1.514 6.29136L2.59198 6.49744C1.66143 8.57255 1.11293 11.155 1.97531 13.7421V15.2774C1.97531 15.7158 2.08628 16.0701 2.22341 16.0701H4.25413C4.39126 16.0701 4.50223 15.7158 4.50223 15.2774V14.0219C6.3237 14.1963 8.90134 14.3865 11.4869 14.3865C14.0487 14.3865 16.6549 14.1995 18.4732 14.0267V15.2774C18.4732 15.7158 18.5841 16.0701 18.7205 16.0701H20.7512C20.8875 16.0701 20.9985 15.7158 20.9985 15.2774L20.9969 13.7413C21.8585 11.1573 21.3116 8.57652 20.3826 6.5014L21.486 6.29136C21.5937 6.26687 21.6902 6.20738 21.7605 6.12219C21.8307 6.037 21.8708 5.93091 21.8744 5.82053V5.01997C21.8744 4.91527 21.8329 4.81483 21.7591 4.74057C21.6853 4.66632 21.5851 4.62428 21.4804 4.62366V4.62286ZM4.45229 11.0646C4.07963 11.0522 3.72638 10.8955 3.46714 10.6275C3.2079 10.3595 3.06297 10.0012 3.06297 9.62834C3.06297 9.25547 3.2079 8.89721 3.46714 8.62921C3.72638 8.36121 4.07963 8.20447 4.45229 8.19209C4.82495 8.20457 5.17816 8.36141 5.43733 8.62948C5.69649 8.89755 5.84132 9.25586 5.84122 9.62872C5.84111 10.0016 5.69609 10.3598 5.43677 10.6277C5.17746 10.8957 4.82495 11.0523 4.45229 11.0646ZM3.24432 6.95083C4.00525 5.20941 5.065 3.84608 5.70703 3.20247C6.16993 2.73878 8.35442 2.24576 11.4869 2.24576C14.6194 2.24576 16.8039 2.73957 17.2676 3.20326C17.9096 3.84529 18.9686 5.20862 19.7295 6.95083C18.0396 7.13789 14.7478 6.70511 11.4877 6.70511C8.2276 6.70511 4.9358 7.13789 3.24432 6.95083ZM18.5215 11.0646C18.1489 11.0522 17.7956 10.8955 17.5364 10.6275C17.2771 10.3595 17.1322 10.0012 17.1322 9.62834C17.1322 9.25547 17.2771 8.89721 17.5364 8.62921C17.7956 8.36121 18.1489 8.20447 18.5215 8.19209C18.8942 8.20457 19.2474 8.36141 19.5066 8.62948C19.7657 8.89755 19.9106 9.25586 19.9104 9.62872C19.9103 10.0016 19.7653 10.3598 19.506 10.6277C19.2467 10.8957 18.8942 11.0523 18.5215 11.0646Z" fill="#009EAA"/>
</g>
</g>
<defs>
<clipPath id="clip0_2209_7394">
<rect width="22" height="15.8889" fill="white" transform="matrix(-1 0 0 1 22.5 0.555664)"/>
</clipPath>
<clipPath id="clip1_2209_7394">
<rect width="22" height="15.8889" fill="white" transform="translate(0.5 0.555664)"/>
</clipPath>
</defs>
</svg>
