<svg width="25" height="27" viewBox="0 0 25 27" fill="none" xmlns="http://www.w3.org/2000/svg">
<g clip-path="url(#clip0_2570_3481)">
<path d="M15.4167 5.07156C15.4167 4.47312 14.9505 3.98824 14.375 3.98824C14.9505 3.98824 15.4167 3.50336 15.4167 2.90491C15.4167 2.86764 15.415 2.82994 15.4113 2.7931C15.3359 2.22715 14.8646 1.80943 14.3154 1.82155H3.09C2.70209 1.82155 2.31918 1.91558 1.97207 2.09584L0 3.12155V11.7882H2.98707C4.57664 11.7882 6.13665 11.3389 7.5 10.4882H14.3154C14.8646 10.5004 15.3358 10.0826 15.4112 9.51668C15.4704 8.92173 15.055 8.38913 14.4825 8.32716C14.4466 8.32328 14.4108 8.32154 14.3749 8.32154C14.9504 8.32154 15.4166 7.83666 15.4166 7.23821C15.4166 6.63977 14.9504 6.15489 14.3749 6.15489C14.9504 6.15489 15.4167 5.66996 15.4167 5.07156Z" fill="#F2A46F"/>
<path d="M20.4167 7.45508H4.58337V16.1218H20.4167V7.45508Z" fill="#628A27"/>
<path d="M20.4167 5.72168H4.58337V14.3884H20.4167V5.72168Z" fill="#6B962A"/>
<path d="M20.4167 3.98828H4.58337V12.655H20.4167V3.98828Z" fill="#88B337"/>
<path d="M8.75 12.655H20.4167V3.98828H17.0833L8.75 12.655Z" fill="#80A834"/>
<path d="M17.9167 10.9217H7.08335C7.08335 10.4429 6.71045 10.055 6.25 10.055V6.58837C6.71041 6.58837 7.08335 6.20055 7.08335 5.72168H17.9167C17.9167 6.2005 18.2896 6.58837 18.7501 6.58837V10.055C18.2896 10.055 17.9167 10.4429 17.9167 10.9217Z" fill="#6B962A"/>
<path d="M12.5001 10.9217C13.6506 10.9217 14.5834 9.75764 14.5834 8.32169C14.5834 6.88574 13.6506 5.72168 12.5001 5.72168C11.3495 5.72168 10.4167 6.88574 10.4167 8.32169C10.4167 9.75764 11.3495 10.9217 12.5001 10.9217Z" fill="#88B337"/>
<path d="M17.0834 7.88818H16.25V8.75487H17.0834V7.88818Z" fill="#88B337"/>
<path d="M8.7501 7.88818H7.91675V8.75487H8.7501V7.88818Z" fill="#88B337"/>
<path d="M0 10.0549H1.25001C3.09086 10.0549 4.58333 8.50274 4.58333 6.58829H7.91665C9.2975 6.58829 10.4167 5.42437 10.4167 3.98828H0" fill="#FFB782"/>
<path d="M13.3009 19.052L13.1946 19.1122H10C9.30963 19.1122 8.75003 19.6942 8.75003 20.4122C8.75003 21.1303 9.30963 21.7122 10 21.7122H9.16669L4.42877 19.4554C3.745 19.1296 2.93712 19.442 2.62375 20.1531C2.54207 20.3382 2.5 20.5392 2.5 20.7429V20.8374C2.5 21.3738 2.79167 21.8644 3.2529 22.104L8.1108 24.6303C8.80539 24.9908 9.57079 25.1785 10.3471 25.178H19.1667V19.1114C17.3538 18.0346 15.1338 18.012 13.3009 19.052Z" fill="#FFB782"/>
<path d="M24.5833 19.1123H19.1666V25.179H24.5833V19.1123Z" fill="#DE4C3C"/>
<path d="M21.25 23.0122H20.4166V23.8789H21.25V23.0122Z" fill="#7A4930"/>
<path d="M13.3334 22.145H10C9.77003 22.145 9.58337 21.9508 9.58337 21.7116C9.58337 21.4724 9.77003 21.2783 10 21.2783H13.3334C13.5634 21.2783 13.75 21.4724 13.75 21.7116C13.75 21.9508 13.5634 22.145 13.3334 22.145Z" fill="#F2A46F"/>
<path d="M4.16667 12.1349V16.1216C4.16667 16.3608 4.35333 16.5549 4.58333 16.5549H20.4167C20.6467 16.5549 20.8333 16.3608 20.8333 16.1216V3.9882C20.8333 3.749 20.6467 3.55487 20.4167 3.55487H15.6871C15.7821 3.35252 15.8321 3.13021 15.8333 2.90487C15.8333 2.06723 15.1804 1.38818 14.375 1.38818H3.14207C2.66498 1.38818 2.19247 1.48264 1.74998 1.66726L0.261655 2.28562L0.571655 3.09076L2.0583 2.47155C2.40287 2.32813 2.7704 2.25444 3.14162 2.25487H14.3749C14.72 2.25487 14.9999 2.54605 14.9999 2.90487C14.9999 3.26369 14.72 3.55487 14.3749 3.55487H0V4.42156H9.95835C9.75918 5.42991 8.90627 6.15361 7.91669 6.15489H4.58337C4.35337 6.15489 4.16671 6.34901 4.16671 6.58821C4.16503 8.2626 2.86004 9.61979 1.25005 9.62154H0V10.4882H1.25001C2.38417 10.4878 3.45667 9.95264 4.16667 9.03265V11.2608C3.77626 11.3211 3.38208 11.3523 2.98707 11.3549H0V12.2216H2.98707C3.38167 12.219 3.77585 12.1899 4.16667 12.1349ZM4.99998 13.0882H20V13.9549H4.99998V13.0882ZM4.99998 15.6882V14.8215H20V15.6882H4.99998ZM20 4.42156V12.2216H4.99998V7.02153H5.83333V10.0549C5.83333 10.2941 6.01999 10.4882 6.24999 10.4882C6.47999 10.4882 6.66664 10.6823 6.66664 10.9215C6.66664 11.1607 6.8533 11.3548 7.0833 11.3548H17.9167C18.1467 11.3548 18.3333 11.1607 18.3333 10.9215C18.3333 10.6823 18.52 10.4882 18.75 10.4882C18.98 10.4882 19.1666 10.2941 19.1666 10.0549V6.58821C19.1666 6.34901 18.98 6.15489 18.75 6.15489C18.52 6.15489 18.3333 5.96076 18.3333 5.72157C18.3333 5.48237 18.1467 5.28824 17.9167 5.28824H10.5479C10.6734 5.01438 10.7583 4.72187 10.8 4.42156H20ZM10.8334 8.32154C10.8334 7.12682 11.5808 6.15489 12.5 6.15489C13.4192 6.15489 14.1667 7.12686 14.1667 8.32154C14.1667 9.51621 13.4192 10.4882 12.5 10.4882C11.5808 10.4882 10.8334 9.51625 10.8334 8.32154ZM14.2463 6.15489H17.5713C17.6979 6.52454 17.9779 6.81572 18.3334 6.94745V9.69566C17.9779 9.82739 17.6979 10.1186 17.5713 10.4882H14.2463C15.2513 9.23283 15.2513 7.41024 14.2463 6.15489ZM9.95457 6.15489H10.7542C9.74918 7.41024 9.74918 9.23287 10.7542 10.4882H7.42918C7.30251 10.1186 7.02253 9.82739 6.66669 9.69566V7.02157H7.91669C8.67878 7.02157 9.41043 6.71043 9.9542 6.15489H9.95457Z" fill="black"/>
<path d="M17.0834 7.88818H16.25V8.75487H17.0834V7.88818Z" fill="black"/>
<path d="M8.7501 7.88818H7.91675V8.75487H8.7501V7.88818Z" fill="black"/>
<path d="M24.5834 18.6783H19.2696C17.3513 17.5755 15.0234 17.5724 13.103 18.6709L10 18.6783C9.07963 18.6783 8.33338 19.454 8.33297 20.4112C8.33297 20.5646 8.35257 20.7176 8.39132 20.8658L4.60214 19.0609C3.70921 18.6359 2.65381 19.0436 2.24507 19.9722C2.13842 20.2145 2.08339 20.4771 2.08339 20.7431V20.8376C2.08088 21.5387 2.46215 22.1801 3.06628 22.4916L7.92463 25.018C8.67712 25.408 9.50629 25.6112 10.3471 25.6116H24.5834C24.8134 25.6116 25.0001 25.4175 25.0001 25.1783V19.1116C25 18.8724 24.8134 18.6783 24.5834 18.6783ZM8.29754 24.2428L3.43919 21.7164C3.11836 21.5509 2.91543 21.2103 2.9167 20.8376V20.7432C2.91547 20.2011 3.33712 19.7599 3.85838 19.7587C3.99546 19.7582 4.13045 19.789 4.25507 19.8483L8.99299 22.1056C9.04757 22.1316 9.10674 22.145 9.16673 22.145H13.3334C13.5634 22.145 13.7501 21.9509 13.7501 21.7117C13.7501 21.4725 13.5634 21.2784 13.3334 21.2784H10.0001C9.53967 21.2784 9.16673 20.8906 9.16673 20.4117C9.16673 19.9329 9.53963 19.545 10.0001 19.545H13.1947C13.2643 19.545 13.3326 19.5268 13.3938 19.4926L13.5005 19.4319C15.1305 18.4994 17.1009 18.4769 18.7501 19.3717V24.745H10.3471C9.63587 24.7446 8.93419 24.5725 8.29754 24.2428ZM24.1667 24.745H19.5834V19.545H24.1667V24.745Z" fill="black"/>
<path d="M21.25 23.0122H20.4166V23.8789H21.25V23.0122Z" fill="black"/>
</g>
<defs>
<clipPath id="clip0_2570_3481">
<rect width="25" height="26" fill="white" transform="translate(0 0.5)"/>
</clipPath>
</defs>
</svg>
