<svg width="26" height="26" viewBox="0 0 26 26" fill="none" xmlns="http://www.w3.org/2000/svg">
<path d="M13.273 20.0482C13.9586 20.0013 14.6386 19.8918 15.3043 19.7211C16.1265 19.9682 16.9943 20.0242 17.8414 19.8846C17.8752 19.8805 17.9092 19.878 17.9433 19.8771C18.2455 19.8771 18.642 20.0504 19.2205 20.4155V19.8153C19.2208 19.7107 19.249 19.6082 19.3024 19.5182C19.3557 19.4283 19.4322 19.3543 19.5238 19.304C19.7759 19.1617 20.0088 19.0017 20.2226 18.824C21.0654 18.1199 21.541 17.1796 21.541 16.1851C21.541 15.8568 21.489 15.5296 21.3861 15.2176C21.6418 14.7475 21.8454 14.2567 21.9971 13.7454C22.4846 14.4658 22.7467 15.3162 22.75 16.1851C22.75 17.5371 22.113 18.798 21.0091 19.72C20.8242 19.8738 20.631 20.0154 20.4295 20.1446V21.5508C20.4295 22.034 19.864 22.3124 19.4653 22.0242C19.0876 21.7463 18.6972 21.486 18.2953 21.2442C18.1792 21.1773 18.0591 21.1176 17.9357 21.0655C17.6003 21.1151 17.2618 21.1401 16.9228 21.1402C15.5469 21.1402 14.2751 20.7318 13.273 20.0482ZM5.99192 17.237C4.25425 15.7821 3.25 13.7985 3.25 11.673C3.25 7.33097 7.40133 3.85889 12.4703 3.85889C17.5402 3.85889 21.6927 7.32989 21.6927 11.673C21.6927 16.015 17.5402 19.486 12.4703 19.486C11.9004 19.486 11.3389 19.4426 10.7857 19.356C10.5473 19.4112 9.59183 19.9713 8.216 20.9626C7.71767 21.3222 7.01133 20.9755 7.01133 20.37V17.9726C6.65451 17.752 6.31417 17.5058 5.993 17.2359M10.8193 17.8772C10.8611 17.8772 10.9034 17.8805 10.946 17.887C11.4443 17.9693 11.9524 18.0108 12.4703 18.0115C16.7527 18.0115 20.1793 15.1461 20.1793 11.6719C20.1793 8.19872 16.7527 5.3333 12.4713 5.3333C8.19 5.3333 4.76125 8.20089 4.76125 11.673C4.76125 13.3521 5.56292 14.9338 6.97775 16.1179C7.33453 16.4154 7.72308 16.6827 8.14342 16.9196C8.25744 16.9828 8.35262 17.0752 8.41924 17.1873C8.48585 17.2995 8.52152 17.4272 8.52258 17.5576V18.94C9.61133 18.2196 10.3274 17.8772 10.8193 17.8772Z" fill="#038A37"/>
<path d="M8.73389 13C9.05712 13 9.36711 12.8716 9.59567 12.643C9.82423 12.4145 9.95264 12.1045 9.95264 11.7812C9.95264 11.458 9.82423 11.148 9.59567 10.9195C9.36711 10.6909 9.05712 10.5625 8.73389 10.5625C8.41065 10.5625 8.10066 10.6909 7.8721 10.9195C7.64354 11.148 7.51514 11.458 7.51514 11.7812C7.51514 12.1045 7.64354 12.4145 7.8721 12.643C8.10066 12.8716 8.41065 13 8.73389 13ZM12.6956 13C13.0189 13 13.3289 12.8716 13.5574 12.643C13.786 12.4145 13.9144 12.1045 13.9144 11.7812C13.9144 11.458 13.786 11.148 13.5574 10.9195C13.3289 10.6909 13.0189 10.5625 12.6956 10.5625C12.3724 10.5625 12.0624 10.6909 11.8339 10.9195C11.6053 11.148 11.4769 11.458 11.4769 11.7812C11.4769 12.1045 11.6053 12.4145 11.8339 12.643C12.0624 12.8716 12.3724 13 12.6956 13ZM16.6563 13C16.9795 13 17.2895 12.8716 17.5181 12.643C17.7466 12.4145 17.8751 12.1045 17.8751 11.7812C17.8751 11.458 17.7466 11.148 17.5181 10.9195C17.2895 10.6909 16.9795 10.5625 16.6563 10.5625C16.3331 10.5625 16.0231 10.6909 15.7945 10.9195C15.566 11.148 15.4376 11.458 15.4376 11.7812C15.4376 12.1045 15.566 12.4145 15.7945 12.643C16.0231 12.8716 16.3331 13 16.6563 13Z" fill="#038A37"/>
</svg>
