<svg width="335" height="294" viewBox="0 0 335 294" fill="none" xmlns="http://www.w3.org/2000/svg">
<path fill-rule="evenodd" clip-rule="evenodd" d="M269.803 41.8385C270.854 41.8385 270.855 40.1899 269.803 40.1899C268.752 40.1899 268.75 41.8385 269.803 41.8385Z" fill="#F2F8FD"/>
<path fill-rule="evenodd" clip-rule="evenodd" d="M276.879 62.7203C277.93 62.7203 277.932 61.0718 276.879 61.0718C275.828 61.0718 275.827 62.7203 276.879 62.7203Z" fill="#F2F8FD"/>
<path fill-rule="evenodd" clip-rule="evenodd" d="M287.221 86.3497C288.272 86.3497 288.273 84.7012 287.221 84.7012C286.17 84.7012 286.168 86.3497 287.221 86.3497Z" fill="#F2F8FD"/>
<path fill-rule="evenodd" clip-rule="evenodd" d="M261.642 73.7106C262.693 73.7106 262.694 72.062 261.642 72.062C260.591 72.062 260.589 73.7106 261.642 73.7106Z" fill="#F2F8FD"/>
<path fill-rule="evenodd" clip-rule="evenodd" d="M295.926 42.9376C296.977 42.9376 296.978 41.2891 295.926 41.2891C294.875 41.2891 294.873 42.9376 295.926 42.9376Z" fill="#F2F8FD"/>
<path fill-rule="evenodd" clip-rule="evenodd" d="M294.295 29.7491C295.346 29.7491 295.348 28.1006 294.295 28.1006C293.244 28.1006 293.243 29.7491 294.295 29.7491Z" fill="#F2F8FD"/>
<path fill-rule="evenodd" clip-rule="evenodd" d="M207.457 40.4274C208.508 40.4274 208.509 38.7788 207.457 38.7788C206.406 38.7788 206.404 40.4274 207.457 40.4274Z" fill="#F2F8FD"/>
<path fill-rule="evenodd" clip-rule="evenodd" d="M229.711 37.7218C230.762 37.7218 230.763 36.0732 229.711 36.0732C228.66 36.0732 228.658 37.7218 229.711 37.7218Z" fill="#F2F8FD"/>
<path fill-rule="evenodd" clip-rule="evenodd" d="M243.954 49.4459C245.004 49.4459 245.006 47.7974 243.954 47.7974C242.903 47.7974 242.901 49.4459 243.954 49.4459Z" fill="#F2F8FD"/>
<path fill-rule="evenodd" clip-rule="evenodd" d="M256.417 16.9796C257.468 16.9796 257.47 15.3311 256.417 15.3311C255.367 15.3311 255.365 16.9796 256.417 16.9796Z" fill="#F2F8FD"/>
<path fill-rule="evenodd" clip-rule="evenodd" d="M281.233 139.103C282.283 139.103 282.285 137.455 281.233 137.455C280.182 137.455 280.18 139.103 281.233 139.103Z" fill="#F2F8FD"/>
<path fill-rule="evenodd" clip-rule="evenodd" d="M279.058 113.276C280.109 113.276 280.11 111.627 279.058 111.627C278.007 111.627 278.005 113.276 279.058 113.276Z" fill="#F2F8FD"/>
<path fill-rule="evenodd" clip-rule="evenodd" d="M249.666 131.96C250.717 131.96 250.718 130.311 249.666 130.311C248.615 130.311 248.613 131.96 249.666 131.96Z" fill="#F2F8FD"/>
<path fill-rule="evenodd" clip-rule="evenodd" d="M260.551 97.8893C261.602 97.8893 261.604 96.2407 260.551 96.2407C259.501 96.2407 259.499 97.8893 260.551 97.8893Z" fill="#F2F8FD"/>
<path fill-rule="evenodd" clip-rule="evenodd" d="M294.295 118.222C295.346 118.222 295.348 116.573 294.295 116.573C293.244 116.573 293.243 118.222 294.295 118.222Z" fill="#F2F8FD"/>
<path fill-rule="evenodd" clip-rule="evenodd" d="M284.498 192.956C285.549 192.956 285.55 191.308 284.498 191.308C283.447 191.308 283.445 192.956 284.498 192.956Z" fill="#F2F8FD"/>
<path fill-rule="evenodd" clip-rule="evenodd" d="M242.591 203.397C243.642 203.397 243.644 201.749 242.591 201.749C241.54 201.749 241.539 203.397 242.591 203.397Z" fill="#F2F8FD"/>
<path fill-rule="evenodd" clip-rule="evenodd" d="M285.586 163.282C286.637 163.282 286.639 161.634 285.586 161.634C284.535 161.634 284.534 163.282 285.586 163.282Z" fill="#F2F8FD"/>
<path fill-rule="evenodd" clip-rule="evenodd" d="M272.526 178.669C273.576 178.669 273.578 177.02 272.526 177.02C271.475 177.02 271.473 178.669 272.526 178.669Z" fill="#F2F8FD"/>
<path fill-rule="evenodd" clip-rule="evenodd" d="M273.614 209.991C274.665 209.991 274.666 208.343 273.614 208.343C272.563 208.343 272.561 209.991 273.614 209.991Z" fill="#F2F8FD"/>
<path fill-rule="evenodd" clip-rule="evenodd" d="M261.642 196.803C262.693 196.803 262.694 195.154 261.642 195.154C260.591 195.154 260.589 196.803 261.642 196.803Z" fill="#F2F8FD"/>
<path fill-rule="evenodd" clip-rule="evenodd" d="M232.798 196.803C233.848 196.803 233.85 195.154 232.798 195.154C231.747 195.154 231.745 196.803 232.798 196.803Z" fill="#F2F8FD"/>
<path fill-rule="evenodd" clip-rule="evenodd" d="M256.742 118.771C257.793 118.771 257.795 117.123 256.742 117.123C255.691 117.123 255.69 118.771 256.742 118.771Z" fill="#F2F8FD"/>
<path fill-rule="evenodd" clip-rule="evenodd" d="M203.893 17.8815C204.944 17.8815 204.946 16.2329 203.893 16.2329C202.842 16.2329 202.841 17.8815 203.893 17.8815Z" fill="#F2F8FD"/>
<path fill-rule="evenodd" clip-rule="evenodd" d="M114.159 35.7941C115.21 35.7941 115.212 34.1455 114.159 34.1455C113.109 34.1455 113.107 35.7941 114.159 35.7941Z" fill="#F2F8FD"/>
<path fill-rule="evenodd" clip-rule="evenodd" d="M126.676 46.7848C127.726 46.7848 127.728 45.1362 126.676 45.1362C125.625 45.1362 125.623 46.7848 126.676 46.7848Z" fill="#F2F8FD"/>
<path fill-rule="evenodd" clip-rule="evenodd" d="M144.09 28.1007C145.14 28.1007 145.142 26.4521 144.09 26.4521C143.04 26.4521 143.037 28.1007 144.09 28.1007Z" fill="#F2F8FD"/>
<path fill-rule="evenodd" clip-rule="evenodd" d="M152.253 39.3658C153.303 39.3658 153.305 37.7173 152.253 37.7173C151.203 37.7173 151.2 39.3658 152.253 39.3658Z" fill="#F2F8FD"/>
<path fill-rule="evenodd" clip-rule="evenodd" d="M67.3547 39.6407C68.4051 39.6407 68.4072 37.9922 67.3547 37.9922C66.3044 37.9922 66.3022 39.6407 67.3547 39.6407Z" fill="#F2F8FD"/>
<path fill-rule="evenodd" clip-rule="evenodd" d="M80.4192 58.3243C81.4695 58.3243 81.4717 56.6758 80.4192 56.6758C79.3688 56.6758 79.3667 58.3243 80.4192 58.3243Z" fill="#F2F8FD"/>
<path fill-rule="evenodd" clip-rule="evenodd" d="M90.2129 48.4327C91.2632 48.4327 91.2654 46.7842 90.2129 46.7842C89.1625 46.7842 89.1604 48.4327 90.2129 48.4327Z" fill="#F2F8FD"/>
<path fill-rule="evenodd" clip-rule="evenodd" d="M97.0715 16.0778C98.1219 16.0778 98.124 14.4292 97.0715 14.4292C96.0212 14.4292 96.019 16.0778 97.0715 16.0778Z" fill="#F2F8FD"/>
<path fill-rule="evenodd" clip-rule="evenodd" d="M107.627 55.027C108.677 55.027 108.679 53.3784 107.627 53.3784C106.577 53.3784 106.574 55.027 107.627 55.027Z" fill="#F2F8FD"/>
<path fill-rule="evenodd" clip-rule="evenodd" d="M66.2644 92.3942C67.3147 92.3942 67.3169 90.7456 66.2644 90.7456C65.2141 90.7456 65.2119 92.3942 66.2644 92.3942Z" fill="#F2F8FD"/>
<path fill-rule="evenodd" clip-rule="evenodd" d="M89.1262 119.321C90.1765 119.321 90.1787 117.672 89.1262 117.672C88.0759 117.672 88.0737 119.321 89.1262 119.321Z" fill="#F2F8FD"/>
<path fill-rule="evenodd" clip-rule="evenodd" d="M91.3013 86.3497C92.3516 86.3497 92.3538 84.7012 91.3013 84.7012C90.2509 84.7012 90.2488 86.3497 91.3013 86.3497Z" fill="#F2F8FD"/>
<path fill-rule="evenodd" clip-rule="evenodd" d="M105.45 117.123C106.501 117.123 106.503 115.474 105.45 115.474C104.4 115.474 104.398 117.123 105.45 117.123Z" fill="#F2F8FD"/>
<path fill-rule="evenodd" clip-rule="evenodd" d="M59.7361 140.202C60.7864 140.202 60.7886 138.554 59.7361 138.554C58.6857 138.554 58.6836 140.202 59.7361 140.202Z" fill="#F2F8FD"/>
<path fill-rule="evenodd" clip-rule="evenodd" d="M41.2314 176.471C42.2818 176.471 42.2839 174.822 41.2314 174.822C40.1811 174.822 40.1789 176.471 41.2314 176.471Z" fill="#F2F8FD"/>
<path fill-rule="evenodd" clip-rule="evenodd" d="M61.9128 198.451C62.9632 198.451 62.9653 196.803 61.9128 196.803C60.8625 196.803 60.8603 198.451 61.9128 198.451Z" fill="#F2F8FD"/>
<path fill-rule="evenodd" clip-rule="evenodd" d="M76.0657 180.867C77.116 180.867 77.1182 179.218 76.0657 179.218C75.0153 179.218 75.0132 180.867 76.0657 180.867Z" fill="#F2F8FD"/>
<path fill-rule="evenodd" clip-rule="evenodd" d="M61.3686 173.723C62.419 173.723 62.4212 172.074 61.3686 172.074C60.3183 172.074 60.3161 173.723 61.3686 173.723Z" fill="#F2F8FD"/>
<path fill-rule="evenodd" clip-rule="evenodd" d="M45.5889 200.1C46.6392 200.1 46.6414 198.451 45.5889 198.451C44.5385 198.451 44.5363 200.1 45.5889 200.1Z" fill="#F2F8FD"/>
<path fill-rule="evenodd" clip-rule="evenodd" d="M81.5076 208.342C82.5579 208.342 82.5601 206.694 81.5076 206.694C80.4572 206.694 80.4551 208.342 81.5076 208.342Z" fill="#F2F8FD"/>
<path fill-rule="evenodd" clip-rule="evenodd" d="M88.582 190.209C89.6324 190.209 89.6345 188.56 88.582 188.56C87.5317 188.56 87.5295 190.209 88.582 190.209Z" fill="#F2F8FD"/>
<path fill-rule="evenodd" clip-rule="evenodd" d="M117.421 206.145C118.471 206.145 118.473 204.496 117.421 204.496C116.37 204.496 116.368 206.145 117.421 206.145Z" fill="#F2F8FD"/>
<path fill-rule="evenodd" clip-rule="evenodd" d="M41.2314 153.391C42.2818 153.391 42.2839 151.742 41.2314 151.742C40.1811 151.742 40.1789 153.391 41.2314 153.391Z" fill="#F2F8FD"/>
<path fill-rule="evenodd" clip-rule="evenodd" d="M75.5195 132.509C76.5699 132.509 76.572 130.86 75.5195 130.86C74.4692 130.86 74.467 132.509 75.5195 132.509Z" fill="#F2F8FD"/>
<path fill-rule="evenodd" clip-rule="evenodd" d="M68.4451 113.825C69.4954 113.825 69.4976 112.177 68.4451 112.177C67.3947 112.177 67.3926 113.825 68.4451 113.825Z" fill="#F2F8FD"/>
<path fill-rule="evenodd" clip-rule="evenodd" d="M50.4866 118.771C51.5369 118.771 51.5391 117.123 50.4866 117.123C49.4362 117.123 49.4341 118.771 50.4866 118.771Z" fill="#F2F8FD"/>
<path fill-rule="evenodd" clip-rule="evenodd" d="M47.7637 90.1959C48.814 90.1959 48.8162 88.5474 47.7637 88.5474C46.7133 88.5474 46.7112 90.1959 47.7637 90.1959Z" fill="#F2F8FD"/>
<path fill-rule="evenodd" clip-rule="evenodd" d="M63.5435 74.8102C64.5938 74.8102 64.596 73.1616 63.5435 73.1616C62.4931 73.1616 62.4909 74.8102 63.5435 74.8102Z" fill="#F2F8FD"/>
<path fill-rule="evenodd" clip-rule="evenodd" d="M55.3826 56.6754C56.4329 56.6754 56.4351 55.0269 55.3826 55.0269C54.3322 55.0269 54.3301 56.6754 55.3826 56.6754Z" fill="#F2F8FD"/>
<path fill-rule="evenodd" clip-rule="evenodd" d="M40.6892 70.4137C41.7395 70.4137 41.7417 68.7651 40.6892 68.7651C39.6389 68.7651 39.6367 70.4137 40.6892 70.4137Z" fill="#F2F8FD"/>
<path fill-rule="evenodd" clip-rule="evenodd" d="M39.6008 34.6949C40.6512 34.6949 40.6533 33.0464 39.6008 33.0464C38.5505 33.0464 38.5483 34.6949 39.6008 34.6949Z" fill="#F2F8FD"/>
<path fill-rule="evenodd" clip-rule="evenodd" d="M65.9155 23.2926C66.9659 23.2926 66.968 21.644 65.9155 21.644C64.8652 21.644 64.863 23.2926 65.9155 23.2926Z" fill="#F2F8FD"/>
<path fill-rule="evenodd" clip-rule="evenodd" d="M114.159 26.4518C115.21 26.4518 115.212 24.8032 114.159 24.8032C113.109 24.8032 113.107 26.4518 114.159 26.4518Z" fill="#F2F8FD"/>
<path fill-rule="evenodd" clip-rule="evenodd" d="M296.47 184.713C297.521 184.713 297.523 183.065 296.47 183.065C295.419 183.065 295.418 184.713 296.47 184.713Z" fill="#F2F8FD"/>
<path fill-rule="evenodd" clip-rule="evenodd" d="M132.662 112.727C133.712 112.727 133.714 111.078 132.662 111.078C131.612 111.078 131.609 112.727 132.662 112.727Z" fill="#F2F8FD"/>
<path fill-rule="evenodd" clip-rule="evenodd" d="M110.35 124.266C111.4 124.266 111.402 122.618 110.35 122.618C109.3 122.618 109.297 124.266 110.35 124.266Z" fill="#F2F8FD"/>
<path fill-rule="evenodd" clip-rule="evenodd" d="M212.66 90.7457C213.711 90.7457 213.713 89.0972 212.66 89.0972C211.609 89.0972 211.608 90.7457 212.66 90.7457Z" fill="#F2F8FD"/>
<path fill-rule="evenodd" clip-rule="evenodd" d="M214.293 105.033C215.344 105.033 215.346 103.385 214.293 103.385C213.242 103.385 213.241 105.033 214.293 105.033Z" fill="#F2F8FD"/>
<path fill-rule="evenodd" clip-rule="evenodd" d="M232.251 123.717C233.302 123.717 233.304 122.068 232.251 122.068C231.201 122.068 231.199 123.717 232.251 123.717Z" fill="#F2F8FD"/>
<path fill-rule="evenodd" clip-rule="evenodd" d="M102.669 79.8783L97.1462 76.8977L102.887 71.208L111.377 75.6684L102.669 79.8783Z" fill="#F52D56"/>
<path fill-rule="evenodd" clip-rule="evenodd" d="M146.545 108.866L142.639 109.138L142.222 106.756L144.979 104.921L146.545 108.866Z" fill="#23BBB8"/>
<path fill-rule="evenodd" clip-rule="evenodd" d="M91.7496 143.164L87.8421 143.435L87.4258 141.054L90.1801 139.219L91.7496 143.164Z" fill="#23BBB8"/>
<path fill-rule="evenodd" clip-rule="evenodd" d="M148.873 89.1556L144.965 89.4271L144.553 87.0438L147.305 85.209L148.873 89.1556Z" fill="#23BBB8"/>
<path fill-rule="evenodd" clip-rule="evenodd" d="M70.2215 88.1565L66.3124 88.4275L65.8999 86.0458L68.6531 84.2104L70.2215 88.1565Z" fill="#23BBB8"/>
<path fill-rule="evenodd" clip-rule="evenodd" d="M190.599 154.797L186.691 155.069L186.278 152.687L189.031 150.851L190.599 154.797Z" fill="#23BBB8"/>
<path fill-rule="evenodd" clip-rule="evenodd" d="M130.45 66.8652L126.542 67.135L126.127 64.7545L128.884 62.918L130.45 66.8652Z" fill="#23BBB8"/>
<path fill-rule="evenodd" clip-rule="evenodd" d="M202.08 118.759L198.174 119.03L197.76 116.649L200.512 114.814L202.08 118.759Z" fill="#23BBB8"/>
<path fill-rule="evenodd" clip-rule="evenodd" d="M218.202 81.8557L214.294 82.1266L213.881 79.7455L216.633 77.9102L218.202 81.8557Z" fill="#23BBB8"/>
<path fill-rule="evenodd" clip-rule="evenodd" d="M182.309 169.683L178.402 169.953L177.987 167.573L180.742 165.736L182.309 169.683Z" fill="#23BBB8"/>
<path fill-rule="evenodd" clip-rule="evenodd" d="M169.094 106.898L169.294 109.35L166.364 107.98L166.174 104.71L169.094 106.898Z" fill="#EB008B"/>
<path fill-rule="evenodd" clip-rule="evenodd" d="M61.9546 125.014L59.6792 126.227L59.7505 123.155L62.8177 121.599L61.9546 125.014Z" fill="#EB008B"/>
<path fill-rule="evenodd" clip-rule="evenodd" d="M171.016 193.253L168.738 194.469L168.813 191.396L171.879 189.84L171.016 193.253Z" fill="#EB008B"/>
<path fill-rule="evenodd" clip-rule="evenodd" d="M108.243 102.084L105.825 103.032L106.296 99.9902L109.54 98.7944L108.243 102.084Z" fill="#EB008B"/>
<path fill-rule="evenodd" clip-rule="evenodd" d="M148.038 163.525L150.656 163.493L149.011 166.151L145.525 166.123L148.038 163.525Z" fill="#EB008B"/>
<path fill-rule="evenodd" clip-rule="evenodd" d="M130.362 169.007L126.461 170.3L125.347 166.301L130.058 164.788L130.362 169.007Z" fill="#FFD200"/>
<path fill-rule="evenodd" clip-rule="evenodd" d="M105.232 118.223L105.458 122.102L101.057 121.983L100.832 117.312L105.232 118.223Z" fill="#FFD200"/>
<path fill-rule="evenodd" clip-rule="evenodd" d="M82.9484 65.2755L79.0458 66.568L77.9324 62.5681L82.6447 61.0547L82.9484 65.2755Z" fill="#FFD200"/>
<path fill-rule="evenodd" clip-rule="evenodd" d="M158.16 62.5088L154.259 63.7996L153.144 59.8002L157.857 58.2891L158.16 62.5088Z" fill="#FFD200"/>
<path fill-rule="evenodd" clip-rule="evenodd" d="M131.054 89.5247L127.154 90.8172L126.041 86.8184L130.751 85.3066L131.054 89.5247Z" fill="#FFD200"/>
<path fill-rule="evenodd" clip-rule="evenodd" d="M210.976 143.955L207.076 145.248L205.962 141.249L210.673 139.734L210.976 143.955Z" fill="#FFD200"/>
<path fill-rule="evenodd" clip-rule="evenodd" d="M115.849 147.79L112.896 145.091L117.915 142.541L122.474 146.616L115.849 147.79Z" fill="#1B75BB"/>
<path fill-rule="evenodd" clip-rule="evenodd" d="M84.5575 113.204L81.6008 110.16L86.6403 107.563L91.2079 112.162L84.5575 113.204Z" fill="#F52D56"/>
<path fill-rule="evenodd" clip-rule="evenodd" d="M63.7007 156.181L64.1627 152.96L68.3864 154.509L67.7377 159.431L63.7007 156.181Z" fill="#F52D56"/>
<path fill-rule="evenodd" clip-rule="evenodd" d="M200.806 63.0059L203.409 60.8672L205.507 64.6429L201.568 67.9494L200.806 63.0059Z" fill="#F52D56"/>
<path fill-rule="evenodd" clip-rule="evenodd" d="M226.522 63.0059L229.123 60.8672L231.222 64.6429L227.284 67.9494L226.522 63.0059Z" fill="#1B75BB"/>
<path fill-rule="evenodd" clip-rule="evenodd" d="M149.666 148.753L144.788 150.824L144.936 144.637L151.399 141.884L149.666 148.753Z" fill="#EB008B"/>
<path fill-rule="evenodd" clip-rule="evenodd" d="M244.955 109.962L240.076 112.033L240.226 105.846L246.687 103.093L244.955 109.962Z" fill="#F52D56"/>
<path fill-rule="evenodd" clip-rule="evenodd" d="M217.051 100.685L216.865 105.275L211.538 102.642L211.773 96.5522L217.051 100.685Z" fill="#F52D56"/>
<path fill-rule="evenodd" clip-rule="evenodd" d="M109.935 165.244L102.085 167.844L99.8428 159.795L109.325 156.75L109.935 165.244Z" fill="#FFD200"/>
<path fill-rule="evenodd" clip-rule="evenodd" d="M295.341 165.606L290.626 165.932L290.125 163.058L293.45 160.841L295.341 165.606Z" fill="#23BBB8"/>
<path fill-rule="evenodd" clip-rule="evenodd" d="M252.816 175.434L248.102 175.762L250.926 170.673L252.816 175.434Z" fill="#23BBB8"/>
<path fill-rule="evenodd" clip-rule="evenodd" d="M247.586 152.595L242.869 152.922L242.371 150.046L245.692 147.831L247.586 152.595Z" fill="#23BBB8"/>
<path fill-rule="evenodd" clip-rule="evenodd" d="M225.349 125.691L220.632 126.016L220.132 123.143L223.458 120.927L225.349 125.691Z" fill="#23BBB8"/>
<path fill-rule="evenodd" clip-rule="evenodd" d="M143.178 91.6347L138.464 91.9622L137.964 89.0877L141.288 86.8726L143.178 91.6347Z" fill="#23BBB8"/>
<path fill-rule="evenodd" clip-rule="evenodd" d="M162.639 47.0923L157.922 47.4192L157.422 44.5452L160.745 42.3296L162.639 47.0923Z" fill="#23BBB8"/>
<path fill-rule="evenodd" clip-rule="evenodd" d="M266.581 159.7L266.822 162.658L263.285 161.005L263.056 157.058L266.581 159.7Z" fill="#F52D56"/>
<path fill-rule="evenodd" clip-rule="evenodd" d="M265.637 144.85L262.887 146.317L262.976 142.608L266.68 140.73L265.637 144.85Z" fill="#F52D56"/>
<path fill-rule="evenodd" clip-rule="evenodd" d="M173.46 61.5627L170.71 63.0288L170.799 59.3201L174.502 57.4424L173.46 61.5627Z" fill="#F52D56"/>
<path fill-rule="evenodd" clip-rule="evenodd" d="M258.793 120.433L254.086 121.991L252.739 117.164L258.428 115.339L258.793 120.433Z" fill="#FFD200"/>
<path fill-rule="evenodd" clip-rule="evenodd" d="M234.245 172.065L229.537 173.626L228.194 168.799L233.878 166.974L234.245 172.065Z" fill="#FFD200"/>
<path fill-rule="evenodd" clip-rule="evenodd" d="M172.678 24.3413L175.82 21.7603L178.352 26.3169L173.598 30.308L172.678 24.3413Z" fill="#F52D56"/>
<path fill-rule="evenodd" clip-rule="evenodd" d="M235.861 188.029L226.369 188.686L225.362 182.904L232.049 178.445L235.861 188.029Z" fill="#007AFF"/>
<path fill-rule="evenodd" clip-rule="evenodd" d="M281.408 127.068L281.184 132.608L274.752 129.43L275.035 122.08L281.408 127.068Z" fill="#F52D56"/>
<path fill-rule="evenodd" clip-rule="evenodd" d="M130.45 183.863L126.542 184.133L126.127 181.752L128.884 179.915L130.45 183.863Z" fill="#23BBB8"/>
<path fill-rule="evenodd" clip-rule="evenodd" d="M108.166 189.571L104.259 189.84L103.844 187.46L106.598 185.623L108.166 189.571Z" fill="#23BBB8"/>
<path fill-rule="evenodd" clip-rule="evenodd" d="M82.9484 182.273L79.0458 183.566L77.9324 179.566L82.6447 178.052L82.9484 182.273Z" fill="#FFD200"/>
<path fill-rule="evenodd" clip-rule="evenodd" d="M158.16 179.506L154.259 180.798L153.144 176.798L157.857 175.287L158.16 179.506Z" fill="#FFD200"/>
<path fill-rule="evenodd" clip-rule="evenodd" d="M122.665 163.727C122.665 163.727 123.42 164.565 122.617 166.633C121.81 168.713 118.155 180.818 121.65 182.472C121.65 182.472 118.075 184.111 114.953 180.107C111.741 175.987 116.106 164.252 119.595 161.959L122.665 163.727Z" fill="#4252FF"/>
<path fill-rule="evenodd" clip-rule="evenodd" d="M104.387 155.406C103.474 157.62 99.3628 170.572 103.421 172.513C103.421 172.513 99.3013 174.138 95.6436 169.661C91.8722 165.046 95.4287 155.275 99.0967 149.693L104.387 155.406Z" fill="#4252FF"/>
<path fill-rule="evenodd" clip-rule="evenodd" d="M122.665 163.727L116.6 160.023C116.6 160.023 106.153 176.212 97.0991 171.092C97.0991 171.092 106.721 178.979 114.526 172.086C121.932 165.542 122.665 163.727 122.665 163.727Z" fill="#A1A9FF"/>
<path fill-rule="evenodd" clip-rule="evenodd" d="M113.902 177.889C113.902 177.889 115.678 183.08 124.055 180.569C133.289 177.921 137.669 190.673 137.669 190.673L133.667 197.283C133.667 197.283 134.353 184.375 126.306 184.436C117.653 184.498 115.947 183.432 113.902 177.889Z" fill="#A1A9FF"/>
<path fill-rule="evenodd" clip-rule="evenodd" d="M207.572 155.285C207.572 155.285 207.045 156.085 207.98 157.715C208.92 159.354 213.515 169.031 210.794 170.868C210.794 170.868 213.998 171.78 216.109 168.022C218.279 164.154 213.137 154.879 209.922 153.407L207.572 155.285Z" fill="#FFCC00"/>
<path fill-rule="evenodd" clip-rule="evenodd" d="M221.838 145.952C222.883 147.691 227.968 158.019 224.811 160.169C224.811 160.169 228.47 161 230.971 156.776C233.548 152.42 229.332 144.689 225.551 140.481L221.838 145.952Z" fill="#FFCC00"/>
<path fill-rule="evenodd" clip-rule="evenodd" d="M207.571 155.285L212.187 151.398C212.187 151.398 222.992 163.621 229.934 158.163C229.934 158.163 222.865 166.014 215.45 161.242C208.414 156.712 207.571 155.285 207.571 155.285Z" fill="#E89A24"/>
<path fill-rule="evenodd" clip-rule="evenodd" d="M216.709 166.027C216.709 166.027 215.876 170.608 208.536 169.582C200.461 168.553 198.4 179.807 198.4 179.807L202.591 184.834C202.591 184.834 200.385 174.101 207.136 173.114C214.401 172.051 215.695 170.937 216.709 166.027Z" fill="#E89A24"/>
<path fill-rule="evenodd" clip-rule="evenodd" d="M238.649 88.607L234.533 87.7382L236.354 91.5662L234.264 95.2507L238.433 94.6842L241.69 85.6748L238.649 88.607Z" fill="#FF9500"/>
<path fill-rule="evenodd" clip-rule="evenodd" d="M96.2185 16.4059L92.1026 15.5371L93.923 19.365L91.8337 23.0495L96.0019 22.483L99.2595 13.4736L96.2185 16.4059Z" fill="#FF9500"/>
<path fill-rule="evenodd" clip-rule="evenodd" d="M242.293 93.6522L246.129 91.9113L242.426 89.8962L241.971 85.6748L238.714 94.6842L241.539 97.829L242.293 93.6522Z" fill="#FFCC00"/>
<path fill-rule="evenodd" clip-rule="evenodd" d="M99.8623 21.451L103.698 19.7101L99.9956 17.695L99.5406 13.4736L96.283 22.483L99.108 25.6279L99.8623 21.451Z" fill="#FFCC00"/>
<path fill-rule="evenodd" clip-rule="evenodd" d="M228.534 37.9877L225.557 37.368L226.874 40.0986L225.362 42.727L228.377 42.3229L230.734 35.896L228.534 37.9877Z" fill="#FF9500"/>
<path fill-rule="evenodd" clip-rule="evenodd" d="M231.172 41.5867L233.947 40.3448L231.268 38.9074L230.939 35.896L228.582 42.3229L230.626 44.5663L231.172 41.5867Z" fill="#FFCC00"/>
<path fill-rule="evenodd" clip-rule="evenodd" d="M74.531 129.074L71.5534 128.454L72.8703 131.185L71.3589 133.813L74.3743 133.409L76.731 126.982L74.531 129.074Z" fill="#FF9500"/>
<path fill-rule="evenodd" clip-rule="evenodd" d="M77.1683 132.673L79.9431 131.431L77.2647 129.993L76.9356 126.982L74.5789 133.409L76.6226 135.652L77.1683 132.673Z" fill="#FFCC00"/>
<path fill-rule="evenodd" clip-rule="evenodd" d="M182.552 268.748L107.859 250.808L162.561 232.675L237.827 247.016L182.552 268.748Z" fill="#009EAA"/>
<path fill-rule="evenodd" clip-rule="evenodd" d="M123.88 188.485L171.061 179.016L219.131 187.257L179.963 197.052L123.88 188.485Z" fill="#86172E"/>
<path fill-rule="evenodd" clip-rule="evenodd" d="M171.06 179.016L171.446 238.681L214.805 246.203L220.021 186.681L171.06 179.016Z" fill="#B6203F"/>
<path fill-rule="evenodd" clip-rule="evenodd" d="M179.963 258.828L130.456 247.275L123.88 188.485L179.963 196.736V258.828Z" fill="#F52D56"/>
<path fill-rule="evenodd" clip-rule="evenodd" d="M179.961 196.733L220.019 186.681L215.123 246.203L179.961 258.828V196.733Z" fill="#FF7491"/>
<path fill-rule="evenodd" clip-rule="evenodd" d="M192.873 254.319L201.757 251.086L208.451 189.386L199.752 191.643L192.873 254.319Z" fill="#EBB02A"/>
<path fill-rule="evenodd" clip-rule="evenodd" d="M146.249 251.357L139.904 191.19L150.624 192.785L155.037 253.417L146.249 251.357Z" fill="#EBB02A"/>
<path fill-rule="evenodd" clip-rule="evenodd" d="M219.132 114.534L181.743 128.963L182.634 141.589L219.132 128.061V114.534Z" fill="#FF7491"/>
<path fill-rule="evenodd" clip-rule="evenodd" d="M219.13 114.534L180.427 111.811L167.479 110.927L118.538 126.258L181.742 128.964L219.13 114.534Z" fill="#FF8DA5"/>
<path fill-rule="evenodd" clip-rule="evenodd" d="M121.209 137.982L182.632 141.589L181.742 128.963L118.538 126.258L121.209 137.982Z" fill="#F52D56"/>
<path fill-rule="evenodd" clip-rule="evenodd" d="M135.006 127.16L147.914 127.611L150.14 139.785L137.677 138.884L135.006 127.16Z" fill="#EBB02A"/>
<path fill-rule="evenodd" clip-rule="evenodd" d="M135.006 127.159L179.93 111.828L190.643 112.573L147.914 127.61L135.006 127.159Z" fill="#F2BB4E"/>
<path fill-rule="evenodd" clip-rule="evenodd" d="M199.548 122.199V135.276L208.45 132.119V118.592L199.548 122.199Z" fill="#EBB02A"/>
<path fill-rule="evenodd" clip-rule="evenodd" d="M208.45 118.592L151.477 115.886L141.685 119.043L199.548 122.199L208.45 118.592Z" fill="#F2BB4E"/>
<path fill-rule="evenodd" clip-rule="evenodd" d="M132.791 100.516C132.791 100.516 147.3 117.33 164.828 117.927C168.896 117.496 170.743 116.299 170.743 116.299L145.452 99.9044C146.69 94.4644 149.449 89.4879 153.409 85.5551C155.064 83.9104 153.274 81.1795 151.104 82.0382L143.858 84.9061L136.423 92.1484L132.791 100.516Z" fill="#E89A24"/>
<path fill-rule="evenodd" clip-rule="evenodd" d="M168.896 117.495L154.655 91.9201C154.362 91.3923 153.84 91.0348 153.242 90.9474C151.437 90.6843 147.303 90.4278 142.355 92.3912C135.685 95.038 132.791 100.516 132.791 100.516L136.423 92.1483C137.455 89.7711 138.958 87.6276 140.841 85.8465C144.336 82.5413 148.725 80.3328 153.463 79.4944L157.728 78.74C159.499 78.4267 161.231 79.4682 161.783 81.1794L172.712 115.023L168.896 117.495Z" fill="#F2BB4E"/>
<path fill-rule="evenodd" clip-rule="evenodd" d="M204.489 92.9057C204.489 92.9057 193.839 112.39 176.827 116.653C172.758 117.085 170.701 116.303 170.701 116.303L191.982 94.9652C189.628 89.9068 185.883 85.6202 181.185 82.6066C179.221 81.3462 180.397 78.3004 182.699 78.6846L190.388 79.9668L199.178 85.487L204.489 92.9057Z" fill="#E89A24"/>
<path fill-rule="evenodd" clip-rule="evenodd" d="M172.759 117.085L181.306 89.091C181.481 88.514 181.917 88.0549 182.483 87.8442C184.192 87.2078 188.18 86.0888 193.431 86.9698C200.509 88.1576 204.49 92.9059 204.49 92.9059L199.179 85.4867C197.671 83.3792 195.751 81.5992 193.535 80.2531C189.423 77.7553 184.668 76.5178 179.859 76.6925L175.531 76.8508C173.733 76.9163 172.259 78.2973 172.079 80.0866L168.509 115.47L172.759 117.085Z" fill="#F2BB4E"/>
</svg>
