<svg width="25" height="25" viewBox="0 0 25 25" fill="none" xmlns="http://www.w3.org/2000/svg">
<path d="M23.1087 7.28357L18.75 2.9165V20.4165H24.5833V10.8294C24.5833 9.49814 24.0525 8.2219 23.1087 7.28357Z" fill="#FFB782"/>
<path d="M3.82333 17.228L0.528348 8.67385C0.197517 7.81511 0.625448 6.8505 1.48459 6.51967L17.0375 0.528836C17.8962 0.198005 18.8608 0.625937 19.1917 1.48508L22.4867 10.0392C22.8175 10.898 22.3896 11.8626 21.5304 12.1934L5.97791 18.1842C5.11873 18.5151 4.15457 18.0867 3.82333 17.228Z" fill="#DE4C3C"/>
<path d="M20.3792 4.56689L1.73083 11.7952L2.97252 15.0186L21.6217 7.79356L20.3792 4.56689Z" fill="#7A4930"/>
<path d="M0.416626 11.2499V2.08317C0.416626 1.16276 1.16288 0.416504 2.08329 0.416504H18.75C19.6704 0.416504 20.4166 1.16276 20.4166 2.08317V11.2498C20.4166 12.1702 19.6704 12.9165 18.75 12.9165H2.08329C1.16288 12.9165 0.416626 12.1703 0.416626 11.2499Z" fill="#4398D1"/>
<path d="M18.75 0.416504H16.9791L4.47913 12.9165H18.75C19.6704 12.9165 20.4166 12.1703 20.4166 11.2499V2.08317C20.4166 1.16276 19.6704 0.416504 18.75 0.416504Z" fill="#3E8CC7"/>
<path d="M3.75004 7.0835H2.08337V7.91685H3.75004V7.0835Z" fill="#5EB3D1"/>
<path d="M3.75004 9.5835H2.08337V10.4168H3.75004V9.5835Z" fill="#5EB3D1"/>
<path d="M11.25 9.5835H9.58337V10.4168H11.25V9.5835Z" fill="#5EB3D1"/>
<path d="M6.25004 7.0835H4.58337V7.91685H6.25004V7.0835Z" fill="#5EB3D1"/>
<path d="M8.75003 7.0835H7.08337V7.91685H8.75003V7.0835Z" fill="#5EB3D1"/>
<path d="M11.25 7.0835H9.58337V7.91685H11.25V7.0835Z" fill="#5EB3D1"/>
<path d="M18.3334 2.0835H17.5V3.3335H18.3334V2.0835Z" fill="#5EB3D1"/>
<path d="M16.6667 2.0835H15.8334V3.3335H16.6667V2.0835Z" fill="#5EB3D1"/>
<path d="M15 2.0835H14.1666V3.3335H15V2.0835Z" fill="#5EB3D1"/>
<path d="M13.3334 2.0835H12.5V3.3335H13.3334V2.0835Z" fill="#5EB3D1"/>
<path d="M24.5834 20.4165H17.0834V24.5832H24.5834V20.4165Z" fill="#88B337"/>
<path d="M15.8605 7.94378C15.1538 7.23959 14.01 7.24168 13.3059 7.94837C12.625 8.63172 12.6013 9.72964 13.2521 10.4417L16.6667 14.1667C15.6405 15.9629 15.6842 18.178 16.7804 19.9321L17.0834 20.4167H22.5001V14.5834L15.8605 7.94378Z" fill="#FFB782"/>
<path d="M19.1667 21.6665H18.3334V22.4999H19.1667V21.6665Z" fill="#6B962A"/>
<path d="M2.08337 4.75015V2.75016C2.08337 2.38181 2.38169 2.0835 2.75004 2.0835H4.75003C5.11838 2.0835 5.4167 2.38181 5.4167 2.75016V4.75015C5.4167 5.1185 5.11838 5.41682 4.75003 5.41682H2.75008C2.38173 5.41682 2.08337 5.11846 2.08337 4.75015Z" fill="#FDB62F"/>
<path d="M3.33338 3.3335H2.08337V4.16685H3.33338V3.3335Z" fill="#FD7B2F"/>
<path d="M5.41663 3.3335H4.16663V4.16685H5.41663V3.3335Z" fill="#FD7B2F"/>
<path d="M22.0833 14.5831C21.9729 14.5831 21.8666 14.5394 21.7887 14.4611L20.122 12.7944C19.962 12.629 19.9666 12.3652 20.1325 12.2052C20.2941 12.0494 20.55 12.0494 20.7112 12.2052L22.3779 13.8719C22.5404 14.0348 22.5404 14.2986 22.3779 14.4611C22.2996 14.5394 22.1937 14.5831 22.0833 14.5831Z" fill="#F2A46F"/>
<path d="M20.8334 4.41418V2.08332C20.8321 0.933322 19.9 0.00123016 18.75 0H2.08332C0.933322 0.00123016 0.00123016 0.933322 0 2.08332V11.25C0.00332143 12.3141 0.809568 13.2037 1.86833 13.3116L3.43456 17.3775C3.84831 18.4512 5.05374 18.9862 6.12747 18.5725L15.9083 14.805C15.2325 16.5704 15.4246 18.5504 16.4275 20.1529L16.6667 20.5358V24.5833C16.6667 24.8133 16.8533 25 17.0833 25H24.5833C24.8133 25 25 24.8133 25 24.5833V10.8296C24.9962 9.38874 24.4224 8.00834 23.4037 6.98915L20.8334 4.41418ZM20.8334 6.90583L22.098 10.1888C22.3459 10.8329 22.0247 11.5562 21.3805 11.8042L20.6575 12.0833C20.773 11.8208 20.833 11.5371 20.8334 11.25V6.90583ZM0.833351 11.25V2.08332C0.833351 1.39291 1.39295 0.83331 2.08336 0.83331H18.7501C19.4405 0.83331 20.0001 1.39291 20.0001 2.08332V4.73165H19.9963L20.0001 4.74124V11.25C19.9967 11.3225 19.9876 11.395 19.9717 11.4659L16.1551 7.64876C15.2767 6.79085 13.8696 6.80709 13.0117 7.68542C12.1934 8.52291 12.165 9.85124 12.9467 10.7229L14.5738 12.5H2.08332C1.39291 12.5 0.833351 11.9404 0.833351 11.25ZM6.17126 13.3333L3.20834 14.4742L2.76999 13.3333H6.17126ZM5.82792 17.795C5.18377 18.0433 4.46044 17.7221 4.21211 17.0779L3.50919 15.25L8.48293 13.3333V13.3308H15.3375L15.8792 13.9213L5.82792 17.795ZM24.1667 24.1667H17.5V20.8334H24.1667V24.1667ZM24.1667 20H17.3146L17.1337 19.7113C16.1179 18.0879 16.0775 16.0371 17.0283 14.375C17.1183 14.2175 17.0962 14.0204 16.9737 13.8867L13.5591 10.1617C13.0417 9.595 13.0812 8.71621 13.6479 8.19832C14.1958 7.69789 15.0404 7.71622 15.5658 8.23998L22.2054 14.8779L22.7945 14.2888L21.2529 12.7471L21.6804 12.5804C22.7533 12.1666 23.2879 10.9621 22.8749 9.88872L21.4645 6.22662L22.8145 7.57914C23.677 8.44123 24.1633 9.60997 24.1666 10.8295L24.1667 20Z" fill="black"/>
<path d="M4.75006 5.83314C5.34841 5.83314 5.83338 5.34813 5.83338 4.74982V2.74982C5.83338 2.15147 5.34837 1.6665 4.75006 1.6665H2.75007C2.15172 1.6665 1.66675 2.15151 1.66675 2.74982V4.74982C1.66675 5.34817 2.15176 5.83314 2.75007 5.83314H4.75006ZM2.50006 4.74982V4.16648H3.33337V3.33312H2.50006V2.74982C2.50006 2.61192 2.61213 2.49981 2.75007 2.49981H4.75006C4.88796 2.49981 5.00007 2.61188 5.00007 2.74982V3.33312H4.16672V4.16648H5.00007V4.74982C5.00007 4.88772 4.888 4.99983 4.75006 4.99983H2.75007C2.61213 4.99979 2.50006 4.88772 2.50006 4.74982Z" fill="black"/>
<path d="M3.75004 7.0835H2.08337V7.91685H3.75004V7.0835Z" fill="black"/>
<path d="M3.75004 9.5835H2.08337V10.4168H3.75004V9.5835Z" fill="black"/>
<path d="M11.25 9.5835H9.58337V10.4168H11.25V9.5835Z" fill="black"/>
<path d="M6.25004 7.0835H4.58337V7.91685H6.25004V7.0835Z" fill="black"/>
<path d="M8.75003 7.0835H7.08337V7.91685H8.75003V7.0835Z" fill="black"/>
<path d="M11.25 7.0835H9.58337V7.91685H11.25V7.0835Z" fill="black"/>
<path d="M18.3334 2.0835H17.5V3.3335H18.3334V2.0835Z" fill="black"/>
<path d="M16.6667 2.0835H15.8334V3.3335H16.6667V2.0835Z" fill="black"/>
<path d="M15 2.0835H14.1666V3.3335H15V2.0835Z" fill="black"/>
<path d="M13.3334 2.0835H12.5V3.3335H13.3334V2.0835Z" fill="black"/>
<path d="M19.1667 21.6665H18.3334V22.4999H19.1667V21.6665Z" fill="black"/>
</svg>
