<svg width="74" height="74" viewBox="0 0 74 74" fill="none" xmlns="http://www.w3.org/2000/svg">
<path fill-rule="evenodd" clip-rule="evenodd" d="M3.69451 16.6574L0.867188 13.0475L8.76235 1.24072H57.1112L65.0236 13.0475L62.1786 16.6574H3.69451Z" fill="#FB9E20"/>
<path fill-rule="evenodd" clip-rule="evenodd" d="M0.867188 13.0474H65.0418V60.7739H0.867188V13.0474Z" fill="#FEBF10"/>
<path fill-rule="evenodd" clip-rule="evenodd" d="M26.5976 27.4512H39.2937C41.2498 27.4512 42.8502 29.0516 42.8502 31.0077C42.8502 32.9633 41.2498 34.5637 39.2937 34.5637H26.5976C24.6417 34.5637 23.0591 32.9634 23.0591 31.0077C23.0591 29.0516 24.6417 27.4512 26.5976 27.4512Z" fill="#FB9E20"/>
<path fill-rule="evenodd" clip-rule="evenodd" d="M30.1893 16.6574H35.7017L37.6754 13.0475L36.5021 1.24072H29.3715L28.1978 13.0475L30.1893 16.6574Z" fill="#CA200A"/>
<path fill-rule="evenodd" clip-rule="evenodd" d="M28.2153 60.7919H37.6931V51.812L36.5019 52.7546L35.3281 53.697L34.1366 52.7546L32.9454 51.812L31.7717 52.7546L30.5806 53.697L29.3889 52.7546L28.2153 51.812V60.7919Z" fill="#F2501B"/>
<path fill-rule="evenodd" clip-rule="evenodd" d="M28.2153 13.0474H37.6931V22.0096L35.3281 20.1249L32.9454 22.0096L30.5806 20.1249L28.2153 22.0096V13.0474Z" fill="#F2501B"/>
<path fill-rule="evenodd" clip-rule="evenodd" d="M53.7685 72.7592C64.4373 72.7592 73.1326 64.0636 73.1326 53.3949C73.1326 42.7433 64.4373 34.0483 53.7685 34.0483C43.117 34.0483 34.4214 42.7433 34.4214 53.3949C34.4214 64.0636 43.117 72.7592 53.7685 72.7592Z" fill="#009EAA"/>
<path fill-rule="evenodd" clip-rule="evenodd" d="M42.2276 55.8663C41.2139 54.906 41.1605 53.306 42.1027 52.2741C43.0631 51.2606 44.6635 51.2075 45.6949 52.1677L50.1937 56.3645L61.8054 45.1084C62.8012 44.1305 64.4192 44.1659 65.3971 45.1617C66.3753 46.1753 66.3574 47.7756 65.3435 48.7536L52.0075 61.6988H51.9897C51.0296 62.6413 49.4822 62.6591 48.5046 61.7344L42.2276 55.8663Z" fill="white"/>
</svg>
