<svg width="25" height="25" viewBox="0 0 25 25" fill="none" xmlns="http://www.w3.org/2000/svg">
<path d="M21.6886 16.8115C21.6833 16.8024 21.6761 16.7949 21.6703 16.7863L21.6708 16.786L15.2136 5.60228L15.21 5.6042C15.1565 5.51936 15.0788 5.45243 14.987 5.41196L14.9962 5.40668L13.0795 4.2998L15.2086 7.9874L20.0513 16.3752L20.0508 16.3754C20.0566 16.384 20.0638 16.3915 20.069 16.4006C20.102 16.4577 20.1234 16.5206 20.132 16.5859C20.1406 16.6512 20.1362 16.7176 20.1192 16.7812C20.1021 16.8449 20.0727 16.9045 20.0326 16.9568C19.9925 17.009 19.9425 17.0529 19.8854 17.0858L19.8888 17.0918L12.7222 21.2294L13.0325 21.7668C13.0387 21.78 13.043 21.7936 13.0505 21.8066C13.1152 21.9182 13.2205 22.0006 13.3445 22.0364C13.4685 22.0722 13.6015 22.0588 13.7158 21.9988L13.717 22.0008L21.5086 17.5024L21.5052 17.4964C21.6203 17.4299 21.7043 17.3204 21.7387 17.1919C21.773 17.0635 21.755 16.9266 21.6886 16.8115Z" fill="#009EAA"/>
<path d="M18.2312 16.6143C18.2882 16.5814 18.3382 16.5376 18.3783 16.4853C18.4184 16.433 18.4478 16.3734 18.4649 16.3098C18.4819 16.2461 18.4863 16.1798 18.4777 16.1145C18.4691 16.0492 18.4477 15.9862 18.4148 15.9291C18.4095 15.92 18.4023 15.9126 18.3965 15.9039L18.397 15.9037L11.9398 4.71994L11.9362 4.72186C11.8827 4.63702 11.8051 4.57008 11.7133 4.52962L11.7224 4.52434L9.07998 2.99866V3.00922C9.01311 2.97107 8.93833 2.94889 8.86147 2.94444C8.78461 2.93999 8.70777 2.95337 8.63694 2.98354L8.63406 2.9785L8.58462 3.00706L8.5815 3.0085C8.58006 3.00922 8.57982 3.00994 8.57862 3.01042L3.4947 5.94562C3.42025 5.98875 3.35821 6.0504 3.3146 6.12458C3.27099 6.19876 3.2473 6.28295 3.24582 6.36898L3.24414 6.36802V9.41938L3.24918 9.4165C3.2379 9.51898 3.25638 9.62578 3.31182 9.72202C3.31518 9.72778 3.3195 9.7321 3.3231 9.73762L9.7587 20.8847C9.76494 20.8979 9.76926 20.9115 9.7767 20.9245C9.84141 21.0361 9.94675 21.1185 10.0707 21.1543C10.1947 21.1901 10.3277 21.1767 10.442 21.1167L10.4432 21.1187L18.2348 16.6203L18.2312 16.6143ZM7.59078 7.1053C7.43189 7.19704 7.24937 7.2396 7.06629 7.2276C6.88321 7.2156 6.70781 7.14957 6.56225 7.03788C6.4167 6.92618 6.30754 6.77383 6.24857 6.6001C6.18961 6.42636 6.18349 6.23904 6.23099 6.06182C6.27849 5.88461 6.37748 5.72546 6.51544 5.60451C6.65339 5.48355 6.82411 5.40622 7.00602 5.3823C7.18792 5.35838 7.37284 5.38894 7.53737 5.47011C7.70191 5.55129 7.83868 5.67943 7.93038 5.83834C7.99142 5.94379 8.03105 6.06025 8.04702 6.18104C8.06298 6.30183 8.05496 6.42458 8.02342 6.54227C7.99187 6.65996 7.93742 6.77027 7.86318 6.86688C7.78894 6.96349 7.69638 7.04451 7.59078 7.1053Z" fill="#009EAA"/>
</svg>
