<svg width="16" height="17" viewBox="0 0 16 17" fill="none" xmlns="http://www.w3.org/2000/svg">
<g clip-path="url(#clip0_1933_3707)">
<path d="M3.74144 2.98877H13.5111C13.6494 2.98877 13.7616 3.10093 13.7616 3.23927V16.015C13.7616 16.1533 13.6494 16.2655 13.5111 16.2655H3.74144C3.60309 16.2655 3.49094 16.1533 3.49094 16.015V3.23927C3.49094 3.10093 3.60309 2.98877 3.74144 2.98877Z" fill="#CCF49F"/>
<path d="M12.5091 1.98682H2.73941C2.60106 1.98682 2.48891 2.09897 2.48891 2.23732V15.013C2.48891 15.1514 2.60106 15.2635 2.73941 15.2635H10.2975C10.4304 15.2635 10.5578 15.2108 10.6518 15.1168L12.6128 13.1558C12.7068 13.0618 12.7596 12.9344 12.7596 12.8015V2.23732C12.7596 2.09897 12.6474 1.98682 12.5091 1.98682Z" fill="#ECEAEC"/>
<path d="M10.6518 15.1166L12.6128 13.1556C12.6555 13.1129 12.6884 13.0627 12.713 13.0088H10.7555C10.6172 13.0088 10.505 13.1209 10.505 13.2593V15.2168C10.5589 15.1922 10.6091 15.1593 10.6518 15.1166Z" fill="white"/>
<path d="M2.48891 8.75049H3.24041V15.2636H2.73941C2.60106 15.2636 2.48891 15.1514 2.48891 15.0131V8.75049Z" fill="#DAD8DB"/>
<path d="M9.00203 8.75042H2.4889C2.35056 8.75042 2.2384 8.63827 2.2384 8.49992V1.98683C2.2384 1.84848 2.35056 1.73633 2.4889 1.73633H9.002C9.14034 1.73633 9.2525 1.84848 9.2525 1.98683V8.49992C9.25253 8.63827 9.14037 8.75042 9.00203 8.75042Z" fill="#FFE07D"/>
<path d="M5.51284 7.99892C4.12934 7.99892 3.00781 6.87739 3.00781 5.49389V1.73633H2.4889C2.35056 1.73633 2.2384 1.84848 2.2384 1.98683V8.49992C2.2384 8.63827 2.35056 8.75042 2.4889 8.75042H9.002C9.14034 8.75042 9.2525 8.63827 9.2525 8.49992V7.99892H5.51284Z" fill="#FFD064"/>
<path d="M13.5111 2.75453H12.994V2.23741C12.994 1.97003 12.7765 1.75253 12.5091 1.75253H9.42622C9.34343 1.60334 9.1844 1.50203 9.00203 1.50203H5.45628C5.3464 0.932 4.84406 0.5 4.24243 0.5C3.64084 0.5 3.13847 0.932 3.02862 1.502H2.4889C2.22153 1.502 2.00403 1.7195 2.00403 1.98688V8.5C2.00403 8.68237 2.10534 8.84141 2.25453 8.92419V15.0131C2.25453 15.2805 2.47203 15.498 2.7394 15.498H3.25653V16.0151C3.25653 16.2825 3.47403 16.5 3.7414 16.5H13.5111C13.7784 16.5 13.9959 16.2825 13.9959 16.0151V3.23941C13.996 2.97203 13.7785 2.75453 13.5111 2.75453ZM2.47278 1.98691C2.47278 1.978 2.48 1.97078 2.4889 1.97078H3.00603V4.24147C3.00603 4.92322 3.56068 5.47784 4.24243 5.47784C4.92418 5.47784 5.47881 4.92319 5.47881 4.24144V3.23941C5.47881 2.83391 5.1489 2.50403 4.74343 2.50403C4.33797 2.50403 4.00806 2.83394 4.00806 3.23941V3.74041C4.00806 3.86984 4.113 3.97478 4.24243 3.97478C4.37187 3.97478 4.47681 3.86984 4.47681 3.74041V3.23941C4.47681 3.09238 4.59643 2.97278 4.74343 2.97278C4.89043 2.97278 5.01006 3.09241 5.01006 3.23941V4.24141C5.01006 4.66469 4.66568 5.00906 4.2424 5.00906C3.81912 5.00906 3.47478 4.66469 3.47478 4.24144V1.73731C3.47478 1.737 3.47481 1.73672 3.47481 1.73641C3.47481 1.73619 3.47478 1.736 3.47478 1.73581C3.47512 1.31278 3.81934 0.96875 4.24243 0.96875C4.584 0.96875 4.87403 1.19303 4.97334 1.502H4.24231C4.11287 1.502 4.00793 1.60694 4.00793 1.73637C4.00793 1.86581 4.11287 1.97075 4.24231 1.97075H9.002C9.0109 1.97075 9.01812 1.97797 9.01812 1.98688V8.5C9.01812 8.50891 9.0109 8.51612 9.002 8.51612H2.4889C2.48 8.51612 2.47278 8.50891 2.47278 8.5V1.98691ZM13.5272 16.0151C13.5272 16.024 13.52 16.0312 13.5111 16.0312H3.74143C3.73253 16.0312 3.72531 16.024 3.72531 16.0151V15.498H10.2976C10.494 15.498 10.6787 15.4215 10.8176 15.2826L12.7786 13.3216C12.9175 13.1827 12.994 12.998 12.994 12.8016V4.49197C12.994 4.36253 12.8891 4.25759 12.7596 4.25759C12.6302 4.25759 12.5252 4.36253 12.5252 4.49197V12.7747H10.7556C10.4882 12.7747 10.2707 12.9922 10.2707 13.2596V15.0293H2.73947C2.73056 15.0293 2.72334 15.022 2.72334 15.0131V8.98487H9.00206C9.26943 8.98487 9.48693 8.76737 9.48693 8.5V2.22128H12.5091C12.518 2.22128 12.5252 2.2285 12.5252 2.23741V3.48994C12.5252 3.61937 12.6302 3.72431 12.7596 3.72431C12.8891 3.72431 12.994 3.61937 12.994 3.48994V3.22328H13.5111C13.52 3.22328 13.5272 3.2305 13.5272 3.23941V16.0151H13.5272ZM10.7394 14.6978V13.2596C10.7394 13.2507 10.7466 13.2435 10.7555 13.2435H12.1938L10.7394 14.6978Z" fill="black"/>
<path d="M6.49696 4.2251H7.74949C7.87893 4.2251 7.98387 4.12016 7.98387 3.99072C7.98387 3.86129 7.87893 3.75635 7.74949 3.75635H6.49696C6.36753 3.75635 6.26259 3.86129 6.26259 3.99072C6.26259 4.12016 6.36753 4.2251 6.49696 4.2251Z" fill="black"/>
<path d="M6.49696 5.47803H7.74949C7.87893 5.47803 7.98387 5.37309 7.98387 5.24365C7.98387 5.11421 7.87893 5.00928 7.74949 5.00928H6.49696C6.36753 5.00928 6.26259 5.11421 6.26259 5.24365C6.26259 5.37309 6.36753 5.47803 6.49696 5.47803Z" fill="black"/>
<path d="M3.74144 6.73047H7.7495C7.87894 6.73047 7.98388 6.62553 7.98388 6.49609C7.98388 6.36666 7.87894 6.26172 7.7495 6.26172H3.74144C3.612 6.26172 3.50706 6.36666 3.50706 6.49609C3.50706 6.62553 3.61197 6.73047 3.74144 6.73047Z" fill="black"/>
<path d="M11.2565 6.26172H10.7555C10.6261 6.26172 10.5211 6.36666 10.5211 6.49609C10.5211 6.62553 10.6261 6.73047 10.7555 6.73047H11.2565C11.386 6.73047 11.4909 6.62553 11.4909 6.49609C11.4909 6.36666 11.386 6.26172 11.2565 6.26172Z" fill="black"/>
<path d="M11.2565 3.75635H10.7555C10.6261 3.75635 10.5211 3.86129 10.5211 3.99072C10.5211 4.12016 10.6261 4.2251 10.7555 4.2251H11.2565C11.386 4.2251 11.4909 4.12016 11.4909 3.99072C11.4909 3.86129 11.386 3.75635 11.2565 3.75635Z" fill="black"/>
<path d="M11.2565 5.00928H10.7555C10.6261 5.00928 10.5211 5.11421 10.5211 5.24365C10.5211 5.37309 10.6261 5.47803 10.7555 5.47803H11.2565C11.386 5.47803 11.4909 5.37309 11.4909 5.24365C11.4909 5.11421 11.386 5.00928 11.2565 5.00928Z" fill="black"/>
<path d="M11.2565 7.51416H10.7555C10.6261 7.51416 10.5211 7.6191 10.5211 7.74854C10.5211 7.87797 10.6261 7.98291 10.7555 7.98291H11.2565C11.386 7.98291 11.4909 7.87797 11.4909 7.74854C11.4909 7.6191 11.386 7.51416 11.2565 7.51416Z" fill="black"/>
<path d="M4.49293 9.76855H3.9919C3.86246 9.76855 3.75752 9.87349 3.75752 10.0029C3.75752 10.1324 3.86246 10.2373 3.9919 10.2373H4.49293C4.62237 10.2373 4.7273 10.1324 4.7273 10.0029C4.7273 9.87349 4.6224 9.76855 4.49293 9.76855Z" fill="black"/>
<path d="M4.49293 12.2739H3.9919C3.86246 12.2739 3.75752 12.3789 3.75752 12.5083C3.75752 12.6377 3.86246 12.7427 3.9919 12.7427H4.49293C4.62237 12.7427 4.7273 12.6377 4.7273 12.5083C4.7273 12.3789 4.6224 12.2739 4.49293 12.2739Z" fill="black"/>
<path d="M4.49293 11.021H3.9919C3.86246 11.021 3.75752 11.1259 3.75752 11.2554C3.75752 11.3848 3.86246 11.4897 3.9919 11.4897H4.49293C4.62237 11.4897 4.7273 11.3848 4.7273 11.2554C4.7273 11.1259 4.6224 11.021 4.49293 11.021Z" fill="black"/>
<path d="M11.2565 9.76855H5.74547C5.61603 9.76855 5.51109 9.87349 5.51109 10.0029C5.51109 10.1324 5.61603 10.2373 5.74547 10.2373H11.2565C11.386 10.2373 11.4909 10.1324 11.4909 10.0029C11.4909 9.87349 11.386 9.76855 11.2565 9.76855Z" fill="black"/>
<path d="M9.25253 12.2739H5.74547C5.61603 12.2739 5.51109 12.3789 5.51109 12.5083C5.51109 12.6377 5.61603 12.7427 5.74547 12.7427H9.25253C9.38197 12.7427 9.48691 12.6377 9.48691 12.5083C9.48691 12.3789 9.38197 12.2739 9.25253 12.2739Z" fill="black"/>
<path d="M11.2565 11.021H5.74547C5.61603 11.021 5.51109 11.1259 5.51109 11.2554C5.51109 11.3848 5.61603 11.4897 5.74547 11.4897H11.2565C11.386 11.4897 11.4909 11.3848 11.4909 11.2554C11.4909 11.1259 11.386 11.021 11.2565 11.021Z" fill="black"/>
</g>
<defs>
<clipPath id="clip0_1933_3707">
<rect width="16" height="16" fill="white" transform="translate(0 0.5)"/>
</clipPath>
</defs>
</svg>
