<svg width="20" height="20" viewBox="0 0 20 20" fill="none" xmlns="http://www.w3.org/2000/svg">
<path d="M10 20C15.5228 20 20 15.5228 20 10C20 4.47715 15.5228 0 10 0C4.47715 0 0 4.47715 0 10C0 15.5228 4.47715 20 10 20Z" fill="#48B02C"/>
<path fill-rule="evenodd" clip-rule="evenodd" d="M6.87741 14.8768L3.22009 10.9624C2.71938 10.4265 2.74812 9.57862 3.28402 9.07791C3.81993 8.5772 4.6678 8.60602 5.16851 9.14184L7.98961 12.1612L12.455 7.98901C12.4952 7.95145 12.5372 7.91704 12.5806 7.88539L14.6805 5.92342C15.2164 5.42271 16.0643 5.45153 16.565 5.98744C17.0657 6.52326 17.0369 7.37121 16.501 7.87192L10.0873 13.8644L10.0805 13.8571L7.8619 15.93L6.87741 14.8763V14.8768Z" fill="white"/>
</svg>
