<svg width="22" height="22" viewBox="0 0 22 22" fill="none" xmlns="http://www.w3.org/2000/svg">
<path fill-rule="evenodd" clip-rule="evenodd" d="M3.29999 5.50039C3.29999 5.20865 3.41588 4.92886 3.62217 4.72257C3.82846 4.51628 4.10825 4.40039 4.39999 4.40039H17.6C17.8917 4.40039 18.1715 4.51628 18.3778 4.72257C18.5841 4.92886 18.7 5.20865 18.7 5.50039C18.7 5.79213 18.5841 6.07192 18.3778 6.27821C18.1715 6.4845 17.8917 6.60039 17.6 6.60039H4.39999C4.10825 6.60039 3.82846 6.4845 3.62217 6.27821C3.41588 6.07192 3.29999 5.79213 3.29999 5.50039ZM3.29999 11.0004C3.29999 10.7087 3.41588 10.4289 3.62217 10.2226C3.82846 10.0163 4.10825 9.90039 4.39999 9.90039H11C11.2917 9.90039 11.5715 10.0163 11.7778 10.2226C11.9841 10.4289 12.1 10.7087 12.1 11.0004C12.1 11.2921 11.9841 11.5719 11.7778 11.7782C11.5715 11.9845 11.2917 12.1004 11 12.1004H4.39999C4.10825 12.1004 3.82846 11.9845 3.62217 11.7782C3.41588 11.5719 3.29999 11.2921 3.29999 11.0004ZM3.29999 16.5004C3.29999 16.2087 3.41588 15.9289 3.62217 15.7226C3.82846 15.5163 4.10825 15.4004 4.39999 15.4004H17.6C17.8917 15.4004 18.1715 15.5163 18.3778 15.7226C18.5841 15.9289 18.7 16.2087 18.7 16.5004C18.7 16.7921 18.5841 17.0719 18.3778 17.2782C18.1715 17.4845 17.8917 17.6004 17.6 17.6004H4.39999C4.10825 17.6004 3.82846 17.4845 3.62217 17.2782C3.41588 17.0719 3.29999 16.7921 3.29999 16.5004Z" fill="#009EAA"/>
</svg>
