<svg width="22" height="22" viewBox="0 0 22 22" fill="none" xmlns="http://www.w3.org/2000/svg">
<path d="M11.0002 1.07422C5.51307 1.07422 1.0744 5.51289 1.0744 11C1.0744 16.4871 5.51307 20.9258 11.0002 20.9258C16.4873 20.9258 20.926 16.4871 20.926 11C20.926 5.51289 16.4873 1.07422 11.0002 1.07422ZM11.0002 2.36328C15.7654 2.36328 19.6369 6.23477 19.6369 11C19.6369 15.7652 15.7654 19.6367 11.0002 19.6367C6.23495 19.6367 2.36346 15.7652 2.36346 11C2.36346 6.23477 6.23495 2.36328 11.0002 2.36328ZM3.46003 8.76133C3.25764 9.58633 3.1369 10.3512 3.1369 11.0816C9.35448 12.3836 8.3576 13.7629 9.49628 18.7215C9.98612 18.8117 10.4846 18.8633 11.0002 18.8633C11.5158 18.8633 12.0142 18.8117 12.5041 18.7215C13.6428 13.7629 12.6459 12.3836 18.8635 11.0816C18.8377 10.2695 18.7346 9.43164 18.5412 8.76133C14.8974 7.85039 12.9381 7.39062 11.0002 7.39062C9.06229 7.39062 7.10292 7.85039 3.46003 8.76133ZM11.0002 7.86328C12.7275 7.86328 14.1369 9.27266 14.1369 11C14.1369 12.7273 12.7275 14.1367 11.0002 14.1367C9.27284 14.1367 7.86346 12.7273 7.86346 11C7.86346 9.27266 9.27284 7.86328 11.0002 7.86328ZM11.0002 8.63672C9.68964 8.63672 8.6369 9.68945 8.6369 11C8.6369 12.3105 9.68964 13.3633 11.0002 13.3633C12.3107 13.3633 13.3635 12.3105 13.3635 11C13.3635 9.68945 12.3107 8.63672 11.0002 8.63672Z" fill="#009EAA"/>
</svg>
