<svg width="22" height="22" viewBox="0 0 22 22" fill="none" xmlns="http://www.w3.org/2000/svg">
<path d="M6.01562 14.2828C6.01562 14.8607 6.18699 15.4256 6.50805 15.9061C6.82911 16.3866 7.28544 16.7611 7.81935 16.9823C8.35325 17.2034 8.94074 17.2613 9.50753 17.1485C10.0743 17.0358 10.5949 16.7575 11.0036 16.3489C11.4122 15.9403 11.6905 15.4196 11.8032 14.8528C11.916 14.2861 11.8581 13.6986 11.637 13.1647C11.4158 12.6308 11.0413 12.1744 10.5608 11.8534C10.0803 11.5323 9.51539 11.3609 8.9375 11.3609C8.16291 11.362 7.42036 11.6702 6.87264 12.218C6.32492 12.7657 6.01673 13.5082 6.01562 14.2828ZM9.28125 12.2203V12.5641H9.625C9.71617 12.5641 9.8036 12.6003 9.86807 12.6647C9.93253 12.7292 9.96875 12.8166 9.96875 12.9078C9.96875 12.999 9.93253 13.0864 9.86807 13.1509C9.8036 13.2153 9.71617 13.2516 9.625 13.2516H8.59375C8.50584 13.2611 8.42381 13.3003 8.36129 13.3629C8.29876 13.4254 8.25949 13.5074 8.25 13.5953C8.2612 13.6826 8.30102 13.7636 8.36322 13.8258C8.42542 13.888 8.5065 13.9279 8.59375 13.9391H9.28125C9.55475 13.9391 9.81706 14.0477 10.0105 14.2411C10.2039 14.4345 10.3125 14.6968 10.3125 14.9703C10.3125 15.2438 10.2039 15.5061 10.0105 15.6995C9.81706 15.8929 9.55475 16.0016 9.28125 16.0016V16.3453C9.28125 16.4365 9.24503 16.5239 9.18057 16.5884C9.1161 16.6528 9.02867 16.6891 8.9375 16.6891C8.84633 16.6891 8.7589 16.6528 8.69443 16.5884C8.62997 16.5239 8.59375 16.4365 8.59375 16.3453V16.0016H8.25C8.15883 16.0016 8.0714 15.9653 8.00693 15.9009C7.94247 15.8364 7.90625 15.749 7.90625 15.6578C7.90625 15.5666 7.94247 15.4792 8.00693 15.4147C8.0714 15.3503 8.15883 15.3141 8.25 15.3141H9.28125C9.3685 15.3029 9.44958 15.263 9.51178 15.2008C9.57398 15.1386 9.6138 15.0576 9.625 14.9703C9.61551 14.8824 9.57624 14.8004 9.51371 14.7379C9.45119 14.6753 9.36916 14.6361 9.28125 14.6266H8.59375C8.32025 14.6266 8.05794 14.5179 7.86455 14.3245C7.67115 14.1311 7.5625 13.8688 7.5625 13.5953C7.5625 13.3218 7.67115 13.0595 7.86455 12.8661C8.05794 12.6727 8.32025 12.5641 8.59375 12.5641V12.2203C8.59375 12.1291 8.62997 12.0417 8.69443 11.9772C8.7589 11.9128 8.84633 11.8766 8.9375 11.8766C9.02867 11.8766 9.1161 11.9128 9.18057 11.9772C9.24503 12.0417 9.28125 12.1291 9.28125 12.2203ZM17.8578 6.1325L17.1875 5.84375L19.5938 3.78125V6.875L19.0575 6.64469C17.3834 9.90687 13.9734 11.7116 10.3125 11V9.96875C14.0938 10.3125 16.4106 8.86875 17.8578 6.1325ZM10.0719 5.5L10.9244 2.26875C11.5172 2.43497 12.1216 2.55677 12.7325 2.63312C12.7886 2.63666 12.8426 2.65552 12.8886 2.68765C12.9347 2.71977 12.9711 2.76393 12.9937 2.81531C13.0203 2.88429 13.0282 2.95902 13.0167 3.03201C13.0052 3.10501 12.9748 3.17372 12.9284 3.23125C12.4884 3.82937 11.495 5.09438 11.1753 5.5H10.0719ZM20.9688 20.2812H20.2812V9.625H18.9062V20.2812H18.2188V12.375H16.8438V20.2812H14.7812V16.1562H13.4062V20.2812H12.7188V15.8125C12.719 15.7214 12.7553 15.6341 12.8197 15.5697C12.8841 15.5053 12.9714 15.469 13.0625 15.4688H15.125C15.2161 15.469 15.3034 15.5053 15.3678 15.5697C15.4322 15.6341 15.4685 15.7214 15.4688 15.8125V19.2019C15.7345 18.9687 15.966 18.699 16.1562 18.4009V14.6919C16.1287 14.6369 14.8019 12.7497 14.0353 11.5637C13.3364 11.7484 12.6166 11.842 11.8937 11.8422C11.7906 11.8422 11.6875 11.8387 11.5844 11.8353C12.1455 12.4441 12.48 13.2275 12.5316 14.0539C12.5832 14.8803 12.3489 15.6992 11.8679 16.3731C11.3869 17.047 10.6886 17.5349 9.89028 17.7546C9.09201 17.9744 8.24243 17.9127 7.48428 17.5799C6.72614 17.2471 6.10565 16.6635 5.72707 15.9271C5.34849 15.1908 5.2349 14.3466 5.40539 13.5363C5.57587 12.7261 6.02004 11.9993 6.66325 11.4779C7.30647 10.9566 8.10953 10.6725 8.9375 10.6734C9.06469 10.6734 9.50125 10.6425 9.625 10.6562V9.21594L10.3744 9.28469C10.7181 9.31563 11.055 9.33281 11.3781 9.33281C11.7691 9.33516 12.1598 9.30873 12.5469 9.25375C12.2272 8.77938 11.9831 8.42875 11.8559 8.25H6.34906C4.76207 10.2023 3.35823 12.2965 2.15531 14.5063C1.4025 15.9156 1.35438 17.2425 2.01438 18.3391C2.64669 19.2859 3.59724 19.9749 4.6938 20.2812H1.03125C0.940082 20.2812 0.852648 20.3175 0.788182 20.3819C0.723716 20.4464 0.6875 20.5338 0.6875 20.625C0.6875 20.7162 0.723716 20.8036 0.788182 20.8681C0.852648 20.9325 0.940082 20.9688 1.03125 20.9688H20.9688C21.0599 20.9688 21.1474 20.9325 21.2118 20.8681C21.2763 20.8036 21.3125 20.7162 21.3125 20.625C21.3125 20.5338 21.2763 20.4464 21.2118 20.3819C21.1474 20.3175 21.0599 20.2812 20.9688 20.2812ZM12.0312 20.2812H11.3438V19.25H10.3125V20.2812H9.625V18.9062C9.62526 18.8152 9.66156 18.7279 9.72597 18.6635C9.79038 18.5991 9.87766 18.5628 9.96875 18.5625H11.6875C11.7786 18.5628 11.8659 18.5991 11.9303 18.6635C11.9947 18.7279 12.031 18.8152 12.0312 18.9062V20.2812ZM4.94313 3.23469C4.89772 3.17592 4.86845 3.10632 4.8582 3.03276C4.84795 2.95921 4.85708 2.88425 4.88469 2.81531C4.90655 2.76403 4.94224 2.71984 4.98777 2.68767C5.03329 2.6555 5.08686 2.63662 5.1425 2.63312C5.75461 2.55993 6.36102 2.44508 6.9575 2.28937L7.80313 5.5H6.69625C6.38 5.09438 5.38656 3.83281 4.94313 3.23469ZM7.54531 1.83906C7.52543 1.78706 7.51878 1.73093 7.52598 1.67573C7.53319 1.62052 7.554 1.56797 7.58656 1.52281C7.61808 1.47721 7.6602 1.43993 7.70929 1.41418C7.75839 1.38844 7.813 1.37499 7.86844 1.375H10.01C10.0654 1.37499 10.12 1.38844 10.1691 1.41418C10.2182 1.43993 10.2604 1.47721 10.2919 1.52281C10.3239 1.56824 10.3442 1.62094 10.3508 1.67615C10.3574 1.73137 10.3501 1.78735 10.3297 1.83906C10.3263 1.84937 10.3228 1.85969 10.3194 1.87344L9.36031 5.5H8.51469L7.55562 1.87344C7.55219 1.85969 7.54875 1.84937 7.54531 1.83906ZM11.8594 6.1875C12.0417 6.1875 12.2166 6.25993 12.3455 6.38886C12.4744 6.5178 12.5469 6.69266 12.5469 6.875C12.5469 7.05734 12.4744 7.2322 12.3455 7.36114C12.2166 7.49007 12.0417 7.5625 11.8594 7.5625H6.01562C5.83329 7.5625 5.65842 7.49007 5.52949 7.36114C5.40056 7.2322 5.32812 7.05734 5.32812 6.875C5.32812 6.69266 5.40056 6.5178 5.52949 6.38886C5.65842 6.25993 5.83329 6.1875 6.01562 6.1875H11.8594Z" fill="#009EAA"/>
</svg>
