<svg width="19" height="18" viewBox="0 0 19 18" fill="none" xmlns="http://www.w3.org/2000/svg">
<path d="M15.5225 4.73451C15.3074 3.97085 14.899 3.27558 14.3366 2.7159C13.7743 2.15621 13.0772 1.75103 12.3125 1.53951C12.0884 1.48423 11.8541 1.48423 11.63 1.53951C11.4127 1.60677 11.2147 1.72507 11.0525 1.88451L9.6875 3.25701L3.815 9.12951C3.60099 9.32598 3.46293 9.59148 3.425 9.87951L3.0575 12.4445C3.02557 12.6508 3.04357 12.8617 3.11 13.0595C3.1775 13.256 3.28775 13.436 3.4325 13.5845C3.5765 13.7345 3.7535 13.847 3.95 13.9145C4.0915 13.9595 4.2365 13.982 4.385 13.982C4.4475 13.9895 4.51 13.9895 4.5725 13.982L7.16 13.6145C7.44056 13.5634 7.70073 13.4333 7.91 13.2395L15.1625 5.98701C15.3192 5.82401 15.4349 5.62606 15.5 5.40951C15.5615 5.18956 15.5692 4.95806 15.5225 4.73451ZM14.42 5.10951C14.4119 5.14626 14.3937 5.18002 14.3675 5.20701L13.3925 6.18201L10.88 3.69951L11.8475 2.72451C11.8752 2.69758 11.9085 2.67709 11.945 2.66451C11.9745 2.65689 12.0055 2.65689 12.035 2.66451C12.6015 2.82284 13.1184 3.12279 13.537 3.53611C13.9556 3.94943 14.262 4.46251 14.4275 5.02701C14.4301 5.05474 14.4276 5.08271 14.42 5.10951ZM15.665 16.502H3.3425C3.19331 16.502 3.05024 16.4427 2.94475 16.3373C2.83926 16.2318 2.78 16.0887 2.78 15.9395C2.78 15.7903 2.83926 15.6473 2.94475 15.5418C3.05024 15.4363 3.19331 15.377 3.3425 15.377H15.6575C15.8067 15.377 15.9498 15.4363 16.0552 15.5418C16.1607 15.6473 16.22 15.7903 16.22 15.9395C16.22 16.0887 16.1607 16.2318 16.0552 16.3373C15.9498 16.4427 15.8067 16.502 15.6575 16.502H15.665Z" fill="white"/>
</svg>
