<svg width="18" height="19" viewBox="0 0 18 19" fill="none" xmlns="http://www.w3.org/2000/svg">
<g clip-path="url(#clip0_1894_15684)">
<path d="M17.659 7.20781C17.7961 7.09883 18 7.20078 18 7.37305V14.5625C18 15.4941 17.2441 16.25 16.3125 16.25H1.6875C0.755859 16.25 0 15.4941 0 14.5625V7.37656C0 7.20078 0.200391 7.10234 0.341016 7.21133C1.12852 7.82305 2.17266 8.6 5.75859 11.2051C6.50039 11.7465 7.75195 12.8855 9 12.8785C10.2551 12.8891 11.5312 11.7254 12.2449 11.2051C15.8309 8.6 16.8715 7.81953 17.659 7.20781ZM9 11.75C9.81563 11.7641 10.9898 10.7234 11.5805 10.2945C16.2457 6.90898 16.6008 6.61367 17.6766 5.76992C17.8805 5.61172 18 5.36562 18 5.10547V4.4375C18 3.50586 17.2441 2.75 16.3125 2.75H1.6875C0.755859 2.75 0 3.50586 0 4.4375V5.10547C0 5.36562 0.119531 5.6082 0.323437 5.76992C1.39922 6.61016 1.7543 6.90898 6.41953 10.2945C7.01016 10.7234 8.18437 11.7641 9 11.75Z" fill="#009EAA"/>
</g>
<defs>
<clipPath id="clip0_1894_15684">
<rect width="18" height="18" fill="white" transform="translate(0 0.5)"/>
</clipPath>
</defs>
</svg>
