<svg width="179" height="144" viewBox="0 0 179 144" fill="none" xmlns="http://www.w3.org/2000/svg">
<g opacity="0.3">
<path d="M157.216 140.816C146.422 146.196 132.361 144.051 123.712 135.7C117.87 130.055 114.601 122.265 109.122 116.29C98.8564 105.101 80.7346 102.13 67.432 109.425C51.6805 118.091 42.0608 140.86 22.738 141.608C11.9442 142.037 1.54637 133.257 0.15997 122.562C-1.22643 111.835 6.56372 100.71 17.1267 98.3669C32.6727 94.8271 36.6985 87.4969 21.649 71.828C13.9511 63.8942 8.78932 55.0296 16.9287 44.3316C24.3628 34.7236 40.698 31.1609 54.6578 39.7102C77.7709 53.9252 58.1686 52.5488 76.7408 26.1768C94.2472 1.07759 113.849 18.752 126.122 20.1362C137.609 21.4897 148.931 14.2936 160.352 16.175C178.039 19.0987 184.966 41.1849 172.037 53.6733C163.752 61.6943 150.515 62.1564 141.305 69.0223C133.825 74.6133 134.967 81.6772 142.197 84.2724C188.161 100.774 174.629 132.056 157.216 140.816Z" fill="#ECEDEF"/>
<path d="M36.1764 0.00289913C26.8197 0.156586 22.9965 10.5984 34.6635 19.2156C47.4145 28.6337 56.8802 21.6231 56.7687 14.9659C56.6682 8.98394 47.739 -0.186887 36.1764 0.00289913Z" fill="#ECEDEF"/>
<path d="M103.306 87.1374L130.802 76.7078V110.804L89.3625 121.959V70.2661L103.306 87.1374Z" fill="#009EAA"/>
<path d="M75.4192 87.1374L89.3625 70.2661V121.959L47.8953 110.804V76.7078L75.4192 87.1374Z" fill="#009EAA"/>
<path d="M89.3514 58.7203L100.58 43.4995L130.812 54.5417L89.3514 70.2661L47.8909 54.5417L78.1226 43.5227L89.3514 58.7203Z" fill="white"/>
<path d="M130.809 54.5469L144.752 71.4181L103.302 87.135L89.3585 70.2637L130.809 54.5469Z" fill="white"/>
<path d="M47.8981 54.5469L33.9547 71.4181L75.4052 87.135L89.3485 70.2637L47.8981 54.5469Z" fill="white"/>
<path d="M89.3625 21.8047H96.97V37.6856H104.887L89.3485 58.7135L73.8097 37.6856H81.7271V21.8047H89.3625Z" fill="#CECED0"/>
<path d="M32.2266 71.8755C32.3742 72.4331 32.7817 72.8852 33.321 73.0893L46.1088 77.9383V110.805C46.1088 111.613 46.6518 112.321 47.4316 112.531L88.8989 123.685C89.202 123.767 89.524 123.767 89.8275 123.685L131.267 112.531C132.047 112.321 132.589 111.613 132.589 110.805V77.9415L145.386 73.0893C145.925 72.8852 146.332 72.4331 146.48 71.8755C146.628 71.3187 146.498 70.7247 146.13 70.2797L132.275 53.5142C132.274 53.5124 132.272 53.5114 132.271 53.5096C132.1 53.3305 131.789 52.9953 131.426 52.8627L103.446 42.6432L106.325 38.7478C106.726 38.2048 106.787 37.4832 106.483 36.8813C106.179 36.2784 105.562 35.8988 104.887 35.8988H98.7574V21.8046C98.7574 20.8178 97.9572 20.0176 96.9704 20.0176H81.7282C80.7413 20.0176 79.9411 20.8178 79.9411 21.8046V35.8988H73.8104C73.136 35.8988 72.5191 36.2784 72.2146 36.8813C71.9108 37.4836 71.9719 38.2052 72.3733 38.7478L75.2665 42.6628L47.2801 52.8627C46.8415 53.0228 46.6046 53.3505 46.4259 53.5232L32.5769 70.2797C32.2091 70.7243 32.079 71.3187 32.2266 71.8755ZM49.6826 79.2958C84.0642 92.3288 72.206 87.8336 74.7711 88.8061C74.7865 88.8119 74.8026 88.8094 74.818 88.8147C75.551 89.0767 76.3924 88.7618 76.7966 88.2757L87.5758 75.2341V119.628L49.6826 109.435V79.2958ZM129.015 109.435L91.1499 119.628V75.2374L101.924 88.274C101.929 88.2804 101.938 88.2825 101.943 88.289C102.369 88.7918 103.205 89.0881 103.94 88.8079L129.015 79.2968V109.435H129.015ZM103.867 85.0097L92.3286 71.0492L130.246 56.6716L141.784 70.6321L103.867 85.0097ZM81.7278 39.4729C82.7146 39.4729 83.5149 38.6727 83.5149 37.6859V23.5917H95.1829V37.6859C95.1829 38.6727 95.9832 39.4729 96.97 39.4729H101.344C97.2581 45.0032 93.8837 49.5695 89.3489 55.7066L77.3527 39.4729H81.7278ZM77.48 45.6594L87.9142 59.7822C88.2509 60.2386 88.7842 60.5073 89.3514 60.5073H89.3521C89.9193 60.5073 90.4526 60.2379 90.7893 59.7814C90.9226 59.6009 101.932 44.6912 101.231 45.6401L125.689 54.5732C124.896 54.8742 93.6875 66.7109 89.3535 68.3547C41.217 50.0995 56.8294 56.02 53.0187 54.575L77.48 45.6594ZM48.461 56.6716C52.3589 58.1498 34.4154 51.3454 86.3802 71.051L74.8437 85.0086C22.6848 65.2348 40.9282 72.1511 36.9219 70.6321L48.461 56.6716Z" fill="#009EAA"/>
</g>
</svg>
