<svg width="20" height="21" viewBox="0 0 20 21" fill="none" xmlns="http://www.w3.org/2000/svg">
<path d="M10 19.4551C9.76389 19.4551 9.56583 19.3754 9.40583 19.2159C9.24583 19.0565 9.16611 18.8584 9.16667 18.6217V17.7884C7.43056 17.594 5.94083 16.8754 4.6975 15.6326C3.45417 14.3898 2.73556 12.9001 2.54167 11.1634H1.70833C1.47222 11.1634 1.27444 11.0834 1.115 10.9234C0.955556 10.7634 0.875556 10.5656 0.875 10.3301C0.875 10.094 0.955 9.89591 1.115 9.73591C1.275 9.57591 1.47278 9.49619 1.70833 9.49674H2.54167C2.73611 7.76063 3.455 6.27091 4.69833 5.02758C5.94167 3.78424 7.43111 3.06563 9.16667 2.87174V2.03841C9.16667 1.8023 9.24667 1.60452 9.40667 1.44508C9.56667 1.28563 9.76444 1.20563 10 1.20508C10.2361 1.20508 10.4342 1.28508 10.5942 1.44508C10.7542 1.60508 10.8339 1.80286 10.8333 2.03841V2.87174C12.5694 3.06619 14.0592 3.78508 15.3025 5.02841C16.5458 6.27174 17.2644 7.76119 17.4583 9.49674H18.2917C18.5278 9.49674 18.7258 9.57674 18.8858 9.73674C19.0458 9.89674 19.1256 10.0945 19.125 10.3301C19.125 10.5662 19.0453 10.7642 18.8858 10.9242C18.7264 11.0842 18.5283 11.164 18.2917 11.1634H17.4583C17.2639 12.8995 16.5453 14.3892 15.3025 15.6326C14.0597 16.8759 12.57 17.5945 10.8333 17.7884V18.6217C10.8333 18.8579 10.7533 19.0559 10.5933 19.2159C10.4333 19.3759 10.2356 19.4556 10 19.4551ZM10 16.1634C11.6111 16.1634 12.9861 15.594 14.125 14.4551C15.2639 13.3162 15.8333 11.9412 15.8333 10.3301C15.8333 8.71897 15.2639 7.34397 14.125 6.20508C12.9861 5.06619 11.6111 4.49674 10 4.49674C8.38889 4.49674 7.01389 5.06619 5.875 6.20508C4.73611 7.34397 4.16667 8.71897 4.16667 10.3301C4.16667 11.9412 4.73611 13.3162 5.875 14.4551C7.01389 15.594 8.38889 16.1634 10 16.1634ZM10 13.6634C9.08333 13.6634 8.29861 13.337 7.64583 12.6842C6.99306 12.0315 6.66667 11.2467 6.66667 10.3301C6.66667 9.41341 6.99306 8.62869 7.64583 7.97591C8.29861 7.32313 9.08333 6.99674 10 6.99674C10.9167 6.99674 11.7014 7.32313 12.3542 7.97591C13.0069 8.62869 13.3333 9.41341 13.3333 10.3301C13.3333 11.2467 13.0069 12.0315 12.3542 12.6842C11.7014 13.337 10.9167 13.6634 10 13.6634Z" fill="#DF1A00"/>
</svg>
