<svg width="64" height="64" viewBox="0 0 64 64" fill="none" xmlns="http://www.w3.org/2000/svg">
<path d="M32 62C48.5685 62 62 48.5685 62 32C62 15.4315 48.5685 2 32 2C15.4315 2 2 15.4315 2 32C2 48.5685 15.4315 62 32 62Z" fill="#ED1C24"/>
<path fill-rule="evenodd" clip-rule="evenodd" d="M61.9926 32.5841C61.6849 48.6885 48.6885 61.6849 32.5841 61.9926C27.4881 56.8968 22.3785 51.8121 17.2833 46.7169C15.95 45.3836 15.9499 43.202 17.2831 41.8686L27.1518 32L17.2831 22.1314C15.9499 20.7981 15.9499 18.6165 17.2831 17.2833C18.6164 15.95 20.798 15.9499 22.1314 17.2831L32 27.1518L41.8686 17.2831C43.2019 15.9499 45.3835 15.9499 46.7169 17.2831C51.8121 22.3784 56.8966 27.4881 61.9926 32.5841Z" fill="#CE0628"/>
<path fill-rule="evenodd" clip-rule="evenodd" d="M17.2831 46.7169C18.6164 48.0501 20.7981 48.0501 22.1314 46.7169L32 36.8483L41.8686 46.7169C43.2019 48.0501 45.3835 48.0501 46.7168 46.7169C48.05 45.3836 48.05 43.202 46.7168 41.8686L36.8483 32L46.7169 22.1314C48.0501 20.7981 48.0501 18.6165 46.7169 17.2833C45.3836 15.95 43.202 15.95 41.8686 17.2833L32 27.1518L22.1314 17.2831C20.7981 15.9499 18.6165 15.9499 17.2833 17.2831C15.95 18.6164 15.95 20.798 17.2833 22.1313L27.1518 32L17.2831 41.8686C15.9499 43.2019 15.9499 45.3836 17.2831 46.7169Z" fill="white"/>
</svg>
