<svg width="16" height="17" viewBox="0 0 16 17" fill="none" xmlns="http://www.w3.org/2000/svg">
<g clip-path="url(#clip0_1894_15731)">
<path fill-rule="evenodd" clip-rule="evenodd" d="M15.7492 6.98104C15.999 7.13716 16.075 7.46619 15.9188 7.71597C15.4506 8.46527 14.8941 9.1469 14.2615 9.7406L15.5426 11.0217C15.7508 11.2299 15.7508 11.5677 15.5426 11.776C15.3343 11.9842 14.9966 11.9842 14.7884 11.776L13.4412 10.4287C12.5919 11.063 11.6362 11.5529 10.596 11.8611L11.0752 13.6495C11.1514 13.9341 10.9825 14.2264 10.698 14.3027C10.4135 14.379 10.1211 14.2101 10.0448 13.9255L9.55644 12.1027C9.05325 12.1886 8.53371 12.2333 8 12.2333C7.46628 12.2333 6.94674 12.1886 6.44354 12.1027L5.95519 13.9255C5.87897 14.2101 5.58653 14.379 5.30201 14.3027C5.01749 14.2264 4.84864 13.9341 4.92486 13.6496L5.40399 11.8611C4.36385 11.5529 3.40803 11.063 2.55883 10.4287L1.21163 11.7759C1.00335 11.9842 0.665662 11.9842 0.457384 11.7759C0.249106 11.5677 0.249106 11.2299 0.457384 11.0217L1.73847 9.74058C1.10594 9.14688 0.549454 8.46527 0.0811389 7.71597C-0.0749725 7.46619 0.000958475 7.13716 0.250735 6.98104C0.500512 6.82493 0.82955 6.90086 0.985661 7.15064C1.49711 7.96895 2.1216 8.69262 2.83982 9.29224C2.85136 9.30105 2.86261 9.31038 2.87357 9.32026C4.27624 10.479 6.03238 11.1666 8 11.1666C10.995 11.1666 13.5001 9.5734 15.0143 7.15064C15.1705 6.90086 15.4995 6.82493 15.7492 6.98104Z" fill="#B3B3B3"/>
</g>
<defs>
<clipPath id="clip0_1894_15731">
<rect width="16" height="16" fill="white" transform="translate(0 0.5)"/>
</clipPath>
</defs>
</svg>
