<svg width="22" height="22" viewBox="0 0 22 22" fill="none" xmlns="http://www.w3.org/2000/svg">
<path d="M17.6364 13.2973L14.1912 11.6539L12.7343 10.9589C12.7709 10.9358 12.8056 10.9096 12.8415 10.8852H14.7544C14.8966 10.8851 15.033 10.8285 15.1335 10.728C15.2341 10.6274 15.2906 10.491 15.2907 10.3488V8.93752H15.2859C15.2274 6.97073 14.5443 5.24043 13.5184 4.15539C12.9774 3.54533 12.2763 3.13085 11.492 3.00699C11.4571 3.00112 11.422 2.99591 11.3868 2.99137C11.3465 2.98609 11.306 2.98161 11.2652 2.97795C11.1773 2.96983 11.089 2.9655 11.0007 2.96497H11.0003C10.9127 2.96497 10.8263 2.97003 10.74 2.97751C10.6987 2.98132 10.6576 2.98587 10.6168 2.99115C10.5825 2.99555 10.5484 3.00053 10.5145 3.00611C9.73663 3.12777 9.04033 3.53587 8.50089 4.13713C7.46513 5.22107 6.77455 6.9595 6.71559 8.93774H6.71097V10.349C6.71108 10.4913 6.76763 10.6276 6.86819 10.7282C6.96875 10.8287 7.10511 10.8853 7.24733 10.8854H9.16551C9.21787 10.921 9.27 10.9573 9.32412 10.9899L7.92888 11.6396L4.37193 13.2962C4.06283 13.4409 3.85999 13.7894 3.85999 14.1786V18.0869C3.85999 18.6107 4.22497 19.0353 4.67575 19.0353H17.3266C17.7774 19.0353 18.1424 18.6107 18.1424 18.0869V14.1781C18.1422 13.7903 17.9424 13.4451 17.6364 13.2973Z" fill="#009EAA"/>
</svg>
