<svg width="16" height="17" viewBox="0 0 16 17" fill="none" xmlns="http://www.w3.org/2000/svg">
<g clip-path="url(#clip0_1933_3756)">
<path d="M9.25 1.75C9.25 1.48478 9.35536 1.23043 9.54289 1.04289C9.73043 0.855357 9.98478 0.75 10.25 0.75C10.5152 0.75 10.7696 0.855357 10.9571 1.04289C11.1446 1.23043 11.25 1.48478 11.25 1.75C11.5152 1.75 11.7696 1.85536 11.9571 2.04289C12.1446 2.23043 12.25 2.48478 12.25 2.75V6.25H8.25V2.75C8.25 2.48478 8.35536 2.23043 8.54289 2.04289C8.73043 1.85536 8.98478 1.75 9.25 1.75Z" fill="#96D228"/>
<path d="M12.5 5.25H15.75V8H12.5V5.25Z" fill="#F0F0F0"/>
<path d="M14.75 3.75H11.5V2.75H14.75V3.75Z" fill="#F0F0F0"/>
<path d="M11.5 3.75L12.5 5.25V8H10.5V5.25L11.5 3.75Z" fill="#E1E1E1"/>
<path d="M12.5 5.25H15.75L14.75 3.75H11.5L12.5 5.25Z" fill="white"/>
<path d="M5.99999 8H9.49999L8.28999 2.3525C8.20772 1.96989 7.99688 1.627 7.69257 1.38091C7.38826 1.13483 7.00884 1.0004 6.61749 1C6.36223 0.999966 6.1102 1.05699 5.87983 1.16691C5.64945 1.27682 5.44656 1.43685 5.286 1.63528C5.12543 1.8337 5.01126 2.06551 4.95183 2.31375C4.89239 2.56199 4.8892 2.82037 4.94249 3.07L5.99999 8Z" fill="#D99932"/>
<path d="M9.75 9.25C10.8546 9.25 11.75 8.35457 11.75 7.25C11.75 6.14543 10.8546 5.25 9.75 5.25C8.64543 5.25 7.75 6.14543 7.75 7.25C7.75 8.35457 8.64543 9.25 9.75 9.25Z" fill="#F65D69"/>
<path d="M12.5 16.25H15.75L14.125 14.75L12.5 16.25Z" fill="#D99932"/>
<path d="M11.6875 7.25L10.875 8L10.0625 7.25L9.25 8L8.4375 7.25L7.625 8L6.8125 7.25L6 8V16.25H12.5V8L11.6875 7.25Z" fill="#E8AA41"/>
<path d="M14.125 14.75L12.5 16.25V8L13.3125 7.25L14.125 8V14.75Z" fill="#F1BD68"/>
<path d="M14.125 14.75L15.75 16.25V8L14.9375 7.25L14.125 8V14.75Z" fill="#E8AA41"/>
<path d="M3 5.57V4H1.5V5.57C1.49997 6.34086 1.28341 7.09622 0.875 7.75C0.466589 8.40378 0.250031 9.15914 0.25 9.93V15.75C0.25 15.8826 0.302678 16.0098 0.396447 16.1036C0.490215 16.1973 0.617392 16.25 0.75 16.25H3.75C3.88261 16.25 4.00979 16.1973 4.10355 16.1036C4.19732 16.0098 4.25 15.8826 4.25 15.75V9.93C4.24997 9.15914 4.03341 8.40378 3.625 7.75C3.21659 7.09622 3.00003 6.34086 3 5.57Z" fill="#D7F05A"/>
<path d="M0.25 10.25H4.25V13.75H0.25V10.25Z" fill="#F0F0F0"/>
<path d="M1.5 3H3C3.0663 3 3.12989 3.02634 3.17678 3.07322C3.22366 3.12011 3.25 3.1837 3.25 3.25V4H1.25V3.25C1.25 3.1837 1.27634 3.12011 1.32322 3.07322C1.37011 3.02634 1.4337 3 1.5 3Z" fill="#8CC3FA"/>
<path d="M7.125 11.7698C6.92862 11.7388 6.72803 11.7472 6.53489 11.7944C6.34176 11.8416 6.15994 11.9267 6 12.0448C5.84007 11.9267 5.65825 11.8416 5.46512 11.7944C5.27198 11.7472 5.07139 11.7388 4.875 11.7698C3.925 11.9398 3.3275 13.0748 3.545 14.3048C3.7625 15.5348 4.705 16.3973 5.6575 16.2298C5.77581 16.2076 5.89088 16.1706 6 16.1198C6.10913 16.1706 6.2242 16.2076 6.3425 16.2298C7.295 16.3973 8.24 15.5373 8.455 14.3048C8.67 13.0723 8.075 11.9398 7.125 11.7698Z" fill="#F65D69"/>
<path d="M15.9575 5.11247L15 3.67497V2.74997C15 2.68366 14.9737 2.62007 14.9268 2.57319C14.8799 2.5263 14.8163 2.49997 14.75 2.49997H12.4725C12.4227 2.25546 12.3008 2.03147 12.1226 1.85681C11.9444 1.68216 11.718 1.56485 11.4725 1.51997C11.4203 1.23176 11.2686 0.97103 11.0438 0.783278C10.819 0.595526 10.5354 0.492676 10.2425 0.492676C9.94961 0.492676 9.66602 0.595526 9.44122 0.783278C9.21642 0.97103 9.06468 1.23176 9.0125 1.51997C8.77027 1.56761 8.54758 1.68592 8.3725 1.85997C8.21235 1.52988 7.9632 1.25107 7.65313 1.05495C7.34305 0.858836 6.98437 0.753207 6.6175 0.749965C6.32497 0.749756 6.03611 0.815029 5.77209 0.940995C5.50808 1.06696 5.27561 1.25043 5.09173 1.47794C4.90785 1.70545 4.77723 1.97123 4.70945 2.2558C4.64166 2.54036 4.63843 2.83649 4.7 3.12247L5.75 8.02747V11.6275C5.46005 11.5071 5.14187 11.4716 4.8325 11.525C4.71817 11.5453 4.60659 11.5789 4.5 11.625V9.92997C4.49985 9.11233 4.27032 8.31114 3.8375 7.61747C3.45313 7.00375 3.24951 6.29412 3.25 5.56997V4.24997C3.3163 4.24997 3.37989 4.22363 3.42678 4.17674C3.47366 4.12986 3.5 4.06627 3.5 3.99997V3.24997C3.5 3.11736 3.44732 2.99018 3.35355 2.89641C3.25979 2.80264 3.13261 2.74997 3 2.74997H1.5C1.36739 2.74997 1.24021 2.80264 1.14645 2.89641C1.05268 2.99018 1 3.11736 1 3.24997V3.99997C1 4.06627 1.02634 4.12986 1.07322 4.17674C1.12011 4.22363 1.1837 4.24997 1.25 4.24997V5.56997C1.25049 6.29412 1.04687 7.00375 0.6625 7.61747C0.22968 8.31114 0.000149171 9.11233 0 9.92997L0 15.75C0 15.9489 0.0790176 16.1396 0.21967 16.2803C0.360322 16.4209 0.551088 16.5 0.75 16.5H3.75C3.87549 16.4998 3.99892 16.4681 4.10899 16.4078C4.21905 16.3475 4.31224 16.2606 4.38 16.155C4.68254 16.375 5.04596 16.4955 5.42 16.5C5.51391 16.5004 5.60766 16.492 5.7 16.475C5.74889 16.4668 5.7973 16.4559 5.845 16.4425C5.88865 16.4787 5.94331 16.4989 6 16.5H15.75C15.8163 16.5 15.8799 16.4736 15.9268 16.4267C15.9737 16.3799 16 16.3163 16 16.25V5.24997C15.9996 5.20096 15.9848 5.15314 15.9575 5.11247ZM14.5 2.99997V3.49997H11.75V2.99997H14.5ZM9.25 1.99997C9.3163 1.99997 9.37989 1.97363 9.42678 1.92674C9.47366 1.87986 9.5 1.81627 9.5 1.74997C9.5 1.55105 9.57902 1.36029 9.71967 1.21964C9.86032 1.07898 10.0511 0.999965 10.25 0.999965C10.4489 0.999965 10.6397 1.07898 10.7803 1.21964C10.921 1.36029 11 1.55105 11 1.74997C11 1.81627 11.0263 1.87986 11.0732 1.92674C11.1201 1.97363 11.1837 1.99997 11.25 1.99997C11.4047 2.0004 11.5556 2.04868 11.6818 2.1382C11.808 2.22771 11.9034 2.35408 11.955 2.49997H11.5C11.4337 2.49997 11.3701 2.5263 11.3232 2.57319C11.2763 2.62007 11.25 2.68366 11.25 2.74997V3.67497L10.315 5.07497C10.1307 5.02574 9.94078 5.00053 9.75 4.99997C9.54113 5.00065 9.33334 5.03009 9.1325 5.08747L8.5675 2.45497C8.62479 2.32104 8.71984 2.20669 8.84104 2.12589C8.96224 2.04509 9.10434 2.00134 9.25 1.99997ZM11.5 7.09247L10.875 7.65997L10.2325 7.06497C10.1863 7.02209 10.1255 6.99827 10.0625 6.99827C9.99945 6.99827 9.93873 7.02209 9.8925 7.06497L9.25 7.65997L8.6075 7.06497C8.56127 7.02209 8.50055 6.99827 8.4375 6.99827C8.37445 6.99827 8.31373 7.02209 8.2675 7.06497L8.0175 7.31497C8.01017 7.29373 8.00432 7.27201 8 7.24997C7.97911 6.78584 8.14346 6.33242 8.45688 5.98946C8.7703 5.64651 9.20712 5.4421 9.67125 5.42122C10.1354 5.40033 10.5888 5.56467 10.9318 5.87809C11.2747 6.19151 11.4791 6.62834 11.5 7.09247ZM5.1875 3.01747C5.14728 2.82984 5.14441 2.63613 5.17906 2.44739C5.21371 2.25866 5.28519 2.0786 5.38942 1.91749C5.59993 1.59211 5.93107 1.36369 6.31 1.28247C6.68893 1.20124 7.0846 1.27388 7.40998 1.48438C7.73535 1.69489 7.96378 2.02604 8.045 2.40497L8.6625 5.28246C8.31068 5.47671 8.0173 5.76164 7.81287 6.10764C7.60843 6.45364 7.5004 6.84808 7.5 7.24997C7.50003 7.35537 7.50755 7.46063 7.5225 7.56497L6.9825 7.06497C6.93627 7.02209 6.87555 6.99827 6.8125 6.99827C6.74945 6.99827 6.68873 7.02209 6.6425 7.06497L6.1425 7.51997L5.1875 3.01747ZM1.5 3.24997H3V3.74997H1.5V3.24997ZM0.5 9.92997C0.499508 9.20581 0.703125 8.49619 1.0875 7.88247C1.52032 7.18879 1.74985 6.3876 1.75 5.56997V4.24997H2.75V5.56997C2.75015 6.3876 2.97968 7.18879 3.4125 7.88247C3.79687 8.49619 4.00049 9.20581 4 9.92997V9.99997H0.5V9.92997ZM0.5 10.5H4V11.945C3.57492 12.357 3.31452 12.9098 3.2675 13.5H0.5V10.5ZM3.75 16H0.75C0.683696 16 0.620107 15.9736 0.573223 15.9267C0.526339 15.8799 0.5 15.8163 0.5 15.75V14H3.25C3.25521 14.1173 3.26773 14.2342 3.2875 14.35C3.38399 14.8929 3.63084 15.3978 4 15.8075C3.9868 15.8634 3.95474 15.9131 3.9092 15.9481C3.86367 15.9832 3.80745 16.0015 3.75 16ZM7.3325 15.75C7.19872 15.8504 7.04615 15.9229 6.88382 15.9633C6.7215 16.0036 6.55273 16.011 6.3875 15.985C6.28987 15.9672 6.19493 15.9369 6.105 15.895C6.07209 15.8797 6.03626 15.8718 6 15.8718C5.96374 15.8718 5.92791 15.8797 5.895 15.895C5.80507 15.9369 5.71013 15.9672 5.6125 15.985C5.44727 16.011 5.2785 16.0036 5.11618 15.9633C4.95385 15.9229 4.80128 15.8504 4.6675 15.75C4.19141 15.3893 3.87623 14.856 3.79 14.265C3.6 13.1725 4.105 12.165 4.92 12.015C4.98345 12.0029 5.04792 11.9971 5.1125 11.9975C5.33763 12.0016 5.55761 12.0655 5.75 12.1825V12.5C5.75 12.5663 5.77634 12.6299 5.82322 12.6767C5.87011 12.7236 5.9337 12.75 6 12.75C6.0663 12.75 6.12989 12.7236 6.17678 12.6767C6.22366 12.6299 6.25 12.5663 6.25 12.5V12.1875C6.49705 12.0324 6.79188 11.972 7.08 12.0175C7.895 12.1625 8.4 13.17 8.21 14.2675C8.12315 14.8576 7.80803 15.3899 7.3325 15.75ZM12.25 16H7.8175C8.28912 15.5647 8.6008 14.9836 8.7025 14.35C8.94 12.985 8.2525 11.7175 7.1675 11.525C6.87784 11.4736 6.57968 11.5022 6.305 11.6075C6.37053 11.4083 6.49704 11.2347 6.66662 11.1113C6.83621 10.9879 7.04029 10.921 7.25 10.92C7.3163 10.92 7.37989 10.8936 7.42678 10.8467C7.47366 10.7999 7.5 10.7363 7.5 10.67C7.5 10.6037 7.47366 10.5401 7.42678 10.4932C7.37989 10.4463 7.3163 10.42 7.25 10.42C6.88032 10.4191 6.52367 10.5564 6.25 10.805V8.10997L6.8125 7.58997L7.455 8.18497C7.50123 8.22784 7.56195 8.25166 7.625 8.25166C7.68805 8.25166 7.74877 8.22784 7.795 8.18497L8.4375 7.58997L9.08 8.18497C9.12623 8.22784 9.18695 8.25166 9.25 8.25166C9.31305 8.25166 9.37377 8.22784 9.42 8.18497L10.0625 7.58997L10.705 8.18497C10.7512 8.22784 10.812 8.25166 10.875 8.25166C10.938 8.25166 10.9988 8.22784 11.045 8.18497L11.6875 7.58997L12.25 8.10997V16ZM12.25 7.42997L12 7.19497C11.9914 6.79263 11.8751 6.39996 11.6632 6.05786C11.4512 5.71577 11.1514 5.43678 10.795 5.24997L11.5 4.19997L12.25 5.32497V7.42997ZM11.9675 3.99997H14.615L15.2825 4.99997H12.635L11.9675 3.99997ZM12.75 8.10997L13.3125 7.58997L13.875 8.10997V14.64L12.75 15.68V8.10997ZM13.14 16L14.125 15.09L15.11 16H13.14ZM15.5 15.68L14.375 14.64V8.10997L14.9375 7.58997L15.5 8.10997V15.68ZM15.5 7.42997L15.1075 7.06747C15.0613 7.02459 15.0005 7.00077 14.9375 7.00077C14.8745 7.00077 14.8137 7.02459 14.7675 7.06747L14.125 7.65997L13.4825 7.06747C13.4363 7.02459 13.3755 7.00077 13.3125 7.00077C13.2495 7.00077 13.1887 7.02459 13.1425 7.06747L12.75 7.42997V5.49997H15.5V7.42997Z" fill="black"/>
<path d="M6.42748 4.42755L7.42748 3.42755C7.45079 3.40424 7.46929 3.37656 7.4819 3.34611C7.49452 3.31565 7.50101 3.28301 7.50101 3.25005C7.50101 3.21708 7.49452 3.18444 7.4819 3.15398C7.46929 3.12353 7.45079 3.09586 7.42748 3.07255C7.40418 3.04924 7.3765 3.03075 7.34605 3.01813C7.31559 3.00552 7.28295 2.99902 7.24999 2.99902C7.21702 2.99902 7.18438 3.00552 7.15392 3.01813C7.12347 3.03075 7.0958 3.04924 7.07249 3.07255L6.07249 4.07255C6.02541 4.11962 5.99896 4.18347 5.99896 4.25005C5.99896 4.31662 6.02541 4.38047 6.07249 4.42755C6.11956 4.47462 6.18341 4.50107 6.24999 4.50107C6.31656 4.50107 6.38041 4.47462 6.42748 4.42755Z" fill="black"/>
<path d="M6.57248 6.17755C6.59573 6.20098 6.62338 6.21958 6.65384 6.23227C6.68431 6.24496 6.71698 6.2515 6.74998 6.2515C6.78299 6.2515 6.81566 6.24496 6.84613 6.23227C6.87659 6.21958 6.90424 6.20098 6.92748 6.17755L7.92748 5.17755C7.97456 5.13047 8.00101 5.06662 8.00101 5.00005C8.00101 4.93347 7.97456 4.86962 7.92748 4.82255C7.88041 4.77547 7.81656 4.74902 7.74998 4.74902C7.68341 4.74902 7.61956 4.77547 7.57248 4.82255L6.57248 5.82255C6.54905 5.84579 6.53045 5.87344 6.51776 5.9039C6.50507 5.93437 6.49854 5.96704 6.49854 6.00005C6.49854 6.03305 6.50507 6.06573 6.51776 6.09619C6.53045 6.12666 6.54905 6.15431 6.57248 6.17755Z" fill="black"/>
</g>
<defs>
<clipPath id="clip0_1933_3756">
<rect width="16" height="16" fill="white" transform="translate(0 0.5)"/>
</clipPath>
</defs>
</svg>
