<svg width="20" height="69" viewBox="0 0 20 69" fill="none" xmlns="http://www.w3.org/2000/svg">
<g clip-path="url(#clip0_2133_44504)">
<path d="M9.2806 18.4561C3.98328 10.7765 3 9.98837 3 7.16602C3 3.30001 6.13399 0.166016 10 0.166016C13.866 0.166016 17 3.30001 17 7.16602C17 9.98837 16.0167 10.7765 10.7194 18.4561C10.3718 18.9582 9.6282 18.9582 9.2806 18.4561ZM10 10.0827C11.6108 10.0827 12.9167 8.77685 12.9167 7.16602C12.9167 5.55518 11.6108 4.24935 10 4.24935C8.38916 4.24935 7.08333 5.55518 7.08333 7.16602C7.08333 8.77685 8.38916 10.0827 10 10.0827Z" fill="#009EAA"/>
</g>
<path d="M10 67.4551C9.76389 67.4551 9.56583 67.3754 9.40583 67.2159C9.24583 67.0565 9.16611 66.8584 9.16667 66.6217V65.7884C7.43056 65.594 5.94083 64.8754 4.6975 63.6326C3.45417 62.3898 2.73556 60.9001 2.54167 59.1634H1.70833C1.47222 59.1634 1.27444 59.0834 1.115 58.9234C0.955556 58.7634 0.875556 58.5656 0.875 58.3301C0.875 58.094 0.955 57.8959 1.115 57.7359C1.275 57.5759 1.47278 57.4962 1.70833 57.4967H2.54167C2.73611 55.7606 3.455 54.2709 4.69833 53.0276C5.94167 51.7842 7.43111 51.0656 9.16667 50.8717V50.0384C9.16667 49.8023 9.24667 49.6045 9.40667 49.4451C9.56667 49.2856 9.76444 49.2056 10 49.2051C10.2361 49.2051 10.4342 49.2851 10.5942 49.4451C10.7542 49.6051 10.8339 49.8029 10.8333 50.0384V50.8717C12.5694 51.0662 14.0592 51.7851 15.3025 53.0284C16.5458 54.2717 17.2644 55.7612 17.4583 57.4967H18.2917C18.5278 57.4967 18.7258 57.5767 18.8858 57.7367C19.0458 57.8967 19.1256 58.0945 19.125 58.3301C19.125 58.5662 19.0453 58.7642 18.8858 58.9242C18.7264 59.0842 18.5283 59.164 18.2917 59.1634H17.4583C17.2639 60.8995 16.5453 62.3892 15.3025 63.6326C14.0597 64.8759 12.57 65.5945 10.8333 65.7884V66.6217C10.8333 66.8579 10.7533 67.0559 10.5933 67.2159C10.4333 67.3759 10.2356 67.4556 10 67.4551ZM10 64.1634C11.6111 64.1634 12.9861 63.594 14.125 62.4551C15.2639 61.3162 15.8333 59.9412 15.8333 58.3301C15.8333 56.719 15.2639 55.344 14.125 54.2051C12.9861 53.0662 11.6111 52.4967 10 52.4967C8.38889 52.4967 7.01389 53.0662 5.875 54.2051C4.73611 55.344 4.16667 56.719 4.16667 58.3301C4.16667 59.9412 4.73611 61.3162 5.875 62.4551C7.01389 63.594 8.38889 64.1634 10 64.1634ZM10 61.6634C9.08333 61.6634 8.29861 61.337 7.64583 60.6842C6.99306 60.0315 6.66667 59.2467 6.66667 58.3301C6.66667 57.4134 6.99306 56.6287 7.64583 55.9759C8.29861 55.3231 9.08333 54.9967 10 54.9967C10.9167 54.9967 11.7014 55.3231 12.3542 55.9759C13.0069 56.6287 13.3333 57.4134 13.3333 58.3301C13.3333 59.2467 13.0069 60.0315 12.3542 60.6842C11.7014 61.337 10.9167 61.6634 10 61.6634Z" fill="#DF1A00"/>
<line x1="10" y1="24" x2="10" y2="45" stroke="#009EAA" stroke-opacity="0.4" stroke-width="2" stroke-dasharray="4 4"/>
<defs>
<clipPath id="clip0_2133_44504">
<rect width="14" height="18.6667" fill="white" transform="translate(3 0.166016)"/>
</clipPath>
</defs>
</svg>
