<svg width="18" height="19" viewBox="0 0 18 19" fill="none" xmlns="http://www.w3.org/2000/svg">
<path d="M5.62501 8.98223V3.54511L6.91482 4.83492C7.02091 4.93738 7.163 4.99408 7.31048 4.9928C7.45797 4.99152 7.59905 4.93236 7.70334 4.82807C7.80763 4.72377 7.86679 4.58269 7.86807 4.43521C7.86935 4.28772 7.81266 4.14563 7.71019 4.03954L5.46019 1.78954C5.35471 1.68409 5.21166 1.62485 5.06251 1.62485C4.91335 1.62485 4.7703 1.68409 4.66482 1.78954L2.41482 4.03954C2.31236 4.14563 2.25566 4.28772 2.25694 4.43521C2.25822 4.58269 2.31738 4.72377 2.42167 4.82807C2.52596 4.93236 2.66705 4.99152 2.81453 4.9928C2.96202 4.99408 3.10411 4.93738 3.21019 4.83492L4.50001 3.54511V8.98223C3.51474 9.12444 2.6199 9.63457 1.99559 10.4099C1.37128 11.1853 1.06383 12.1684 1.13512 13.1613C1.2064 14.1542 1.65114 15.0833 2.37982 15.7615C3.1085 16.4398 4.06703 16.8168 5.06251 16.8168C6.05799 16.8168 7.01652 16.4398 7.74519 15.7615C8.47387 15.0833 8.91861 14.1542 8.9899 13.1613C9.06119 12.1684 8.75374 11.1853 8.12942 10.4099C7.50511 9.63457 6.61027 9.12444 5.62501 8.98223ZM5.06251 15.6872C4.50625 15.6872 3.96248 15.5223 3.49997 15.2132C3.03745 14.9042 2.67697 14.4649 2.4641 13.951C2.25122 13.4371 2.19553 12.8716 2.30405 12.326C2.41257 11.7805 2.68043 11.2793 3.07377 10.886C3.4671 10.4927 3.96824 10.2248 4.51382 10.1163C5.05939 10.0078 5.62489 10.0634 6.1388 10.2763C6.65272 10.4892 7.09197 10.8497 7.40101 11.3122C7.71006 11.7747 7.87501 12.3185 7.87501 12.8747C7.87411 13.6204 7.57751 14.3352 7.05026 14.8625C6.52301 15.3897 5.80815 15.6863 5.06251 15.6872ZM15.1875 13.9997H13.5V9.45473C14.4853 9.31252 15.3801 8.80239 16.0044 8.02702C16.6287 7.25164 16.9362 6.26857 16.8649 5.27564C16.7936 4.28272 16.3489 3.35365 15.6202 2.67542C14.8915 1.99718 13.933 1.62012 12.9375 1.62012C11.942 1.62012 10.9835 1.99718 10.2548 2.67542C9.52614 3.35365 9.0814 4.28272 9.01012 5.27564C8.93883 6.26857 9.24628 7.25164 9.87059 8.02702C10.4949 8.80239 11.3897 9.31252 12.375 9.45473V13.9997H10.6875C10.5383 13.9997 10.3952 14.059 10.2898 14.1645C10.1843 14.27 10.125 14.413 10.125 14.5622C10.125 14.7114 10.1843 14.8545 10.2898 14.96C10.3952 15.0655 10.5383 15.1247 10.6875 15.1247H12.375V16.8122C12.375 16.9614 12.4343 17.1045 12.5398 17.21C12.6452 17.3155 12.7883 17.3747 12.9375 17.3747C13.0867 17.3747 13.2298 17.3155 13.3353 17.21C13.4407 17.1045 13.5 16.9614 13.5 16.8122V15.1247H15.1875C15.3367 15.1247 15.4798 15.0655 15.5853 14.96C15.6907 14.8545 15.75 14.7114 15.75 14.5622C15.75 14.413 15.6907 14.27 15.5853 14.1645C15.4798 14.059 15.3367 13.9997 15.1875 13.9997ZM12.9375 8.37473C12.3812 8.37473 11.8375 8.20978 11.375 7.90074C10.9125 7.5917 10.552 7.15245 10.3391 6.63853C10.1262 6.12461 10.0705 5.55911 10.179 5.01354C10.2876 4.46797 10.5554 3.96683 10.9488 3.57349C11.3421 3.18016 11.8432 2.91229 12.3888 2.80377C12.9344 2.69525 13.4999 2.75095 14.0138 2.96382C14.5277 3.17669 14.967 3.53718 15.276 3.99969C15.5851 4.4622 15.75 5.00597 15.75 5.56223C15.7491 6.30788 15.4525 7.02273 14.9253 7.54998C14.398 8.07724 13.6832 8.37384 12.9375 8.37473Z" fill="#009EAA"/>
</svg>
