<svg width="18" height="18" viewBox="0 0 18 18" fill="none" xmlns="http://www.w3.org/2000/svg">
<path d="M7.5 3.9375V4.125H10.5V3.9375C10.5 3.53968 10.342 3.15814 10.0607 2.87684C9.77936 2.59554 9.39782 2.4375 9 2.4375C8.60218 2.4375 8.22064 2.59554 7.93934 2.87684C7.65804 3.15814 7.5 3.53968 7.5 3.9375ZM6.5625 4.125V3.9375C6.5625 3.29103 6.81931 2.67105 7.27643 2.21393C7.73355 1.75681 8.35353 1.5 9 1.5C9.64647 1.5 10.2665 1.75681 10.7236 2.21393C11.1807 2.67105 11.4375 3.29103 11.4375 3.9375V4.125H15.6562C15.7806 4.125 15.8998 4.17439 15.9877 4.26229C16.0756 4.3502 16.125 4.46943 16.125 4.59375C16.125 4.71807 16.0756 4.8373 15.9877 4.92521C15.8998 5.01311 15.7806 5.0625 15.6562 5.0625H14.5624L13.8124 14.0085C13.7554 14.6879 13.4453 15.321 12.9434 15.7825C12.4416 16.2439 11.7847 16.5 11.103 16.5H6.897C6.21532 16.4999 5.55854 16.2438 5.0568 15.7823C4.55506 15.3209 4.24498 14.6878 4.188 14.0085L3.438 5.0625H2.34375C2.21943 5.0625 2.1002 5.01311 2.01229 4.92521C1.92439 4.8373 1.875 4.71807 1.875 4.59375C1.875 4.46943 1.92439 4.3502 2.01229 4.26229C2.1002 4.17439 2.21943 4.125 2.34375 4.125H6.5625ZM8.0625 7.59375C8.0625 7.53219 8.05038 7.47124 8.02682 7.41437C8.00326 7.3575 7.96873 7.30582 7.92521 7.26229C7.88168 7.21877 7.83 7.18424 7.77313 7.16068C7.71626 7.13712 7.65531 7.125 7.59375 7.125C7.53219 7.125 7.47124 7.13712 7.41437 7.16068C7.3575 7.18424 7.30582 7.21877 7.26229 7.26229C7.21877 7.30582 7.18424 7.3575 7.16068 7.41437C7.13712 7.47124 7.125 7.53219 7.125 7.59375V13.0312C7.125 13.0928 7.13712 13.1538 7.16068 13.2106C7.18424 13.2675 7.21877 13.3192 7.26229 13.3627C7.30582 13.4062 7.3575 13.4408 7.41437 13.4643C7.47124 13.4879 7.53219 13.5 7.59375 13.5C7.65531 13.5 7.71626 13.4879 7.77313 13.4643C7.83 13.4408 7.88168 13.4062 7.92521 13.3627C7.96873 13.3192 8.00326 13.2675 8.02682 13.2106C8.05038 13.1538 8.0625 13.0928 8.0625 13.0312V7.59375ZM10.4062 7.125C10.1475 7.125 9.9375 7.335 9.9375 7.59375V13.0312C9.9375 13.1556 9.98689 13.2748 10.0748 13.3627C10.1627 13.4506 10.2819 13.5 10.4062 13.5C10.5306 13.5 10.6498 13.4506 10.7377 13.3627C10.8256 13.2748 10.875 13.1556 10.875 13.0312V7.59375C10.875 7.335 10.665 7.125 10.4062 7.125Z" fill="#DF1A00"/>
</svg>
