<svg width="22" height="22" viewBox="0 0 22 22" fill="none" xmlns="http://www.w3.org/2000/svg">
<circle opacity="0.2" cx="10.75" cy="11" r="9" fill="#009EAA"/>
<path fill-rule="evenodd" clip-rule="evenodd" d="M10.3125 1.83301C10.3125 1.65067 10.3849 1.4758 10.5139 1.34687C10.6428 1.21794 10.8177 1.14551 11 1.14551C16.4422 1.14551 20.8542 5.55742 20.8542 10.9997C20.8542 16.4419 16.4422 20.8538 11 20.8538C5.55774 20.8538 1.14583 16.4419 1.14583 10.9997C1.14583 10.8173 1.21826 10.6425 1.34719 10.5135C1.47612 10.3846 1.65099 10.3122 1.83333 10.3122C2.01566 10.3122 2.19053 10.3846 2.31946 10.5135C2.4484 10.6425 2.52083 10.8173 2.52083 10.9997C2.52083 12.6767 3.01812 14.3161 3.94983 15.7104C4.88153 17.1048 6.20579 18.1916 7.75516 18.8334C9.30452 19.4752 11.0094 19.6431 12.6542 19.3159C14.299 18.9887 15.8098 18.1812 16.9957 16.9953C18.1815 15.8095 18.9891 14.2987 19.3162 12.6539C19.6434 11.0091 19.4755 9.3042 18.8337 7.75484C18.192 6.20547 17.1052 4.88121 15.7108 3.9495C14.3164 3.0178 12.677 2.52051 11 2.52051C10.8177 2.52051 10.6428 2.44808 10.5139 2.31914C10.3849 2.19021 10.3125 2.01534 10.3125 1.83301ZM11 7.56217C11.1823 7.56217 11.3572 7.63461 11.4861 7.76354C11.6151 7.89247 11.6875 8.06734 11.6875 8.24967V11.2288H14.6667C14.849 11.2288 15.0239 11.3013 15.1528 11.4302C15.2817 11.5591 15.3542 11.734 15.3542 11.9163C15.3542 12.0987 15.2817 12.2735 15.1528 12.4025C15.0239 12.5314 14.849 12.6038 14.6667 12.6038H11C10.8177 12.6038 10.6428 12.5314 10.5139 12.4025C10.3849 12.2735 10.3125 12.0987 10.3125 11.9163V8.24967C10.3125 8.06734 10.3849 7.89247 10.5139 7.76354C10.6428 7.63461 10.8177 7.56217 11 7.56217ZM8.34166 2.19784C8.3742 2.2821 8.38981 2.37195 8.38761 2.46225C8.3854 2.55255 8.36543 2.64153 8.32882 2.7241C8.29222 2.80668 8.2397 2.88123 8.17427 2.9435C8.10884 3.00577 8.03178 3.05453 7.94749 3.08701C7.81785 3.13662 7.68947 3.1895 7.56249 3.24559C7.47944 3.28641 7.38899 3.31004 7.29658 3.31506C7.20417 3.32008 7.1117 3.3064 7.02471 3.27482C6.93772 3.24325 6.858 3.19443 6.79032 3.13131C6.72265 3.06818 6.66842 2.99204 6.63087 2.90745C6.59333 2.82286 6.57326 2.73156 6.57185 2.63903C6.57044 2.54649 6.58773 2.45463 6.62268 2.36894C6.65763 2.28324 6.70952 2.20549 6.77525 2.14033C6.84097 2.07518 6.91917 2.02396 7.00516 1.98976C7.15183 1.92376 7.30094 1.86173 7.45249 1.80367C7.53676 1.77114 7.6266 1.75553 7.7169 1.75773C7.8072 1.75993 7.89618 1.77991 7.97875 1.81651C8.06133 1.85312 8.13588 1.90564 8.19815 1.97107C8.26042 2.0365 8.30919 2.11356 8.34166 2.19784ZM5.17733 3.88634C5.30296 4.01838 5.37103 4.1949 5.36656 4.37711C5.36209 4.55931 5.28545 4.73229 5.15349 4.85801C5.05294 4.9539 4.95483 5.05232 4.85924 5.15317C4.73343 5.28531 4.56028 5.36205 4.37789 5.36652C4.19549 5.37099 4.01879 5.30282 3.88666 5.17701C3.75453 5.0512 3.67779 4.87805 3.67332 4.69565C3.66885 4.51326 3.73702 4.33656 3.86283 4.20442C3.97466 4.08831 4.08863 3.97434 4.20474 3.86251C4.33678 3.73687 4.51331 3.66881 4.69551 3.67328C4.87772 3.67775 5.05161 3.75438 5.17733 3.88634ZM2.89666 6.65559C2.97919 6.69224 3.05369 6.74478 3.1159 6.81023C3.17812 6.87567 3.22684 6.95272 3.25927 7.037C3.2917 7.12127 3.30721 7.2111 3.30492 7.30137C3.30263 7.39164 3.28258 7.48057 3.24591 7.56309C3.18969 7.68959 3.13652 7.81762 3.08641 7.94717C3.01789 8.11318 2.88714 8.24578 2.72211 8.31662C2.55709 8.38746 2.37089 8.39092 2.20335 8.32625C2.03581 8.26158 1.90023 8.13392 1.8256 7.97057C1.75096 7.80723 1.74321 7.62116 1.80399 7.45217C1.86144 7.30123 1.92316 7.15212 1.98916 7.00484C2.02581 6.92231 2.07835 6.84782 2.1438 6.7856C2.20924 6.72338 2.2863 6.67467 2.37057 6.64224C2.45484 6.6098 2.54467 6.59429 2.63494 6.59658C2.72521 6.59887 2.81414 6.61893 2.89666 6.65559Z" fill="#009EAA"/>
</svg>
