<svg width="22" height="22" viewBox="0 0 22 22" fill="none" xmlns="http://www.w3.org/2000/svg">
<path d="M11.0002 22C9.48626 22 8.06034 21.7107 6.72241 21.1322C5.38448 20.5529 4.2193 19.7666 3.22686 18.7733C2.23441 17.7801 1.44812 16.6149 0.867967 15.2778C0.28782 13.9407 -0.00143968 12.5147 0.000189953 11C0.000189953 9.48118 0.289449 8.05403 0.867967 6.71855C1.4473 5.38226 2.2336 4.2183 3.22686 3.22667C4.22011 2.23504 5.3853 1.44874 6.72241 0.867778C8.06034 0.289259 9.48626 0 11.0002 0C12.519 0 13.9461 0.289259 15.2816 0.867778C16.6179 1.44711 17.7823 2.23341 18.7747 3.22667C19.7672 4.21992 20.5531 5.38389 21.1324 6.71855C21.7109 8.05485 22.0002 9.482 22.0002 11C22.0002 12.5139 21.7109 13.9398 21.1324 15.2778C20.5531 16.6157 19.7668 17.7809 18.7735 18.7733C17.7803 19.7658 16.6163 20.5521 15.2816 21.1322C13.947 21.7124 12.5198 22.0016 11.0002 22ZM11.0002 20.7875C11.7172 19.866 12.3088 18.9611 12.7749 18.073C13.2401 17.1848 13.6186 16.1908 13.9103 15.0908H8.09008C8.41356 16.2527 8.79978 17.2777 9.24874 18.1659C9.69852 19.054 10.2823 19.9279 11.0002 20.7875ZM9.4443 20.6042C8.87393 19.932 8.35326 19.1009 7.8823 18.1109C7.41134 17.1217 7.06097 16.1146 6.83119 15.0896H2.14397C2.84471 16.6092 3.83756 17.8558 5.12252 18.8295C6.4083 19.8024 7.84889 20.394 9.4443 20.6042ZM12.5561 20.6042C14.1515 20.394 15.5921 19.8024 16.8779 18.8295C18.1628 17.8558 19.1557 16.6092 19.8564 15.0896H15.1704C14.8608 16.1301 14.4709 17.1449 14.0007 18.1341C13.5298 19.1241 13.0482 19.9483 12.5561 20.6042ZM1.6453 13.8686H6.57697C6.48408 13.3666 6.41889 12.8777 6.38141 12.4019C6.3423 11.9268 6.32274 11.4596 6.32274 11C6.32274 10.5404 6.34189 10.0731 6.38019 9.59811C6.41848 9.12307 6.48367 8.63418 6.57574 8.13144H1.64652C1.51371 8.55515 1.40982 9.01674 1.33486 9.51622C1.25989 10.0149 1.22241 10.5095 1.22241 11C1.22241 11.4905 1.25949 11.9855 1.33363 12.485C1.40778 12.9845 1.51167 13.4453 1.6453 13.8673M7.79919 13.8673H14.2012C14.2941 13.3662 14.3593 12.8855 14.3967 12.4251C14.4359 11.9656 14.4554 11.4905 14.4554 11C14.4554 10.5095 14.4363 10.0344 14.398 9.57489C14.3597 9.11533 14.2945 8.63459 14.2024 8.13266H7.79797C7.70589 8.63378 7.64071 9.11452 7.60241 9.57489C7.56411 10.0344 7.54497 10.5095 7.54497 11C7.54497 11.4905 7.56411 11.9656 7.60241 12.4251C7.64071 12.8847 7.70711 13.3654 7.79919 13.8673ZM15.4246 13.8673H20.3551C20.4879 13.4444 20.5918 12.9837 20.6667 12.485C20.7409 11.9855 20.778 11.4905 20.778 11C20.778 10.5095 20.7409 10.0145 20.6667 9.515C20.5926 9.01552 20.4887 8.55474 20.3551 8.13266H15.4234C15.5163 8.63378 15.5815 9.12226 15.619 9.59811C15.6581 10.074 15.6776 10.5413 15.6776 11C15.6776 11.4587 15.6585 11.926 15.6202 12.4019C15.5819 12.8777 15.5167 13.3666 15.4246 13.8686M15.1704 6.91044H19.8564C19.1402 5.35904 18.1591 4.11237 16.9133 3.17044C15.6674 2.22852 14.215 1.62922 12.5561 1.37256C13.1264 2.123 13.6394 2.98141 14.0949 3.94778C14.5503 4.91333 14.9089 5.90089 15.1704 6.91044ZM8.09008 6.91044H13.9103C13.5876 5.76318 13.1896 4.72592 12.7162 3.79867C12.2428 2.87141 11.6708 2.00933 11.0002 1.21244C10.3296 2.00852 9.75759 2.87059 9.28419 3.79867C8.81078 4.72674 8.41193 5.764 8.09008 6.91044ZM2.14519 6.91044H6.83119C7.09274 5.9017 7.45126 4.91415 7.90674 3.94778C8.36222 2.98141 8.87515 2.123 9.44552 1.37256C7.77189 1.63004 6.31582 2.233 5.0773 3.18144C3.83878 4.13152 2.861 5.37411 2.14397 6.90922" fill="#009EAA"/>
</svg>
