<svg width="16" height="16" viewBox="0 0 16 16" fill="none" xmlns="http://www.w3.org/2000/svg">
<path d="M4.79922 1.59998C4.37487 1.59998 3.96791 1.76855 3.66785 2.0686C3.36779 2.36866 3.19922 2.77563 3.19922 3.19998V12.8C3.19922 13.2243 3.36779 13.6313 3.66785 13.9313C3.96791 14.2314 4.37487 14.4 4.79922 14.4H8.20482C8.00105 14.1532 7.82481 13.885 7.67922 13.6H4.79922C4.58705 13.6 4.38356 13.5157 4.23353 13.3657C4.0835 13.2156 3.99922 13.0121 3.99922 12.8H7.36482C7.15086 12.0463 7.142 11.2492 7.33915 10.491C7.5363 9.73282 7.93231 9.041 8.48628 8.48703C9.04024 7.93307 9.73206 7.53706 10.4903 7.33991C11.2485 7.14276 12.0456 7.15162 12.7992 7.36558V3.19998C12.7992 2.77563 12.6306 2.36866 12.3306 2.0686C12.0305 1.76855 11.6236 1.59998 11.1992 1.59998H4.79922ZM5.39922 3.59998H10.5992C10.7583 3.59998 10.911 3.66319 11.0235 3.77571C11.136 3.88823 11.1992 4.04085 11.1992 4.19998C11.1992 4.35911 11.136 4.51172 11.0235 4.62424C10.911 4.73676 10.7583 4.79998 10.5992 4.79998H5.39922C5.24009 4.79998 5.08748 4.73676 4.97495 4.62424C4.86243 4.51172 4.79922 4.35911 4.79922 4.19998C4.79922 4.04085 4.86243 3.88823 4.97495 3.77571C5.08748 3.66319 5.24009 3.59998 5.39922 3.59998ZM15.1992 11.6C15.1992 12.5548 14.8199 13.4704 14.1448 14.1456C13.4697 14.8207 12.554 15.2 11.5992 15.2C10.6444 15.2 9.72877 14.8207 9.05363 14.1456C8.3785 13.4704 7.99922 12.5548 7.99922 11.6C7.99922 10.6452 8.3785 9.72952 9.05363 9.05439C9.72877 8.37926 10.6444 7.99998 11.5992 7.99998C12.554 7.99998 13.4697 8.37926 14.1448 9.05439C14.8199 9.72952 15.1992 10.6452 15.1992 11.6ZM11.2152 10.0272C11.1634 9.9914 11.1031 9.96984 11.0404 9.96465C10.9776 9.95945 10.9146 9.97081 10.8576 9.99758C10.8112 10.0182 10.7691 10.0476 10.7336 10.084C10.6964 10.1215 10.6669 10.1661 10.647 10.2152C10.6271 10.2642 10.6171 10.3167 10.6176 10.3696V12.8296C10.617 12.8826 10.6269 12.9353 10.6468 12.9844C10.6668 13.0336 10.6963 13.0783 10.7336 13.116C10.7705 13.1519 10.8129 13.1816 10.8592 13.204C10.9404 13.2412 11.0325 13.2469 11.1176 13.22C11.1546 13.2081 11.1896 13.1908 11.2216 13.1688L13.0584 11.9152C13.1143 11.8783 13.1593 11.8272 13.1888 11.7672C13.219 11.7066 13.2345 11.6398 13.234 11.5721C13.2336 11.5044 13.2173 11.4378 13.1864 11.3776C13.1548 11.3186 13.1088 11.2686 13.0528 11.232L11.2152 10.0272Z" fill="#C8C8C8"/>
</svg>
