<svg width="57" height="56" viewBox="0 0 57 56" fill="none" xmlns="http://www.w3.org/2000/svg">
<path d="M53 28C54.933 28 56.5225 26.427 56.2815 24.5091C55.9702 22.0315 55.3282 19.6015 54.3686 17.2849C52.9615 13.8877 50.899 10.8011 48.299 8.20101C45.6989 5.60097 42.6123 3.5385 39.2151 2.13137C36.8985 1.17179 34.4685 0.529787 31.9909 0.218467C30.073 -0.022532 28.5 1.567 28.5 3.5C28.5 5.433 30.0776 6.97032 31.9838 7.291C33.5421 7.55315 35.0696 7.99096 36.5364 8.59853C39.0842 9.65388 41.3992 11.2007 43.3492 13.1508C45.2993 15.1008 46.8461 17.4158 47.9015 19.9636C48.509 21.4304 48.9469 22.9579 49.209 24.5162C49.5297 26.4224 51.067 28 53 28Z" fill="#009EAA"/>
<path d="M4 28C2.067 28 0.477468 29.573 0.718467 31.4909C1.02979 33.9685 1.67179 36.3985 2.63137 38.7151C4.0385 42.1123 6.10097 45.1989 8.70101 47.799C11.3011 50.399 14.3877 52.4615 17.7849 53.8686C20.1015 54.8282 22.5315 55.4702 25.0091 55.7815C26.927 56.0225 28.5 54.433 28.5 52.5C28.5 50.567 26.9224 49.0297 25.0162 48.709C23.4579 48.4469 21.9304 48.009 20.4636 47.4015C17.9158 46.3461 15.6008 44.7993 13.6508 42.8492C11.7007 40.8992 10.1539 38.5842 9.09853 36.0364C8.49096 34.5696 8.05315 33.0421 7.791 31.4838C7.47032 29.5776 5.933 28 4 28Z" fill="#009EAA"/>
</svg>
