<svg width="78" height="78" viewBox="0 0 78 78" fill="none" xmlns="http://www.w3.org/2000/svg">
<path d="M63.375 28.0312C63.375 39.1097 46.8731 64.9594 41.0231 73.7709C40.8021 74.1053 40.5016 74.3797 40.1485 74.5695C39.7954 74.7593 39.4008 74.8587 39 74.8587C38.5992 74.8587 38.2046 74.7593 37.8515 74.5695C37.4984 74.3797 37.1979 74.1053 36.9769 73.7709C31.1269 64.9594 14.625 39.1097 14.625 28.0312C14.625 21.5666 17.1931 15.3667 21.7643 10.7955C26.3355 6.22432 32.5353 3.65625 39 3.65625C45.4647 3.65625 51.6645 6.22432 56.2357 10.7955C60.8069 15.3667 63.375 21.5666 63.375 28.0312Z" fill="#ED1C24"/>
<path d="M39 45.0938C48.4234 45.0938 56.0625 37.4546 56.0625 28.0312C56.0625 18.6079 48.4234 10.9688 39 10.9688C29.5766 10.9688 21.9375 18.6079 21.9375 28.0312C21.9375 37.4546 29.5766 45.0938 39 45.0938Z" fill="white"/>
<path d="M39 10.9688C38.5881 10.9688 38.1859 11.0017 37.7812 11.0297C42.0823 11.3346 46.1079 13.2582 49.047 16.413C51.9862 19.5679 53.6204 23.7195 53.6204 28.0312C53.6204 32.343 51.9862 36.4946 49.047 39.6495C46.1079 42.8043 42.0823 44.728 37.7812 45.0328C38.1859 45.0608 38.5881 45.0938 39 45.0938C43.5253 45.0938 47.8652 43.2961 51.065 40.0963C54.2648 36.8964 56.0625 32.5565 56.0625 28.0312C56.0625 23.506 54.2648 19.1661 51.065 15.9662C47.8652 12.7664 43.5253 10.9688 39 10.9688Z" fill="#E6E7E8"/>
<path d="M49.1327 20.1276C48.9063 19.9012 48.6376 19.7215 48.3418 19.599C48.046 19.4764 47.729 19.4133 47.4088 19.4133C47.0886 19.4133 46.7715 19.4764 46.4757 19.599C46.18 19.7215 45.9112 19.9012 45.6848 20.1276L35.3438 30.4687L30.1726 25.2975C29.7154 24.8405 29.0953 24.5838 28.4488 24.5839C27.8024 24.584 27.1824 24.8409 26.7254 25.2982C26.2683 25.7554 26.0116 26.3754 26.0117 27.0219C26.0118 27.6684 26.2688 28.2883 26.726 28.7454L33.6204 35.6399C34.0775 36.0968 34.6974 36.3535 35.3438 36.3535C35.9901 36.3535 36.61 36.0968 37.0671 35.6399L49.1327 23.5742C49.5896 23.1171 49.8464 22.4973 49.8464 21.8509C49.8464 21.2046 49.5896 20.5847 49.1327 20.1276Z" fill="#009EAA"/>
<path d="M39 3.65625C38.3833 3.65625 37.7812 3.70378 37.1719 3.74888C43.3006 4.20439 49.0305 6.96033 53.2122 11.4639C57.3939 15.9675 59.7181 21.8856 59.7188 28.0313C59.7188 39.1097 43.2169 64.9594 37.3669 73.7709C37.3067 73.8502 37.2416 73.9255 37.1719 73.9964C37.4137 74.2821 37.7186 74.5076 38.0626 74.655C38.4066 74.8025 38.7802 74.8679 39.1538 74.846C39.5275 74.8241 39.8909 74.7156 40.2153 74.529C40.5398 74.3424 40.8163 74.0829 41.0231 73.7709C46.8731 64.9594 63.375 39.1097 63.375 28.0313C63.376 24.83 62.7461 21.66 61.5215 18.7022C60.2969 15.7445 58.5015 13.057 56.2379 10.7934C53.9743 8.52976 51.2868 6.73435 48.329 5.50973C45.3713 4.28511 42.2012 3.65529 39 3.65625Z" fill="#D80027"/>
</svg>
