<svg width="18" height="19" viewBox="0 0 18 19" fill="none" xmlns="http://www.w3.org/2000/svg">
<path fill-rule="evenodd" clip-rule="evenodd" d="M3.9375 8.04095V6.5C3.9375 3.70406 6.20406 1.4375 9 1.4375C11.7959 1.4375 14.0625 3.70406 14.0625 6.5V8.04095C14.8986 8.10342 15.443 8.261 15.841 8.65902C16.5 9.31805 16.5 10.3787 16.5 12.5C16.5 14.6213 16.5 15.6819 15.841 16.341C15.1819 17 14.1213 17 12 17H6C3.87868 17 2.81802 17 2.15901 16.341C1.5 15.6819 1.5 14.6213 1.5 12.5C1.5 10.3787 1.5 9.31805 2.15901 8.65902C2.55698 8.261 3.10144 8.10342 3.9375 8.04095ZM5.0625 6.5C5.0625 4.32538 6.82538 2.5625 9 2.5625C11.1746 2.5625 12.9375 4.32538 12.9375 6.5V8.0027C12.6502 8 12.3386 8 12 8H6C5.66137 8 5.34976 8 5.0625 8.0027V6.5ZM6 13.25C6.41421 13.25 6.75 12.9142 6.75 12.5C6.75 12.0858 6.41421 11.75 6 11.75C5.58579 11.75 5.25 12.0858 5.25 12.5C5.25 12.9142 5.58579 13.25 6 13.25ZM9 13.25C9.41422 13.25 9.75 12.9142 9.75 12.5C9.75 12.0858 9.41422 11.75 9 11.75C8.58577 11.75 8.25 12.0858 8.25 12.5C8.25 12.9142 8.58577 13.25 9 13.25ZM12.75 12.5C12.75 12.9142 12.4142 13.25 12 13.25C11.5858 13.25 11.25 12.9142 11.25 12.5C11.25 12.0858 11.5858 11.75 12 11.75C12.4142 11.75 12.75 12.0858 12.75 12.5Z" fill="#009EAA"/>
</svg>
