<svg width="22" height="22" viewBox="0 0 22 22" fill="none" xmlns="http://www.w3.org/2000/svg">
<path fill-rule="evenodd" clip-rule="evenodd" d="M1.60877 6.08007H9.91142C10.2514 6.08007 10.2514 6.59264 9.91142 6.59264H1.60877C1.26874 6.59264 1.26874 6.08007 1.60877 6.08007ZM14.4281 16.5142V17.9758H20.4217V16.5142H14.4281ZM9.6526 15.3013H1.86759V17.3008H9.6526V15.3013ZM13.8394 7.88168C13.5502 7.88168 13.337 7.99333 13.1391 8.17603C12.9615 8.35366 12.8498 8.60233 12.8498 8.8713V19.0669C12.8498 19.6099 13.2964 20.0565 13.8394 20.0565H13.9612V20.7975C13.9612 21.848 15.5497 21.848 15.5497 20.7975V20.0565H19.3001V20.7975C19.3001 21.848 20.8886 21.848 20.8886 20.7975V20.0565H21.0104C21.5534 20.0565 22 19.6099 22 19.0669V8.8713C22 8.33335 21.5585 7.88168 21.0104 7.88168H19.1682V5.37465H19.5792C19.9193 5.37465 19.9193 4.86207 19.5792 4.86207H18.9195H18.9144H15.9354H15.9303H15.2706C14.9356 4.86207 14.9356 5.37465 15.2706 5.37465H15.6817V7.88168H13.8394ZM14.1693 9.44985H20.6805C21.0205 9.44985 21.0205 9.9675 20.6805 9.9675H14.1693C13.8293 9.9675 13.8293 9.44985 14.1693 9.44985ZM14.1693 11.1703H20.6805C21.0205 11.1703 21.0205 11.6879 20.6805 11.6879H14.1693C13.8293 11.6879 13.8293 11.1703 14.1693 11.1703ZM14.1693 12.8907H20.6805C21.0205 12.8907 21.0205 13.4033 20.6805 13.4033H14.1693C13.8293 13.4033 13.8293 12.8907 14.1693 12.8907ZM14.1693 14.606H20.6805C21.0205 14.606 21.0205 15.1237 20.6805 15.1237H14.1693C13.8293 15.1237 13.8293 14.606 14.1693 14.606ZM14.1693 15.9966H20.6805C20.8226 15.9966 20.9393 16.1133 20.9393 16.2554V18.2295C20.9393 18.3767 20.8226 18.4884 20.6805 18.4884H14.1693C14.0272 18.4884 13.9105 18.3767 13.9105 18.2295V16.2554C13.9105 16.1133 14.0272 15.9966 14.1693 15.9966ZM16.1942 7.88168V5.37465H18.6556V7.88168H16.1942ZM1.60877 7.81063H9.91142C10.2514 7.81063 10.2514 8.32828 9.91142 8.32828H1.60877C1.26874 8.32828 1.26874 7.81063 1.60877 7.81063ZM1.60877 9.54627H9.91142C10.2514 9.54627 10.2514 10.0588 9.91142 10.0588H1.60877C1.26874 10.0588 1.26874 9.54627 1.60877 9.54627ZM1.60877 11.2768H9.91142C10.2514 11.2768 10.2514 11.7945 9.91142 11.7945H1.60877C1.26874 11.7945 1.26874 11.2768 1.60877 11.2768ZM1.60877 13.0125H5.76009H9.91142C10.2514 13.0125 10.2514 13.5251 9.91142 13.5251H1.60877C1.26874 13.5251 1.26874 13.0125 1.60877 13.0125ZM1.60877 14.7836H9.91142C10.0535 14.7836 10.1652 14.9004 10.1652 15.0425V17.5597C10.1652 17.7018 10.0535 17.8185 9.91142 17.8185H1.60877C1.46667 17.8185 1.34994 17.7018 1.34994 17.5597V15.0425C1.34994 14.9004 1.46667 14.7836 1.60877 14.7836ZM11.5202 18.4427V5.45077C11.5202 4.7961 10.9822 4.26323 10.3276 4.26323H7.91188V0.923897H8.50565C8.8406 0.923897 8.8406 0.40625 8.50565 0.40625H7.66321H7.65813H3.86205H3.85698H3.01453C2.67958 0.40625 2.67958 0.923897 3.01453 0.923897H3.6083V4.26323H1.19262C0.537947 4.26323 0 4.7961 0 5.45077V18.4427C0 19.1024 0.532872 19.6353 1.19262 19.6353H1.41592V20.6503C1.41592 21.173 1.83714 21.5943 2.35479 21.5943C2.87243 21.5943 3.29873 21.168 3.29873 20.6503V19.6353H8.22145V20.6503C8.22145 21.173 8.64775 21.5943 9.1654 21.5943C9.68305 21.5943 10.1043 21.173 10.1043 20.6503V19.6353H10.3276C10.9873 19.6353 11.5202 19.1024 11.5202 18.4427ZM7.39931 4.26323H4.12088V0.923897H7.39931V4.26323Z" fill="#009EAA" stroke="black" stroke-opacity="0.01" stroke-width="0.666693"/>
</svg>
