<svg width="22" height="22" viewBox="0 0 22 22" fill="none" xmlns="http://www.w3.org/2000/svg">
<path d="M20.9616 10.1704C20.9616 12.0422 19.444 13.5598 17.5722 13.5598H4.42658C2.55476 13.5598 1.03711 12.0422 1.03711 10.1704C1.03711 8.3954 2.40119 6.93863 4.13881 6.79475C4.58844 4.12469 6.91403 2.08963 9.71276 2.08963C11.7395 2.08963 13.5173 3.15627 14.5161 4.75969C14.5493 4.75692 14.5825 4.75692 14.6157 4.75692C16.15 4.75692 17.4892 5.59528 18.1989 6.83901C19.7719 7.13232 20.9616 8.513 20.9616 10.1704Z" fill="#E4E3FF"/>
<path d="M20.9631 10.1722C20.9631 12.0402 19.4438 13.5594 17.5717 13.5594H4.42571C2.55363 13.5594 1.03857 12.0402 1.03857 10.1722C1.03857 8.39562 2.4001 6.93869 4.13932 6.79336C4.58765 4.12434 6.91212 2.09036 9.71401 2.09036C11.7397 2.09036 13.5162 3.15713 14.5167 4.75944C14.5499 4.75529 14.5831 4.75529 14.6163 4.75529C16.1521 4.75529 17.4887 5.59373 18.1985 6.83902C19.7717 7.13377 20.9631 8.51186 20.9631 10.1722Z" fill="#E4E3FF"/>
<path d="M6.69592 12.7832V13.5594H4.42537C3.29217 13.5594 2.28767 13.0032 1.67334 12.1481C2.2295 12.5466 2.91031 12.7832 3.64909 12.7832H6.69592Z" fill="#D0D0F7"/>
<path d="M20.9631 10.1723C20.9631 12.0402 19.4438 13.5594 17.5717 13.5594H6.69629V11.264C6.69629 10.4213 7.32724 9.69904 8.15743 9.58696L14.1389 8.85224C14.2137 8.84393 14.2801 8.83977 14.3464 8.83977C14.7699 8.83977 15.1683 8.9934 15.4714 9.27979C15.8201 9.57865 16.0276 10.0394 16.0276 10.5209V12.7832H16.7956C18.6676 12.7832 20.1869 11.2681 20.1869 9.39603C20.1869 8.653 19.9462 7.96398 19.5394 7.40771C20.3986 8.02205 20.9631 9.03075 20.9631 10.1723Z" fill="#D0D0F7"/>
<g opacity="0.5">
<path d="M8.46318 3.92489C8.41575 3.70072 8.55885 3.4802 8.78301 3.43237C9.08704 3.36792 9.39957 3.33508 9.71292 3.33508C9.94236 3.33508 10.128 3.52074 10.128 3.75018C10.128 3.97961 9.94236 4.16527 9.71292 4.16527C9.45754 4.16527 9.20297 4.19203 8.9557 4.24472C8.72922 4.29191 8.51084 4.14748 8.46318 3.92489Z" fill="white"/>
<path d="M5.70719 7.48034C5.48099 7.44223 5.32857 7.22779 5.36668 7.00201C5.56896 5.80253 6.26497 4.73196 7.27595 4.06432C7.46647 3.93785 7.7251 3.99014 7.85076 4.18188C7.97723 4.37321 7.92453 4.63062 7.7332 4.75669C6.91355 5.29825 6.34928 6.16695 6.18552 7.13983C6.14829 7.3588 5.94295 7.51756 5.70719 7.48034Z" fill="white"/>
</g>
<path d="M15.3225 10.521V17.0931C15.3225 18.0882 14.4286 18.8978 13.3238 18.8978C12.2275 18.8978 11.3336 18.0882 11.3336 17.0931C11.3336 16.0979 12.2275 15.2883 13.3238 15.2883C13.4841 15.2883 13.6443 15.3052 13.7961 15.3389V13.2787C13.7961 12.7727 13.3491 12.3847 12.8516 12.4438L9.68905 12.8317C9.26738 12.8823 8.93002 13.245 8.92158 13.6666V18.105C8.92158 19.1002 8.02765 19.9098 6.93132 19.9098C5.80967 19.9098 4.93262 19.117 4.93262 18.105C4.93262 17.1099 5.82655 16.3003 6.93132 16.3003C7.08311 16.3003 7.24335 16.3172 7.40359 16.3594V11.2631C7.40359 10.774 7.76621 10.3523 8.25536 10.2848L14.2262 9.55114C14.5129 9.51742 14.7912 9.60174 15.0021 9.80413C15.2044 9.97281 15.3225 10.2427 15.3225 10.521Z" fill="#FC6559"/>
<path d="M13.7944 12.5659V13.2771C13.7944 12.7707 13.3502 12.3847 12.8521 12.4428L9.68903 12.833C9.26573 12.8828 8.92948 13.2439 8.92117 13.6673V18.1047C8.92117 19.1009 8.02865 19.9104 6.93285 19.9104C6.11552 19.9104 5.43651 19.4444 5.17285 18.9764C5.49248 19.1673 5.87849 19.2794 6.3019 19.2794C7.3978 19.2794 8.29021 18.47 8.29021 17.4737V13.0364C8.29852 12.613 8.63477 12.2519 9.05818 12.2021L12.8645 11.7417C13.3589 11.6819 13.7944 12.0678 13.7944 12.5659Z" fill="#F05543"/>
<path d="M15.322 10.5209V17.0919C15.322 18.0881 14.4296 18.8975 13.3254 18.8975C12.5741 18.8975 11.9183 18.5198 11.582 17.9594C11.9017 18.1503 12.2835 18.2666 12.6945 18.2666C13.7987 18.2666 14.6911 17.4571 14.6911 16.4609V9.88995C14.6911 9.78618 14.6745 9.68656 14.6455 9.59109C14.7741 9.63264 14.8986 9.70318 15.0024 9.8028C15.2058 9.973 15.322 10.2428 15.322 10.5209Z" fill="#F05543"/>
<g opacity="0.3">
<path d="M6.04358 18.3553C5.90577 18.3553 5.79346 18.243 5.79346 18.1052C5.79346 17.5849 6.30401 17.1611 6.93121 17.1611C7.06902 17.1611 7.18133 17.2734 7.18133 17.4113C7.18133 17.5491 7.06902 17.6614 6.93121 17.6614C6.59753 17.6614 6.2937 17.873 6.2937 18.1052C6.2937 18.243 6.18139 18.3553 6.04358 18.3553Z" fill="white"/>
</g>
<g opacity="0.3">
<path d="M10.825 11.2991C10.6978 11.2991 10.5876 11.2038 10.5722 11.0747C10.5552 10.9346 10.655 10.8075 10.7946 10.7905L10.9591 10.7706C11.0967 10.7491 11.2269 10.8533 11.2433 10.9929C11.2603 11.133 11.1605 11.2602 11.0209 11.2771L10.8564 11.2971C10.8459 11.2986 10.8355 11.2991 10.825 11.2991Z" fill="white"/>
<path d="M8.60731 11.5718C8.48017 11.5718 8.37048 11.4771 8.35452 11.3474C8.33707 11.2078 8.43679 11.0802 8.5769 11.0632L9.98644 10.8902C10.1206 10.8703 10.2532 10.972 10.2706 11.1126C10.2881 11.2522 10.1884 11.3799 10.0483 11.3968L8.63872 11.5698C8.62825 11.5713 8.61778 11.5718 8.60731 11.5718Z" fill="white"/>
</g>
</svg>
