<svg width="18" height="19" viewBox="0 0 18 19" fill="none" xmlns="http://www.w3.org/2000/svg">
<path fill-rule="evenodd" clip-rule="evenodd" d="M15.9122 4.47851H1.93785V3.23897C1.93785 3.05749 2.01006 2.90126 2.14833 2.7837C2.2866 2.66613 2.45236 2.62001 2.63148 2.64908L15.9122 4.47851ZM12.4457 12.9821C12.6927 12.9136 12.9505 12.8781 13.2135 12.8781C13.4766 12.8781 13.7342 12.9136 13.9812 12.9822C14.0207 12.764 14.048 12.5225 14.0586 12.2601H12.3684C12.379 12.5225 12.4062 12.7639 12.4457 12.9821ZM12.562 13.4609C12.7386 14.0242 13.0011 14.3412 13.2135 14.3412C13.426 14.3412 13.6882 14.0242 13.8648 13.4609C13.6556 13.4012 13.4369 13.3704 13.2135 13.3704C12.9902 13.3704 12.7714 13.4013 12.562 13.4609ZM12.1049 10.3827C12.1756 10.1661 12.2606 9.97319 12.3576 9.80911C12.1389 9.89429 11.9359 10.0112 11.7543 10.154C11.8649 10.241 11.9822 10.3174 12.1049 10.3827V10.3827ZM11.7543 13.874C11.9359 14.0168 12.1389 14.1336 12.3576 14.2188C12.2606 14.0548 12.1756 13.8619 12.1049 13.6453C11.9822 13.7106 11.8649 13.787 11.7543 13.874V13.874ZM11.9784 10.8705C11.7722 10.7716 11.5776 10.6473 11.3983 10.4994C11.1046 10.8507 10.9108 11.2882 10.861 11.7678H11.8759C11.8879 11.4481 11.9232 11.1467 11.9784 10.8705L11.9784 10.8705ZM4.16478 9.4888C4.60121 9.4888 4.95499 9.13502 4.95499 8.69859C4.95499 8.26217 4.60121 7.90839 4.16478 7.90839C3.72836 7.90839 3.37458 8.26217 3.37458 8.69859C3.37458 9.13502 3.72836 9.4888 4.16478 9.4888ZM13.8648 10.5672C13.6882 10.0039 13.4257 9.68691 13.2135 9.68691C13.0013 9.68691 12.7386 10.0038 12.562 10.5671C12.7713 10.6268 12.9901 10.6577 13.2135 10.6577C13.4369 10.6577 13.6556 10.6268 13.8648 10.5672ZM11.8759 12.2601H10.8609C10.9107 12.7398 11.1046 13.1773 11.3983 13.5286C11.5776 13.3807 11.7722 13.2565 11.9784 13.1575C11.9232 12.8813 11.8879 12.5799 11.8759 12.2601H11.8759ZM14.4486 13.1577C14.6546 13.2566 14.8492 13.3808 15.0283 13.5286C15.322 13.1773 15.5158 12.7398 15.5656 12.2601H14.5512C14.5391 12.5799 14.5039 12.8814 14.4486 13.1576V13.1577ZM14.4486 10.8704C14.5039 11.1466 14.5391 11.4481 14.5512 11.7678H15.5656C15.5158 11.2882 15.322 10.8507 15.0284 10.4994C14.8492 10.6472 14.6546 10.7714 14.4486 10.8704H14.4486ZM17.6132 5.68243V15.6474C17.6132 16.0389 17.2929 16.3592 16.9015 16.3592H1.09849C0.706992 16.3592 0.386719 16.0389 0.386719 15.6474V5.68247C0.386719 5.29097 0.707027 4.9707 1.09849 4.9707H16.9015C17.293 4.9707 17.6133 5.291 17.6133 5.68247L17.6132 5.68243ZM7.41347 6.70457C7.41347 6.84062 7.52379 6.9508 7.65953 6.9508H15.0635C15.1996 6.9508 15.3096 6.84066 15.3096 6.70457C15.3096 6.56848 15.1996 6.45851 15.0635 6.45851H7.65956C7.52382 6.45851 7.4135 6.56865 7.4135 6.70457H7.41347ZM7.41347 7.98225C7.41347 8.11816 7.52379 8.22831 7.65953 8.22831H15.0635C15.1996 8.22831 15.3096 8.11816 15.3096 7.98225C15.3096 7.84634 15.1996 7.73619 15.0635 7.73619H7.65956C7.52382 7.73619 7.4135 7.84634 7.4135 7.98225H7.41347ZM7.41347 9.25993C7.41347 9.39585 7.52379 9.50596 7.65953 9.50596H10.7182C10.8543 9.50596 10.9643 9.39581 10.9643 9.25993C10.9643 9.12406 10.8543 9.0137 10.7182 9.0137H7.65953C7.52379 9.0137 7.41347 9.12402 7.41347 9.25993ZM2.17536 11.0015H2.51255C2.58922 10.1563 3.29962 9.49415 4.16478 9.49415C5.02995 9.49415 5.74035 10.1563 5.81702 11.0015H6.15421V6.7046H2.1754L2.17536 11.0015ZM9.70562 13.3476H2.1754V14.6253H9.70566L9.70562 13.3476ZM9.95175 11.8152C9.95175 11.6792 9.84178 11.5691 9.70569 11.5691H7.65953C7.52379 11.5691 7.41347 11.6792 7.41347 11.8152C7.41347 11.9511 7.52379 12.0612 7.65953 12.0612H9.70569C9.84175 12.0612 9.95175 11.9511 9.95175 11.8152ZM10.0993 10.5375C10.0993 10.4016 9.98937 10.2914 9.85331 10.2914H7.65956C7.52382 10.2914 7.4135 10.4016 7.4135 10.5375C7.4135 10.6734 7.52382 10.7835 7.65956 10.7835H9.85331C9.98937 10.7835 10.0993 10.6734 10.0993 10.5375ZM16.0707 12.014C16.0707 10.4384 14.7888 9.15668 13.2135 9.15668C11.6382 9.15668 10.356 10.4384 10.356 12.014C10.356 13.5896 11.6378 14.8714 13.2135 14.8714C14.7893 14.8714 16.0707 13.5895 16.0707 12.014ZM13.2135 11.15C12.9505 11.15 12.6927 11.1145 12.4456 11.0459C12.4061 11.2641 12.3789 11.5055 12.3684 11.7678H14.0585C14.0479 11.5055 14.0207 11.2641 13.9812 11.0459C13.7342 11.1145 13.4764 11.1499 13.2135 11.1499V11.15ZM14.0693 14.2188C14.288 14.1336 14.4909 14.0167 14.6725 13.8739C14.562 13.7869 14.4447 13.7106 14.3221 13.6453C14.2513 13.8619 14.1663 14.0547 14.0693 14.2188H14.0693ZM14.6725 10.1541C14.4909 10.0112 14.288 9.89433 14.0693 9.80914C14.1663 9.97322 14.2514 10.1661 14.3221 10.3828C14.4448 10.3175 14.562 10.2411 14.6726 10.1541L14.6725 10.1541Z" fill="#009EAA"/>
</svg>
