<svg width="18" height="20" viewBox="0 0 18 20" fill="none" xmlns="http://www.w3.org/2000/svg">
<path d="M0.713755 12.4237C0.52738 13.6435 1.3595 14.4896 2.378 14.9114C6.28313 16.5301 11.7169 16.5301 15.622 14.9114C16.6405 14.4896 17.4726 13.6426 17.2863 12.4237C17.1725 11.6739 16.6064 11.05 16.1873 10.4401C15.6386 9.63163 15.5844 8.7505 15.5835 7.8125C15.5844 4.18825 12.6374 1.25 9 1.25C5.36263 1.25 2.41563 4.18825 2.41563 7.8125C2.41563 8.7505 2.36138 9.6325 1.81188 10.4401C1.39363 11.05 0.82838 11.6739 0.713755 12.4237Z" fill="#009EAA" stroke="white" stroke-opacity="0.85" stroke-linecap="round" stroke-linejoin="round"/>
<path d="M5.5 16.125C5.90075 17.6344 7.3165 18.75 9 18.75C10.6844 18.75 12.0984 17.6344 12.5 16.125" fill="#009EAA"/>
<path d="M5.5 16.125C5.90075 17.6344 7.3165 18.75 9 18.75C10.6844 18.75 12.0984 17.6344 12.5 16.125" stroke="white" stroke-opacity="0.85" stroke-linecap="round" stroke-linejoin="round"/>
</svg>
