<svg width="16" height="17" viewBox="0 0 16 17" fill="none" xmlns="http://www.w3.org/2000/svg">
<g clip-path="url(#clip0_1933_3624)">
<path d="M10.3925 1.83C7.845 2.9875 5.2975 4.14333 2.75 5.2975C1.9175 4.9475 1.08417 4.59833 0.25 4.25C2.8325 3.0825 5.41583 1.91583 8 0.75L10.3925 1.83Z" fill="#FFCF44"/>
<path d="M12.25 7.705C12.5825 7.5525 12.9175 7.4025 13.25 7.25V8.445C13.2498 8.96477 13.0676 9.46806 12.735 9.8675C12.49 10.1625 12.245 10.455 12 10.75L11.71 10.6525C11.3576 10.5355 11.051 10.3105 10.8338 10.0094C10.6166 9.70822 10.4998 9.3463 10.5 8.975V8.5C11.085 8.235 11.6683 7.97 12.25 7.705Z" fill="#E6ECF4"/>
<path d="M15.75 4.24982C13.1675 5.33232 10.5842 6.41566 8 7.49982C7 7.07982 6 6.66066 5 6.24232C7.4375 5.05982 9.87333 3.87732 12.3075 2.69482C13.455 3.21232 14.6025 3.73066 15.75 4.24982Z" fill="#FFCF44"/>
<path d="M12.3075 2.69508C9.87 3.87758 7.43417 5.06008 5 6.24258L2.75 5.29758C5.2975 4.14258 7.845 2.98674 10.3925 1.83008C11.03 2.12008 11.67 2.40758 12.3075 2.69508Z" fill="#D8E0EB"/>
<path d="M5 6.24236V8.26986L2.75 7.24986V5.29736L5 6.24236Z" fill="#E6ECF4"/>
<path d="M14.75 11.75L9 14.5V8.25C10.94 7.4075 12.81 6.5925 14.75 5.75V11.75ZM12 10.75C12.245 10.455 12.49 10.1625 12.735 9.8675C13.0676 9.46806 13.2498 8.96477 13.25 8.445V7.25C12.9175 7.4025 12.5825 7.5525 12.25 7.705C11.6675 7.97 11.0842 8.235 10.5 8.5V8.975C10.4998 9.3463 10.6166 9.70822 10.8338 10.0094C11.051 10.3105 11.3576 10.5355 11.71 10.6525L12 10.75Z" fill="#FF5666"/>
<path d="M15.75 4.25V12.5C13.1675 13.6675 10.5825 15.0825 8 16.25V7.5C10.5825 6.4175 13.1658 5.33417 15.75 4.25ZM14.75 11.75V5.75C12.81 6.5925 10.94 7.4075 9 8.25V14.5L14.75 11.75Z" fill="#FFBC1C"/>
<path d="M8 7.5V16.25C5.4175 15.0825 2.83417 13.9158 0.25 12.75V4.25C1.0825 4.6 1.91583 4.94917 2.75 5.2975V7.25L5 8.27V6.2425C6 6.6625 7 7.08167 8 7.5Z" fill="#FFDD66"/>
<path d="M7.99996 16.5001C7.93368 16.5 7.87014 16.4736 7.82327 16.4267C7.7764 16.3799 7.75004 16.3163 7.74996 16.2501V7.66655L0.153283 4.48089C0.108375 4.46208 0.0699407 4.43055 0.0427028 4.39019C0.0154649 4.34983 0.000609308 4.3024 -3.888e-05 4.25371C-0.000687068 4.20502 0.0129003 4.15721 0.0390541 4.11614C0.0652079 4.07506 0.102789 4.04253 0.14718 4.02252L7.89718 0.522645C7.92948 0.508042 7.96452 0.500488 7.99996 0.500488C8.03541 0.500488 8.07045 0.508042 8.10275 0.522645L15.852 4.02215C15.9064 4.04638 15.9503 4.0893 15.9758 4.14313C15.98 4.15171 15.9836 4.16057 15.9865 4.16963C15.9961 4.19732 16.0007 4.22651 16 4.2558V12.5003C16 12.5484 15.9861 12.5955 15.9599 12.6359C15.9338 12.6763 15.8966 12.7083 15.8527 12.7281C14.5656 13.3094 13.2546 13.9649 11.9868 14.5987C10.7146 15.2349 9.39889 15.8926 8.10275 16.4778C8.07046 16.4925 8.03542 16.5001 7.99996 16.5001ZM8.24996 7.66655V15.8614C9.42306 15.3216 10.611 14.7276 11.7631 14.1517C12.9873 13.5396 14.2517 12.9075 15.5 12.3392V4.62628L8.24996 7.66655ZM0.876183 4.24176L7.99996 7.22919L15.1237 4.24176L7.99996 1.02472L0.876183 4.24176Z" fill="black"/>
<path d="M7.99975 16.4997C7.96437 16.4998 7.9294 16.4922 7.89721 16.4775L0.147213 12.9778C0.103351 12.958 0.0661277 12.926 0.0400139 12.8856C0.0139002 12.8452 5.97079e-06 12.7981 0 12.75L0 4.25C0 4.1837 0.0263392 4.12011 0.0732233 4.07322C0.120107 4.02634 0.183696 4 0.25 4C0.316304 4 0.379893 4.02634 0.426777 4.07322C0.473661 4.12011 0.5 4.1837 0.5 4.25V12.5886L8.10278 16.022C8.15489 16.0455 8.19735 16.0862 8.22309 16.1372C8.24884 16.1883 8.2563 16.2466 8.24425 16.3025C8.2322 16.3584 8.20136 16.4084 8.15687 16.4443C8.11237 16.4802 8.05692 16.4998 7.99975 16.4997Z" fill="black"/>
<path d="M5 8.51976C4.96437 8.5198 4.92915 8.51218 4.89673 8.49742L2.64673 7.47777C2.60297 7.45794 2.56585 7.42593 2.53983 7.38555C2.51381 7.34517 2.49998 7.29814 2.5 7.25011V5.29845C2.49999 5.25041 2.51383 5.20339 2.53985 5.16301C2.56587 5.12264 2.60298 5.09062 2.64673 5.07078L10.2961 1.60094C10.3261 1.58701 10.3585 1.57916 10.3915 1.57784C10.4245 1.57651 10.4574 1.58174 10.4884 1.59322C10.5194 1.60469 10.5478 1.62219 10.5719 1.6447C10.5961 1.66721 10.6156 1.69428 10.6292 1.72436C10.6428 1.75444 10.6504 1.78692 10.6514 1.81993C10.6524 1.85294 10.6469 1.88582 10.6351 1.91668C10.6234 1.94754 10.6056 1.97577 10.5829 1.99972C10.5601 2.02368 10.5329 2.0429 10.5027 2.05626L3 5.45958V7.08897L4.75 7.88194V6.24205C4.75 6.19512 4.76321 6.14914 4.78812 6.10938C4.81304 6.06961 4.84865 6.03767 4.89087 6.0172L12.208 2.46568C12.2676 2.43709 12.3361 2.43327 12.3985 2.45505C12.4609 2.47683 12.5121 2.52244 12.541 2.5819C12.5698 2.64136 12.574 2.70983 12.5525 2.77233C12.531 2.83482 12.4856 2.88626 12.4263 2.91539L5.25 6.39854V8.26976C5.24999 8.33606 5.22365 8.39964 5.17677 8.44653C5.12989 8.49341 5.0663 8.51975 5 8.51976Z" fill="black"/>
<path d="M11.0003 12.9998C10.9439 12.9998 10.8892 12.9809 10.845 12.9459C10.8007 12.911 10.7696 12.8622 10.7567 12.8073C10.7437 12.7525 10.7496 12.6949 10.7735 12.6438C10.7974 12.5928 10.8378 12.5513 10.8882 12.5261L12.8882 11.5261C12.9475 11.4967 13.016 11.4919 13.0788 11.5129C13.1416 11.5339 13.1935 11.579 13.2231 11.6382C13.2527 11.6974 13.2576 11.766 13.2368 11.8288C13.2159 11.8917 13.171 11.9436 13.1118 11.9734L11.1118 12.9734C11.0772 12.9907 11.039 12.9997 11.0003 12.9998Z" fill="black"/>
<path d="M9 14.75C8.93371 14.7499 8.87015 14.7236 8.82327 14.6767C8.7764 14.6298 8.75004 14.5663 8.75 14.5V8.24996C8.75001 8.20125 8.76425 8.15361 8.79097 8.11288C8.81769 8.07216 8.85572 8.04012 8.90039 8.02071L14.6504 5.52071C14.6884 5.50418 14.73 5.49738 14.7713 5.50091C14.8126 5.50444 14.8524 5.51819 14.8871 5.54094C14.9218 5.56368 14.9503 5.59469 14.97 5.63118C14.9897 5.66767 15 5.70849 15 5.74996V11.75C15 11.7971 14.9867 11.8434 14.9615 11.8833C14.9364 11.9232 14.9005 11.9552 14.8579 11.9755L9.10791 14.7255C9.07422 14.7417 9.03734 14.75 9 14.75ZM9.25 8.4139V14.1032L14.5 11.5925V6.13131L9.25 8.4139Z" fill="black"/>
<path d="M6.49975 14.2501C6.46484 14.2501 6.43032 14.2428 6.39843 14.2286L4.14843 13.2286C4.08782 13.2016 4.0404 13.1517 4.01659 13.0898C3.99278 13.0279 3.99454 12.9591 4.02148 12.8985C4.04841 12.8379 4.09832 12.7905 4.16022 12.7667C4.22212 12.7429 4.29095 12.7446 4.35155 12.7716L6.60155 13.7716C6.65395 13.7948 6.69675 13.8354 6.72279 13.8865C6.74883 13.9375 6.75653 13.996 6.7446 14.0521C6.73267 14.1081 6.70184 14.1584 6.65726 14.1945C6.61268 14.2305 6.55707 14.2501 6.49975 14.2501Z" fill="black"/>
<path d="M6.49975 13.0001C6.46484 13.0001 6.43032 12.9928 6.39843 12.9786L4.14843 11.9786C4.08782 11.9516 4.0404 11.9017 4.01659 11.8398C3.99278 11.7779 3.99454 11.7091 4.02148 11.6485C4.04841 11.5879 4.09832 11.5405 4.16022 11.5167C4.22212 11.4929 4.29095 11.4946 4.35155 11.5216L6.60155 12.5216C6.65395 12.5448 6.69675 12.5854 6.72279 12.6365C6.74883 12.6875 6.75653 12.746 6.7446 12.8021C6.73267 12.8581 6.70184 12.9084 6.65726 12.9445C6.61268 12.9805 6.55707 13.0001 6.49975 13.0001Z" fill="black"/>
<path d="M12.2498 9.50012C12.2111 9.50011 12.173 9.49108 12.1384 9.47375L11.6384 9.22375C11.5827 9.19598 11.5394 9.14844 11.5169 9.09042C11.4944 9.0324 11.4944 8.96807 11.5168 8.91003L12.0168 7.61462C12.0286 7.58392 12.0463 7.55583 12.069 7.53198C12.0916 7.50813 12.1187 7.48898 12.1488 7.47563C12.1788 7.46228 12.2112 7.45499 12.2441 7.45418C12.277 7.45337 12.3097 7.45905 12.3403 7.4709C12.371 7.48275 12.399 7.50054 12.4228 7.52324C12.4466 7.54595 12.4657 7.57312 12.479 7.60321C12.4922 7.6333 12.4994 7.66571 12.5001 7.69859C12.5009 7.73146 12.4951 7.76416 12.4832 7.7948L12.0649 8.87805L12.3616 9.02649C12.412 9.05165 12.4524 9.0931 12.4763 9.14412C12.5002 9.19515 12.5062 9.25275 12.4932 9.30758C12.4803 9.36241 12.4492 9.41127 12.405 9.44622C12.3608 9.48116 12.3061 9.50016 12.2498 9.50012Z" fill="black"/>
<path d="M11.9997 11C11.9522 10.9999 11.9057 10.9863 11.8657 10.9608C11.8256 10.9353 11.7937 10.8989 11.7736 10.8558C11.7535 10.8128 11.746 10.7649 11.7521 10.7178C11.7583 10.6707 11.7777 10.6263 11.8081 10.5898L12.5432 9.70776C12.8381 9.35324 12.9997 8.90671 13 8.44556V7.25C13 7.1837 13.0263 7.12011 13.0732 7.07322C13.1201 7.02634 13.1837 7 13.25 7C13.3163 7 13.3799 7.02634 13.4268 7.07322C13.4737 7.12011 13.5 7.1837 13.5 7.25V8.44556C13.4997 9.02376 13.2971 9.58363 12.9272 10.0281L12.1919 10.9102C12.1685 10.9384 12.1391 10.961 12.1059 10.9766C12.0727 10.9921 12.0364 11.0001 11.9997 11Z" fill="black"/>
<path d="M10.5002 8.7498C10.4431 8.74984 10.3877 8.73032 10.3432 8.6945C10.2988 8.65867 10.2679 8.60869 10.2558 8.55287C10.2436 8.49706 10.251 8.43878 10.2766 8.38772C10.3022 8.33667 10.3445 8.29592 10.3965 8.27226L13.1465 7.02226C13.2068 6.99494 13.2755 6.99268 13.3375 7.01597C13.3995 7.03925 13.4497 7.08619 13.4772 7.14646C13.5046 7.20674 13.507 7.27544 13.4838 7.33747C13.4606 7.39951 13.4138 7.44981 13.3535 7.47734L10.6035 8.72734C10.5711 8.7421 10.5359 8.74976 10.5002 8.7498Z" fill="black"/>
<path d="M12 11C11.9731 11 11.9464 10.9956 11.9209 10.9871L11.6304 10.8901C11.2282 10.7566 10.8784 10.4997 10.6306 10.1559C10.3828 9.8122 10.2496 9.3991 10.25 8.97534V8.5C10.25 8.4337 10.2763 8.37011 10.3232 8.32322C10.3701 8.27634 10.4337 8.25 10.5 8.25C10.5663 8.25 10.6299 8.27634 10.6768 8.32322C10.7237 8.37011 10.75 8.4337 10.75 8.5V8.97534C10.7497 9.29417 10.8499 9.60497 11.0364 9.8636C11.2228 10.1222 11.486 10.3155 11.7886 10.416L12.0791 10.5129C12.1354 10.5317 12.1831 10.5699 12.2138 10.6207C12.2445 10.6715 12.2562 10.7315 12.2467 10.7901C12.2371 10.8487 12.2071 10.902 12.1619 10.9404C12.1167 10.9789 12.0593 11 12 11Z" fill="black"/>
<path d="M12 12.5C11.9672 12.5 11.9346 12.4936 11.9043 12.481C11.874 12.4685 11.8464 12.45 11.8232 12.4268C11.8 12.4036 11.7815 12.376 11.769 12.3457C11.7564 12.3154 11.75 12.2828 11.75 12.25V10.75C11.75 10.6837 11.7763 10.6201 11.8232 10.5732C11.8701 10.5263 11.9337 10.5 12 10.5C12.0663 10.5 12.1299 10.5263 12.1768 10.5732C12.2237 10.6201 12.25 10.6837 12.25 10.75V12.25C12.25 12.2828 12.2436 12.3154 12.231 12.3457C12.2185 12.376 12.2 12.4036 12.1768 12.4268C12.1536 12.45 12.126 12.4685 12.0957 12.481C12.0654 12.4936 12.0328 12.5 12 12.5Z" fill="black"/>
</g>
<defs>
<clipPath id="clip0_1933_3624">
<rect width="16" height="16" fill="white" transform="translate(0 0.5)"/>
</clipPath>
</defs>
</svg>
