<svg width="74" height="74" viewBox="0 0 74 74" fill="none" xmlns="http://www.w3.org/2000/svg">
<path fill-rule="evenodd" clip-rule="evenodd" d="M3.69475 16.6579L0.867432 13.048L8.7626 1.24121H57.1115L65.0238 13.048L62.1789 16.6579H3.69475Z" fill="#FB9E20"/>
<path fill-rule="evenodd" clip-rule="evenodd" d="M0.867432 13.0479H65.042V60.7744H0.867432V13.0479Z" fill="#FEBF10"/>
<path fill-rule="evenodd" clip-rule="evenodd" d="M26.5976 27.4512H39.2937C41.2498 27.4512 42.8502 29.0516 42.8502 31.0077C42.8502 32.9633 41.2498 34.5637 39.2937 34.5637H26.5976C24.6417 34.5637 23.0591 32.9634 23.0591 31.0077C23.0591 29.0516 24.6417 27.4512 26.5976 27.4512Z" fill="#FB9E20"/>
<path fill-rule="evenodd" clip-rule="evenodd" d="M30.1895 16.6579H35.7019L37.6756 13.048L36.5023 1.24121H29.3717L28.198 13.048L30.1895 16.6579Z" fill="#CA200A"/>
<path fill-rule="evenodd" clip-rule="evenodd" d="M28.2158 60.7924H37.6936V51.8125L36.5024 52.7551L35.3286 53.6975L34.1371 52.7551L32.9459 51.8125L31.7722 52.7551L30.5811 53.6975L29.3894 52.7551L28.2158 51.8125V60.7924Z" fill="#F2501B"/>
<path fill-rule="evenodd" clip-rule="evenodd" d="M28.2158 13.0479H37.6936V22.0101L35.3286 20.1254L32.9459 22.0101L30.5811 20.1254L28.2158 22.0101V13.0479Z" fill="#F2501B"/>
<path fill-rule="evenodd" clip-rule="evenodd" d="M53.7687 72.7597C64.4376 72.7597 73.1329 64.0641 73.1329 53.3953C73.1329 42.7438 64.4376 34.0488 53.7687 34.0488C43.1172 34.0488 34.4216 42.7438 34.4216 53.3953C34.4216 64.0641 43.1172 72.7597 53.7687 72.7597Z" fill="#009EAA"/>
<path fill-rule="evenodd" clip-rule="evenodd" d="M42.2281 55.8663C41.2144 54.906 41.161 53.306 42.1032 52.2741C43.0636 51.2606 44.664 51.2075 45.6954 52.1677L50.1942 56.3645L61.8059 45.1084C62.8017 44.1305 64.4197 44.1659 65.3976 45.1617C66.3758 46.1753 66.3579 47.7756 65.344 48.7536L52.008 61.6988H51.9902C51.0301 62.6413 49.4827 62.6591 48.5051 61.7344L42.2281 55.8663Z" fill="white"/>
</svg>
