<svg width="68" height="68" viewBox="0 0 68 68" fill="none" xmlns="http://www.w3.org/2000/svg">
<path d="M4.09793 18.5931C1.83467 18.5931 0 20.4277 0 22.6905V60.5822C0 62.8452 1.83467 64.6797 4.09793 64.6797H33.9639L38.5084 38.9007L33.9639 18.5931H4.09793Z" fill="#FF837F"/>
<path d="M68 60.5823V22.6905C68 20.4275 66.1653 18.5931 63.9021 18.5931H33.9639V64.6797H63.9021C66.1653 64.6797 68 62.8452 68 60.5823Z" fill="#FF5A6F"/>
<path d="M8.65527 53.9893C7.55505 53.9893 6.66309 54.8811 6.66309 55.9812C6.66309 57.0813 7.55505 57.9731 8.65527 57.9731H33.9639L35.5564 55.9812L33.9639 53.9893H8.65527Z" fill="#006A83"/>
<path d="M61.0053 55.9812C61.0053 54.8811 60.1133 53.9893 59.0131 53.9893H33.9639V57.9732H59.0131C60.1133 57.9732 61.0053 57.0814 61.0053 55.9812Z" fill="#004460"/>
<path d="M8.65527 29.0822V35.255C8.65527 36.0827 9.32638 36.7538 10.1542 36.7538H17.6094L20.5233 32.1686L17.6094 27.5834H10.1542C9.32638 27.5834 8.65527 28.2543 8.65527 29.0822Z" fill="#FFF4AE"/>
<path d="M25.0645 27.5834H17.6094V36.7537H25.0645C25.8924 36.7537 26.5635 36.0827 26.5635 35.2549V29.082C26.5635 28.2543 25.8924 27.5834 25.0645 27.5834Z" fill="#FFE367"/>
<path d="M12.696 49.0941H8.65527C7.55505 49.0941 6.66309 48.2022 6.66309 47.1021C6.66309 46.0021 7.55505 45.1102 8.65527 45.1102H12.696C13.7962 45.1102 14.6881 46.0021 14.6881 47.1021C14.6881 48.2022 13.7962 49.0941 12.696 49.0941Z" fill="#FFF5F5"/>
<path d="M24.275 49.0941H20.4038C19.3036 49.0941 18.4116 48.2022 18.4116 47.1021C18.4116 46.0021 19.3036 45.1102 20.4038 45.1102H24.275C25.3752 45.1102 26.2672 46.0021 26.2672 47.1021C26.2672 48.2022 25.3752 49.0941 24.275 49.0941Z" fill="#FFF5F5"/>
<path d="M47.4337 49.0941H43.5625C42.4623 49.0941 41.5703 48.2022 41.5703 47.1021C41.5703 46.0021 42.4623 45.1102 43.5625 45.1102H47.4337C48.5339 45.1102 49.4259 46.0021 49.4259 47.1021C49.4259 48.2022 48.5341 49.0941 47.4337 49.0941Z" fill="#E4F1FA"/>
<path d="M59.0133 49.0941H55.1421C54.0419 49.0941 53.1499 48.2022 53.1499 47.1021C53.1499 46.0021 54.0419 45.1102 55.1421 45.1102H59.0133C60.1135 45.1102 61.0055 46.0021 61.0055 47.1021C61.0055 48.2022 60.1135 49.0941 59.0133 49.0941Z" fill="#E4F1FA"/>
<path d="M31.9834 45.1101C30.8832 45.1101 29.9912 46.0019 29.9912 47.102C29.9912 48.2021 30.8832 49.094 31.9834 49.094H33.9639L34.5985 47.102L33.9639 45.1101H31.9834Z" fill="#FFF5F5"/>
<path d="M37.8466 47.102C37.8466 46.0019 36.9547 45.1101 35.8545 45.1101H33.9639V49.0941H35.8545C36.9547 49.0941 37.8466 48.2022 37.8466 47.102Z" fill="#E4F1FA"/>
<path d="M36.7358 18.9811C36.7358 27.6284 43.7316 34.6388 52.3624 34.6419L56.4556 20.977L52.3624 3.32056C43.7316 3.32348 36.7358 10.3339 36.7358 18.9811Z" fill="#7CDCA6"/>
<path d="M68.0003 18.981C68.0003 10.3319 61.0016 3.32031 52.3682 3.32031C52.3664 3.32031 52.3645 3.32045 52.3628 3.32045V34.6419H52.3682C61.0016 34.6419 68.0003 27.6303 68.0003 18.981Z" fill="#43C6B1"/>
<path d="M50.1861 20.1929L47.898 18.1012C47.0861 17.3591 45.8259 17.4154 45.0834 18.2271C44.341 19.0392 44.3975 20.2991 45.2093 21.0414L48.9034 24.4185C49.2847 24.7672 49.7663 24.9403 50.2473 24.9403C50.7581 24.9403 51.2682 24.7448 51.6562 24.3568L52.3625 23.6505L53.9813 19.4449L52.3625 18.0165L50.1861 20.1929Z" fill="#FFF5F5"/>
<path d="M59.5914 13.6056C58.8135 12.8277 57.552 12.8277 56.774 13.6056L52.3628 18.0165V23.6505L59.5914 16.4226C60.3694 15.6447 60.3694 14.3834 59.5914 13.6056Z" fill="#E4F1FA"/>
</svg>
