<svg width="22" height="22" viewBox="0 0 22 22" fill="none" xmlns="http://www.w3.org/2000/svg">
<path d="M15.5837 11.75C16.6881 11.7502 17.5837 12.6455 17.5837 13.75C17.5836 15.4579 16.9321 16.8152 15.861 17.7725L15.6413 17.959C14.4443 18.9196 12.8005 19.416 10.9997 19.416C9.31113 19.416 7.76104 18.9793 6.58757 18.1328L6.35808 17.959C5.15706 16.995 4.41676 15.5717 4.41667 13.75C4.41667 12.7152 5.20322 11.8624 6.21062 11.7598L6.43132 11.75H15.5837ZM10.9997 2.58301C12.6105 2.58301 13.9167 3.88917 13.9167 5.5C13.9165 7.11068 12.6104 8.41602 10.9997 8.41602C9.38911 8.41584 8.08384 7.11057 8.08366 5.5C8.08366 3.88928 9.389 2.58318 10.9997 2.58301Z" fill="#009EAA" stroke="#009EAA" stroke-width="1.5"/>
</svg>
