<svg width="22" height="22" viewBox="0 0 22 22" fill="none" xmlns="http://www.w3.org/2000/svg">
<g clip-path="url(#clip0_1813_20305)">
<path d="M19.2704 5.8031C19.1586 4.88322 18.6682 4.11071 17.9236 3.67876C17.5247 3.45006 17.0647 3.3281 16.5947 3.3281C16.4041 3.3281 16.216 3.3459 16.0305 3.38399C16.0229 1.90507 15.1691 0.649768 13.8427 0.332143C13.6445 0.286389 13.4412 0.260986 13.2353 0.260986C12.379 0.260986 11.5836 0.667539 11.0017 1.34349C10.4173 0.667539 9.6219 0.260986 8.76555 0.260986C8.55972 0.260986 8.35642 0.286389 8.15822 0.332143C7.32218 0.532893 6.631 1.13514 6.26257 1.98641C6.07454 2.41585 5.97798 2.89611 5.97289 3.38653C5.78741 3.34841 5.59683 3.3281 5.40622 3.3281C4.93611 3.3281 4.47617 3.45006 4.07725 3.67876C2.64405 4.50716 2.27562 6.45615 3.23362 8.12059L3.24537 8.1408C4.22324 9.81046 4.80686 11.6808 4.80686 13.6158V21.7425H17.1887V13.6244C17.1887 11.6891 17.7691 9.81645 18.7509 8.14864C18.7564 8.13932 18.7619 8.12994 18.7673 8.12056C19.184 7.39634 19.3619 6.57557 19.2704 5.8031Z" fill="#F4F4F4"/>
<path opacity="0.09" d="M18.7655 8.1197C18.7612 8.12829 18.7569 8.14118 18.7526 8.14978C17.7687 9.81676 17.1887 11.6899 17.1887 13.6232V21.7432H15.3929V13.6232C15.3929 11.6899 15.9729 9.81672 16.9524 8.14978C16.961 8.14118 16.9653 8.12829 16.9696 8.1197C17.3864 7.39793 17.5668 6.57733 17.4723 5.80399C17.3606 4.88456 16.8708 4.11126 16.1275 3.67731C15.8777 3.53493 15.3647 3.39833 14.9121 3.35223C14.5369 3.31404 14.2343 3.0356 14.1599 2.6659C13.9476 1.61155 13.2845 0.758258 12.3296 0.416467C12.6174 0.317639 12.9225 0.26178 13.2361 0.26178C13.4423 0.26178 13.6443 0.287595 13.8419 0.33053C15.1694 0.648464 16.0244 1.90295 16.0287 3.3852C16.2177 3.34656 16.4025 3.32934 16.5958 3.32934C17.0641 3.32934 17.5238 3.44965 17.9234 3.67735C18.6666 4.11126 19.1607 4.8846 19.2724 5.80403C19.3626 6.57729 19.1822 7.39793 18.7655 8.1197Z" fill="black"/>
<path d="M14.9719 12.3466C14.2286 13.7429 12.3297 13.1242 10.9978 13.1242C9.66599 13.1242 7.76698 13.7429 7.02376 12.3466C6.19886 10.7999 7.75412 9.36499 8.16229 8.73775C9.13754 7.23835 9.74017 6.56384 10.9979 6.56384C12.2555 6.56384 12.8582 7.23835 13.8334 8.73775C14.2415 9.36499 15.7968 10.7999 14.9719 12.3466Z" fill="#F66596"/>
<path opacity="0.09" d="M14.9717 12.3472C14.4906 13.2495 13.5239 13.3096 12.5401 13.2409C13.1501 13.1764 13.6786 12.9444 14.0008 12.3472C14.8257 10.8006 13.2704 9.3656 12.8623 8.73836C12.0202 7.44518 11.4574 6.76634 10.5122 6.60309C10.6626 6.57731 10.8258 6.56445 10.9977 6.56445C12.2565 6.56445 12.858 7.23896 13.8332 8.73836C14.2414 9.36557 15.7966 10.8006 14.9717 12.3472Z" fill="black"/>
<path d="M17.4431 7.35892C17.968 6.44991 17.8409 5.39397 17.1592 5.00042C16.4776 4.60686 15.4995 5.02472 14.9747 5.93374C14.4499 6.84275 14.577 7.89869 15.2586 8.29224C15.9403 8.6858 16.9183 8.26794 17.4431 7.35892Z" fill="#F66596"/>
<path opacity="0.09" d="M17.4423 7.3592C16.9439 8.21848 16.0374 8.6438 15.3672 8.34309C15.7882 8.1841 16.1921 7.84039 16.4713 7.3592C16.9955 6.4484 16.8709 5.39581 16.1878 5.00053C16.1534 4.97904 16.1147 4.96186 16.0804 4.94897C16.4498 4.80717 16.8365 4.8158 17.1587 5.00053C17.8419 5.39577 17.9665 6.44837 17.4423 7.3592Z" fill="black"/>
<path d="M14.4302 3.9906C14.6737 2.96927 14.2503 1.99329 13.4844 1.81068C12.7185 1.62807 11.9003 2.30798 11.6568 3.32931C11.4132 4.35064 11.8367 5.32662 12.6025 5.50923C13.3684 5.69184 14.1866 5.01193 14.4302 3.9906Z" fill="#F66596"/>
<path opacity="0.09" d="M14.4303 3.99519C14.1897 5.01771 13.3691 5.69655 12.6044 5.51178C12.527 5.49459 12.454 5.46881 12.3853 5.43444C12.875 5.21103 13.2961 4.67829 13.4593 3.99516C13.6784 3.07576 13.3605 2.19501 12.7376 1.89429C12.9782 1.78687 13.2316 1.75679 13.4851 1.81695C14.2499 1.99745 14.6752 2.97271 14.4303 3.99519Z" fill="black"/>
<path d="M9.39358 5.5172C10.1594 5.33459 10.5829 4.35861 10.3394 3.33728C10.0958 2.31595 9.27756 1.63604 8.51171 1.81865C7.74585 2.00126 7.32241 2.97724 7.56594 3.99857C7.80946 5.0199 8.62773 5.69981 9.39358 5.5172Z" fill="#F66596"/>
<path opacity="0.09" d="M9.39088 5.51183C9.1374 5.57199 8.87962 5.54191 8.63903 5.43449C9.26201 5.13374 9.5842 4.25302 9.3651 3.33359C9.20185 2.65049 8.78079 2.11775 8.29102 1.89434C8.35973 1.85997 8.43281 1.83419 8.51012 1.817C9.27486 1.63223 10.0912 2.31107 10.3361 3.33359C10.581 4.35611 10.1556 5.3314 9.39088 5.51183Z" fill="black"/>
<path d="M6.73734 8.29194C7.41898 7.89839 7.5461 6.84245 7.02126 5.93343C6.49643 5.02442 5.51839 4.60656 4.83675 5.00011C4.15511 5.39367 4.028 6.44961 4.55284 7.35862C5.07767 8.26763 6.05571 8.6855 6.73734 8.29194Z" fill="#F66596"/>
<path opacity="0.09" d="M6.73589 8.29151C6.41796 8.47627 6.03131 8.48483 5.65751 8.34307C5.69189 8.33018 5.73056 8.31299 5.76494 8.29151C6.44804 7.89626 6.57265 6.84367 6.0485 5.93283C5.76927 5.45165 5.3654 5.10794 4.94434 4.94899C5.61884 4.64824 6.52108 5.07356 7.01945 5.93283C7.54786 6.84363 7.41896 7.89623 6.73589 8.29151Z" fill="black"/>
<path d="M14.3289 8.96888C14.2128 8.82282 14.114 8.69821 14.0496 8.59508C13.1215 7.17295 12.4556 6.30505 10.9991 6.30505C9.54258 6.30505 8.87234 7.17295 7.94431 8.59508C7.87986 8.69821 7.78103 8.82282 7.66935 8.96888C7.0979 9.69068 6.03241 11.0355 6.79715 12.4662C7.25259 13.3255 8.08608 13.5145 8.94109 13.5145C9.31491 13.5145 9.69297 13.4801 10.041 13.4458C10.3847 13.4114 10.707 13.3814 10.9991 13.3814C11.2913 13.3814 11.6135 13.4114 11.9529 13.4458C13.1087 13.5575 14.5437 13.695 15.201 12.4662C15.9615 11.0355 14.9003 9.69068 14.3289 8.96888ZM14.7456 12.2256C14.4105 12.8529 13.7789 13.0033 13.0614 13.0033C12.722 13.0033 12.3611 12.9689 12.0045 12.9345C11.6479 12.9002 11.3128 12.8658 10.9991 12.8658C10.6812 12.8658 10.3461 12.9002 9.98942 12.9345C8.88526 13.0376 7.7424 13.1493 7.25259 12.2256C6.6468 11.0913 7.5061 10.0044 8.07322 9.28681C8.19779 9.12786 8.30522 8.99036 8.37826 8.87868C9.36648 7.36202 9.90781 6.82065 10.9991 6.82065C12.0861 6.82065 12.6318 7.36202 13.6156 8.87868C13.6887 8.99036 13.8004 9.12786 13.925 9.28681C14.4921 10.0044 15.3471 11.0913 14.7456 12.2256ZM13.5469 1.56612C12.6404 1.35131 11.6823 2.11605 11.4073 3.2761C11.3557 3.48661 11.3342 3.69716 11.3342 3.90338C11.3342 4.80991 11.8069 5.58758 12.5459 5.76375C12.649 5.78953 12.7521 5.80239 12.8509 5.80239C13.6543 5.80239 14.4363 5.08058 14.6812 4.05373C14.9604 2.89798 14.4492 1.78093 13.5469 1.56612ZM14.1828 3.93775C13.9723 4.81851 13.2891 5.41144 12.6662 5.26105C12.0389 5.11499 11.6995 4.27287 11.91 3.39212C12.1205 2.51136 12.7994 1.91843 13.4266 2.06882C14.0539 2.21488 14.3933 3.05696 14.1828 3.93775ZM7.24403 5.80239C6.96473 5.31688 6.55226 4.93879 6.08827 4.74116C5.59846 4.53062 5.10865 4.54351 4.70911 4.7755C3.90566 5.23953 3.73382 6.45544 4.33102 7.48656C4.76497 8.24704 5.49967 8.69388 6.17417 8.69388C6.41906 8.69388 6.65539 8.63802 6.86594 8.51344C7.26551 8.28145 7.52329 7.86468 7.58774 7.3362C7.6479 6.83787 7.52759 6.2922 7.24403 5.80239ZM7.07645 7.27608C7.03348 7.63698 6.86594 7.92054 6.60812 8.06664C6.0496 8.38887 5.22896 8.01507 4.77356 7.22881C4.32243 6.44685 4.40836 5.54461 4.96689 5.22238C5.0958 5.14933 5.24619 5.11066 5.40514 5.11066C5.55979 5.11066 5.72307 5.14504 5.88635 5.21379C6.24725 5.36844 6.57378 5.66922 6.79719 6.06017C6.98621 6.39099 7.08934 6.7476 7.08934 7.08272C7.08934 7.14717 7.08504 7.21166 7.07645 7.27608ZM10.5867 3.27607C10.3117 2.11601 9.35359 1.34698 8.44701 1.56608C7.54474 1.78089 7.03778 2.89798 7.31274 4.05373C7.55763 5.08058 8.33959 5.80239 9.14304 5.80239C9.24616 5.80239 9.34925 5.7895 9.45238 5.76375C9.90352 5.65633 10.2687 5.3298 10.4792 4.83999C10.6812 4.37596 10.7199 3.82174 10.5867 3.27607ZM10.0066 4.63378C9.86055 4.9689 9.61996 5.1923 9.3321 5.26105C8.70483 5.41144 8.02599 4.81854 7.81544 3.93775C7.60493 3.05696 7.94435 2.21488 8.56733 2.06878C8.63178 2.0516 8.70053 2.043 8.76498 2.043C9.3321 2.043 9.89925 2.60582 10.084 3.39208C10.1914 3.83463 10.1613 4.27287 10.0066 4.63378ZM19.5276 5.77231C19.403 4.77124 18.8659 3.92916 18.0539 3.4565C17.5211 3.15146 16.881 3.02685 16.2751 3.087C16.1591 1.58753 15.2354 0.401733 13.8992 0.0795014C12.8251 -0.169717 11.7896 0.17833 11.0034 0.964555C10.2128 0.17833 9.18597 -0.169717 8.09897 0.0795014C7.18384 0.302939 6.42765 0.960258 6.02808 1.88402C5.8648 2.24922 5.766 2.66168 5.72733 3.087C5.10435 3.02259 4.48138 3.15146 3.9486 3.4565C2.3933 4.35448 1.98084 6.45974 3.02487 8.27282C4.02165 9.97421 4.55009 11.826 4.55009 13.6176V21.7422C4.55009 21.884 4.66611 22 4.80787 22C4.94967 22 5.06568 21.884 5.06568 21.7422V13.6176C5.06568 11.7315 4.51142 9.79381 3.45882 7.99359C2.56944 6.45118 2.90026 4.65526 4.20641 3.90338C4.71337 3.61122 5.31916 3.51669 5.92069 3.637C5.99374 3.65419 6.07535 3.637 6.1355 3.58544C6.19566 3.53818 6.23 3.46513 6.23 3.38779C6.2343 2.92805 6.32883 2.48125 6.50067 2.09023C6.83579 1.31257 7.46306 0.762636 8.21495 0.582167C9.19886 0.354467 10.1226 0.719667 10.8057 1.51022C10.8573 1.57038 10.926 1.60046 11.0034 1.60046C11.0764 1.60046 11.1494 1.57038 11.1967 1.51022C11.8755 0.719667 12.8122 0.358764 13.7832 0.582167C14.9647 0.865761 15.7638 1.9914 15.7724 3.38345C15.7724 3.4608 15.8068 3.53385 15.867 3.58541C15.9271 3.63267 16.0087 3.65412 16.0818 3.63697C16.6403 3.52095 17.2848 3.61119 17.7961 3.90334C18.4663 4.29432 18.9131 4.99464 19.0162 5.83243C19.0979 6.54994 18.9303 7.31901 18.5307 8.01934C17.4824 9.79374 16.9324 11.7315 16.9324 13.6262V21.7422C16.9324 21.884 17.0485 22 17.1902 22C17.332 22 17.448 21.884 17.448 21.7422V13.6262C17.448 11.826 17.9722 9.97424 18.9904 8.24707C19.4331 7.47803 19.6221 6.59724 19.5276 5.77231ZM18.0109 5.95708C17.9465 5.42863 17.6887 5.00757 17.2891 4.77554C16.8853 4.54354 16.3954 4.53065 15.9057 4.7412C15.4416 4.93882 15.0335 5.31691 14.7499 5.80242C14.5179 6.21059 14.3933 6.6574 14.3933 7.08705C14.3933 7.16869 14.3976 7.25463 14.4062 7.33627C14.4706 7.86472 14.7284 8.28148 15.128 8.51351C15.3428 8.63809 15.5791 8.69824 15.8283 8.69824C16.0475 8.69824 16.2795 8.65098 16.5115 8.55218C16.9755 8.35453 17.3836 7.97644 17.6672 7.48666C17.9465 7.00111 18.0711 6.45548 18.0109 5.95708ZM17.2204 7.22881C16.9927 7.61979 16.6704 7.92054 16.3095 8.0752C15.9701 8.22129 15.6436 8.21699 15.3858 8.06664C15.128 7.92054 14.9647 7.63698 14.9218 7.27608C14.8745 6.8851 14.9733 6.45548 15.1968 6.06017C15.4245 5.66919 15.7467 5.36844 16.1076 5.21379C16.2752 5.14507 16.4384 5.11066 16.5888 5.11066C16.7478 5.11066 16.8982 5.1493 17.0313 5.22238C17.2892 5.37274 17.4524 5.65203 17.4997 6.0172C17.5426 6.40821 17.4481 6.83787 17.2204 7.22881Z" fill="#0B0C0C"/>
</g>
<defs>
<clipPath id="clip0_1813_20305">
<rect width="22" height="22" fill="white"/>
</clipPath>
</defs>
</svg>
