<svg width="22" height="22" viewBox="0 0 22 22" fill="none" xmlns="http://www.w3.org/2000/svg">
<path d="M16.2717 10.2649C16.2714 9.03503 15.7828 7.85562 14.9131 6.98599C14.0435 6.11636 12.8641 5.6277 11.6342 5.62746M19.4507 9.94037C19.4507 8.96595 19.2587 8.00108 18.8858 7.10084C18.5129 6.20061 17.9663 5.38265 17.2772 4.69367C16.5882 4.00469 15.7701 3.4582 14.8698 3.08539C13.9696 2.71258 13.0047 2.52075 12.0302 2.52087M11.4867 18.5323C11.2117 18.4067 10.9376 18.2811 10.6635 18.1317C9.31903 17.3721 8.08399 16.4334 6.99224 15.3414C5.57754 14.0091 4.41518 12.4321 3.56116 10.6865C3.1043 9.7489 2.79569 8.74606 2.64633 7.71379C2.44483 6.67076 2.5604 5.59127 2.97816 4.61454C3.23589 4.19469 3.54711 3.81014 3.90399 3.47054C4.04882 3.30851 4.22488 3.1774 4.42162 3.0851C4.61837 2.99279 4.83173 2.94118 5.04891 2.93337C5.50083 3.00121 5.91058 3.23771 6.19291 3.59612C6.81074 4.28271 7.47349 4.90054 8.12524 5.55229C8.38191 5.77229 8.54233 6.08396 8.57166 6.42129C8.56066 6.70546 8.45158 6.97587 8.26274 7.18762C8.04549 7.46262 7.78241 7.71379 7.53124 7.97596C7.37937 8.12225 7.26317 8.30151 7.19165 8.49987C7.12012 8.69824 7.09518 8.91041 7.11874 9.11996C7.27641 9.61037 7.54683 10.0577 7.90799 10.4244C8.34131 11.0156 8.79534 11.5913 9.26925 12.1505C10.1531 13.1701 11.2001 14.0359 12.3676 14.7125C12.5292 14.8346 12.7204 14.9117 12.9215 14.9358C13.1226 14.96 13.3265 14.9304 13.5125 14.85C13.9002 14.6328 14.2458 14.3459 14.53 14.004C14.7762 13.7045 15.1286 13.5117 15.5136 13.4659C15.8564 13.4842 16.1791 13.6309 16.4174 13.8784C16.7254 14.1405 16.9885 14.4495 17.2745 14.7355C17.5605 15.0215 17.7897 15.2277 18.0298 15.4899C18.3177 15.7441 18.5881 16.0148 18.8411 16.302C19.0372 16.556 19.1317 16.875 19.1042 17.194C19.002 17.5759 18.7819 17.916 18.4753 18.1656C18.0435 18.6146 17.519 18.9639 16.9382 19.1892C16.3575 19.4145 15.7346 19.5103 15.113 19.47C13.8544 19.4002 12.6213 19.0815 11.4867 18.5323Z" stroke="#DF1A00" stroke-miterlimit="10" stroke-linecap="round"/>
</svg>
