<svg width="18" height="18" viewBox="0 0 18 18" fill="none" xmlns="http://www.w3.org/2000/svg">
<path d="M8.99615 13.8853C9.30504 13.8853 9.69686 12.6799 9.69686 10.4572V6.90898C10.3076 6.75067 10.8483 6.39396 11.2343 5.89488C11.6202 5.3958 11.8293 4.78265 11.8289 4.15177C11.8294 3.77964 11.7565 3.41107 11.6143 3.06717C11.4721 2.72327 11.2635 2.41081 11.0003 2.14769C10.7372 1.88457 10.4247 1.67596 10.0808 1.53382C9.73686 1.39167 9.36828 1.31879 8.99615 1.31934C7.42918 1.31934 6.17111 2.5922 6.17111 4.15177C6.17111 5.47766 7.0679 6.5927 8.29575 6.90159V10.4572C8.29575 12.6719 8.69497 13.8849 8.99647 13.8849M8.19 4.30991C7.67797 4.30991 7.22572 3.85798 7.22572 3.33823C7.22572 2.81109 7.67797 2.36623 8.19 2.36623C8.71747 2.36623 9.15429 2.81077 9.15429 3.33823C9.15429 3.85798 8.71747 4.30991 8.19 4.30991ZM8.99615 16.6801C13.554 16.6801 16.1907 15.098 16.1907 13.4179C16.1907 11.3913 12.9664 10.1634 10.8871 10.1561V11.3312C12.3335 11.3386 14.5861 12.1219 14.5861 13.2373C14.5861 14.4201 12.4615 15.4143 8.99647 15.4143C5.53822 15.4143 3.4139 14.4275 3.4139 13.2373C3.4139 12.1219 5.66647 11.3386 7.1129 11.3312V10.1561C5.03358 10.1634 1.80933 11.3913 1.80933 13.4179C1.80933 15.098 4.44601 16.6798 8.99647 16.6798" fill="#009EAA"/>
</svg>
