<svg width="20" height="11" viewBox="0 0 20 11" fill="none" xmlns="http://www.w3.org/2000/svg">
<g clip-path="url(#clip0_1951_11326)">
<path d="M15.3571 4.26343V3.53573C15.3571 3.33478 15.1972 3.17188 15 3.17188H14.2857V4.62729H15C15.1972 4.62729 15.3571 4.46439 15.3571 4.26343Z" fill="#009EAA"/>
<path d="M15.3571 6.44703V5.71932C15.3571 5.51837 15.1972 5.35547 15 5.35547H14.2857V6.81088H15C15.1972 6.81088 15.3571 6.64798 15.3571 6.44703Z" fill="#009EAA"/>
<path d="M11.5289 5.3554H12.0424L11.7857 4.30859L11.5289 5.3554Z" fill="#009EAA"/>
<path d="M18.9286 0.261719H14.5775C11.4286 0.261719 8.57143 0.261719 5.4225 0.261719H1.07143C0.479695 0.261719 0 0.750427 0 1.35328V9.35805C0 9.9609 0.479695 10.4496 1.07143 10.4496H18.9286C19.5203 10.4496 20 9.9609 20 9.35805V1.35328C20 0.750427 19.5203 0.261719 18.9286 0.261719ZM13.5714 4.99181V2.80869C13.5714 2.60774 13.7313 2.44484 13.9286 2.44484H15C15.5917 2.44484 16.0714 2.93355 16.0714 3.5364V4.2641C16.0705 4.5335 15.9712 4.7929 15.7929 4.99181C15.9712 5.19072 16.0705 5.45012 16.0714 5.71952V6.44722C16.0714 7.05008 15.5917 7.53878 15 7.53878H13.9286C13.7313 7.53878 13.5714 7.37588 13.5714 7.17493V4.99181ZM2.5 7.53878H1.07143C0.874184 7.53878 0.714286 7.37588 0.714286 7.17493C0.714286 6.97398 0.874184 6.81108 1.07143 6.81108H1.78571V4.05089L1.68107 4.1575C1.54094 4.29539 1.31818 4.29341 1.18042 4.15306C1.04266 4.01271 1.04072 3.78578 1.17607 3.64301L1.89036 2.9153C1.9925 2.81127 2.14608 2.78016 2.27952 2.83646C2.41295 2.89277 2.49997 3.0254 2.5 3.17254V6.81108C2.69724 6.81108 2.85714 6.97398 2.85714 7.17493C2.85714 7.37588 2.69724 7.53878 2.5 7.53878ZM3.23464 7.29537C3.18451 7.14972 3.23003 6.98769 3.34821 6.89113C3.36464 6.87766 5 5.52558 5 4.2641C5 3.86969 4.75464 3.5364 4.46429 3.5364C4.17393 3.5364 3.92857 3.86969 3.92857 4.2641C3.92857 4.46506 3.76867 4.62796 3.57143 4.62796C3.37418 4.62796 3.21429 4.46506 3.21429 4.2641C3.16911 3.51197 3.72656 2.86292 4.46429 2.80869C5.20201 2.86292 5.75946 3.51197 5.71429 4.2641C5.71429 5.25269 5.02179 6.20672 4.46786 6.81108H5.35714C5.55439 6.81108 5.71429 6.97398 5.71429 7.17493C5.71429 7.37588 5.55439 7.53878 5.35714 7.53878H3.57143C3.41984 7.53869 3.28482 7.4411 3.23464 7.29537ZM6.07143 9.7219H3.92857C3.73133 9.7219 3.57143 9.559 3.57143 9.35805C3.57143 9.1571 3.73133 8.9942 3.92857 8.9942H6.07143C6.26867 8.9942 6.42857 9.1571 6.42857 9.35805C6.42857 9.559 6.26867 9.7219 6.07143 9.7219ZM7.67857 7.53878C6.96434 7.51192 6.40568 6.90211 6.42857 6.17433C6.42857 5.97338 6.58847 5.81048 6.78571 5.81048C6.98296 5.81048 7.14286 5.97338 7.14286 6.17433C7.12045 6.50013 7.35912 6.78381 7.67857 6.81108C7.9867 6.7623 8.21396 6.49202 8.21396 6.17433C8.21396 5.85665 7.9867 5.58637 7.67857 5.53759C7.48133 5.53759 7.32143 5.37469 7.32143 5.17374C7.32143 4.97279 7.48133 4.80988 7.67857 4.80988C7.9867 4.76111 8.21396 4.49082 8.21396 4.17314C8.21396 3.85546 7.9867 3.58518 7.67857 3.5364C7.35912 3.56366 7.12045 3.84735 7.14286 4.17314C7.14286 4.37409 6.98296 4.53699 6.78571 4.53699C6.58847 4.53699 6.42857 4.37409 6.42857 4.17314C6.40568 3.44537 6.96434 2.83555 7.67857 2.80869C8.3928 2.83555 8.95147 3.44537 8.92857 4.17314C8.93085 4.54775 8.78651 4.90784 8.5275 5.17374C8.78651 5.43964 8.93085 5.79973 8.92857 6.17433C8.95147 6.90211 8.3928 7.51192 7.67857 7.53878ZM11.0714 9.7219H8.92857C8.73133 9.7219 8.57143 9.559 8.57143 9.35805C8.57143 9.1571 8.73133 8.9942 8.92857 8.9942H11.0714C11.2687 8.9942 11.4286 9.1571 11.4286 9.35805C11.4286 9.559 11.2687 9.7219 11.0714 9.7219ZM12.9436 7.52787C12.9153 7.53503 12.8863 7.53869 12.8571 7.53878C12.6934 7.53857 12.5507 7.42489 12.5111 7.26298L12.2214 6.08337H11.35L11.0607 7.26298C11.0323 7.39176 10.9376 7.49475 10.8133 7.53209C10.689 7.56944 10.5547 7.53528 10.4622 7.44284C10.3697 7.3504 10.3336 7.21418 10.3679 7.08688L11.4393 2.72064C11.4791 2.55876 11.6219 2.44524 11.7857 2.44524C11.9495 2.44524 12.0923 2.55876 12.1321 2.72064L13.2036 7.08688C13.2512 7.28179 13.1349 7.47919 12.9436 7.52787ZM16.0714 9.7219H13.9286C13.7313 9.7219 13.5714 9.559 13.5714 9.35805C13.5714 9.1571 13.7313 8.9942 13.9286 8.9942H16.0714C16.2687 8.9942 16.4286 9.1571 16.4286 9.35805C16.4286 9.559 16.2687 9.7219 16.0714 9.7219ZM17.8571 6.81108C18.2516 6.81108 18.5714 6.48527 18.5714 6.08337C18.5714 5.88242 18.7313 5.71952 18.9286 5.71952C19.1258 5.71952 19.2857 5.88242 19.2857 6.08337C19.2857 6.88717 18.6461 7.53878 17.8571 7.53878C17.0682 7.53878 16.4286 6.88717 16.4286 6.08337V3.90025C16.4286 3.09645 17.0682 2.44484 17.8571 2.44484C18.6461 2.44484 19.2857 3.09645 19.2857 3.90025C19.2857 4.1012 19.1258 4.2641 18.9286 4.2641C18.7313 4.2641 18.5714 4.1012 18.5714 3.90025C18.5714 3.49835 18.2516 3.17254 17.8571 3.17254C17.4627 3.17254 17.1429 3.49835 17.1429 3.90025V6.08337C17.1429 6.48527 17.4627 6.81108 17.8571 6.81108Z" fill="#009EAA"/>
</g>
<defs>
<clipPath id="clip0_1951_11326">
<rect width="20" height="11" fill="white"/>
</clipPath>
</defs>
</svg>
