<svg width="24" height="24" viewBox="0 0 24 24" fill="none" xmlns="http://www.w3.org/2000/svg">
<path d="M7.03825 5.25H15.2355C15.7848 5.25 16.2257 5.24972 16.5646 5.28125V5.28223C16.8628 5.31039 17.1445 5.36627 17.3732 5.51367L17.4679 5.58301C17.5976 5.6904 17.7083 5.81815 17.7961 5.96094L17.8761 6.10938C17.9481 6.26193 17.9941 6.42492 18.0129 6.5918L18.0226 6.75977V6.76074C18.0231 6.99641 17.9447 7.22198 17.8273 7.44434L17.6984 7.66602C17.6059 7.81386 17.4921 7.97761 17.3586 8.16016L16.9015 8.76855L13.8332 12.8125C13.5548 13.1793 13.4398 13.3332 13.3615 13.4941C13.3044 13.6084 13.26 13.7274 13.2277 13.8506L13.1994 13.9746V13.9756C13.1661 14.1508 13.1633 14.339 13.1633 14.8184V19.832C13.1633 20.0842 13.1629 20.302 13.1486 20.4727C13.1343 20.6398 13.0993 20.838 12.9787 21.0039C12.8357 21.1993 12.6249 21.3318 12.3898 21.373L12.2883 21.3848H12.2873C12.0802 21.3978 11.8976 21.3151 11.7453 21.2305C11.6737 21.1907 11.595 21.1412 11.509 21.084L11.2267 20.8906L11.2258 20.8896L10.0558 20.083L10.0549 20.082L9.99821 20.043L9.99626 20.042L9.68279 19.8145C9.59106 19.7406 9.51096 19.6657 9.44353 19.582C9.31931 19.4245 9.22693 19.2479 9.17204 19.0605H9.17302C9.11247 18.8525 9.10954 18.623 9.10954 18.3281V14.8184C9.10954 14.4618 9.10935 14.2635 9.09392 14.1113L9.07341 13.9707C9.04904 13.8476 9.01286 13.7284 8.96599 13.6133L8.91521 13.499V13.498L8.84685 13.376C8.82079 13.3334 8.79082 13.2876 8.75407 13.2354L8.43962 12.8125L5.37126 8.76855C5.1156 8.43187 4.90014 8.14629 4.73064 7.90039L4.57634 7.66699L4.57439 7.66406L4.44548 7.44336C4.34714 7.2581 4.27621 7.07099 4.25603 6.87793L4.25017 6.76172V6.75977C4.25056 6.59093 4.2785 6.42359 4.33318 6.26465L4.39665 6.10938C4.49252 5.90627 4.63193 5.7263 4.80486 5.58301C4.98737 5.43309 5.21273 5.35724 5.4572 5.31543L5.70622 5.2832H5.70915C6.04732 5.25058 6.48797 5.25 7.03825 5.25ZM16.4543 20.0225H19.4093C19.5118 20.0225 19.6103 20.0633 19.6828 20.1357C19.7552 20.2082 19.7961 20.3068 19.7961 20.4092C19.796 20.5116 19.7552 20.6102 19.6828 20.6826C19.6103 20.755 19.5118 20.7959 19.4093 20.7959H16.4543C16.3521 20.7958 16.2541 20.7548 16.1818 20.6826C16.1094 20.6102 16.0686 20.5116 16.0685 20.4092C16.0685 20.3067 16.1094 20.2082 16.1818 20.1357C16.2541 20.0635 16.3521 20.0226 16.4543 20.0225ZM16.4543 17.0684H22.3634C22.4659 17.0684 22.5644 17.1092 22.6369 17.1816C22.7092 17.254 22.7501 17.3518 22.7502 17.4541C22.7502 17.5566 22.7093 17.6551 22.6369 17.7275C22.5644 17.8 22.4659 17.8408 22.3634 17.8408H16.4543C16.352 17.8407 16.2542 17.7999 16.1818 17.7275C16.1094 17.6551 16.0685 17.5566 16.0685 17.4541C16.0686 17.3518 16.1095 17.254 16.1818 17.1816C16.2542 17.1093 16.352 17.0685 16.4543 17.0684ZM17.0461 14.1133H22.3634C22.4404 14.1133 22.5152 14.1366 22.5783 14.1787L22.6369 14.2266C22.7093 14.299 22.7502 14.3975 22.7502 14.5C22.7502 14.6025 22.7093 14.701 22.6369 14.7734C22.5644 14.8458 22.4658 14.8867 22.3634 14.8867H17.0461C16.9692 14.8867 16.8943 14.8634 16.8312 14.8213L16.7726 14.7734C16.7002 14.701 16.6594 14.6025 16.6593 14.5C16.6593 14.4231 16.6817 14.3482 16.7238 14.2852L16.7726 14.2266C16.8451 14.1542 16.9437 14.1133 17.0461 14.1133ZM18.8185 11.1592H22.3634C22.4403 11.1592 22.5153 11.1816 22.5783 11.2236L22.6369 11.2725C22.7093 11.3449 22.7502 11.4434 22.7502 11.5459C22.7501 11.6225 22.7275 11.6969 22.6857 11.7598L22.6369 11.8184C22.5644 11.8908 22.4659 11.9316 22.3634 11.9316H18.8185C18.7416 11.9316 18.6667 11.9092 18.6037 11.8672L18.5451 11.8184C18.4728 11.746 18.4319 11.6481 18.4318 11.5459C18.4318 11.469 18.4551 11.3941 18.4972 11.3311L18.5451 11.2725C18.6175 11.2 18.7161 11.1592 18.8185 11.1592ZM7.08025 6.02246C6.64156 6.02246 6.30055 6.02284 6.02946 6.03516L5.78044 6.05176C5.70052 6.05928 5.63505 6.06857 5.58122 6.07812L5.45134 6.10742L5.31657 6.14746L5.22185 6.25098C5.10569 6.37842 5.03674 6.54178 5.02556 6.71387L5.01775 6.82422L5.05779 6.92773C5.10143 7.03989 5.15893 7.14944 5.22966 7.25488L5.22868 7.25586C5.31181 7.38897 5.41729 7.53995 5.54704 7.7168L6.01091 8.33301L6.01189 8.33496L6.43669 8.89355L6.58708 9.09082H15.6867L15.8371 8.89355L16.2609 8.33398C16.6205 7.85951 16.8769 7.52212 17.0431 7.25586L17.0422 7.25488C17.1112 7.15218 17.1701 7.04309 17.215 6.92773L17.256 6.82227L17.2472 6.70898C17.2337 6.52676 17.1575 6.36712 17.0519 6.25098L16.9572 6.14746L16.8215 6.10742L16.6935 6.07812C16.639 6.06825 16.5712 6.05891 16.4875 6.05176H16.4865C16.1822 6.02231 15.7704 6.02246 15.1926 6.02246H7.08025Z" stroke="#009EAA"/>
</svg>
