<svg width="24" height="24" viewBox="0 0 24 24" fill="none" xmlns="http://www.w3.org/2000/svg">
<path d="M17 12.75C18.2426 12.75 19.25 13.7574 19.25 15C19.25 16.8825 18.5317 18.382 17.3486 19.4395L17.1064 19.6445C15.7859 20.7045 13.9765 21.25 12 21.25C10.1473 21.25 8.44151 20.771 7.14746 19.8379L6.89355 19.6445C5.56706 18.5797 4.75 17.0077 4.75 15C4.75 13.8323 5.64012 12.8716 6.77832 12.7607L7.01465 12.75H17ZM12 2.75C13.7949 2.75 15.25 4.20507 15.25 6C15.25 7.79493 13.7949 9.25 12 9.25C10.2051 9.25 8.75 7.79493 8.75 6C8.75 4.20507 10.2051 2.75 12 2.75Z" stroke="#5F6469" stroke-width="1.5"/>
</svg>
