<svg width="22" height="22" viewBox="0 0 22 22" fill="none" xmlns="http://www.w3.org/2000/svg">
<path fill-rule="evenodd" clip-rule="evenodd" d="M9.45371 0.350664C9.93662 0.119818 10.4651 0 11.0003 0C11.5356 0 12.064 0.119818 12.5469 0.350664C12.9727 0.554166 13.361 0.88637 13.9011 1.34618L13.9869 1.41878C14.2487 1.64208 14.3312 1.71028 14.4148 1.76638C14.6271 1.90938 14.8658 2.00728 15.1155 2.05678C15.2145 2.07658 15.3212 2.08648 15.6644 2.11288L15.7755 2.12168C16.4817 2.17778 16.9921 2.21849 17.4365 2.37469C17.9413 2.55358 18.3998 2.84294 18.7786 3.22166C19.1573 3.60038 19.4466 4.05888 19.6255 4.56371C19.7817 5.00812 19.8213 5.51852 19.8785 6.22473L19.8873 6.33583C19.9137 6.67904 19.9236 6.78684 19.9434 6.88474C19.9929 7.13554 20.0919 7.37424 20.2338 7.58655C20.2899 7.66905 20.3581 7.75155 20.5814 8.01335L20.654 8.09915C21.1149 8.63816 21.4461 9.02756 21.6496 9.45217C22.1171 10.4312 22.1171 11.5686 21.6496 12.5465C21.4472 12.9722 21.1149 13.3605 20.654 13.9006L20.5814 13.9864C20.4585 14.1232 20.3425 14.266 20.2338 14.4143C20.0908 14.6266 19.9929 14.8653 19.9434 15.115C19.9236 15.214 19.9148 15.3207 19.8873 15.6639L19.8774 15.775C19.8224 16.4812 19.7817 16.9917 19.6244 17.4361C19.4464 17.9412 19.1574 18.4 18.7788 18.7788C18.4002 19.1576 17.9415 19.4467 17.4365 19.6251C16.9921 19.7813 16.4817 19.8209 15.7755 19.8781L15.6644 19.8869C15.4806 19.8964 15.2974 19.9151 15.1155 19.943C14.8654 19.9937 14.6274 20.0923 14.4148 20.2334C14.266 20.342 14.1229 20.458 13.9858 20.581L13.9011 20.6536C13.3621 21.1145 12.9727 21.4456 12.548 21.6491C12.065 21.8801 11.5363 22 11.0009 22C10.4654 22 9.93677 21.8801 9.45371 21.6491C9.02801 21.4467 8.6397 21.1145 8.0996 20.6536L8.0138 20.581C7.87742 20.4581 7.73497 20.3421 7.58699 20.2334C7.37399 20.0922 7.13567 19.9936 6.88518 19.943C6.70327 19.9151 6.52007 19.8964 6.33628 19.8869L6.22518 19.877C5.51897 19.822 5.00856 19.7813 4.56416 19.624C4.05906 19.4459 3.60026 19.1569 3.22146 18.7783C2.84266 18.3997 2.55347 17.9411 2.37513 17.4361C2.21893 16.9917 2.17823 16.4812 2.12213 15.775L2.11333 15.6639C2.10383 15.4801 2.0851 15.2969 2.05723 15.115C2.00649 14.8649 1.90788 14.627 1.76683 14.4143C1.65821 14.2656 1.5422 14.1224 1.41922 13.9853L1.34662 13.9006C0.886816 13.3616 0.554613 12.9722 0.35111 12.5476C0.120093 12.0645 0.000183105 11.5359 0.000183105 11.0004C0.000183105 10.465 0.120093 9.93632 0.35111 9.45327C0.554613 9.02756 0.886816 8.63926 1.34662 8.09915L1.41922 8.01335C1.54214 7.87697 1.65815 7.73453 1.76683 7.58655C1.90983 7.37424 2.00773 7.13554 2.05723 6.88474C2.07703 6.78574 2.08693 6.67904 2.11333 6.33583L2.12213 6.22473C2.17823 5.51852 2.21893 5.00812 2.37513 4.56371C2.55333 4.0585 2.84245 3.59963 3.22126 3.22082C3.60007 2.84201 4.05894 2.55288 4.56416 2.37469C5.00856 2.21849 5.51897 2.17778 6.22518 2.12168L6.33628 2.11288C6.52007 2.10338 6.70327 2.08466 6.88518 2.05678C7.13599 2.00728 7.37469 1.90828 7.58699 1.76638C7.66949 1.71028 7.75199 1.64208 8.0138 1.41878L8.0996 1.34618C8.6386 0.88637 9.02911 0.554166 9.45371 0.350664ZM11.8319 1.84448C11.5718 1.72056 11.2873 1.65625 10.9992 1.65625C10.7111 1.65625 10.4266 1.72056 10.1665 1.84448C9.96302 1.94128 9.74852 2.11618 9.08741 2.67829L9.05441 2.70579C8.83771 2.89059 8.68041 3.02589 8.5077 3.1414C8.1128 3.4054 7.67059 3.5891 7.20419 3.6804C7.00069 3.7211 6.79388 3.7376 6.50898 3.7607L6.46718 3.764C5.60147 3.8333 5.32757 3.8619 5.11416 3.9367C4.56416 4.13141 4.13075 4.56371 3.93715 5.11482C3.86015 5.32822 3.83265 5.60212 3.76335 6.46783L3.76005 6.50963C3.73805 6.79454 3.72045 7.00134 3.68085 7.20484C3.58845 7.67125 3.40584 8.11345 3.14184 8.50836C3.02524 8.68106 2.88994 8.83836 2.70514 9.05616L2.67764 9.08806C2.11553 9.74807 1.94063 9.96367 1.84383 10.1661C1.71973 10.4263 1.65533 10.711 1.65533 10.9993C1.65533 11.2877 1.71973 11.5723 1.84383 11.8326C1.94063 12.0361 2.11553 12.2506 2.67764 12.9117L2.70514 12.9447C2.88994 13.1614 3.02524 13.3187 3.14074 13.4914C3.40475 13.8863 3.58845 14.3285 3.67975 14.7949C3.72045 14.9984 3.73695 15.2052 3.76005 15.4901L3.76335 15.5319C3.83265 16.3976 3.86125 16.6716 3.93605 16.885C4.13075 17.435 4.56306 17.8684 5.11416 18.062C5.32757 18.139 5.60147 18.1665 6.46718 18.2358L6.50898 18.2391C6.79388 18.2611 7.00069 18.2787 7.20419 18.3183C7.67059 18.4107 8.1128 18.5933 8.5077 18.8573C8.68041 18.9739 8.83771 19.1092 9.05551 19.294L9.08741 19.3215C9.74742 19.8836 9.96302 20.0585 10.1654 20.1553C10.4257 20.2794 10.7104 20.3438 10.9987 20.3438C11.287 20.3438 11.5717 20.2794 11.8319 20.1553C12.0354 20.0585 12.2499 19.8836 12.9111 19.3215L12.9441 19.294C13.1608 19.1092 13.3181 18.9739 13.4908 18.8584C13.8857 18.5944 14.3279 18.4107 14.7943 18.3194C15.0244 18.2803 15.2565 18.2535 15.4895 18.2391L15.5313 18.2358C16.397 18.1665 16.6709 18.1379 16.8843 18.0631C17.4343 17.8684 17.8677 17.4361 18.0613 16.885C18.1383 16.6716 18.1658 16.3965 18.2351 15.5319L18.2384 15.4901C18.2525 15.2568 18.2789 15.0244 18.3176 14.7938C18.41 14.3285 18.5926 13.8863 18.8566 13.4914C18.9732 13.3187 19.1085 13.1614 19.2933 12.9436L19.3208 12.9117C19.8829 12.2517 20.0578 12.0361 20.1546 11.8337C20.2787 11.5734 20.3431 11.2888 20.3431 11.0004C20.3431 10.7121 20.2787 10.4274 20.1546 10.1672C20.0578 9.96367 19.8829 9.74917 19.3208 9.08806L19.2933 9.05506C19.1085 8.83836 18.9732 8.68106 18.8577 8.50836C18.5945 8.11327 18.4114 7.67041 18.3187 7.20484C18.2797 6.97469 18.2529 6.74263 18.2384 6.50963L18.2351 6.46783C18.1658 5.60212 18.1372 5.32822 18.0624 5.11482C17.8677 4.56481 17.4354 4.13141 16.8843 3.9378C16.6709 3.8608 16.3959 3.8333 15.5313 3.764L15.4895 3.7607C15.2561 3.74665 15.0237 3.72021 14.7932 3.6815C14.328 3.58866 13.8855 3.40554 13.4908 3.1425C13.3181 3.02589 13.1608 2.89059 12.943 2.70579L12.9111 2.67829C12.251 2.11618 12.0354 1.94128 11.833 1.84448" fill="#009EAA"/>
<path fill-rule="evenodd" clip-rule="evenodd" d="M14.8981 7.1024C14.975 7.17932 15.0361 7.27064 15.0777 7.37114C15.1193 7.47165 15.1408 7.57937 15.1408 7.68816C15.1408 7.79694 15.1193 7.90467 15.0777 8.00517C15.0361 8.10568 14.975 8.197 14.8981 8.27391L8.27494 14.896C8.11832 15.0444 7.90999 15.1258 7.69428 15.1229C7.47856 15.12 7.27247 15.0331 7.11985 14.8806C6.96723 14.7282 6.88012 14.5222 6.87705 14.3064C6.87398 14.0907 6.9552 13.8823 7.10342 13.7256L13.7266 7.1035C13.8035 7.02657 13.8948 6.96554 13.9953 6.92391C14.0958 6.88227 14.2036 6.86084 14.3124 6.86084C14.4211 6.86084 14.5289 6.88227 14.6294 6.92391C14.7299 6.96554 14.8212 7.02657 14.8981 7.1035" fill="#009EAA"/>
<path d="M14.8654 13.7598C14.8701 13.9077 14.845 14.0551 14.7916 14.1931C14.7382 14.3311 14.6577 14.4569 14.5547 14.5632C14.4517 14.6695 14.3285 14.754 14.1922 14.8117C14.056 14.8694 13.9095 14.8991 13.7615 14.8991C13.6136 14.8991 13.4671 14.8694 13.3309 14.8117C13.1946 14.754 13.0713 14.6695 12.9684 14.5632C12.8654 14.4569 12.7849 14.3311 12.7315 14.1931C12.6781 14.0551 12.653 13.9077 12.6577 13.7598C12.6667 13.4731 12.787 13.2011 12.993 13.0015C13.1991 12.8019 13.4747 12.6903 13.7615 12.6903C14.0484 12.6903 14.324 12.8019 14.5301 13.0015C14.7361 13.2011 14.8564 13.4731 14.8654 13.7598ZM9.34664 8.23997C9.35131 8.38787 9.32621 8.53519 9.27284 8.67319C9.21947 8.8112 9.13891 8.93707 9.03594 9.04334C8.93298 9.14961 8.80971 9.2341 8.67346 9.2918C8.53721 9.3495 8.39075 9.37923 8.24278 9.37923C8.09481 9.37923 7.94835 9.3495 7.8121 9.2918C7.67585 9.2341 7.55258 9.14961 7.44962 9.04334C7.34665 8.93707 7.26609 8.8112 7.21272 8.67319C7.15934 8.53519 7.13425 8.38787 7.13892 8.23997C7.14797 7.95324 7.26824 7.68128 7.47426 7.48166C7.68029 7.28203 7.95591 7.17041 8.24278 7.17041C8.52965 7.17041 8.80527 7.28203 9.0113 7.48166C9.21732 7.68128 9.33759 7.95324 9.34664 8.23997Z" fill="#009EAA"/>
</svg>
