<svg width="12" height="12" viewBox="0 0 12 12" fill="none" xmlns="http://www.w3.org/2000/svg">
<path d="M6.56933 0.333553C6.51262 0.232386 6.42999 0.148155 6.32992 0.0895289C6.22985 0.0309031 6.11597 0 5.99999 0C5.88402 0 5.77014 0.0309031 5.67007 0.0895289C5.57 0.148155 5.48737 0.232386 5.43066 0.333553C5.29733 0.57622 5.16911 0.821998 5.046 1.07089C4.65812 1.85819 4.32836 2.67281 4.05933 3.50822C3.96666 3.79555 3.69199 3.99489 3.37733 4.00355C2.42347 4.02863 1.47272 4.12333 0.532662 4.28689C0.0166619 4.37755 -0.177338 4.96555 0.189328 5.32422C0.272884 5.40644 0.357329 5.48755 0.442662 5.56755C1.0807 6.17012 1.75532 6.73275 2.46266 7.25222C2.70733 7.43155 2.808 7.73889 2.71466 8.02022C2.35912 9.08892 2.10467 10.1886 1.95466 11.3049C1.888 11.8082 2.42666 12.1636 2.89466 11.9236C3.82269 11.4477 4.71011 10.8965 5.54799 10.2756C5.67923 10.1798 5.83751 10.1281 5.99999 10.1281C6.16248 10.1281 6.32076 10.1798 6.45199 10.2756C7.28971 10.8968 8.17715 11.448 9.10533 11.9236C9.57266 12.1636 10.112 11.8082 10.0453 11.3049C10.0196 11.116 9.99133 10.9282 9.96066 10.7416C9.80665 9.81826 9.58085 8.90839 9.28533 8.02022C9.19199 7.73889 9.29199 7.43155 9.53733 7.25222C10.3398 6.66421 11.0995 6.01992 11.8107 5.32422C12.1773 4.96555 11.984 4.37755 11.4673 4.28689C10.5274 4.12237 9.57658 4.02767 8.62266 4.00355C8.47184 4.00115 8.32543 3.9523 8.20338 3.86366C8.08134 3.77502 7.9896 3.6509 7.94066 3.50822C7.58646 2.40867 7.12723 1.3451 6.56933 0.333553Z" fill="#F9A71A" fill-opacity="0.28"/>
</svg>
