<svg width="22" height="23" viewBox="0 0 22 23" fill="none" xmlns="http://www.w3.org/2000/svg">
<g clip-path="url(#clip0_2860_2908)">
<path d="M12.2593 3.70276L13.0917 4.4156V1.22168H10.959V4.4156L11.7914 3.70276C11.9263 3.58725 12.1244 3.58725 12.2593 3.70276Z" fill="#E0C292"/>
<path d="M0.0915946 11.6644C0.224453 11.5147 0.453714 11.5015 0.602248 11.6356C0.752046 11.7695 0.765057 11.9993 0.632198 12.1491C0.49934 12.3002 0.270079 12.3133 0.12159 12.1793C-0.0282083 12.0454 -0.0412186 11.8142 0.0915946 11.6644ZM18.5681 15.8596H5.57352C4.95626 15.8596 4.4541 15.3533 4.4541 14.7309V14.2137C4.01794 14.1229 3.59167 13.9496 3.22391 13.6248C2.90624 13.3444 2.55248 13.1942 2.14469 13.1692V13.3391C2.14469 13.5403 1.98287 13.7035 1.78329 13.7035H0.361874C0.162293 13.7035 0.00047752 13.5403 0.00047752 13.3391C0.00047752 13.1378 0.162293 12.9747 0.361874 12.9747H1.42189V8.5029H0.361874C0.162293 8.5029 0.00047752 8.33974 0.00047752 8.13851C0.00047752 7.93728 0.162293 7.77412 0.361874 7.77412H1.78329C1.98287 7.77412 2.14469 7.93728 2.14469 8.13851V8.30813C2.53861 8.28203 2.88035 8.13496 3.18677 7.86435C3.591 7.50816 4.01175 7.33735 4.4541 7.17834V1.62874C4.4541 1.00636 4.95626 0.5 5.57352 0.5H18.5681C19.1853 0.5 19.6875 1.00636 19.6875 1.62874V14.7309C19.6875 15.3533 19.1853 15.8596 18.5681 15.8596H18.5681ZM11.0045 4.42274L11.8369 3.7099C11.9718 3.59439 12.1699 3.59439 12.3048 3.7099L13.1372 4.42274V1.22878H11.0045V4.42274ZM3.70009 13.0766C4.20135 13.5193 4.89306 13.5803 5.56589 13.5803L9.68423 13.5829C10.0452 13.5829 10.0637 13.3147 10.0637 13.261C10.0637 13.1883 10.0365 12.9513 9.68482 12.9508H7.68638C7.4868 12.9508 7.32499 12.7877 7.32499 12.5864C7.32499 12.3852 7.4868 12.222 7.68638 12.222H10.9499C11.062 12.222 11.1444 12.19 11.2021 12.1242C11.2557 12.0632 11.2864 11.9733 11.2865 11.8778C11.2867 11.7821 11.256 11.692 11.2026 11.6307C11.1447 11.5644 11.0621 11.532 10.9499 11.5319H7.68638C7.4868 11.5319 7.32499 11.3687 7.32499 11.1675C7.32499 10.9663 7.4868 10.8031 7.68638 10.8031H11.5722C11.8842 10.8031 11.9088 10.5397 11.9089 10.4588C11.909 10.3778 11.8851 10.1134 11.5723 10.113H7.57602C7.3764 10.1128 7.21476 9.94952 7.2149 9.74829C7.21503 9.5471 7.37685 9.38417 7.57629 9.38417H7.57656L10.9558 9.38677C11.1369 9.38677 11.2844 9.23805 11.2844 9.05527C11.2844 8.87248 11.1368 8.72376 10.9555 8.72376L6.62718 8.71989C6.47205 8.71976 6.33431 8.61982 6.28493 8.47156C6.23551 8.3233 6.28548 8.15978 6.40903 8.06522L7.53455 7.20403C7.86839 6.94855 7.88443 6.58311 7.76788 6.4282C7.64586 6.26596 7.36745 6.45899 7.28501 6.52199C6.2506 7.31399 5.4717 7.59001 4.84594 7.81179C4.3778 7.97768 4.00805 8.10872 3.66282 8.41298C3.22535 8.79924 2.7138 9.00803 2.14478 9.03732V12.44C2.7287 12.468 3.25169 12.6808 3.70018 13.0766L3.70009 13.0766ZM5.57357 15.1309H18.5681C18.7869 15.1309 18.9648 14.9515 18.9648 14.7309V1.62874C18.9648 1.40819 18.7869 1.22878 18.5681 1.22878H13.86V5.21028C13.86 5.3523 13.7781 5.48134 13.6503 5.54101C13.6019 5.56364 13.55 5.57467 13.4986 5.57467C13.4145 5.57467 13.3313 5.54506 13.2646 5.48803L12.0708 4.46569L10.877 5.48803C10.7696 5.57995 10.6191 5.60063 10.4913 5.54101C10.3635 5.48134 10.2816 5.3523 10.2816 5.21028V1.22878H5.57348C5.35474 1.22878 5.17685 1.40819 5.17685 1.62874V6.91152C5.64842 6.72012 6.18546 6.44865 6.84799 5.94138C7.48875 5.45155 8.06084 5.61183 8.34358 5.98775C8.69079 6.44915 8.6472 7.26735 7.97139 7.78455L7.70021 7.99207L10.9557 7.99499C11.5353 7.99499 12.007 8.4706 12.007 9.05527C12.007 9.19173 11.981 9.32214 11.9342 9.44211C12.3903 9.59716 12.6321 10.0393 12.6316 10.4599C12.631 10.8899 12.3938 11.3237 11.9376 11.4753C11.9845 11.6014 12.0094 11.738 12.0092 11.8788C12.0089 12.1534 11.9145 12.412 11.7434 12.607C11.5489 12.8287 11.2672 12.9508 10.9502 12.9508H10.7398C10.7706 13.0517 10.7864 13.1566 10.7864 13.2614C10.786 13.7705 10.3996 14.3116 9.68387 14.3116L5.56553 14.309C5.43845 14.309 5.3084 14.3068 5.1768 14.3004V14.7309C5.1768 14.9514 5.3547 15.1309 5.57343 15.1309L5.57357 15.1309ZM21.7803 18.8795L20.3464 18.0094C19.7088 17.6218 19.1187 17.2922 18.3535 17.1858L14.1088 16.5984C13.2761 16.4829 12.7643 16.9826 12.6887 17.5352C12.6153 18.065 12.9543 18.5604 13.513 18.7396L13.5613 18.7552L12.5694 18.8643L9.57631 17.3453C8.83278 16.9679 7.97275 17.2066 7.57593 17.9001C7.40553 18.197 7.5065 18.5784 7.80149 18.7507L12.241 21.3355C12.2752 21.3554 12.3123 21.3695 12.3511 21.3773C14.4066 21.79 16.6142 21.9753 18.9141 21.928L19.5176 22.3938C19.5831 22.4444 19.6603 22.4688 19.7369 22.4688C19.8456 22.4688 19.953 22.4196 20.0241 22.3259C20.1455 22.1661 20.1153 21.9374 19.9568 21.8151L19.2526 21.2715C19.1872 21.221 19.108 21.1944 19.0242 21.1966C16.7535 21.2516 14.5754 21.0759 12.5505 20.6742L8.26087 18.1767C8.4834 17.8928 8.89033 17.813 9.25123 17.9963L12.3398 19.5637C12.4021 19.5954 12.4722 19.6081 12.5415 19.6005L15.259 19.3017L16.8101 19.8009C17.0001 19.8621 17.2036 19.7563 17.2643 19.5646C17.325 19.3729 17.2201 19.1679 17.0299 19.1067L13.7324 18.0453C13.5087 17.9735 13.38 17.8128 13.4045 17.6354C13.4305 17.4461 13.6029 17.2638 14.0103 17.3204L18.2549 17.9078C18.8848 17.9954 19.3849 18.2759 19.9734 18.6337L21.4075 19.5039C21.5786 19.6077 21.8006 19.552 21.9035 19.3796C22.0064 19.2071 21.9512 18.9833 21.7802 18.8795H21.7803Z" fill="black"/>
<path d="M18.9647 14.7311V1.62897C18.9647 1.40842 18.7868 1.229 18.568 1.229H13.8599V5.2105C13.8599 5.35252 13.7781 5.48156 13.6503 5.54123C13.6018 5.56387 13.55 5.57489 13.4986 5.57489C13.4144 5.57489 13.3312 5.54529 13.2646 5.48826L12.0707 4.46592L10.8769 5.48826C10.7696 5.58018 10.619 5.60085 10.4912 5.54123C10.3634 5.48156 10.2815 5.35252 10.2815 5.2105V1.229H5.57341C5.35467 1.229 5.17677 1.40842 5.17677 1.62897V6.9117C5.64835 6.7203 6.18538 6.44883 6.84791 5.94156C7.48867 5.45173 8.06076 5.61201 8.34351 5.98793C8.69072 6.44934 8.64713 7.26753 7.97131 7.78473L7.70013 7.99225L10.9556 7.99517C11.5352 7.99517 12.0069 8.47078 12.0069 9.05545C12.0069 9.19196 11.981 9.32232 11.9342 9.44229C12.3902 9.59734 12.6321 10.0395 12.6315 10.4601C12.6309 10.8901 12.3937 11.3239 11.9375 11.4755C11.9844 11.6017 12.0093 11.7382 12.0092 11.879C12.0088 12.1536 11.9144 12.4122 11.7433 12.6072C11.5488 12.8289 11.2672 12.9509 10.9501 12.9509H10.7397C10.7706 13.0518 10.7864 13.1568 10.7863 13.2615C10.786 13.7707 10.3995 14.3118 9.68379 14.3118L5.56545 14.3092C5.43838 14.3092 5.30832 14.3069 5.17673 14.3006V14.7311C5.17673 14.9517 5.35462 15.1311 5.57336 15.1311H18.5679C18.7866 15.1311 18.9645 14.9517 18.9645 14.7311H18.9647Z" fill="#E5A961"/>
<path d="M9.6842 13.5828C10.0452 13.5828 10.0637 13.3146 10.0637 13.2609C10.0637 13.1882 10.0365 12.9512 9.68478 12.9507H7.68635C7.48677 12.9507 7.32495 12.7876 7.32495 12.5864C7.32495 12.3851 7.48677 12.222 7.68635 12.222H10.9499C11.062 12.222 11.1443 12.1899 11.2021 12.1241C11.2556 12.0631 11.2864 11.9733 11.2865 11.8777C11.2866 11.782 11.256 11.692 11.2026 11.6307C11.1447 11.5643 11.062 11.5319 10.9499 11.5318H7.68635C7.48677 11.5318 7.32495 11.3687 7.32495 11.1674C7.32495 10.9662 7.48677 10.803 7.68635 10.803H11.5722C11.8842 10.803 11.9087 10.5396 11.9089 10.4588C11.909 10.3777 11.8851 10.1133 11.5722 10.1129H7.57599C7.37636 10.1127 7.21473 9.94945 7.21487 9.74822C7.215 9.54703 7.37682 9.3841 7.57626 9.3841H7.57653L10.9558 9.3867C11.1368 9.3867 11.2843 9.23798 11.2843 9.05519C11.2843 8.87241 11.1368 8.72369 10.9555 8.72369L6.62714 8.71982C6.47201 8.71968 6.33428 8.61975 6.2849 8.47149C6.23548 8.32323 6.28544 8.15971 6.409 8.06515L7.53452 7.20396C7.86836 6.94848 7.8844 6.58304 7.76785 6.42813C7.64583 6.26589 7.36742 6.45892 7.28498 6.52191C6.25057 7.31391 5.47167 7.58994 4.84591 7.81172C4.37777 7.9776 4.00801 8.10865 3.66279 8.41291C3.22532 8.79912 2.71376 9.00796 2.14474 9.03725V12.44C2.72867 12.468 3.25166 12.6807 3.70015 13.0765C4.20141 13.5192 4.89312 13.5803 5.56595 13.5803L9.68429 13.5829L9.6842 13.5828Z" fill="#FFCEBE"/>
<path d="M0.361732 12.9748H1.42175V8.50306H0.361732C0.162151 8.50306 0.000335693 8.33991 0.000335693 8.13867V11.8897C0.00404001 11.8091 0.0340811 11.7293 0.0914528 11.6646C0.224311 11.5149 0.453572 11.5017 0.602106 11.6357C0.751905 11.7697 0.764915 11.9995 0.632057 12.1493C0.499198 12.3003 0.269937 12.3134 0.121449 12.1795C0.0442905 12.1105 0.00372376 12.0157 0.000380843 11.9195V13.3393C0.000380843 13.138 0.162196 12.9749 0.361777 12.9749L0.361732 12.9748Z" fill="#D1D3D4"/>
<path d="M21.4074 19.5041L19.9733 18.6338C19.3848 18.2761 18.8847 17.9956 18.2548 17.9079L14.0102 17.3205C13.6028 17.2639 13.4304 17.4463 13.4044 17.6356C13.3799 17.813 13.5086 17.9736 13.7323 18.0454L17.0298 19.1068C17.22 19.168 17.3249 19.3731 17.2642 19.5648C17.2035 19.7565 17 19.8622 16.81 19.8011L15.2589 19.3019L12.5414 19.6006C12.4721 19.6082 12.402 19.5955 12.3397 19.5639L9.25113 17.9964C8.89023 17.8132 8.4833 17.893 8.26077 18.1768L12.5504 20.6743C14.5752 21.076 16.7534 21.2517 19.0241 21.1967C19.1079 21.1946 19.187 21.2212 19.2525 21.2717L19.9567 21.8152C20.1008 21.9264 20.1384 22.1253 20.053 22.2807L21.9034 19.3798C21.8006 19.5522 21.5785 19.6079 21.4075 19.5041H21.4074Z" fill="#FFCEBE"/>
</g>
<defs>
<clipPath id="clip0_2860_2908">
<rect width="22" height="22" fill="white" transform="translate(0 0.5)"/>
</clipPath>
</defs>
</svg>
