<svg width="23" height="23" viewBox="0 0 23 23" fill="none" xmlns="http://www.w3.org/2000/svg">
<path d="M7.2373 7.86133C8.26562 6.65137 9.78613 5.875 11.5 5.875C14.6084 5.875 17.125 8.3916 17.125 11.5H19C19 7.35742 15.6426 4 11.5 4C9.26758 4 7.27246 4.97852 5.90137 6.52539L4 4.62402V9.625H9.00098L7.2373 7.86133ZM15.7627 15.1387C14.7314 16.3486 13.2139 17.125 11.5 17.125C8.3916 17.125 5.875 14.6084 5.875 11.5H4C4 15.6426 7.35742 19 11.5 19C13.7324 19 15.7275 18.0215 17.0986 16.4746L19 18.376V13.375H13.999L15.7627 15.1387Z" fill="#009EAA"/>
</svg>
