<svg width="141" height="140" viewBox="0 0 141 140" fill="none" xmlns="http://www.w3.org/2000/svg">
<g clip-path="url(#clip0_1813_22220)">
<g clip-path="url(#clip1_1813_22220)">
<path d="M36.4535 134.345C36.3001 134.353 36.1483 134.312 36.0186 134.23C35.8889 134.148 35.7876 134.028 35.7284 133.886C35.6692 133.745 35.6549 133.588 35.6876 133.438C35.7202 133.288 35.7982 133.152 35.9109 133.048C35.9298 132.973 35.9433 132.919 35.9622 132.844C35.8154 132.471 35.5607 132.151 35.2307 131.924C34.9006 131.697 34.5103 131.573 34.1096 131.569C33.709 131.566 33.3164 131.682 32.9821 131.902C32.6479 132.123 32.3871 132.439 32.2334 132.809C31.3461 134.886 30.1978 137.036 30.7689 139.323C26.9968 131.328 28.2796 121.384 33.8543 114.547C35.3952 113.698 36.6441 112.19 36.9693 110.439C36.2067 110.697 35.2558 110.077 35.8292 109.274C36.0778 108.967 36.3287 108.662 36.5772 108.355C33.6803 105.27 30.2287 110.119 33.4174 114.283C32.3743 115.591 31.4708 117.004 30.7215 118.5C30.8946 116.911 30.6881 115.305 30.119 113.812C29.5423 112.421 28.4614 111.249 27.5094 110.046C26.3521 108.581 23.97 109.257 23.8142 111.117C24.8824 111.468 25.0211 113.01 23.7993 113.222C24.1193 116.681 26.3796 119.861 29.4926 121.378C28.343 124.604 27.8941 128.037 28.1758 131.45C27.6263 127.462 23.345 126.494 20.3525 124.908C20.1621 124.786 19.9402 124.722 19.7139 124.724C19.4877 124.726 19.2669 124.793 19.0784 124.919C18.8899 125.044 18.7419 125.221 18.6525 125.429C18.5631 125.637 18.5361 125.866 18.5748 126.089C18.9878 126.257 19.3831 126.466 19.7549 126.712C19.9292 126.829 20.0629 126.997 20.1378 127.193C20.2127 127.389 20.2251 127.604 20.1733 127.807C20.1215 128.011 20.0081 128.193 19.8486 128.329C19.689 128.466 19.4912 128.55 19.2822 128.569C20.7906 132.302 24.6904 134.809 28.6957 134.795C29.0806 136.468 29.6383 138.096 30.3598 139.653H36.3045C36.3258 139.587 36.345 139.519 36.3642 139.453C35.8139 139.488 35.2615 139.455 34.7192 139.355C36.175 137.631 37.3009 136.752 36.4536 134.346L36.4535 134.345Z" fill="#F2F2F2"/>
<path d="M89.4514 134.345C89.6047 134.353 89.7565 134.312 89.8862 134.23C90.0159 134.148 90.1172 134.028 90.1764 133.886C90.2357 133.745 90.2499 133.588 90.2173 133.438C90.1846 133.288 90.1067 133.152 89.9939 133.048C89.9751 132.973 89.9615 132.919 89.9426 132.844C90.0894 132.471 90.3441 132.151 90.6742 131.924C91.0042 131.697 91.3946 131.573 91.7952 131.569C92.1958 131.566 92.5884 131.682 92.9227 131.902C93.257 132.123 93.5177 132.439 93.6714 132.809C94.5587 134.886 95.707 137.036 95.1359 139.323C98.9081 131.328 97.6253 121.384 92.0506 114.547C90.5096 113.698 89.2607 112.19 88.9355 110.439C89.6982 110.697 90.649 110.077 90.0756 109.274C89.8271 108.967 89.5761 108.662 89.3276 108.355C92.2245 105.27 95.6761 110.119 92.4875 114.283C93.5306 115.591 94.4341 117.004 95.1833 118.5C95.0103 116.911 95.2168 115.305 95.7858 113.812C96.3625 112.421 97.4435 111.249 98.3954 110.046C99.5528 108.581 101.935 109.257 102.091 111.117C101.022 111.468 100.884 113.01 102.106 113.222C101.785 116.681 99.5253 119.861 96.4122 121.378C97.5618 124.604 98.0107 128.037 97.729 131.45C98.2785 127.462 102.56 126.494 105.552 124.908C105.743 124.786 105.965 124.722 106.191 124.724C106.417 124.726 106.638 124.793 106.826 124.919C107.015 125.044 107.163 125.221 107.252 125.429C107.342 125.637 107.369 125.866 107.33 126.089C106.917 126.257 106.522 126.466 106.15 126.712C105.976 126.829 105.842 126.997 105.767 127.193C105.692 127.389 105.68 127.604 105.732 127.807C105.783 128.011 105.897 128.193 106.056 128.329C106.216 128.466 106.414 128.55 106.623 128.569C105.114 132.302 101.214 134.809 97.2091 134.795C96.8242 136.468 96.2665 138.096 95.545 139.653H89.6003C89.579 139.587 89.5598 139.519 89.5407 139.453C90.0909 139.488 90.6433 139.455 91.1856 139.355C89.7298 137.631 88.6041 136.752 89.4514 134.345Z" fill="#F2F2F2"/>
<path d="M91.6555 135.228L89.0955 135.81L85.6304 126.213L89.4089 125.353L91.6555 135.228Z" fill="#FFB6B6"/>
<path d="M92.3536 137.878L84.4809 139.67L84.4582 139.57C84.2733 138.757 84.4188 137.904 84.8627 137.199C85.3066 136.494 86.0125 135.993 86.8251 135.808L88.0151 134.39L90.9464 134.871L91.6337 134.714L92.3536 137.878Z" fill="#2F2E41"/>
<path d="M132.954 88.4462L134.362 90.6625L126.483 97.1464L124.405 93.875L132.954 88.4462Z" fill="#FFB6B6"/>
<path d="M135.217 86.8996L139.545 93.7153L139.459 93.77C138.755 94.2168 137.903 94.3658 137.09 94.1843C136.276 94.0028 135.568 93.5056 135.121 92.802L133.386 92.1568L132.855 89.2341L132.478 88.6391L135.217 86.8996Z" fill="#2F2E41"/>
<path d="M51.3472 64.75L50.7148 61.085L60.328 56.7441L62.404 53.0685C62.337 52.746 62.3604 52.4112 62.4717 52.1011C62.583 51.791 62.7778 51.5177 63.0347 51.3114C63.2915 51.1052 63.6004 50.9739 63.9272 50.9321C64.2539 50.8903 64.5859 50.9397 64.8864 51.0747C65.1869 51.2098 65.4442 51.4252 65.6299 51.6973C65.8156 51.9694 65.9225 52.2876 65.9387 52.6166C65.955 52.9456 65.88 53.2728 65.722 53.5618C65.564 53.8509 65.3292 54.0907 65.0435 54.2547L61.6284 59.5346L51.3472 64.75Z" fill="#A0616A"/>
<path d="M48.4248 61.754L52.7539 59.5427L53.8999 63.8456L50.8929 66.0746L48.4248 61.754Z" fill="#40C4FF"/>
<path d="M38.7106 134.895L41.328 134.895L42.5733 124.798L38.71 124.799L38.7106 134.895Z" fill="#A0616A"/>
<path d="M42.1993 135.13V133.356L41.5112 133.398L38.71 133.564L38.0617 133.604L37.5661 139.547L37.5396 139.865H39.3981L39.4579 139.549L39.7278 138.111L40.4248 139.549L40.5775 139.865H45.505C45.7982 139.864 46.0789 139.746 46.286 139.539C46.4931 139.331 46.61 139.05 46.6113 138.757C46.8193 137.786 42.7215 135.686 42.1993 135.13Z" fill="#2F2E41"/>
<path d="M7.63948 94.8268L7.0293 97.3724L16.557 100.937L17.4575 97.1805L7.63948 94.8268Z" fill="#A0616A"/>
<path d="M6.80422 98.1644L8.52984 98.5781L8.6494 97.8992L9.14115 95.1365L9.25358 94.4968L3.58984 92.6291L3.28619 92.529L2.85284 94.3364L3.1466 94.4683L4.48222 95.0661L2.92115 95.4085L2.57787 95.4832L1.42897 100.275C1.36241 100.56 1.41119 100.861 1.56472 101.111C1.71825 101.36 1.96414 101.54 2.24899 101.609C3.14507 102.038 6.14241 98.5427 6.80422 98.1644Z" fill="#2F2E41"/>
<path d="M42.7583 69.5523L39.3891 67.9773L32.6702 76.1083L28.5777 77.1434C28.2842 76.9938 27.955 76.9282 27.6266 76.9539C27.2982 76.9796 26.9833 77.0956 26.7166 77.2891C26.45 77.4826 26.242 77.746 26.1157 78.0502C25.9893 78.3545 25.9495 78.6877 26.0007 79.0132C26.0519 79.3386 26.192 79.6436 26.4056 79.8944C26.6192 80.1452 26.8979 80.332 27.2111 80.4344C27.5242 80.5367 27.8596 80.5504 28.18 80.4741C28.5005 80.3979 28.7937 80.2345 29.0271 80.002L35.0199 78.0976L42.7583 69.5523Z" fill="#A0616A"/>
<path d="M90.524 39.4524C89.8098 39.4524 89.1117 39.2406 88.5179 38.8439C87.9241 38.4471 87.4612 37.8831 87.1879 37.2233C86.9146 36.5635 86.8431 35.8375 86.9825 35.1371C87.1218 34.4366 87.4657 33.7932 87.9707 33.2882C88.4757 32.7832 89.1191 32.4393 89.8195 32.3C90.52 32.1607 91.246 32.2322 91.9058 32.5055C92.5656 32.7788 93.1296 33.2416 93.5263 33.8354C93.9231 34.4292 94.1349 35.1273 94.1349 35.8415C94.1338 36.7988 93.753 37.7167 93.0761 38.3936C92.3991 39.0706 91.4813 39.4513 90.524 39.4524ZM90.524 32.645C89.8918 32.645 89.2738 32.8325 88.7481 33.1837C88.2224 33.535 87.8127 34.0342 87.5708 34.6183C87.3289 35.2023 87.2656 35.8451 87.3889 36.4651C87.5122 37.0852 87.8167 37.6547 88.2637 38.1018C88.7107 38.5488 89.2803 38.8533 89.9004 38.9766C90.5204 39.0999 91.1631 39.0366 91.7472 38.7947C92.3313 38.5528 92.8305 38.1431 93.1818 37.6174C93.533 37.0917 93.7205 36.4737 93.7205 35.8415C93.7195 34.994 93.3824 34.1816 92.7832 33.5823C92.1839 32.983 91.3714 32.646 90.524 32.645Z" fill="#E6E6E6"/>
<path d="M90.2693 37.2018C90.262 37.2018 90.2548 37.2016 90.2475 37.2012C90.1834 37.1982 90.1207 37.1812 90.0638 37.1516C90.0068 37.122 89.957 37.0805 89.9176 37.0298L89.3488 36.2985C89.3128 36.2524 89.2864 36.1996 89.2708 36.1432C89.2553 36.0868 89.2511 36.0279 89.2583 35.9699C89.2656 35.9118 89.2842 35.8558 89.3131 35.8049C89.342 35.7541 89.3806 35.7095 89.4268 35.6735L89.4473 35.6576C89.4934 35.6217 89.5462 35.5952 89.6026 35.5797C89.659 35.5641 89.718 35.5599 89.776 35.5671C89.8341 35.5744 89.8901 35.593 89.941 35.6219C89.9918 35.6509 90.0365 35.6895 90.0724 35.7357C90.1011 35.7726 90.1375 35.8029 90.179 35.8244C90.2205 35.846 90.2661 35.8583 90.3128 35.8606C90.3595 35.8628 90.4062 35.855 90.4496 35.8376C90.493 35.8202 90.5321 35.7936 90.5643 35.7597L91.7192 34.5404C91.8005 34.4548 91.9124 34.4049 92.0305 34.4017C92.1485 34.3985 92.263 34.4422 92.3488 34.5233L92.3678 34.5414C92.4102 34.5816 92.4443 34.6298 92.4682 34.6832C92.492 34.7366 92.5051 34.7942 92.5067 34.8526C92.5083 34.9111 92.4983 34.9693 92.4774 35.0239C92.4565 35.0785 92.425 35.1285 92.3847 35.1709L90.5925 37.0627C90.5509 37.1067 90.5008 37.1417 90.4452 37.1656C90.3897 37.1895 90.3298 37.2018 90.2693 37.2018Z" fill="#E6E6E6"/>
<path d="M72.4981 83.1699C71.7839 83.1699 71.0858 82.9581 70.492 82.5614C69.8982 82.1646 69.4354 81.6006 69.1621 80.9408C68.8888 80.281 68.8173 79.555 68.9566 78.8546C69.0959 78.1541 69.4398 77.5107 69.9448 77.0057C70.4498 76.5007 71.0932 76.1568 71.7936 76.0175C72.4941 75.8782 73.2201 75.9497 73.8799 76.223C74.5397 76.4963 75.1037 76.9591 75.5004 77.5529C75.8972 78.1467 76.109 78.8448 76.109 79.559C76.1079 80.5163 75.7271 81.4342 75.0502 82.1111C74.3733 82.7881 73.4554 83.1688 72.4981 83.1699ZM72.4981 76.3625C71.8659 76.3625 71.2479 76.55 70.7222 76.9012C70.1966 77.2525 69.7868 77.7517 69.5449 78.3358C69.303 78.9198 69.2397 79.5626 69.363 80.1826C69.4863 80.8027 69.7908 81.3722 70.2378 81.8193C70.6849 82.2663 71.2544 82.5708 71.8745 82.6941C72.4946 82.8174 73.1373 82.7541 73.7214 82.5122C74.3054 82.2703 74.8047 81.8606 75.1559 81.3349C75.5071 80.8092 75.6946 80.1912 75.6946 79.559C75.6936 78.7115 75.3566 77.8991 74.7573 77.2998C74.158 76.7005 73.3456 76.3635 72.4981 76.3625Z" fill="#E6E6E6"/>
<path d="M72.2434 80.9194C72.2362 80.9194 72.2289 80.9191 72.2216 80.9188C72.1575 80.9157 72.0949 80.8988 72.0379 80.8692C71.981 80.8396 71.9311 80.798 71.8917 80.7473L71.3229 80.0161C71.287 79.9699 71.2605 79.9171 71.245 79.8607C71.2294 79.8043 71.2252 79.7454 71.2324 79.6874C71.2397 79.6294 71.2583 79.5733 71.2872 79.5225C71.3161 79.4716 71.3548 79.427 71.4009 79.3911L71.4214 79.3752C71.4676 79.3392 71.5204 79.3127 71.5768 79.2972C71.6332 79.2817 71.6921 79.2774 71.7501 79.2847C71.8082 79.2919 71.8642 79.3105 71.9151 79.3395C71.9659 79.3684 72.0106 79.4071 72.0465 79.4533C72.0752 79.4902 72.1116 79.5204 72.1531 79.5419C72.1946 79.5635 72.2402 79.5758 72.2869 79.5781C72.3336 79.5804 72.3803 79.5725 72.4237 79.5551C72.4671 79.5377 72.5062 79.5111 72.5384 79.4772L73.6933 78.2579C73.7746 78.1723 73.8865 78.1224 74.0046 78.1192C74.1226 78.116 74.2371 78.1597 74.3229 78.2408L74.3419 78.2589C74.3843 78.2991 74.4185 78.3473 74.4423 78.4007C74.4661 78.4541 74.4792 78.5117 74.4808 78.5702C74.4824 78.6286 74.4724 78.6868 74.4515 78.7414C74.4306 78.7961 74.3991 78.846 74.3589 78.8885L72.5666 80.7803C72.525 80.8242 72.4749 80.8592 72.4193 80.8831C72.3638 80.907 72.3039 80.9194 72.2434 80.9194Z" fill="#E6E6E6"/>
<path d="M32.9244 34.4798C32.2102 34.4798 31.5121 34.268 30.9183 33.8712C30.3245 33.4745 29.8616 32.9105 29.5883 32.2507C29.315 31.5909 29.2435 30.8649 29.3829 30.1644C29.5222 29.464 29.8661 28.8206 30.3711 28.3156C30.8761 27.8106 31.5195 27.4667 32.2199 27.3274C32.9204 27.1881 33.6464 27.2596 34.3062 27.5329C34.966 27.8062 35.5299 28.269 35.9267 28.8628C36.3235 29.4566 36.5353 30.1547 36.5353 30.8689C36.5342 31.8262 36.1534 32.7441 35.4765 33.421C34.7995 34.0979 33.8817 34.4787 32.9244 34.4798ZM32.9244 27.6724C32.2922 27.6724 31.6742 27.8599 31.1485 28.2111C30.6228 28.5623 30.2131 29.0616 29.9712 29.6456C29.7292 30.2297 29.6659 30.8724 29.7893 31.4925C29.9126 32.1126 30.2171 32.6821 30.6641 33.1292C31.1111 33.5762 31.6807 33.8806 32.3008 34.004C32.9208 34.1273 33.5635 34.064 34.1476 33.8221C34.7317 33.5801 35.2309 33.1704 35.5822 32.6448C35.9334 32.1191 36.1209 31.5011 36.1209 30.8689C36.1199 30.0214 35.7828 29.2089 35.1836 28.6097C34.5843 28.0104 33.7718 27.6733 32.9244 27.6724Z" fill="#E6E6E6"/>
<path d="M32.6697 32.2292C32.6624 32.2292 32.6552 32.229 32.6479 32.2286C32.5838 32.2255 32.5211 32.2086 32.4642 32.179C32.4072 32.1494 32.3574 32.1079 32.318 32.0572L31.7492 31.3259C31.7132 31.2797 31.6868 31.227 31.6712 31.1706C31.6557 31.1142 31.6515 31.0553 31.6587 30.9972C31.666 30.9392 31.6846 30.8832 31.7135 30.8323C31.7424 30.7815 31.781 30.7368 31.8272 30.7009L31.8477 30.685C31.8938 30.6491 31.9466 30.6226 32.003 30.607C32.0594 30.5915 32.1184 30.5873 32.1764 30.5945C32.2345 30.6018 32.2905 30.6204 32.3414 30.6493C32.3922 30.6782 32.4369 30.7169 32.4728 30.7631C32.5015 30.8 32.5379 30.8302 32.5794 30.8518C32.6209 30.8733 32.6665 30.8857 32.7132 30.8879C32.7599 30.8902 32.8066 30.8824 32.85 30.865C32.8934 30.8476 32.9325 30.821 32.9647 30.7871L34.1196 29.5678C34.2009 29.4822 34.3128 29.4323 34.4309 29.4291C34.5489 29.4259 34.6634 29.4696 34.7492 29.5507L34.7681 29.5687C34.8106 29.6089 34.8447 29.6571 34.8686 29.7105C34.8924 29.7639 34.9055 29.8215 34.9071 29.88C34.9087 29.9385 34.8987 29.9967 34.8778 30.0513C34.8569 30.1059 34.8254 30.1559 34.7851 30.1983L32.9929 32.0901C32.9513 32.1341 32.9012 32.169 32.8456 32.193C32.79 32.2169 32.7302 32.2292 32.6697 32.2292Z" fill="#E6E6E6"/>
<path d="M61.8331 96.5956C53.4599 96.5956 43.837 87.3038 35.3231 91.7186C9.54528 105.085 13.0937 82.7182 5.68799 74.3996L5.93112 73.912C14.1025 81.2389 24.3048 87.2003 35.435 91.1514C45.4933 94.7222 55.627 96.3767 64.7368 95.9401L64.7526 96.5263C63.7906 96.5727 62.8174 96.5958 61.8331 96.5956Z" fill="#F2F2F2"/>
<path d="M50.3474 33.773C51.314 33.773 52.0976 32.7222 52.0976 31.426C52.0976 30.1298 51.314 29.079 50.3474 29.079C49.3808 29.079 48.5972 30.1298 48.5972 31.426C48.5972 32.7222 49.3808 33.773 50.3474 33.773Z" fill="#E6E6E6"/>
<path d="M70.5625 70.3859C69.7623 70.919 68.9433 69.6501 69.7589 69.1406C70.559 68.6075 71.378 69.8765 70.5625 70.3859Z" fill="#E6E6E6"/>
<path d="M65.9568 27.6664C67.2156 27.6664 68.236 26.646 68.236 25.3872C68.236 24.1285 67.2156 23.1081 65.9568 23.1081C64.6981 23.1081 63.6777 24.1285 63.6777 25.3872C63.6777 26.646 64.6981 27.6664 65.9568 27.6664Z" fill="#FF6584"/>
<path opacity="0.3" d="M73.928 37.8766L86.8969 0L72.6563 37.4232C72.5858 37.512 72.5376 37.6163 72.5156 37.7275C72.4935 37.8387 72.4983 37.9536 72.5295 38.0626C72.5607 38.1715 72.6175 38.2715 72.6951 38.3542C72.7726 38.4368 72.8688 38.4998 72.9756 38.5379C73.0823 38.5759 73.1967 38.588 73.309 38.5731C73.4214 38.5581 73.5286 38.5166 73.6217 38.4519C73.7148 38.3873 73.7912 38.3014 73.8445 38.2013C73.8977 38.1012 73.9264 37.9899 73.928 37.8766Z" fill="#F0F0F0"/>
<path d="M60.8376 84.0213C62.0622 84.0213 63.055 83.0285 63.055 81.8039C63.055 80.5792 62.0622 79.5864 60.8376 79.5864C59.6129 79.5864 58.6201 80.5792 58.6201 81.8039C58.6201 83.0285 59.6129 84.0213 60.8376 84.0213Z" fill="#F2F2F2"/>
<path d="M39.3613 82.6497C39.3613 82.6497 33.8333 86.2493 35.295 88.6412C35.3455 88.7237 28.6919 97.5114 28.6919 97.5114L16.1315 96.714L15.689 100.918L26.8711 104.157C26.8711 104.157 29.6067 106.166 31.72 103.952C33.8333 101.738 40.8725 94.9566 40.8725 94.9566L41.2121 108.647L37.6784 127.618L42.9546 127.284L48.0899 108.251L49.9855 86.6918L39.3613 82.6497Z" fill="#2F2E41"/>
<path d="M43.2989 61.0461L40.9743 62.8077L38.3247 68.4628L40.8725 71.923C40.8725 71.923 43.0157 75.6373 39.5852 79.2343C36.1548 82.8313 33.5206 86.6731 36.2663 86.5359C39.012 86.3988 50.1326 92.0549 50.2058 87.421C50.279 82.7871 50.4271 79.2343 50.4271 79.2343L53.3426 71.8394C53.3426 71.8394 55.0797 67.428 53.8601 66.1074C52.6405 64.7869 51.0076 63.0995 51.0076 63.0995L48.0382 60.13H45.3569L43.2989 61.0461Z" fill="#40C4FF"/>
<path d="M47.6386 50.1806C52.8537 53.1482 48.5724 60.9782 43.26 58.19C38.0451 55.2225 42.3264 47.3925 47.6386 50.1806Z" fill="#A0616A"/>
<path d="M50.4268 51.826C50.0614 52.3013 49.298 52.0785 47.8029 52.4176C47.8062 51.9108 47.7476 51.4055 47.6286 50.913C47.5173 51.5229 47.2736 52.1009 46.9144 52.6063C45.6162 52.7502 47.2077 56.6941 46.543 59.5938C45.6865 53.4764 43.8852 55.0791 44.7952 56.2925C45.3778 57.0693 44.9894 59.3996 43.2417 58.2344C40.358 59.6049 36.2507 52.797 40.8028 49.6042C40.7215 47.8784 42.6418 47.6058 43.8243 48.1364C46.694 45.9986 49.9727 48.7378 50.4268 51.826Z" fill="#2F2E41"/>
<path d="M37.0463 47.3623C35.8853 54.501 29.662 46.0494 26.7358 53.0746C25.8158 55.6187 27.3943 57.4387 28.3928 59.5504C28.6207 61.2859 26.363 62.1664 26.1265 63.7638C26.0607 67.4262 31.9693 67.2021 33.6211 64.8915C35.3184 62.4726 33.2916 59.2273 34.3118 56.631C35.7456 53.0264 41.5767 52.9997 42.0847 48.806C41.1009 47.405 38.4554 45.8004 37.0463 47.3623Z" fill="#2F2E41"/>
<path d="M41.7496 48.0598C41.7116 48.0758 41.6737 48.0918 41.6397 48.1098H41.6377C41.6057 48.1258 41.5737 48.1418 41.5417 48.1598C41.5377 48.1618 41.5357 48.1638 41.5317 48.1658C41.4897 48.1258 41.4478 48.0858 41.4038 48.0458C41.3924 48.111 41.3951 48.1778 41.4118 48.2418L41.4178 48.2658C41.4578 48.3077 41.4997 48.3477 41.5437 48.3897C41.5837 48.3597 41.6217 48.3277 41.6617 48.2977C41.6857 48.2777 41.7097 48.2577 41.7356 48.2378C41.7396 48.1858 41.7456 48.1258 41.7516 48.0598L41.7496 48.0598ZM42.9531 45.8368C42.0615 45.6329 41.7736 46.7984 41.6876 47.3601C41.3638 45.321 40.0164 45.9627 40.4822 47.3541C40.6306 47.7661 40.8643 48.1421 41.1679 48.4577C41.2099 48.5056 41.2558 48.5536 41.3038 48.6016C41.2498 48.8815 41.5217 48.8095 41.8896 48.5516C42.1612 48.3585 42.4124 48.1381 42.6392 47.8939C43.3729 47.1242 43.9447 46.0947 42.9531 45.8368ZM42.9811 46.9843C42.706 47.339 42.3974 47.6664 42.0595 47.9619C41.9535 48.0578 41.8456 48.1498 41.7356 48.2378C41.7336 48.2557 41.7336 48.2717 41.7316 48.2857C41.7239 48.3052 41.7146 48.3239 41.7036 48.3417C41.5917 48.5436 41.4658 48.4337 41.4178 48.2658C41.4138 48.2597 41.4078 48.2537 41.4038 48.2478C41.244 48.0827 41.105 47.8988 40.9899 47.7C40.1643 46.2686 41.4937 45.295 41.4278 47.9679C41.4156 47.9924 41.4075 48.0187 41.4038 48.0458C41.3924 48.111 41.3951 48.1778 41.4118 48.2418L41.4178 48.2658C41.4578 48.3077 41.4997 48.3477 41.5437 48.3897C41.5837 48.3597 41.6217 48.3277 41.6617 48.2977C41.6857 48.2777 41.7097 48.2577 41.7356 48.2378C41.7396 48.1858 41.7456 48.1258 41.7516 48.0598V48.0578C41.8036 47.5221 41.9456 46.5585 42.2075 46.2966C42.7832 45.8548 43.5289 46.3326 42.9811 46.9843ZM41.7496 48.0598C41.7116 48.0758 41.6737 48.0918 41.6397 48.1098H41.6377C41.6057 48.1258 41.5737 48.1418 41.5417 48.1598C41.5377 48.1618 41.5357 48.1638 41.5317 48.1658C41.4897 48.1258 41.4478 48.0858 41.4038 48.0458C41.3924 48.111 41.3951 48.1778 41.4118 48.2418L41.4178 48.2658C41.4578 48.3077 41.4997 48.3477 41.5437 48.3897C41.5837 48.3597 41.6217 48.3277 41.6617 48.2977C41.6857 48.2777 41.7097 48.2577 41.7356 48.2378C41.7396 48.1858 41.7456 48.1258 41.7516 48.0598L41.7496 48.0598Z" fill="#2F2E41"/>
<path d="M89.9516 87.418L88.0255 92.441L78.9902 110.264L86.9295 130.997L91.027 129.915L87.6497 110.264L97.3388 98.491L108.845 106.295C108.845 106.295 113.949 110.279 115.89 106.502C117.831 102.726 130.393 94.6925 130.393 94.6925L127.286 91.3775L112.82 98.1472L102.835 84.0938L89.9516 87.418Z" fill="#2F2E41"/>
<path d="M99.6705 63.7247L96.4999 60.3182L91.0611 59.57L84.397 64.2353L84.4641 69.3992L87.7584 81.5674C87.7584 81.5674 86.5036 90.3097 90.0085 90.222C93.5134 90.1343 95.4238 88.3869 96.8513 88.7426C98.2788 89.0984 104.347 90.6122 104.732 89.0265C105.116 87.4408 107.16 88.5762 107.071 87.0761C106.981 85.5761 101.537 74.7634 101.537 74.7634L102.89 63.9496L99.6705 63.7247Z" fill="#40C4FF"/>
<path d="M119.745 48.0443C119.774 48.3268 119.74 48.612 119.646 48.88C119.552 49.148 119.401 49.3921 119.202 49.5953C119.004 49.7984 118.764 49.9555 118.498 50.0557C118.232 50.1558 117.948 50.1964 117.665 50.1748L110.374 64.0414L108.416 61.0364L115.869 47.9493C115.937 47.4761 116.176 47.0443 116.541 46.7357C116.906 46.4271 117.371 46.2631 117.849 46.2748C118.327 46.2865 118.784 46.4731 119.134 46.7992C119.483 47.1253 119.701 47.5683 119.745 48.0443Z" fill="#FFB6B6"/>
<path d="M96.7918 66.303C96.7918 66.303 96.5026 68.7696 99.2794 69.3802C102.056 69.9908 109.749 65.595 111.011 64.9236C111.405 64.7134 111.941 63.6828 112.491 62.3664C112.738 61.7754 112.988 61.1267 113.229 60.4688C113.368 60.088 114.036 59.9841 114.167 59.6065C114.298 59.231 113.892 58.5818 114.011 58.2279C114.573 56.548 114.971 55.2153 114.971 55.2153L113.13 51.7582C110.556 53.119 109.236 56.1164 108.265 59.5696L96.7918 66.303Z" fill="#40C4FF"/>
<path d="M64.3621 51.2286C64.4054 51.5092 64.5096 51.777 64.6675 52.0129C64.8254 52.2489 65.0331 52.4474 65.276 52.5944C65.5189 52.7414 65.791 52.8334 66.0733 52.8638C66.3556 52.8943 66.6411 52.8625 66.9098 52.7706L77.4392 64.3713L78.5824 60.972L68.0918 50.1664C67.9076 49.7253 67.568 49.3671 67.1374 49.1597C66.7067 48.9522 66.2149 48.91 65.7552 49.0409C65.2955 49.1719 64.8997 49.4669 64.643 49.8701C64.3862 50.2733 64.2863 50.7567 64.3621 51.2286Z" fill="#FFB6B6"/>
<path d="M91.1544 63.162C91.1544 63.162 92.0516 65.4777 89.516 66.7639C86.9804 68.05 78.432 65.7193 77.0429 65.3849C76.6079 65.2802 75.8312 64.4166 74.9694 63.2796C74.5825 62.7692 74.1784 62.2036 73.7804 61.6269C73.5501 61.2932 72.8776 61.3597 72.6559 61.027C72.4354 60.6962 72.6656 59.9661 72.4624 59.6531C71.4982 58.1672 70.7793 56.9765 70.7793 56.9765L71.696 53.1689C74.5286 53.8422 76.5569 56.4138 78.3612 59.5142L91.1544 63.162Z" fill="#40C4FF"/>
<path d="M93.8887 58.7035C96.7467 58.7035 99.0636 56.3866 99.0636 53.5286C99.0636 50.6706 96.7467 48.3538 93.8887 48.3538C91.0307 48.3538 88.7139 50.6706 88.7139 53.5286C88.7139 56.3866 91.0307 58.7035 93.8887 58.7035Z" fill="#FFB6B6"/>
<path d="M99.7961 50.5656C99.2518 49.7235 98.2303 49.1622 97.24 49.3199C97.1479 48.688 96.8841 48.0934 96.4774 47.6009C96.0707 47.1085 95.5367 46.7371 94.9335 46.5271C94.3304 46.3172 93.6812 46.2767 93.0566 46.4102C92.4321 46.5436 91.8561 46.8458 91.3914 47.284C91.2386 47.1764 91.0606 47.1101 90.8746 47.0914C90.6887 47.0728 90.5011 47.1026 90.3299 47.1777C89.9891 47.3327 89.6926 47.5707 89.4676 47.8699C88.8993 48.5786 88.5339 49.428 88.4101 50.3278C88.2864 51.2277 88.4089 52.1442 88.7647 52.9799C88.6437 52.54 89.0846 52.1261 89.5301 52.0273C89.9756 51.9286 90.4429 52.022 90.8946 51.9577C91.4737 51.8753 91.9941 51.5394 92.5741 51.4639C93.0658 51.4319 93.5591 51.4953 94.0268 51.6505C94.4945 51.8058 94.9871 51.8719 95.4791 51.8456C95.9672 51.7876 96.5959 53.6373 96.5874 54.9401C96.5858 55.187 96.6367 55.504 96.878 55.5564C97.1751 55.6209 97.3473 55.2108 97.6301 55.0991C97.7605 55.0617 97.9002 55.0764 98.0199 55.1401C98.1397 55.2038 98.23 55.3114 98.2719 55.4404C98.3075 55.5715 98.3114 55.7092 98.283 55.842C98.2547 55.9749 98.195 56.0991 98.109 56.2043C97.9352 56.4127 97.7288 56.5918 97.4979 56.7344L97.6144 56.8313C97.7249 56.9481 97.8727 57.0229 98.0323 57.0427C98.1919 57.0625 98.3535 57.0262 98.4893 56.94C98.7563 56.7591 98.9726 56.5129 99.1175 56.2247C99.6633 55.3806 100.054 54.4455 100.27 53.4637C100.452 52.4778 100.34 51.4077 99.7961 50.5656Z" fill="#2F2E41"/>
<path d="M138.079 70.9755C131.405 76.0309 118.123 74.4338 114.002 83.0935C101.523 109.313 90.8474 89.34 79.9214 87.1801L79.8208 86.6445C90.7585 87.5517 102.491 86.1441 113.749 82.5737C123.923 79.3475 133 74.548 139.998 68.6998L140.365 69.1575C139.626 69.7754 138.864 70.3814 138.079 70.9755Z" fill="#F2F2F2"/>
<path d="M109.859 139.647C109.7 140.118 18.9342 140.118 18.7627 139.648C18.9215 139.176 109.687 139.176 109.859 139.647Z" fill="#CCCCCC"/>
</g>
</g>
<defs>
<clipPath id="clip0_1813_22220">
<rect width="140" height="140" fill="white" transform="translate(0.5)"/>
</clipPath>
<clipPath id="clip1_1813_22220">
<rect width="138.966" height="140" fill="white" transform="translate(1.39844)"/>
</clipPath>
</defs>
</svg>
