<svg width="24" height="21" viewBox="0 0 24 21" fill="none" xmlns="http://www.w3.org/2000/svg">
<path d="M10.7896 18.3288L9.70537 18.2293C6.63816 17.9448 5.10542 17.8034 4.22231 16.787C3.34092 15.7724 3.45303 14.28 3.68108 11.2944L4.00214 7.07181C4.22879 4.08685 4.3423 2.59388 5.36597 1.75508C6.25138 1.0289 8.28209 0.955525 9.84399 1.5186" fill="white"/>
<path d="M10.7896 18.3288L9.70537 18.2293C6.63816 17.9448 5.10542 17.8034 4.22231 16.787C3.34092 15.7724 3.45303 14.28 3.68108 11.2944L4.00214 7.07181C4.22879 4.08685 4.3423 2.59388 5.36597 1.75508C6.25138 1.0289 8.28209 0.955525 9.84399 1.5186" stroke="#009EAA" stroke-width="0.75" stroke-linecap="round" stroke-linejoin="round"/>
<path d="M13.12 6.65277L18.1328 7.9873L13.12 6.65277ZM12.0469 10.6385L14.5522 11.3063L12.0469 10.6385ZM12.1719 18.149L13.1736 18.4168C16.0086 19.1728 17.4261 19.5497 18.5434 18.9082C19.6595 18.2677 20.0396 16.8576 20.7988 14.0394L21.873 10.0526C22.6332 7.23341 23.0122 5.82433 22.3675 4.71345C21.7228 3.60257 20.3063 3.22563 17.4702 2.47069L16.4685 2.20294C13.6335 1.44696 12.216 1.07001 11.0998 1.71155C9.98257 2.35204 9.60246 3.76217 8.84225 6.58032L7.76913 10.5671C7.00892 13.3863 6.62881 14.7954 7.27457 15.9063C7.91928 17.0161 9.33681 17.3941 12.1719 18.149Z" fill="white"/>
<path d="M13.12 6.65277L18.1328 7.9873M12.0469 10.6385L14.5522 11.3063M12.1719 18.149L13.1736 18.4168C16.0086 19.1728 17.4261 19.5497 18.5434 18.9082C19.6595 18.2677 20.0396 16.8576 20.7988 14.0394L21.873 10.0526C22.6332 7.23341 23.0122 5.82433 22.3675 4.71345C21.7228 3.60257 20.3063 3.22563 17.4702 2.47069L16.4685 2.20294C13.6335 1.44696 12.216 1.07001 11.0998 1.71155C9.98257 2.35204 9.60246 3.76217 8.84225 6.58032L7.76913 10.5671C7.00892 13.3863 6.62881 14.7954 7.27457 15.9063C7.91928 17.0161 9.33681 17.3941 12.1719 18.149Z" stroke="#009EAA" stroke-width="0.75" stroke-linecap="round" stroke-linejoin="round"/>
</svg>
