<svg width="23" height="23" viewBox="0 0 23 23" fill="none" xmlns="http://www.w3.org/2000/svg">
<path d="M9.52662 18.7514L8.39076 18.6471C5.17749 18.3491 3.57176 18.201 2.64659 17.1362C1.72324 16.0732 1.84068 14.5098 2.07959 11.3821L2.41594 6.95837C2.65339 3.83127 2.7723 2.2672 3.84471 1.38846C4.77228 0.627697 6.8997 0.550831 8.53597 1.14072" fill="#009EAA"/>
<path d="M9.52662 18.7514L8.39076 18.6471C5.17749 18.3491 3.57176 18.201 2.64659 17.1362C1.72324 16.0732 1.84068 14.5098 2.07959 11.3821L2.41594 6.95837C2.65339 3.83127 2.7723 2.2672 3.84471 1.38846C4.77228 0.627697 6.8997 0.550831 8.53597 1.14072" stroke="#ECECEC" stroke-width="0.75" stroke-linecap="round" stroke-linejoin="round"/>
<path d="M11.9682 6.51886L17.2197 7.91694L11.9682 6.51886ZM10.844 10.6944L13.4686 11.394L10.844 10.6944ZM10.9749 18.5626L12.0243 18.8431C14.9943 19.635 16.4794 20.0299 17.6498 19.3578C18.8191 18.6869 19.2173 17.2096 20.0126 14.2572L21.1379 10.0806C21.9344 7.12715 22.3315 5.65098 21.6561 4.48719C20.9806 3.32341 19.4967 2.92852 16.5256 2.13763L15.4762 1.85714C12.5061 1.06515 11.0211 0.670258 9.85176 1.34235C8.68134 2.01334 8.28314 3.49061 7.48672 6.44296L6.36251 10.6196C5.56609 13.573 5.16789 15.0492 5.8444 16.213C6.51981 17.3757 8.00483 17.7717 10.9749 18.5626Z" fill="#009EAA"/>
<path d="M11.9682 6.51886L17.2197 7.91694M10.844 10.6944L13.4686 11.394M10.9749 18.5626L12.0243 18.8431C14.9943 19.635 16.4794 20.0299 17.6498 19.3578C18.8191 18.6869 19.2173 17.2096 20.0126 14.2572L21.1379 10.0806C21.9344 7.12715 22.3315 5.65098 21.6561 4.48719C20.9806 3.32341 19.4967 2.92852 16.5256 2.13763L15.4762 1.85714C12.5061 1.06515 11.0211 0.670258 9.85176 1.34235C8.68134 2.01334 8.28314 3.49061 7.48672 6.44296L6.36251 10.6196C5.56609 13.573 5.16789 15.0492 5.8444 16.213C6.51981 17.3757 8.00483 17.7717 10.9749 18.5626Z" stroke="#ECECEC" stroke-width="0.75" stroke-linecap="round" stroke-linejoin="round"/>
</svg>
