<svg width="22" height="22" viewBox="0 0 22 22" fill="none" xmlns="http://www.w3.org/2000/svg">
<path d="M18.1224 21.6561C18.0294 21.6561 17.9361 21.636 17.8493 21.5954L10.9996 18.3896L4.15114 21.5953C3.9515 21.6888 3.71793 21.6737 3.532 21.5554C3.34599 21.4371 3.23337 21.232 3.23337 21.0116V2.70739C3.23337 1.40436 4.29349 0.344238 5.59652 0.344238H16.4039C17.7069 0.344238 18.767 1.40432 18.767 2.70739V21.0116C18.767 21.232 18.6544 21.4371 18.4685 21.5555C18.3634 21.6223 18.2432 21.6561 18.1225 21.6561H18.1224ZM10.9995 17.0334C11.0929 17.0334 11.1862 17.0536 11.2727 17.0942L17.4779 19.9983V2.70739C17.4779 2.11515 16.996 1.6333 16.4038 1.6333H5.59643C5.0042 1.6333 4.52234 2.11511 4.52234 2.70739V19.9982L10.7263 17.0941C10.8128 17.0536 10.9062 17.0333 10.9995 17.0333L10.9995 17.0334ZM10.9995 14.3018H10.9993C10.8008 14.3018 10.6133 14.2102 10.4912 14.0536C10.0369 13.4708 9.50165 13.0483 8.984 12.6396C8.47134 12.2349 7.94124 11.8164 7.5311 11.2648C6.97302 10.5153 6.67787 9.62364 6.67787 8.68658C6.67787 6.30293 8.61658 4.36371 10.9996 4.36371C13.3826 4.36371 15.3225 6.30293 15.3225 8.68658C15.3225 9.62368 15.0273 10.5154 14.4689 11.2652C14.0588 11.8167 13.5283 12.2354 13.0153 12.6402C12.4977 13.0487 11.9625 13.4711 11.5076 14.0538C11.3855 14.2103 11.1981 14.3018 10.9996 14.3018L10.9995 14.3018ZM10.9995 5.65273C9.32732 5.65273 7.96689 7.01368 7.96689 8.68653C7.96689 9.34409 8.17379 9.96954 8.56527 10.4953C8.87392 10.9103 9.29506 11.2428 9.78275 11.6278C10.1692 11.9329 10.5919 12.2666 10.9998 12.6823C11.4077 12.2669 11.8303 11.9333 12.2167 11.6283C12.7047 11.2432 13.1262 10.9105 13.4348 10.4956C13.8265 9.96958 14.0334 9.34417 14.0334 8.68653C14.0334 7.01368 12.6724 5.65273 10.9996 5.65273H10.9995ZM10.9995 10.9864C9.73209 10.9864 8.70097 9.95467 8.70097 8.68653C8.70097 7.4184 9.73209 6.38676 10.9995 6.38676C12.267 6.38676 13.2993 7.41844 13.2993 8.68653C13.2993 9.95463 12.2676 10.9864 10.9995 10.9864ZM10.9995 7.67582C10.4429 7.67582 9.99003 8.12923 9.99003 8.68653C9.99003 9.24384 10.4429 9.69729 10.9995 9.69729C11.5562 9.69729 12.0103 9.24388 12.0103 8.68653C12.0103 8.12919 11.5568 7.67582 10.9995 7.67582Z" fill="#009EAA"/>
</svg>
