<svg width="20" height="16" viewBox="0 0 20 16" fill="none" xmlns="http://www.w3.org/2000/svg">
<g clip-path="url(#clip0_1813_22401)">
<path d="M19.4485 4.78758L10.7316 2.10945C10.2566 1.96352 9.74408 1.96352 9.26939 2.10945L0.552207 4.78758C-0.183418 5.01352 -0.183418 5.98633 0.552207 6.21227L2.07189 6.67914C1.73846 7.09133 1.53346 7.59414 1.51314 8.14477C1.21221 8.31727 1.00033 8.62852 1.00033 9.00008C1.00033 9.33695 1.17783 9.62039 1.43346 9.80164L0.635645 13.3916C0.56627 13.7038 0.803769 14.0001 1.12346 14.0001H2.87689C3.19689 14.0001 3.43439 13.7038 3.36502 13.3916L2.56721 9.80164C2.82283 9.62039 3.00033 9.33695 3.00033 9.00008C3.00033 8.63852 2.79814 8.33602 2.51096 8.16039C2.53471 7.69102 2.77471 7.27602 3.15752 7.01289L9.26908 8.8907C9.55221 8.97758 10.0953 9.08602 10.7313 8.8907L19.4485 6.21258C20.1844 5.98633 20.1844 5.01383 19.4485 4.78758ZM11.025 9.84664C10.1335 10.1204 9.37377 9.96914 8.97533 9.84664L4.44346 8.45445L4.00033 12.0001C4.00033 13.1048 6.68658 14.0001 10.0003 14.0001C13.3141 14.0001 16.0003 13.1048 16.0003 12.0001L15.5572 8.45414L11.025 9.84664Z" fill="#009EAA"/>
</g>
<defs>
<clipPath id="clip0_1813_22401">
<rect width="20" height="16" fill="white" transform="translate(0.000244141)"/>
</clipPath>
</defs>
</svg>
