<svg width="24" height="25" viewBox="0 0 24 25" fill="none" xmlns="http://www.w3.org/2000/svg">
<path d="M13.7082 20.3328H7.83325C7.29471 20.3328 6.83386 20.1412 6.45068 19.7581C6.06751 19.3749 5.87559 18.9137 5.87494 18.3745V8.58295C5.87494 8.30552 5.96894 8.07313 6.15694 7.88579C6.34493 7.69844 6.57732 7.60445 6.85409 7.60379C7.13087 7.60314 7.36358 7.69714 7.55223 7.88579C7.74088 8.07444 7.83456 8.30683 7.83325 8.58295V18.3745H13.7082C13.9856 18.3745 14.2183 18.4685 14.4063 18.6565C14.5943 18.8445 14.688 19.0769 14.6873 19.3537C14.6867 19.6304 14.5927 19.8631 14.4053 20.0518C14.218 20.2404 13.9856 20.3341 13.7082 20.3328ZM11.2603 6.62464C10.7218 6.62464 10.2609 6.43305 9.87773 6.04987C9.49455 5.6667 9.30264 5.20551 9.30198 4.66633C9.30133 4.12714 9.49325 3.66628 9.87773 3.28376C10.2622 2.90123 10.7231 2.70932 11.2603 2.70801C11.7975 2.70671 12.2587 2.89862 12.6438 3.28376C13.029 3.66889 13.2206 4.12975 13.2186 4.66633C13.2166 5.2029 13.0251 5.66409 12.6438 6.04987C12.2626 6.43566 11.8014 6.62725 11.2603 6.62464ZM15.6665 21.312V17.3954H10.7707C10.2322 17.3954 9.77133 17.2038 9.38815 16.8206C9.00497 16.4374 8.81306 15.9762 8.81241 15.437V10.0517C8.81241 9.36627 9.04904 8.78694 9.52229 8.31368C9.99555 7.84042 10.5749 7.60379 11.2603 7.60379C11.9457 7.60379 12.525 7.84042 12.9983 8.31368C13.4716 8.78694 13.7082 9.36627 13.7082 10.0517V14.4579H15.6665C16.205 14.4579 16.6662 14.6498 17.05 15.0336C17.4339 15.4175 17.6255 15.8783 17.6248 16.4162V21.312C17.6248 21.5894 17.5308 21.8221 17.3428 22.0101C17.1548 22.1981 16.9224 22.2918 16.6457 22.2911C16.3689 22.2905 16.1365 22.1965 15.9485 22.0091C15.7605 21.8218 15.6665 21.5894 15.6665 21.312Z" fill="#009EAA"/>
</svg>
