<svg width="23" height="23" viewBox="0 0 23 23" fill="none" xmlns="http://www.w3.org/2000/svg">
<path d="M21.268 5.50889C20.515 5.38316 19.7989 5.89275 19.6714 6.64519L19.6239 6.92654C19.1785 6.63756 18.6354 6.70988 18.2443 6.98804C17.8857 7.2431 17.6464 7.6722 17.6989 8.13588C17.5444 8.14603 17.3941 8.18646 17.2553 8.25555V4.21052C17.2553 4.02194 17.1791 3.85092 17.0561 3.72617L15.6205 2.0124C15.5521 1.93091 15.4513 1.88379 15.345 1.88379H7.6564C7.55012 1.88379 7.44931 1.93082 7.38103 2.01227L5.92924 3.74369C5.81591 3.86673 5.74601 4.03043 5.74601 4.21052V8.25573C5.60455 8.18552 5.45361 8.14603 5.30205 8.13575C5.35442 7.67184 5.11481 7.24261 4.75584 6.98759C4.36457 6.70961 3.82142 6.63769 3.3762 6.92726L3.32854 6.64506C3.20114 5.8928 2.48567 5.38302 1.73103 5.50907C1.00639 5.63229 0.50686 6.32544 0.593784 7.08682L1.26231 12.9798C1.507 15.1452 1.91947 16.6095 2.48769 17.3315L2.73795 17.6507C2.91768 17.8784 3.02024 18.0819 3.08088 18.3304L3.21237 18.8718H2.80744C2.60898 18.8718 2.44807 19.0327 2.44807 19.2312V20.7567C2.44807 20.9551 2.60898 21.1161 2.80744 21.1161C3.00591 21.1161 3.16682 20.9551 3.16682 20.7567V19.5906H3.66716C3.66783 19.5906 3.66851 19.5906 3.66923 19.5906C3.66972 19.5906 3.67021 19.5906 3.67071 19.5906H8.38858C8.38894 19.5906 8.3893 19.5906 8.38962 19.5906C8.39006 19.5906 8.39056 19.5906 8.39101 19.5906H8.89256V20.7567C8.89256 20.9551 9.05347 21.1161 9.25194 21.1161C9.4504 21.1161 9.61131 20.9551 9.61131 20.7567V19.2312C9.61131 19.0327 9.4504 18.8718 9.25194 18.8718H8.6914C8.66526 18.6292 8.6719 18.3609 8.6799 18.0629C8.69751 17.4036 8.71943 16.5831 8.35687 15.6463C7.98972 14.7024 7.00252 13.9338 6.70859 13.7207L5.84672 13.0961L6.19981 12.5991C6.27375 12.6263 6.35326 12.6418 6.43655 12.6418H16.5649C16.6479 12.6418 16.7272 12.6264 16.8009 12.5994L17.1542 13.0957L16.2931 13.7205C15.9995 13.933 15.0127 14.6998 14.6445 15.6466C14.2811 16.5834 14.3034 17.4042 14.3212 18.0638C14.3293 18.3615 14.3361 18.6295 14.31 18.8718H13.7482C13.5497 18.8718 13.3888 19.0328 13.3888 19.2312V20.7567C13.3888 20.9552 13.5497 21.1161 13.7482 21.1161C13.9467 21.1161 14.1076 20.9552 14.1076 20.7567V19.5906H14.6104C14.6109 19.5906 14.6114 19.5907 14.6118 19.5907C14.6122 19.5907 14.6126 19.5906 14.6129 19.5906H19.3295C19.33 19.5906 19.3305 19.5907 19.331 19.5907C19.3317 19.5907 19.3323 19.5906 19.333 19.5906H19.8346V20.7567C19.8346 20.9552 19.9955 21.1161 20.194 21.1161C20.3925 21.1161 20.5534 20.9552 20.5534 20.7567V19.2312C20.5534 19.0328 20.3925 18.8718 20.194 18.8718H19.7878L19.9192 18.3308C19.98 18.0819 20.0825 17.8785 20.2624 17.6506L20.5134 17.3321C21.0803 16.6118 21.4927 15.1476 21.7391 12.9799L22.4064 7.08713C22.4934 6.32553 21.9938 5.63238 21.2681 5.50898L21.268 5.50889ZM18.6609 7.57377C18.7331 7.52238 19.1084 7.28645 19.3988 7.69439L19.4759 7.80337L19.2227 9.30286L18.5233 8.31898C18.2263 7.90098 18.6155 7.60603 18.6609 7.57377ZM17.3233 9.23916C17.3441 9.11599 17.4109 9.0088 17.512 8.93697C17.6119 8.86577 17.7342 8.83801 17.8571 8.85867C17.9798 8.87934 18.0865 8.94587 18.1579 9.04627L18.6445 9.73002L19.0534 10.3053L19.0514 10.3175C19.0336 10.3267 19.0158 10.3363 18.9984 10.3464C18.7331 10.4994 18.5362 10.7358 18.435 11.0185L17.8645 10.2163C17.8343 10.1734 17.801 10.1333 17.7654 10.0956L17.4012 9.58304C17.3303 9.48367 17.3027 9.36153 17.3233 9.23916ZM17.7128 12.6411L17.2531 11.9951C17.254 11.9806 17.2553 11.9661 17.2553 11.9513V10.6185L18.1744 11.912C18.0665 12.1903 17.9149 12.4299 17.7128 12.6411H17.7128ZM15.9458 3.52007H12.8418V2.60254H15.1772L15.9458 3.52007ZM10.8783 4.23882H12.123V5.40355L11.7333 5.07248C11.5992 4.95847 11.4021 4.95847 11.268 5.07248L10.8783 5.40355V4.23882ZM10.8783 3.52007V2.60254H12.123V3.52007H10.8783ZM7.82405 2.60254H10.1595V3.52007H7.05467L7.82405 2.60254ZM5.28803 12.6412C5.08602 12.4299 4.93423 12.19 4.82596 11.9115L5.74601 10.6168V11.9513C5.74601 11.9656 5.74731 11.9796 5.74816 11.9937L5.28803 12.6412V12.6412ZM5.67714 9.23795C5.69781 9.36068 5.67 9.48322 5.59853 9.58349L5.23543 10.0945C5.20007 10.132 5.16688 10.1721 5.13642 10.215L4.56564 11.0176C4.45298 10.7062 4.22769 10.4611 3.94864 10.3173L3.94675 10.3061L4.4267 9.63084L4.84744 9.03953C4.99694 8.83693 5.28304 8.79044 5.48982 8.93733C5.58995 9.00844 5.65643 9.11522 5.67714 9.23795ZM3.60189 7.69524C3.89253 7.28695 4.26741 7.5222 4.33959 7.5735C4.38501 7.60576 4.77471 7.90085 4.47813 8.31885L4.26516 8.61816C4.26233 8.62207 4.25927 8.6258 4.25649 8.62975L3.90066 9.13041L3.77749 9.30349L3.52431 7.80418L3.60193 7.69529L3.60189 7.69524ZM7.68672 15.9062C7.99704 16.708 7.97809 17.4175 7.96138 18.0436C7.95374 18.3291 7.94651 18.6044 7.96906 18.8718H3.95205L3.77924 18.1604C3.69366 17.8096 3.5465 17.5151 3.30289 17.2063L3.0529 16.8875C2.5818 16.2889 2.19952 14.8725 1.97648 12.8989L1.30791 7.0056C1.26424 6.62305 1.50305 6.27697 1.85052 6.21785C2.21358 6.15703 2.55853 6.4027 2.61985 6.76491L3.19746 10.1854C3.14252 10.1926 3.08744 10.203 3.03246 10.2176C2.7039 10.3059 2.42889 10.5176 2.25827 10.8136C2.08753 11.1097 2.0422 11.4538 2.13047 11.782L3.02186 15.1118C3.07316 15.3035 3.27032 15.4174 3.46191 15.366C3.65368 15.3147 3.76747 15.1176 3.71612 14.9259L2.82465 11.5957C2.7862 11.4526 2.80614 11.3023 2.88094 11.1726C2.95573 11.0429 3.07585 10.9502 3.21803 10.912C3.51667 10.8326 3.82443 11.01 3.90417 11.3066L4.04185 11.823C4.23313 12.535 4.61622 13.0916 5.21324 13.5246L6.28664 14.3026C6.8094 14.6816 7.45174 15.3021 7.68668 15.9062L7.68672 15.9062ZM16.5366 11.923H6.4648V4.23882H10.1596V6.18043C10.1596 6.3205 10.241 6.44781 10.3681 6.50661C10.4952 6.56541 10.6449 6.54502 10.7517 6.45432L11.5007 5.81791L12.2498 6.45432C12.3161 6.51061 12.3988 6.53981 12.4825 6.53981C12.5337 6.53981 12.5851 6.52889 12.6333 6.50661C12.7605 6.44781 12.8419 6.3205 12.8419 6.18043V4.23882H16.5366V11.923L16.5366 11.923ZM21.6922 7.00587L21.0249 12.8988C20.8003 14.8744 20.418 16.291 19.9487 16.8873L19.698 17.2054C19.4536 17.5151 19.3065 17.8096 19.2208 18.1607L19.0481 18.8718H15.0323C15.0547 18.6046 15.0474 18.3295 15.0397 18.0443C15.0227 17.4181 15.0035 16.7085 15.3145 15.9068C15.5506 15.2997 16.2162 14.6633 16.7148 14.3025L17.7866 13.5248C18.385 13.0917 18.7684 12.5349 18.9582 11.8232L19.0972 11.3065C19.1352 11.1638 19.2277 11.0439 19.3576 10.969C19.4877 10.8939 19.6384 10.8737 19.781 10.9116C20.0784 10.9916 20.2558 11.2988 20.1767 11.5959L19.284 14.9258C19.2326 15.1175 19.3464 15.3145 19.5381 15.3659C19.7299 15.4174 19.9269 15.3036 19.9783 15.1118L20.8711 11.7814C21.0521 11.1017 20.6469 10.4001 19.9668 10.2173C19.9125 10.2028 19.8577 10.1923 19.8027 10.1851L20.3802 6.765C20.4415 6.40266 20.7871 6.15707 21.1486 6.21758C21.4971 6.27683 21.7359 6.62296 21.6922 7.00583V7.00587ZM8.58363 20.0946C8.58363 20.2931 8.42272 20.454 8.22426 20.454C8.02579 20.454 7.86488 20.2931 7.86488 20.0946C7.86488 19.8962 8.02579 19.7352 8.22426 19.7352C8.42272 19.7352 8.58363 19.8962 8.58363 20.0946ZM15.135 20.0946C15.135 20.2931 14.9741 20.454 14.7757 20.454C14.5772 20.454 14.4163 20.2931 14.4163 20.0946C14.4163 19.8962 14.5772 19.7352 14.7757 19.7352C14.9741 19.7352 15.135 19.8962 15.135 20.0946Z" fill="black"/>
<path d="M4.82596 11.9114C4.93422 12.1899 5.08606 12.4297 5.28802 12.6411L5.74816 11.9936C5.74731 11.9795 5.746 11.9655 5.746 11.9512V10.6167L4.82596 11.9114V11.9114Z" fill="#FFCEBE"/>
<path d="M4.04189 11.823L3.9042 11.3066C3.82446 11.01 3.5167 10.8325 3.21806 10.9119C3.07589 10.9501 2.95577 11.0428 2.88097 11.1726C2.80618 11.3023 2.78623 11.4525 2.82468 11.5956L3.71616 14.9259C3.7675 15.1176 3.65367 15.3146 3.46194 15.366C3.27035 15.4173 3.07319 15.3034 3.02189 15.1117L2.13051 11.7819C2.04223 11.4537 2.08756 11.1097 2.25831 10.8136C2.42897 10.5176 2.70393 10.3059 3.03249 10.2175C3.08748 10.2029 3.14255 10.1925 3.19749 10.1854L2.61988 6.7648C2.55857 6.4026 2.21361 6.15692 1.85055 6.21774C1.50308 6.27682 1.26428 6.62294 1.30794 7.00549L1.97651 12.8988C2.19955 14.8724 2.58184 16.2888 3.05293 16.8874L3.30292 17.2062C3.54658 17.5151 3.6937 17.8096 3.77927 18.1603L3.95209 18.8717H7.96909C7.94659 18.6043 7.95377 18.329 7.96141 18.0435C7.97812 17.4174 7.99708 16.7079 7.68676 15.9061C7.45182 15.3019 6.80948 14.6815 6.28672 14.3024L5.21331 13.5245C4.6163 13.0915 4.23321 12.5349 4.04193 11.8229L4.04189 11.823Z" fill="#FFCEBE"/>
<path d="M4.84743 9.03961L4.42669 9.63091L3.94675 10.3062L3.94863 10.3174C4.22769 10.4612 4.45297 10.7063 4.56564 11.0177L5.13641 10.215C5.16687 10.1722 5.20007 10.1321 5.23542 10.0946L5.59852 9.58357C5.66999 9.4833 5.6978 9.36075 5.67714 9.23803C5.65643 9.1153 5.58994 9.00852 5.48981 8.93741C5.28304 8.79052 4.99693 8.83701 4.84743 9.03961Z" fill="#FFCEBE"/>
<path d="M17.7654 10.0955C17.801 10.1332 17.8344 10.1734 17.8646 10.2163L18.435 11.0185C18.5362 10.7358 18.7331 10.4994 18.9984 10.3464C19.0159 10.3363 19.0336 10.3267 19.0514 10.3175L19.0535 10.3053L18.6445 9.73002L18.1579 9.04631C18.0866 8.94591 17.9798 8.87938 17.8572 8.85871C17.7343 8.83805 17.6119 8.86581 17.512 8.93701C17.4109 9.0088 17.3441 9.11598 17.3233 9.2392C17.3027 9.36157 17.3304 9.48371 17.4012 9.58308L17.7655 10.0956L17.7654 10.0955Z" fill="#FFCEBE"/>
<path d="M3.9006 9.13028L4.25643 8.62963C4.25921 8.62567 4.26227 8.62195 4.2651 8.61804L4.47807 8.31872C4.77465 7.90068 4.38495 7.60563 4.33953 7.57338C4.26739 7.52212 3.89247 7.28687 3.60183 7.69512L3.5242 7.80401L3.77738 9.30332L3.90056 9.13024L3.9006 9.13028Z" fill="#FFCEBE"/>
<path d="M16.5365 4.23877H12.8418V6.18038C12.8418 6.32045 12.7604 6.44776 12.6332 6.50656C12.585 6.52889 12.5336 6.53976 12.4824 6.53976C12.3988 6.53976 12.316 6.51056 12.2497 6.45427L11.5006 5.81786L10.7516 6.45427C10.6448 6.54501 10.4951 6.56536 10.368 6.50656C10.2409 6.44776 10.1595 6.32045 10.1595 6.18038V4.23877H6.46471V11.923H16.5365L16.5365 4.23877Z" fill="#F8C985"/>
<path d="M10.8783 2.60254H12.123V3.52007H10.8783V2.60254Z" fill="#E0C292"/>
<path d="M18.1744 11.912L17.2553 10.6187V11.9514C17.2553 11.9662 17.254 11.9807 17.2531 11.9952L17.7129 12.6412C17.915 12.43 18.0666 12.1903 18.1744 11.9121L18.1744 11.912Z" fill="#FFCEBE"/>
<path d="M15.1772 2.60254H12.8418V3.52007H15.9458L15.1772 2.60254Z" fill="#E5A961"/>
<path d="M10.1595 2.60254H7.82405L7.05467 3.52007H10.1595V2.60254Z" fill="#E5A961"/>
<path d="M11.7333 5.07243L12.123 5.4035V4.23877H10.8783V5.4035L11.268 5.07243C11.4021 4.95842 11.5992 4.95842 11.7333 5.07243Z" fill="#F4DDB4"/>
<path d="M19.0972 11.3065L18.9581 11.8232C18.7683 12.5349 18.385 13.0917 17.7865 13.5248L16.7148 14.3025C16.2161 14.6633 15.5505 15.2997 15.3144 15.9068C15.0034 16.7084 15.0226 17.4181 15.0396 18.0443C15.0473 18.3295 15.0546 18.6046 15.0322 18.8718H19.048L19.2208 18.1608C19.3064 17.8097 19.4536 17.5152 19.6979 17.2055L19.9486 16.8873C20.418 16.291 20.8003 14.8745 21.0249 12.8988L21.6921 7.0059C21.7358 6.62304 21.497 6.27691 21.1485 6.21766C20.787 6.15715 20.4415 6.40269 20.3802 6.76508L19.8027 10.1852C19.8576 10.1924 19.9124 10.2029 19.9668 10.2174C20.6468 10.4003 21.052 11.1018 20.871 11.7815L19.9782 15.112C19.9268 15.3037 19.7298 15.4175 19.538 15.366C19.3463 15.3147 19.2326 15.1176 19.284 14.9259L20.1766 11.5961C20.2558 11.299 20.0783 10.9917 19.7809 10.9118C19.6384 10.8738 19.4876 10.894 19.3575 10.9691C19.2276 11.044 19.1352 11.1639 19.0972 11.3066V11.3065Z" fill="#FFCEBE"/>
<path d="M19.2227 9.30304L19.4759 7.80355L19.3988 7.69457C19.1084 7.28663 18.7332 7.52256 18.6609 7.57395C18.6155 7.6062 18.2262 7.90121 18.5233 8.3192L19.2227 9.30304Z" fill="#FFCEBE"/>
<path d="M8.89251 20.7569V19.5908H8.39095C8.3905 19.5908 8.39001 19.5909 8.38956 19.5909C8.3892 19.5909 8.38884 19.5908 8.38853 19.5908H3.67065C3.67016 19.5908 3.66966 19.5909 3.66917 19.5909C3.66845 19.5909 3.66778 19.5908 3.6671 19.5908H3.16676V20.7569C3.16676 20.9554 3.00585 21.1163 2.80739 21.1163H9.25188C9.05342 21.1163 8.89251 20.9554 8.89251 20.7569ZM8.22425 20.4543C8.02578 20.4543 7.86487 20.2934 7.86487 20.0949C7.86487 19.8965 8.02578 19.7356 8.22425 19.7356C8.42271 19.7356 8.58362 19.8965 8.58362 20.0949C8.58362 20.2934 8.42271 20.4543 8.22425 20.4543Z" fill="#60B9FE"/>
<path d="M19.8345 20.7569V19.5908H19.3329C19.3322 19.5908 19.3316 19.5909 19.3309 19.5909C19.3304 19.5909 19.3299 19.5908 19.3294 19.5908H14.6128C14.6124 19.5908 14.612 19.5909 14.6117 19.5909C14.6113 19.5909 14.6108 19.5908 14.6103 19.5908H14.1075V20.7569C14.1075 20.9554 13.9466 21.1163 13.7481 21.1163H20.125V21.1095C19.9595 21.0774 19.8345 20.9318 19.8345 20.7569ZM14.7757 20.4543C14.5772 20.4543 14.4163 20.2934 14.4163 20.0949C14.4163 19.8965 14.5772 19.7356 14.7757 19.7356C14.9741 19.7356 15.135 19.8965 15.135 20.0949C15.135 20.2934 14.9741 20.4543 14.7757 20.4543Z" fill="#60B9FE"/>
</svg>
