<svg width="16" height="10" viewBox="0 0 16 10" fill="none" xmlns="http://www.w3.org/2000/svg">
<path fill-rule="evenodd" clip-rule="evenodd" d="M15.5219 7.7236H14.4533C14.4627 7.6533 14.4627 7.59305 14.4627 7.52275C14.4627 6.39797 13.6191 5.48408 12.5693 5.48408C11.5195 5.48408 10.6759 6.39797 10.6759 7.52275C10.6759 7.59305 10.6759 7.6533 10.6853 7.7236H5.31449C5.32386 7.66334 5.32386 7.61313 5.32386 7.55287C5.32386 6.42809 4.47091 5.52425 3.43048 5.52425C2.38069 5.52425 1.52773 6.42809 1.52773 7.55287C1.52773 7.61313 1.5371 7.66334 1.5371 7.7236H0.721638C0.327965 7.7236 0.00927734 7.38215 0.00927734 6.96036V6.38792H0.43107C0.740384 6.38792 0.99346 6.11677 0.99346 5.78536V5.51421C0.99346 5.19284 0.740384 4.92169 0.43107 4.92169H0.00927734V4.66058C0.00927734 4.23879 0.327965 3.89734 0.721638 3.89734H13.0005C13.3285 3.89734 13.6285 3.94755 13.9191 4.04798V5.01208C13.9191 5.79541 14.5189 6.42809 15.25 6.42809H15.9249C15.9718 6.64903 15.9905 6.86997 15.9905 7.10095V7.22147C15.9905 7.49262 15.7843 7.7236 15.5219 7.7236ZM14.294 4.20866C15.0063 4.58024 15.5594 5.23302 15.8218 6.02639H15.25C14.7252 6.02639 14.294 5.57447 14.294 5.01208V4.20866Z" fill="white"/>
<path fill-rule="evenodd" clip-rule="evenodd" d="M12.2788 4.29902H1.29342C1.24655 4.29902 1.19969 4.27894 1.1622 4.23877C1.1247 4.1986 1.10596 4.14838 1.10596 4.09817C1.10596 2.36079 2.42757 0.944768 4.04913 0.944768C4.65839 0.944768 5.17391 0.934725 5.62382 0.934725C5.96126 0.924683 6.25183 0.924683 6.51428 0.924683C8.37954 0.924683 8.59512 1.09541 9.99172 2.16998C10.5354 2.59177 11.2758 3.1642 12.3725 3.9174C12.4287 3.95757 12.4662 4.01783 12.4662 4.09817C12.4662 4.20864 12.3819 4.29902 12.2788 4.29902ZM1.49026 3.89732H11.6508C10.8259 3.3048 10.2261 2.84284 9.77614 2.49134C8.40766 1.43686 8.25768 1.32639 6.51428 1.32639C6.25183 1.32639 5.96126 1.32639 5.62382 1.33643C5.17391 1.33643 4.66776 1.34648 4.04913 1.34648C2.6994 1.34648 1.58399 2.47126 1.49026 3.89732Z" fill="white"/>
<path fill-rule="evenodd" clip-rule="evenodd" d="M5.72701 4.29899C5.62391 4.29899 5.53955 4.20861 5.53955 4.09814V1.13555C5.53955 1.02508 5.62391 0.934692 5.72701 0.934692C5.83012 0.934692 5.91448 1.02508 5.91448 1.13555V4.09814C5.91448 4.20861 5.83012 4.29899 5.72701 4.29899Z" fill="white"/>
<path fill-rule="evenodd" clip-rule="evenodd" d="M15.8125 9.17978H0.187463C0.0843585 9.17978 0 9.0894 0 8.97893C0 8.86846 0.0843585 8.77808 0.187463 8.77808H15.8125C15.9156 8.77808 16 8.86846 16 8.97893C16 9.0894 15.9156 9.17978 15.8125 9.17978Z" fill="white"/>
<path fill-rule="evenodd" clip-rule="evenodd" d="M10.2823 6.49839H5.53951C5.43641 6.49839 5.35205 6.408 5.35205 6.29753C5.35205 6.18706 5.43641 6.09668 5.53951 6.09668H10.2823C10.3854 6.09668 10.4698 6.18706 10.4698 6.29753C10.4698 6.408 10.3854 6.49839 10.2823 6.49839Z" fill="white"/>
<path fill-rule="evenodd" clip-rule="evenodd" d="M12.5692 9.14961C11.7256 9.14961 11.0508 8.4165 11.0508 7.5227C11.0508 6.61886 11.7256 5.88574 12.5692 5.88574C13.4128 5.88574 14.0877 6.61886 14.0877 7.5227C14.0877 8.4165 13.4128 9.14961 12.5692 9.14961ZM12.5692 8.35624C12.1381 8.35624 11.7913 7.98466 11.7913 7.5227C11.7913 7.06074 12.1381 6.68916 12.5692 6.68916C13.0004 6.68916 13.3472 7.06074 13.3472 7.5227C13.3472 7.98466 13.0004 8.35624 12.5692 8.35624ZM12.5692 7.04065C12.3162 7.04065 12.1193 7.25155 12.1193 7.5227C12.1193 7.78381 12.3162 8.00475 12.5692 8.00475C12.8223 8.00475 13.0191 7.78381 13.0191 7.5227C13.0191 7.25155 12.8223 7.04065 12.5692 7.04065Z" fill="white"/>
<path fill-rule="evenodd" clip-rule="evenodd" d="M3.43066 9.17973C2.58707 9.17973 1.90283 8.44662 1.90283 7.55282C1.90283 6.64898 2.58707 5.9259 3.43066 5.9259C4.26487 5.9259 4.94911 6.64898 4.94911 7.55282C4.94911 8.44662 4.26487 9.17973 3.43066 9.17973ZM3.43066 8.38636C2.99949 8.38636 2.64331 8.01478 2.64331 7.55282C2.64331 7.09085 2.99949 6.71928 3.43066 6.71928C3.86182 6.71928 4.20863 7.09085 4.20863 7.55282C4.20863 8.01478 3.86182 8.38636 3.43066 8.38636ZM3.43066 7.07077C3.17758 7.07077 2.97137 7.28167 2.97137 7.55282C2.97137 7.82397 3.17758 8.03487 3.43066 8.03487C3.67436 8.03487 3.88057 7.82397 3.88057 7.55282C3.88057 7.28167 3.67436 7.07077 3.43066 7.07077Z" fill="white"/>
<path fill-rule="evenodd" clip-rule="evenodd" d="M0.43107 5.98618H0.103009C0.04677 5.98618 0.00927734 5.94601 0.00927734 5.88575V5.41375C0.00927734 5.36353 0.04677 5.32336 0.103009 5.32336H0.43107C0.534175 5.32336 0.618533 5.41375 0.618533 5.51418V5.78533C0.618533 5.8958 0.534175 5.98618 0.43107 5.98618Z" fill="white"/>
</svg>
