<svg width="22" height="22" viewBox="0 0 22 22" fill="none" xmlns="http://www.w3.org/2000/svg">
<path d="M14.8256 11.8029C13.784 11.6364 12.7059 11.5745 11.7134 11.2523C9.99473 10.6943 8.9548 9.22045 8.96244 7.65372C8.97048 6.00828 10.0521 4.55598 11.7442 3.9111C13.1241 3.38516 14.5607 3.20036 15.9948 3.49392C16.7374 3.64594 17.4215 4.09475 18.1243 4.42574C18.4673 4.58721 18.7751 4.8385 19.1298 4.9564C19.7739 5.17056 20.0935 4.93887 20.1126 4.25837C20.126 3.7825 20.3775 3.73076 20.7403 3.81326C21.5757 4.00318 22.0516 4.82689 21.8285 5.68077C21.5662 6.68469 20.4383 7.53216 19.2254 7.59769C18.6121 7.63082 17.9903 7.67375 17.3829 7.62274C15.2529 7.44386 15.1059 9.19359 17.236 9.37247C17.7187 9.41299 18.2097 9.43143 18.6893 9.50757C19.6333 9.65744 20.19 10.2501 20.2346 11.0952C20.28 11.9572 19.8134 12.5344 18.8376 12.7982C18.4289 12.9086 18.0003 12.9554 17.6024 13.0937C16.9658 13.3151 16.8849 13.7306 17.325 14.2451L17.3293 14.2503C17.4822 14.435 17.3794 14.7268 17.1432 14.7678C17.1171 14.7727 17.0905 14.7733 17.0642 14.7696C16.7324 14.7186 16.3945 14.6386 16.0881 14.5041C15.0993 14.0704 15.0128 13.3446 15.8464 12.6769C15.8715 12.6566 15.8964 12.636 15.921 12.6151C16.1164 12.4494 16.0519 12.1333 15.807 12.058C15.4802 11.9576 15.0794 11.8434 14.8256 11.8029Z" fill="#BFBCAF"/>
<path d="M16.1958 15.8774H18.5516V19.5955H16.1958V15.8774Z" fill="#FFB636"/>
<path d="M5.34326 15.8774H16.657V19.5955H5.34326V15.8774Z" fill="#E5E4DF"/>
<path d="M0.773094 15.8774C0.346113 15.8774 0 16.7097 0 17.7365C0 18.7632 0.346113 19.5955 0.773094 19.5955H7.43454V15.8774H0.773094Z" fill="#D19B61"/>
<path d="M16.6007 19.5955C17.0277 19.5955 17.3738 18.7632 17.3738 17.7365C17.3738 16.7098 17.0277 15.8774 16.6007 15.8774C16.1738 15.8774 15.8276 16.7098 15.8276 17.7365C15.8276 18.7632 16.1738 19.5955 16.6007 19.5955Z" fill="#FFB636"/>
<path d="M7.43472 19.5955C7.86168 19.5955 8.20781 18.7632 8.20781 17.7365C8.20781 16.7098 7.86168 15.8774 7.43472 15.8774C7.00775 15.8774 6.66162 16.7098 6.66162 17.7365C6.66162 18.7632 7.00775 19.5955 7.43472 19.5955Z" fill="#E5E4DF"/>
<path d="M18.5517 19.5955C19.0966 19.5955 19.5384 18.7632 19.5384 17.7365C19.5384 16.7098 19.0966 15.8774 18.5517 15.8774C18.0067 15.8774 17.5649 16.7098 17.5649 17.7365C17.5649 18.7632 18.0067 19.5955 18.5517 19.5955Z" fill="#FFD469"/>
</svg>
