<svg width="42" height="42" viewBox="0 0 42 42" fill="none" xmlns="http://www.w3.org/2000/svg">
<path d="M22.05 42.0001C33.0681 42.0001 42 33.0682 42 22.0501C42 11.032 33.0681 2.1001 22.05 2.1001C11.0319 2.1001 2.09998 11.032 2.09998 22.0501C2.09998 33.0682 11.0319 42.0001 22.05 42.0001Z" fill="#FFC850"/>
<path d="M19.95 39.8999C28.6484 39.8999 35.6999 32.8484 35.6999 24.1499C35.6999 15.4514 28.6484 8.3999 19.95 8.3999C11.2515 8.3999 4.19995 15.4514 4.19995 24.1499C4.19995 32.8484 11.2515 39.8999 19.95 39.8999Z" fill="#DD992B"/>
<path d="M22.05 37.7998C30.7485 37.7998 37.8 30.7483 37.8 22.0498C37.8 13.3513 30.7485 6.2998 22.05 6.2998C13.3516 6.2998 6.30005 13.3513 6.30005 22.0498C6.30005 30.7483 13.3516 37.7998 22.05 37.7998Z" fill="#FFDC64"/>
<path d="M31.3444 32.4675C31.2028 32.2816 30.982 32.1731 30.7461 32.1655C21.9129 31.8763 14.8414 24.7414 14.8414 15.9779C14.8414 13.6344 15.3528 11.4115 16.2659 9.40288C16.555 8.76704 15.833 8.13469 15.2398 8.51473C10.7029 11.4216 7.85738 16.6678 8.48694 22.5206C9.1972 29.1233 14.4559 34.5356 21.1267 35.5281C24.8087 36.076 28.2599 35.2817 31.1103 33.5974C31.5124 33.3597 31.6258 32.8368 31.3444 32.4675Z" fill="#FFC850"/>
<path d="M33.1255 20.0758C33.556 19.6383 33.7077 18.9967 33.5222 18.4005C33.3367 17.8043 32.8525 17.3785 32.2587 17.2887L27.0636 16.5012C26.9621 16.486 26.8735 16.4195 26.828 16.3227L24.5052 11.4111C24.238 10.8488 23.7002 10.5 23.0994 10.5C22.4986 10.5 21.9607 10.8488 21.6959 11.4111L19.372 16.3227C19.3265 16.4195 19.2378 16.486 19.1363 16.5012L13.9413 17.2899C13.3474 17.3797 12.8633 17.8055 12.6778 18.4017C12.4923 18.9978 12.6439 19.6395 13.0744 20.077L16.8334 23.9001C16.9069 23.9747 16.9407 24.0832 16.9232 24.1894L16.0354 29.5886C15.9339 30.2058 16.173 30.8182 16.6584 31.1869C17.1437 31.5556 17.776 31.6034 18.3068 31.3117L22.9536 28.7626C23.0446 28.7125 23.1542 28.7125 23.2452 28.7626L27.892 31.3117C28.123 31.4366 28.3726 31.4996 28.6223 31.4996C28.9454 31.4996 29.2663 31.3934 29.5416 31.1857C30.0269 30.8171 30.2661 30.2046 30.1646 29.5874L29.2768 24.1882C29.2593 24.082 29.2931 23.9736 29.3666 23.8989L33.1255 20.0758Z" fill="#EE9400"/>
<path fill-rule="evenodd" clip-rule="evenodd" d="M11.3143 11.25L8.4 18.9L5.48571 11.25L0 9.45L5.48571 7.65L8.4 0L11.3143 7.65L16.8 9.45L11.3143 11.25Z" fill="white"/>
</svg>
