<svg width="22" height="22" viewBox="0 0 22 22" fill="none" xmlns="http://www.w3.org/2000/svg">
<path d="M6.92179 11.4578C7.27977 11.8158 7.86063 11.8158 8.21861 11.4578C8.57637 11.0998 8.57583 10.5196 8.21792 10.1617L6.92179 8.86556L13.4038 2.38352C13.7618 2.02554 14.3427 2.02554 14.7007 2.38352L16.0292 3.71211C15.4397 4.6019 15.5367 5.8132 16.3206 6.59716C17.1046 7.38091 18.3153 7.47733 19.205 6.88787L20.5343 8.21715C20.892 8.57515 20.8915 9.15538 20.5336 9.51328L14.0516 15.9953L12.7554 14.6992C12.3975 14.3413 11.8173 14.3408 11.4593 14.6985C11.1013 15.0565 11.1013 15.6373 11.4593 15.9953L12.7554 17.2915L9.51475 20.5321C9.15684 20.89 8.57661 20.8906 8.21861 20.5328L6.88934 19.2035C7.47874 18.3138 7.38166 17.1038 6.59793 16.3199C5.81397 15.5359 4.60336 15.4383 3.71357 16.0278L2.38498 14.6992C2.027 14.3412 2.027 13.7604 2.38498 13.4024L5.62566 10.1617L6.92179 11.4578ZM8.86703 12.1062C8.50933 12.4642 8.50983 13.0445 8.86772 13.4024L9.51613 14.0508C9.87404 14.4083 10.4537 14.4084 10.8116 14.0508C11.1694 13.6929 11.1699 13.1127 10.8123 12.7546L10.1638 12.1062C9.80587 11.7483 9.22501 11.7483 8.86703 12.1062Z" fill="#009EAA"/>
</svg>
