<svg width="18" height="19" viewBox="0 0 18 19" fill="none" xmlns="http://www.w3.org/2000/svg">
<g clip-path="url(#clip0_2711_3093)">
<circle opacity="0.2" cx="8.20911" cy="8.97234" r="6.87273" fill="#009EAA"/>
<path fill-rule="evenodd" clip-rule="evenodd" d="M7.875 2.49961C7.875 2.36037 7.93031 2.22683 8.02877 2.12838C8.12723 2.02992 8.26076 1.97461 8.4 1.97461C12.5559 1.97461 15.925 5.34371 15.925 9.49961C15.925 13.6555 12.5559 17.0246 8.4 17.0246C4.2441 17.0246 0.875 13.6555 0.875 9.49961C0.875 9.36037 0.930312 9.22683 1.02877 9.12838C1.12723 9.02992 1.26076 8.97461 1.4 8.97461C1.53924 8.97461 1.67277 9.02992 1.77123 9.12838C1.86969 9.22683 1.925 9.36037 1.925 9.49961C1.925 10.7802 2.30475 12.0321 3.01623 13.0969C3.72772 14.1617 4.73897 14.9917 5.92212 15.4817C7.10528 15.9718 8.40718 16.1 9.66321 15.8502C10.9192 15.6004 12.073 14.9837 12.9785 14.0781C13.8841 13.1726 14.5007 12.0188 14.7506 10.7628C15.0004 9.50679 14.8722 8.20489 14.3821 7.02173C13.892 5.83858 13.0621 4.82733 11.9973 4.11584C10.9325 3.40436 9.68063 3.02461 8.4 3.02461C8.26076 3.02461 8.12723 2.9693 8.02877 2.87084C7.93031 2.77238 7.875 2.63885 7.875 2.49961ZM8.4 6.87461C8.53924 6.87461 8.67277 6.92992 8.77123 7.02838C8.86969 7.12683 8.925 7.26037 8.925 7.39961V9.67461H11.2C11.3392 9.67461 11.4728 9.72992 11.5712 9.82838C11.6697 9.92684 11.725 10.0604 11.725 10.1996C11.725 10.3388 11.6697 10.4724 11.5712 10.5708C11.4728 10.6693 11.3392 10.7246 11.2 10.7246H8.4C8.26076 10.7246 8.12723 10.6693 8.02877 10.5708C7.93031 10.4724 7.875 10.3388 7.875 10.1996V7.39961C7.875 7.26037 7.93031 7.12683 8.02877 7.02838C8.12723 6.92992 8.26076 6.87461 8.4 6.87461ZM6.37 2.77821C6.39485 2.84255 6.40677 2.91117 6.40508 2.98012C6.4034 3.04907 6.38815 3.11702 6.3602 3.18008C6.33224 3.24314 6.29214 3.30007 6.24217 3.34762C6.19221 3.39517 6.13336 3.43241 6.069 3.45721C5.97 3.4951 5.87197 3.53548 5.775 3.57831C5.71157 3.60948 5.64251 3.62752 5.57194 3.63136C5.50137 3.63519 5.43076 3.62474 5.36433 3.60063C5.2979 3.57652 5.23702 3.53924 5.18534 3.49104C5.13366 3.44283 5.09225 3.38469 5.06358 3.32009C5.03491 3.2555 5.01958 3.18578 5.01851 3.11512C5.01743 3.04445 5.03064 2.9743 5.05732 2.90886C5.08401 2.84343 5.12364 2.78405 5.17383 2.7343C5.22402 2.68454 5.28373 2.64543 5.3494 2.61931C5.4614 2.56891 5.57527 2.52154 5.691 2.47721C5.75534 2.45236 5.82396 2.44044 5.89291 2.44212C5.96186 2.44381 6.02981 2.45906 6.09287 2.48701C6.15593 2.51497 6.21286 2.55507 6.26041 2.60504C6.30796 2.655 6.3452 2.71385 6.37 2.77821ZM3.9536 4.06761C4.04954 4.16844 4.10152 4.30324 4.0981 4.44238C4.09469 4.58152 4.03617 4.7136 3.9354 4.80961C3.85861 4.88284 3.78369 4.958 3.7107 5.03501C3.61463 5.13591 3.4824 5.19451 3.34312 5.19793C3.20384 5.20134 3.0689 5.14928 2.968 5.05321C2.8671 4.95713 2.80849 4.82491 2.80508 4.68563C2.80167 4.54635 2.85373 4.41141 2.9498 4.31051C3.0352 4.22184 3.12223 4.13481 3.2109 4.04941C3.31173 3.95347 3.44653 3.90149 3.58567 3.90491C3.72481 3.90832 3.85759 3.96684 3.9536 4.06761ZM2.212 6.18231C2.27502 6.21029 2.33191 6.25042 2.37942 6.30039C2.42693 6.35037 2.46413 6.40921 2.4889 6.47356C2.51366 6.53792 2.52551 6.60652 2.52376 6.67545C2.52201 6.74438 2.5067 6.8123 2.4787 6.87531C2.43577 6.97191 2.39517 7.06968 2.3569 7.16861C2.30458 7.29537 2.20473 7.39663 2.07871 7.45073C1.95269 7.50483 1.8105 7.50747 1.68256 7.45808C1.55462 7.4087 1.45109 7.31121 1.39409 7.18648C1.3371 7.06174 1.33118 6.91965 1.3776 6.79061C1.42147 6.67534 1.4686 6.56148 1.519 6.44901C1.54698 6.38599 1.58711 6.3291 1.63708 6.28159C1.68706 6.23408 1.7459 6.19688 1.81026 6.17211C1.87461 6.14734 1.94321 6.1355 2.01214 6.13725C2.08107 6.139 2.14899 6.15431 2.212 6.18231Z" fill="#009EAA"/>
</g>
<defs>
<clipPath id="clip0_2711_3093">
<rect width="16.8" height="16.8" fill="white" transform="translate(0 1.09961)"/>
</clipPath>
</defs>
</svg>
