<svg width="30" height="30" viewBox="0 0 30 30" fill="none" xmlns="http://www.w3.org/2000/svg">
<path d="M10.035 5C9.28079 4.99972 8.54741 5.2475 7.94791 5.70514C7.34841 6.16279 6.91606 6.80489 6.7175 7.5325L5.5275 11.9C4.6929 12.0003 3.92396 12.4029 3.3661 13.0317C2.80823 13.6605 2.50011 14.4719 2.5 15.3125V18.125C2.5 19.2063 3 20.17 3.77875 20.8C3.88917 21.7198 4.31064 22.5742 4.97327 23.2216C5.6359 23.869 6.49989 24.2705 7.42199 24.3595C8.34409 24.4485 9.26892 24.2196 10.0431 23.7109C10.8174 23.2022 11.3945 22.4442 11.6788 21.5625H17.6962C17.9703 22.4062 18.5129 23.1371 19.2412 23.6437C19.9695 24.1502 20.8434 24.4047 21.7298 24.3681C22.6162 24.3316 23.4663 24.0061 24.1504 23.4413C24.8345 22.8765 25.315 22.1034 25.5188 21.24C26.1111 20.963 26.6121 20.5228 26.963 19.971C27.3139 19.4193 27.5002 18.7789 27.5 18.125V16.015C27.5 15.2484 27.2438 14.5037 26.772 13.8994C26.3002 13.2952 25.64 12.8659 24.8962 12.68L22.1675 11.9975L19.0325 6.69C18.7286 6.17527 18.2958 5.74866 17.7767 5.45229C17.2576 5.15592 16.6702 5.00003 16.0725 5H10.035ZM8.5275 8.02625C8.61771 7.69557 8.81416 7.40374 9.08657 7.1957C9.35898 6.98767 9.69224 6.87498 10.035 6.875H11.875V11.875H7.4775L8.5275 8.02625ZM13.75 11.875V6.875H16.0725C16.6262 6.875 17.1375 7.1675 17.4188 7.6425L19.9188 11.875H13.75ZM7.8125 18.125C8.39266 18.125 8.94906 18.3555 9.3593 18.7657C9.76953 19.1759 10 19.7323 10 20.3125C10 20.8927 9.76953 21.4491 9.3593 21.8593C8.94906 22.2695 8.39266 22.5 7.8125 22.5C7.23234 22.5 6.67594 22.2695 6.2657 21.8593C5.85547 21.4491 5.625 20.8927 5.625 20.3125C5.625 19.7323 5.85547 19.1759 6.2657 18.7657C6.67594 18.3555 7.23234 18.125 7.8125 18.125ZM19.375 20.3125C19.375 19.7323 19.6055 19.1759 20.0157 18.7657C20.4259 18.3555 20.9823 18.125 21.5625 18.125C22.1427 18.125 22.6991 18.3555 23.1093 18.7657C23.5195 19.1759 23.75 19.7323 23.75 20.3125C23.75 20.8927 23.5195 21.4491 23.1093 21.8593C22.6991 22.2695 22.1427 22.5 21.5625 22.5C20.9823 22.5 20.4259 22.2695 20.0157 21.8593C19.6055 21.4491 19.375 20.8927 19.375 20.3125Z" fill="#009EAA"/>
</svg>
