<svg width="31" height="30" viewBox="0 0 31 30" fill="none" xmlns="http://www.w3.org/2000/svg">
<path d="M8.61031 9.039L7.62331 12H12.3333V7.5H10.7463C10.2738 7.49973 9.81312 7.64825 9.42973 7.92449C9.04633 8.20073 8.75964 8.59067 8.61031 9.039ZM7.12531 13.5L7.11931 13.515L6.72031 13.614L6.53731 13.659C6.05037 13.7808 5.61814 14.0619 5.30937 14.4577C5.0006 14.8534 4.83303 15.3411 4.83331 15.843V18.375C4.83331 18.615 4.90831 18.84 5.03881 19.023C5.30819 18.2465 5.82511 17.58 6.51012 17.1259C7.19513 16.6717 8.01032 16.4551 8.83041 16.5093C9.65049 16.5635 10.4301 16.8854 11.0494 17.4258C11.6687 17.9661 12.0934 18.6948 12.2583 19.5H18.4083C18.5721 18.694 18.9964 17.9642 19.6158 17.423C20.2351 16.8819 21.0152 16.5593 21.8359 16.5051C22.6566 16.4509 23.4724 16.668 24.1576 17.1229C24.8428 17.5779 25.3594 18.2456 25.6278 19.023C25.7615 18.8334 25.8333 18.607 25.8333 18.375V16.5555C25.8335 16.0595 25.6697 15.5773 25.3675 15.1839C25.0653 14.7906 24.6416 14.5081 24.1623 14.3805L20.8623 13.5H7.12531ZM19.6428 12L17.7843 8.658C17.5897 8.30739 17.3049 8.01516 16.9594 7.81156C16.6139 7.60796 16.2203 7.5004 15.8193 7.5H13.8333V12H19.6428ZM27.3333 18.375C27.3334 18.8783 27.1887 19.3709 26.9167 19.7943C26.6446 20.2177 26.2566 20.5539 25.7988 20.763C25.6787 21.6406 25.2518 22.4474 24.5937 23.0403C23.9357 23.6333 23.089 23.9741 22.2036 24.0025C21.3183 24.0309 20.4515 23.745 19.7568 23.1954C19.0621 22.6459 18.5844 21.8681 18.4083 21H12.2583C12.0822 21.8681 11.6045 22.6459 10.9098 23.1954C10.2151 23.745 9.34831 24.0309 8.46298 24.0025C7.57764 23.9741 6.73094 23.6333 6.07289 23.0403C5.41484 22.4474 4.98794 21.6406 4.86781 20.763C4.41004 20.5539 4.02201 20.2177 3.74995 19.7943C3.47789 19.3709 3.33327 18.8783 3.33331 18.375V15.843C3.33328 15.0458 3.58731 14.2693 4.05853 13.6263C4.52974 12.9833 5.19363 12.5071 5.95381 12.267L7.18831 8.5635C7.43734 7.81688 7.91496 7.16754 8.55354 6.70745C9.19211 6.24737 9.95926 5.99986 10.7463 6H15.8178C16.4867 5.99985 17.1435 6.17864 17.7201 6.51782C18.2966 6.85701 18.772 7.34424 19.0968 7.929L21.4098 12.0945L24.5493 12.9315C25.3478 13.1444 26.0537 13.6151 26.5571 14.2704C27.0606 14.9258 27.3334 15.7291 27.3333 16.5555V18.375ZM8.58331 18C7.98658 18 7.41428 18.2371 6.99232 18.659C6.57037 19.081 6.33331 19.6533 6.33331 20.25C6.33331 20.8467 6.57037 21.419 6.99232 21.841C7.41428 22.263 7.98658 22.5 8.58331 22.5C9.18005 22.5 9.75235 22.263 10.1743 21.841C10.5963 21.419 10.8333 20.8467 10.8333 20.25C10.8333 19.6533 10.5963 19.081 10.1743 18.659C9.75235 18.2371 9.18005 18 8.58331 18ZM22.0833 18C21.4866 18 20.9143 18.2371 20.4923 18.659C20.0704 19.081 19.8333 19.6533 19.8333 20.25C19.8333 20.8467 20.0704 21.419 20.4923 21.841C20.9143 22.263 21.4866 22.5 22.0833 22.5C22.68 22.5 23.2523 22.263 23.6743 21.841C24.0963 21.419 24.3333 20.8467 24.3333 20.25C24.3333 19.6533 24.0963 19.081 23.6743 18.659C23.2523 18.2371 22.68 18 22.0833 18Z" fill="#5F6469"/>
</svg>
