<svg width="18" height="19" viewBox="0 0 18 19" fill="none" xmlns="http://www.w3.org/2000/svg">
<path fill-rule="evenodd" clip-rule="evenodd" d="M9 2.375C8.20418 2.37481 7.4253 2.60483 6.75727 3.03733C6.08923 3.46982 5.56056 4.08632 5.235 4.8125C5.1895 4.91545 5.143 5.01796 5.0955 5.12L5.0445 5.219C5.01971 5.25974 4.98739 5.29537 4.94925 5.324C4.90743 5.34696 4.86161 5.36172 4.81425 5.3675C4.78725 5.37275 4.73175 5.375 4.5 5.375C3.80381 5.375 3.13613 5.65156 2.64384 6.14384C2.15156 6.63613 1.875 7.30381 1.875 8C1.875 8.69619 2.15156 9.36387 2.64384 9.85616C3.13613 10.3484 3.80381 10.625 4.5 10.625H5.004L5.754 9.875H4.5C4.00272 9.875 3.52581 9.67746 3.17417 9.32583C2.82254 8.97419 2.625 8.49728 2.625 8C2.625 7.50272 2.82254 7.02581 3.17417 6.67417C3.52581 6.32254 4.00272 6.125 4.5 6.125H4.5405C4.71 6.125 4.85025 6.125 4.962 6.1025C5.097 6.0755 5.2305 6.035 5.3565 5.9525C5.4825 5.8715 5.574 5.7665 5.655 5.654C5.6985 5.594 5.7375 5.516 5.77275 5.44175C5.80975 5.36225 5.858 5.25625 5.9175 5.12375L5.919 5.12C6.1852 4.52547 6.61773 4.02066 7.16442 3.66646C7.71111 3.31226 8.3486 3.12379 9 3.12379C9.6514 3.12379 10.2889 3.31226 10.8356 3.66646C11.3823 4.02066 11.8148 4.52547 12.081 5.12L12.0825 5.1245C12.142 5.2565 12.1903 5.36225 12.2273 5.44175C12.2625 5.516 12.3015 5.59325 12.345 5.654C12.4253 5.7665 12.5175 5.8715 12.6435 5.95325C12.7695 6.035 12.903 6.0755 13.038 6.10325C13.1498 6.12575 13.29 6.12575 13.4595 6.125H13.5C13.9973 6.125 14.4742 6.32254 14.8258 6.67417C15.1775 7.02581 15.375 7.50272 15.375 8C15.375 8.49728 15.1775 8.97419 14.8258 9.32583C14.4742 9.67746 13.9973 9.875 13.5 9.875H12.246L12.996 10.625H13.5C13.8447 10.625 14.1861 10.5571 14.5045 10.4252C14.823 10.2933 15.1124 10.0999 15.3562 9.85616C15.5999 9.6124 15.7933 9.32302 15.9252 9.00454C16.0571 8.68606 16.125 8.34472 16.125 8C16.125 7.65528 16.0571 7.31394 15.9252 6.99546C15.7933 6.67698 15.5999 6.3876 15.3562 6.14384C15.1124 5.90009 14.823 5.70673 14.5045 5.57482C14.1861 5.4429 13.8447 5.375 13.5 5.375C13.2683 5.375 13.2128 5.37275 13.1865 5.3675C13.1391 5.36149 13.0933 5.34647 13.0515 5.32325C13.0131 5.2947 12.9805 5.25906 12.9555 5.21825L12.9435 5.198L12.9045 5.11925C12.857 5.01746 12.8105 4.9152 12.765 4.8125C12.4394 4.08632 11.9108 3.46982 11.2427 3.03733C10.5747 2.60483 9.79582 2.37481 9 2.375Z" fill="#B3B3B3"/>
<path d="M9 9.49998L8.7345 9.23448L9 8.96973L9.2655 9.23448L9 9.49998ZM9.375 16.25C9.375 16.3494 9.33549 16.4448 9.26516 16.5151C9.19484 16.5855 9.09945 16.625 9 16.625C8.90054 16.625 8.80516 16.5855 8.73483 16.5151C8.66451 16.4448 8.625 16.3494 8.625 16.25H9.375ZM5.7345 12.2345L8.7345 9.23448L9.2655 9.76548L6.2655 12.7655L5.7345 12.2345ZM9.2655 9.23448L12.2655 12.2345L11.7345 12.7655L8.7345 9.76548L9.2655 9.23448ZM9.375 9.49998V16.25H8.625V9.49998H9.375Z" fill="#B3B3B3"/>
</svg>
