<svg width="18" height="19" viewBox="0 0 18 19" fill="none" xmlns="http://www.w3.org/2000/svg">
<path fill-rule="evenodd" clip-rule="evenodd" d="M16.2505 11.5856C15.5868 11.4014 14.8424 11.0738 14.0222 10.8462V1.72572C14.022 1.54988 13.9521 1.3813 13.8277 1.25696C13.7034 1.13262 13.5348 1.06269 13.359 1.0625H1.25202C1.07619 1.0627 0.907624 1.13265 0.783301 1.25698C0.658978 1.38132 0.589053 1.54989 0.588867 1.72572V17.2743C0.589081 17.4501 0.659025 17.6187 0.783357 17.743C0.907689 17.8673 1.07626 17.9373 1.25209 17.9375H13.359C13.5349 17.9373 13.7034 17.8673 13.8277 17.743C13.9521 17.6186 14.022 17.45 14.0222 17.2742V16.8852C14.2407 16.8855 14.4561 16.8332 14.6501 16.7328C14.8441 16.6323 15.0111 16.4865 15.1369 16.3079H16.6931C16.8835 16.3076 17.0661 16.2319 17.2007 16.0972C17.3353 15.9626 17.411 15.7801 17.4112 15.5897V11.9692C17.4106 11.9129 17.3891 11.8589 17.3509 11.8175C17.3128 11.7762 17.2607 11.7504 17.2046 11.7453C17.2046 11.7831 16.3266 11.6049 16.2505 11.5856Z" fill="black"/>
<path fill-rule="evenodd" clip-rule="evenodd" d="M15.3442 15.8593C15.3954 15.6582 15.4 15.4481 15.3576 15.245C15.3152 15.0419 15.227 14.8512 15.0997 14.6874C14.9723 14.5236 14.8093 14.391 14.6229 14.2998C14.4365 14.2086 14.2318 14.1612 14.0243 14.1612C13.8168 14.1612 13.6121 14.2086 13.4257 14.2998C13.2394 14.391 13.0763 14.5236 12.949 14.6874C12.8216 14.8512 12.7334 15.0419 12.691 15.245C12.6487 15.4481 12.6532 15.6582 12.7044 15.8593H5.85701C5.9082 15.6582 5.91277 15.4482 5.87039 15.2451C5.82801 15.042 5.73979 14.8512 5.61246 14.6874C5.48514 14.5236 5.32207 14.3911 5.13571 14.2999C4.94935 14.2087 4.74463 14.1613 4.53716 14.1613C4.32969 14.1613 4.12497 14.2087 3.93861 14.2999C3.75225 14.3911 3.58918 14.5236 3.46186 14.6874C3.33453 14.8512 3.24631 15.042 3.20393 15.2451C3.16155 15.4482 3.16612 15.6582 3.21731 15.8593C2.07438 15.8593 1.90517 15.9831 1.90517 15.4316H2.38846C2.6662 15.4134 2.66599 15.0002 2.38846 14.9824H1.90503V14.4878C3.30717 14.4516 3.52876 13.0527 3.03752 13.0528H2.90885C4.16041 12.4167 4.92165 12.3879 6.17894 12.0182C7.89541 11.5134 8.61021 10.8408 10.9153 10.8408C13.8973 10.8408 15.2819 11.9949 16.9613 12.1714V12.4272C15.7853 12.4272 15.414 13.8576 15.9378 13.8576H16.9614V15.5902C16.9612 15.6614 16.9329 15.7297 16.8825 15.78C16.8321 15.8304 16.7639 15.8587 16.6927 15.8589H15.3442V15.8593ZM10.9535 14.983H7.5867C7.28049 14.9648 7.26836 15.4325 7.57225 15.4325C8.69943 15.4325 9.82667 15.4324 10.954 15.4321C11.2495 15.4317 11.2493 14.983 10.9536 14.983L10.9535 14.983ZM10.9199 11.108C9.23363 11.108 8.41987 11.4838 6.98215 12.0285C6.48163 12.2181 6.59006 12.7319 7.08263 12.7539C7.17249 12.6641 13.1626 13.1867 14.654 12.17C14.6883 12.1462 14.7152 12.1133 14.7319 12.0751C14.7486 12.0368 14.7544 11.9947 14.7485 11.9534C14.7427 11.9121 14.7255 11.8732 14.6989 11.841C14.6723 11.8089 14.6373 11.7848 14.5977 11.7713C14.5979 11.7715 11.8252 11.108 10.9199 11.108Z" fill="#009EAA"/>
<path fill-rule="evenodd" clip-rule="evenodd" d="M13.5734 17.2745C13.5732 17.3311 13.5506 17.3854 13.5105 17.4254C13.4703 17.4653 13.416 17.4877 13.3594 17.4877H1.25238C1.19565 17.4876 1.14127 17.4651 1.10116 17.4249C1.06106 17.3848 1.03851 17.3304 1.03845 17.2737V1.72595C1.03869 1.66936 1.06133 1.61516 1.10142 1.5752C1.14151 1.53525 1.19578 1.51279 1.25238 1.51273H2.3496V3.7603C2.35003 3.80764 2.36534 3.85364 2.39338 3.89178C2.42141 3.92993 2.46074 3.95827 2.5058 3.9728C2.55085 3.98733 2.59933 3.98731 2.64437 3.97274C2.68941 3.95817 2.72871 3.92978 2.75671 3.89161L3.37262 3.03148L3.98838 3.89151C4.01634 3.92975 4.05565 3.95821 4.10072 3.97284C4.14578 3.98746 4.19431 3.98751 4.2394 3.97298C4.2845 3.95845 4.32387 3.93007 4.35191 3.89189C4.37996 3.8537 4.39525 3.80765 4.39563 3.76027V1.5127H13.3594C13.4161 1.5127 13.4706 1.53523 13.5107 1.57534C13.5509 1.61545 13.5735 1.66987 13.5735 1.72662V10.7292C11.5559 10.2377 9.6504 10.2466 7.68868 10.9859C7.1388 11.1904 6.62345 11.4168 6.05585 11.5862C4.68152 11.9898 3.85352 12.017 2.48907 12.7687C1.794 13.157 1.45611 13.5318 1.45611 13.9146V15.5896C1.45629 15.78 1.532 15.9624 1.66659 16.097C1.80119 16.2315 1.98368 16.3072 2.174 16.3073H3.42489C3.5506 16.4854 3.71723 16.6307 3.91078 16.731C4.10433 16.8313 4.31914 16.8837 4.53713 16.8837C4.75513 16.8837 4.96993 16.8313 5.16348 16.731C5.35704 16.6307 5.52367 16.4854 5.64937 16.3073H12.912C13.0754 16.5384 13.3064 16.7132 13.5733 16.8075V17.2744L13.5734 17.2745ZM2.77324 5.85991H11.8391C12.135 5.85991 12.135 5.40991 11.8391 5.40991H2.7726C2.4768 5.41064 2.47729 5.85991 2.77324 5.85991ZM2.77324 7.36625H11.8391C12.135 7.36625 12.135 6.91625 11.8391 6.91625H2.7726C2.4768 6.91695 2.47729 7.36625 2.77324 7.36625ZM2.77324 8.87262H11.8391C12.135 8.87262 12.135 8.42262 11.8391 8.42262H2.7726C2.4768 8.42332 2.47729 8.87262 2.77324 8.87262ZM2.77324 10.3413H6.38157C6.6593 10.3236 6.65909 9.91012 6.38157 9.89233H2.77253C2.47529 9.89303 2.47589 10.3413 2.77324 10.3413Z" fill="white"/>
<path fill-rule="evenodd" clip-rule="evenodd" d="M7.47021 12.3208C8.72016 11.84 9.49237 11.5576 10.9206 11.5576C11.9221 11.5576 12.935 11.7377 13.8933 12.0217C13.0404 12.2801 11.2312 12.4732 7.47021 12.3208Z" fill="white"/>
<path fill-rule="evenodd" clip-rule="evenodd" d="M14.025 16.4359C12.8233 16.4359 12.8234 14.6104 14.025 14.6104C15.2266 14.6104 15.2266 16.435 14.025 16.4359V16.4359Z" fill="#009EAA"/>
<path fill-rule="evenodd" clip-rule="evenodd" d="M4.53753 16.4359C3.33592 16.4359 3.336 14.6104 4.53753 14.6104C4.7796 14.6104 5.01173 14.7066 5.1829 14.8777C5.35406 15.0489 5.45023 15.281 5.45026 15.5231C5.44998 16.3876 4.53771 16.4356 4.53753 16.4359Z" fill="#009EAA"/>
<path fill-rule="evenodd" clip-rule="evenodd" d="M2.77951 13.502C2.64247 13.942 2.30272 14.0274 1.90503 14.0386V13.9145C1.90503 13.7938 2.01401 13.6511 2.19486 13.502L2.77951 13.502Z" fill="white"/>
<path fill-rule="evenodd" clip-rule="evenodd" d="M2.79871 1.5127H3.94638V3.06161C3.32696 2.19543 3.41865 2.19508 2.79871 3.06098V1.5127Z" fill="#009EAA"/>
<path fill-rule="evenodd" clip-rule="evenodd" d="M16.9612 13.4078H16.1962C16.2954 13.0896 16.6238 12.8428 16.9615 12.8761L16.9612 13.4078Z" fill="white"/>
</svg>
