<svg width="18" height="19" viewBox="0 0 18 19" fill="none" xmlns="http://www.w3.org/2000/svg">
<g clip-path="url(#clip0_1946_11292)">
<path d="M0.492249 0.992188H7.33924V7.83901H0.492249V0.992188Z" fill="#009EAA"/>
<path fill-rule="evenodd" clip-rule="evenodd" d="M14.0378 9.96191L17.5077 11.9653V15.9722L14.0378 17.9756L10.5679 15.9722V11.9653L14.0378 9.96191Z" fill="#009EAA"/>
<path fill-rule="evenodd" clip-rule="evenodd" d="M17.4375 15.9314L14.0379 17.8942L10.6383 15.9314V12.0057L14.0379 10.0429L17.4375 12.0057V15.9314ZM17.8594 11.5998L14.1785 9.47465C14.1358 9.44997 14.0873 9.43697 14.0379 9.43697C13.9885 9.43697 13.94 9.44997 13.8973 9.47465L10.2164 11.5998C10.1736 11.6245 10.1381 11.66 10.1134 11.7028C10.0887 11.7455 10.0757 11.7941 10.0758 11.8434V16.0938C10.0757 16.1432 10.0887 16.1917 10.1134 16.2344C10.1381 16.2772 10.1736 16.3127 10.2164 16.3373L13.8973 18.4625C13.94 18.4872 13.9885 18.5003 14.0379 18.5003C14.0873 18.5003 14.1358 18.4872 14.1785 18.4625L17.8594 16.3373C17.9021 16.3126 17.9377 16.2771 17.9624 16.2344C17.987 16.1917 18 16.1432 18 16.0938V11.8434C18 11.794 17.987 11.7455 17.9623 11.7027C17.9377 11.66 17.9021 11.6245 17.8594 11.5998V11.5998ZM4.53164 9.99936C5.31666 9.99936 6.08406 10.2321 6.73678 10.6683C7.3895 11.1044 7.89823 11.7243 8.19865 12.4496C8.49906 13.1748 8.57767 13.9729 8.42452 14.7428C8.27137 15.5128 7.89334 16.22 7.33825 16.7751C6.78315 17.3302 6.07592 17.7082 5.30598 17.8614C4.53604 18.0145 3.73798 17.9359 3.01272 17.6355C2.28745 17.3351 1.66756 16.8264 1.23142 16.1736C0.795286 15.5209 0.5625 14.7535 0.5625 13.9685C0.5637 12.9162 0.982262 11.9073 1.72636 11.1632C2.47046 10.4191 3.47933 10.0006 4.53164 9.99936ZM4.53164 18.5001C5.42791 18.5001 6.30406 18.2344 7.04928 17.7364C7.79451 17.2385 8.37534 16.5307 8.71833 15.7027C9.06132 14.8746 9.15106 13.9635 8.97621 13.0844C8.80135 12.2054 8.36976 11.3979 7.73599 10.7641C7.10223 10.1304 6.29477 9.69879 5.41572 9.52393C4.53667 9.34908 3.62551 9.43882 2.79746 9.78181C1.96941 10.1248 1.26166 10.7056 0.763719 11.4509C0.265776 12.1961 8.78987e-09 13.0722 8.78987e-09 13.9685C8.78987e-09 16.4673 2.03305 18.5001 4.53164 18.5001ZM13.5172 1.34389L17.2315 7.77748H9.80262L13.5172 1.34389ZM9.31563 8.33998H17.7188C17.7681 8.34 17.8166 8.32702 17.8594 8.30234C17.9022 8.27766 17.9377 8.24216 17.9624 8.1994C17.9871 8.15664 18.0001 8.10814 18.0001 8.05876C18.0001 8.00938 17.9871 7.96087 17.9624 7.91811L13.7609 0.640765C13.7362 0.597972 13.7007 0.562432 13.6579 0.537721C13.6151 0.51301 13.5666 0.5 13.5172 0.5C13.4678 0.5 13.4193 0.51301 13.3765 0.537721C13.3337 0.562432 13.2982 0.597972 13.2736 0.640765L9.072 7.91811C9.04731 7.96087 9.03432 8.00937 9.03432 8.05875C9.03432 8.10812 9.04732 8.15663 9.07202 8.19939C9.09671 8.24214 9.13222 8.27765 9.17498 8.30233C9.21775 8.32701 9.26626 8.33999 9.31563 8.33998ZM0.5625 1.06264H7.26894V7.76894H0.5625V1.06264ZM0.28125 8.33155H7.55005C7.62464 8.33155 7.69618 8.30191 7.74892 8.24917C7.80167 8.19643 7.8313 8.12489 7.8313 8.0503V0.78139C7.8313 0.706798 7.80167 0.635261 7.74892 0.582516C7.69618 0.529772 7.62464 0.50014 7.55005 0.50014H0.28125C0.206658 0.50014 0.135121 0.529772 0.0823762 0.582516C0.0296316 0.635261 8.78987e-09 0.706798 8.78987e-09 0.78139V8.05023C-9.22626e-06 8.08717 0.0072587 8.12375 0.0213887 8.15788C0.0355187 8.19201 0.056234 8.22302 0.0823514 8.24915C0.108469 8.27527 0.139477 8.29599 0.173604 8.31013C0.207731 8.32427 0.24431 8.33155 0.28125 8.33155Z" fill="#009EAA"/>
</g>
<defs>
<clipPath id="clip0_1946_11292">
<rect width="18" height="18" fill="white" transform="translate(0 0.5)"/>
</clipPath>
</defs>
</svg>
