<svg width="18" height="19" viewBox="0 0 18 19" fill="none" xmlns="http://www.w3.org/2000/svg">
<g clip-path="url(#clip0_1950_11308)">
<path d="M16.4699 9.55105L14.5093 6.53587C14.3863 6.34743 14.2206 6.18839 14.0268 6.07877C13.9306 6.024 13.8089 6.05739 13.7542 6.15362C13.6993 6.24984 13.7328 6.37278 13.829 6.42762C13.9653 6.50514 14.0843 6.61873 14.1725 6.75373L16.1331 9.76891C16.4405 10.2434 16.3056 10.8795 15.8324 11.1883L14.1043 12.311L12.3094 9.54971C12.2492 9.45616 12.1249 9.42944 12.0314 9.49089C11.9391 9.55105 11.9124 9.67532 11.9725 9.76757L13.7675 12.5288L11.3845 14.0792L10.5812 12.8416C10.5211 12.748 10.3968 12.7213 10.3032 12.7827C10.211 12.8429 10.1842 12.9672 10.2444 13.0594L11.049 14.297C11.049 14.297 11.045 14.2997 11.033 14.3077C11.033 14.3077 11.0236 14.3144 11.0129 14.321C11.0062 14.3237 11.0022 14.3277 10.9982 14.3304C10.9942 14.3317 10.9915 14.3344 10.9902 14.3357C10.9849 14.3384 10.9809 14.3411 10.9795 14.3424C10.9782 14.3438 10.9768 14.3438 10.9768 14.3438V14.3451H10.9755C10.7978 14.46 10.2351 14.8262 8.66332 15.8487C8.55507 15.711 8.52698 15.556 8.36931 15.5493C9.67508 13.0594 12.5112 7.65718 13.7207 5.35434C14.1163 4.60055 13.825 3.66364 13.0712 3.26669L9.57351 1.4303C9.32225 1.29931 9.04157 1.2392 8.76225 1.2579C8.65133 1.26458 8.56713 1.35946 8.57381 1.46905C8.58049 1.58 8.67671 1.6655 8.78633 1.65748C8.99484 1.64546 9.20198 1.68955 9.38775 1.78577L12.8841 3.62082C13.4427 3.91483 13.6592 4.60984 13.3652 5.1685L12.3054 7.18798C11.3337 6.67741 9.40649 5.66568 8.34125 5.10702V2.29244C8.34125 1.43973 7.64759 0.746094 6.79491 0.746094H2.84682C1.99411 0.746094 1.30048 1.43973 1.30048 2.29244V14.7341C1.30048 16.676 2.87889 18.2545 4.82085 18.2545C5.81253 18.2545 6.71067 17.8415 7.35087 17.1786C8.12335 16.6761 15.1775 12.0918 16.0516 11.5238C16.7105 11.0947 16.8976 10.2099 16.4699 9.55105ZM8.34125 9.58177L10.4623 10.6964L8.99347 13.4964L8.34125 13.1529V9.58177ZM5.18039 15.9249C4.72195 16.223 4.10985 16.0946 3.81179 15.6349C3.5124 15.1751 3.64339 14.563 4.10183 14.2649C4.56428 13.9642 5.17505 14.0992 5.47177 14.555C5.76978 15.0147 5.64013 15.6269 5.18039 15.9249ZM7.9403 11.6988H1.70143V8.53798H7.9403V11.6988ZM7.9403 8.13703H1.70143V4.97616H7.9403V8.13703ZM8.34125 14.7341V13.606L8.80771 13.852L8.33992 14.7407C8.33988 14.7381 8.34125 14.7367 8.34125 14.7341Z" fill="#009EAA"/>
<path d="M4.96251 15.589C4.68987 15.7654 4.32498 15.6893 4.14723 15.4153C3.96948 15.1426 4.047 14.7778 4.31964 14.6C4.59365 14.4223 4.9585 14.5011 5.13491 14.7738C5.31266 15.0464 5.23514 15.4113 4.96251 15.589Z" fill="#009EAA"/>
</g>
<defs>
<clipPath id="clip0_1950_11308">
<rect width="18" height="18" fill="white" transform="translate(0 0.5)"/>
</clipPath>
</defs>
</svg>
