<svg width="18" height="19" viewBox="0 0 18 19" fill="none" xmlns="http://www.w3.org/2000/svg">
<path d="M3.72151 6.09961C3.66676 6.3578 3.61801 6.62264 3.57526 6.89414L4.37288 7.12195C4.41038 6.83583 4.45482 6.55636 4.50619 6.28355L3.72151 6.09961Z" fill="#009EAA"/>
<path d="M4.50394 12.7044C4.45669 12.4513 4.41525 12.1924 4.37962 11.9279L3.51562 11.6807C3.54994 11.9445 3.58987 12.2029 3.63544 12.4558L4.50394 12.7044Z" fill="#009EAA"/>
<path d="M4.30788 11.322C4.27976 11.0408 4.25829 10.7537 4.24348 10.4608L3.38904 10.1748C3.40113 10.4794 3.41998 10.7801 3.44726 11.0748L4.30788 11.322Z" fill="#009EAA"/>
<path d="M3.1781 3.50062C3.06251 3.73631 2.9531 3.98888 2.85242 4.25437L3.73526 4.00125C3.83839 3.73613 3.94873 3.48441 4.06629 3.24609L3.1781 3.50062Z" fill="#009EAA"/>
<path d="M1.99994 8.47546L2.85578 8.23105C2.87322 7.97324 2.896 7.72012 2.92413 7.47168L2.06181 7.71805C2.03594 7.9663 2.01531 8.21877 1.99994 8.47546Z" fill="#009EAA"/>
<path d="M2.40387 5.70787L3.27856 5.45812C3.34737 5.18025 3.42293 4.91166 3.50524 4.65234L2.62634 4.90322C2.54571 5.16178 2.47156 5.43 2.40387 5.70787Z" fill="#009EAA"/>
<path d="M2.13556 7.11111L3.00181 6.86361C3.04118 6.59773 3.08637 6.33786 3.13737 6.08398L2.26718 6.33261C2.21825 6.5863 2.17437 6.8458 2.13556 7.11111Z" fill="#009EAA"/>
<path d="M7.59375 9.50039C7.59375 12.9809 8.63128 15.4066 9.5625 15.4066C10.4937 15.4066 11.5312 12.9809 11.5312 9.50039C11.5312 8.95027 11.5003 8.4097 11.4469 7.88461C10.6301 7.60412 9.94031 7.04106 9.50198 6.29693C9.06365 5.5528 8.90558 4.67656 9.05625 3.82617C8.28788 4.50398 7.59375 6.64402 7.59375 9.50039Z" fill="#009EAA"/>
<path d="M1.96875 9.5002C1.96875 9.63145 1.97025 9.76119 1.97325 9.88944L2.81419 9.64926C2.81419 9.59948 2.8125 9.55026 2.8125 9.5002C2.8125 9.27238 2.81784 9.04766 2.82572 8.8252L1.97437 9.06848C1.97062 9.21135 1.96875 9.35526 1.96875 9.5002Z" fill="#009EAA"/>
<path d="M12.6562 7.53125C13.2681 7.53125 13.8663 7.34981 14.375 7.00986C14.8838 6.66992 15.2803 6.18674 15.5145 5.62143C15.7487 5.05612 15.8099 4.43407 15.6906 3.83394C15.5712 3.23381 15.2765 2.68256 14.8439 2.24989C14.4112 1.81722 13.8599 1.52257 13.2598 1.4032C12.6597 1.28382 12.0376 1.34509 11.4723 1.57925C10.907 1.81341 10.4238 2.20994 10.0839 2.71871C9.74395 3.22747 9.5625 3.82562 9.5625 4.4375C9.56347 5.25772 9.88973 6.04406 10.4697 6.62404C11.0497 7.20403 11.836 7.53028 12.6562 7.53125ZM12.6562 1.90625C13.1569 1.90625 13.6463 2.05471 14.0625 2.33284C14.4788 2.61098 14.8032 3.00631 14.9948 3.46883C15.1864 3.93136 15.2365 4.44031 15.1389 4.93132C15.0412 5.42234 14.8001 5.87336 14.4461 6.22737C14.0921 6.58137 13.6411 6.82245 13.1501 6.92011C12.6591 7.01778 12.1501 6.96766 11.6876 6.77607C11.2251 6.58449 10.8297 6.26005 10.5516 5.84379C10.2735 5.42753 10.125 4.93814 10.125 4.4375C10.1257 3.7664 10.3927 3.123 10.8672 2.64846C11.3417 2.17392 11.9851 1.907 12.6562 1.90625Z" fill="#009EAA"/>
<path d="M4.3068 7.6885L3.4968 7.45703C3.46511 7.71953 3.43943 7.98597 3.41974 8.25634L4.24633 8.49259C4.26096 8.22034 4.28064 7.95175 4.3068 7.6885Z" fill="#009EAA"/>
<path d="M12.6562 6.40625C13.0456 6.40625 13.4263 6.29079 13.75 6.07446C14.0738 5.85813 14.3261 5.55065 14.4751 5.19091C14.6241 4.83117 14.6631 4.43532 14.5872 4.05342C14.5112 3.67152 14.3237 3.32072 14.0484 3.04538C13.773 2.77005 13.4222 2.58254 13.0403 2.50658C12.6584 2.43062 12.2626 2.4696 11.9028 2.61861C11.5431 2.76762 11.2356 3.01996 11.0193 3.34372C10.803 3.66748 10.6875 4.04812 10.6875 4.4375C10.6881 4.95946 10.8957 5.45988 11.2648 5.82896C11.6339 6.19804 12.1343 6.40566 12.6562 6.40625ZM12.6562 3.03125C13.0291 3.0317 13.3865 3.18 13.6501 3.44363C13.9138 3.70725 14.0621 4.06468 14.0625 4.4375H13.5C13.5 4.21372 13.4111 3.99911 13.2529 3.84088C13.0946 3.68265 12.88 3.59375 12.6562 3.59375V3.03125Z" fill="#009EAA"/>
<path d="M3.375 9.5C3.375 9.52644 3.375 9.55231 3.375 9.57875L4.22212 9.86C4.22072 9.74131 4.21875 9.62122 4.21875 9.5C4.21875 9.356 4.22072 9.21284 4.22381 9.07053L3.38878 8.83203C3.38034 9.05281 3.375 9.275 3.375 9.5Z" fill="#009EAA"/>
<path d="M5.33647 15.4662C5.23709 15.2453 5.14334 15.0142 5.05522 14.7727L4.17462 14.5195C4.26547 14.7741 4.36222 15.0176 4.46543 15.2468L5.33647 15.4662Z" fill="#009EAA"/>
<path d="M3.75977 13.0762C3.82192 13.3518 3.89139 13.6187 3.96648 13.8763L4.8437 14.1269C4.76692 13.8687 4.69577 13.6015 4.63192 13.3254L3.75977 13.0762Z" fill="#009EAA"/>
<path d="M6.9117 1.35059C6.23163 1.40234 5.59179 1.89143 5.04785 2.69412L5.6697 2.87187C5.97997 2.28826 6.40197 1.77136 6.9117 1.35059Z" fill="#009EAA"/>
<path d="M5.67058 16.129L4.80377 15.9121C5.3944 16.9463 6.12565 17.5889 6.91315 17.6485C6.40345 17.2283 5.98127 16.712 5.67058 16.129Z" fill="#009EAA"/>
<path d="M4.08882 15.7998L3.42676 15.9655C4.01345 16.9695 4.73373 17.5916 5.50548 17.6501C4.90355 17.1445 4.41995 16.5128 4.08882 15.7998Z" fill="#009EAA"/>
<path d="M1.40625 9.50007C1.40625 5.80051 2.46769 2.70901 4.00922 1.42285C2.25 1.97691 0.84375 5.45007 0.84375 9.50007C0.84375 13.5501 2.25 17.0232 4.00922 17.5773C2.46769 16.2911 1.40625 13.1996 1.40625 9.50007Z" fill="#009EAA"/>
<path d="M5.34375 9.50007C5.34375 5.80051 6.40519 2.70901 7.94672 1.42285C6.1875 1.97691 4.78125 5.45007 4.78125 9.50007C4.78125 13.5501 6.1875 17.0232 7.94672 17.5773C6.40519 16.2911 5.34375 13.1996 5.34375 9.50007Z" fill="#009EAA"/>
<path d="M12.8964 8.08166C12.8168 8.08672 12.7372 8.09375 12.6562 8.09375C12.4445 8.0926 12.2332 8.07303 12.0248 8.03525C12.0656 8.51562 12.0938 9.00275 12.0938 9.5C12.0938 13.7016 10.7896 15.9688 9.5625 15.9688C8.33541 15.9688 7.03125 13.7016 7.03125 9.5C7.03125 6.11994 7.97991 3.43766 9.26466 3.0785C9.50365 2.48539 9.89338 1.96497 10.3953 1.56875C10.1409 1.42519 9.85456 1.34782 9.5625 1.34375C7.58053 1.34375 5.90625 5.07875 5.90625 9.5C5.90625 13.9213 7.58053 17.6562 9.5625 17.6562C11.5445 17.6562 13.2188 13.9213 13.2188 9.5C13.2188 9.21875 13.2109 8.93497 13.1977 8.65625L12.8964 8.08166Z" fill="#009EAA"/>
<path d="M17.111 13.1393L14.9003 8.9248L14.1426 9.24937L16.3535 13.4729C16.3924 13.5472 16.4508 13.6095 16.5226 13.6529C16.5944 13.6963 16.6767 13.7191 16.7605 13.719C16.8286 13.719 16.8956 13.7014 16.9549 13.668C17.0143 13.6345 17.064 13.5863 17.0992 13.528C17.1345 13.4697 17.1541 13.4033 17.1561 13.3352C17.1582 13.2671 17.1426 13.1997 17.111 13.1393Z" fill="#009EAA"/>
<path d="M14.2658 7.71484C14.0177 7.8383 13.756 7.93267 13.4862 7.99609L13.88 8.75069L14.6371 8.42613L14.2658 7.71484Z" fill="#009EAA"/>
<path d="M5.40677 3.38195L4.74414 3.19238C4.57918 3.49558 4.43303 3.80864 4.30652 4.12979L5.01864 4.33341C5.13137 4.00972 5.26092 3.69213 5.40677 3.38195Z" fill="#009EAA"/>
<path d="M3.84889 15.2791C3.72926 14.9979 3.61873 14.7004 3.51729 14.3867L2.7821 14.5583C2.89101 14.8626 3.01558 15.1612 3.15532 15.4527L3.84889 15.2791Z" fill="#009EAA"/>
<path d="M3.04341 12.3972C3.00103 12.1395 2.9641 11.8763 2.9326 11.6074L2.12878 11.8372C2.16591 12.1041 2.20894 12.3662 2.25788 12.6216L3.04341 12.3972Z" fill="#009EAA"/>
<path d="M4.45531 2.5504C4.73466 2.0937 5.08981 1.68795 5.5055 1.35059C4.79478 1.40459 4.12737 1.93587 3.56909 2.8038L4.45531 2.5504Z" fill="#009EAA"/>
<path d="M3.35786 13.8465C3.27911 13.5581 3.20814 13.26 3.14495 12.9521L2.37573 13.1718C2.44408 13.4651 2.51945 13.7501 2.6027 14.0226L3.35786 13.8465Z" fill="#009EAA"/>
<path d="M2.87636 11.0379C2.85442 10.773 2.8382 10.5038 2.8277 10.2305L1.99689 10.4678C2.01207 10.7395 2.03345 11.0072 2.06101 11.2708L2.87636 11.0379Z" fill="#009EAA"/>
<path d="M4.11131 4.65918C4.0154 4.94324 3.92821 5.24221 3.84918 5.55187L4.61924 5.73243C4.68674 5.4343 4.76174 5.1464 4.84424 4.86871L4.11131 4.65918Z" fill="#009EAA"/>
</svg>
