<svg width="18" height="13" viewBox="0 0 18 13" fill="none" xmlns="http://www.w3.org/2000/svg">
<g clip-path="url(#clip0_2045_16994)">
<path d="M17.1658 3.81998H15.7119C15.6316 3.82122 15.5547 3.85219 15.4959 3.90689C15.0316 3.16563 14.551 2.57224 14.1781 2.19934C12.8811 0.902304 5.09887 0.902304 3.80183 2.19934C3.43023 2.57159 2.95227 3.16109 2.49053 3.89716C2.43499 3.84909 2.36423 3.82222 2.29079 3.82128H0.836161C0.657818 3.82128 0.511902 3.96785 0.511902 4.14554V4.80054C0.511902 4.97824 0.654576 5.15074 0.829676 5.18512L1.71166 5.35373C0.9503 7.05155 0.501526 9.16442 1.20711 11.2812V12.5374C1.20711 12.896 1.29791 13.1859 1.4101 13.1859H3.0716C3.18379 13.1859 3.27459 12.896 3.27459 12.5374V11.5101C4.76488 11.6528 6.87386 11.8084 8.98933 11.8084C11.0853 11.8084 13.2177 11.6554 14.7054 11.514V12.5374C14.7054 12.896 14.7962 13.1859 14.9077 13.1859H16.5692C16.6807 13.1859 16.7715 12.896 16.7715 12.5374L16.7702 11.2805C17.4752 9.16637 17.0277 7.05479 16.2676 5.35697L17.1704 5.18512C17.2585 5.16508 17.3375 5.11641 17.395 5.0467C17.4525 4.977 17.4852 4.89021 17.4882 4.7999V4.14489C17.4882 4.05923 17.4543 3.97705 17.3939 3.91629C17.3335 3.85554 17.2515 3.82115 17.1658 3.82063V3.81998ZM3.23373 9.09049C2.92883 9.08036 2.6398 8.95211 2.4277 8.73284C2.21559 8.51357 2.09701 8.22045 2.09701 7.91537C2.09701 7.6103 2.21559 7.31718 2.4277 7.09791C2.6398 6.87864 2.92883 6.75039 3.23373 6.74026C3.53863 6.75048 3.82762 6.8788 4.03967 7.09813C4.25171 7.31746 4.37021 7.61062 4.37012 7.91569C4.37004 8.22076 4.25138 8.51385 4.03922 8.73307C3.82705 8.95228 3.53864 9.08044 3.23373 9.09049ZM2.24539 5.72468C2.86797 4.29989 3.73504 3.18444 4.26033 2.65784C4.63907 2.27846 6.42638 1.87508 8.98933 1.87508C11.5523 1.87508 13.3396 2.27911 13.719 2.65849C14.2443 3.18379 15.1107 4.29924 15.7333 5.72468C14.3506 5.87773 11.6573 5.52364 8.98997 5.52364C6.32262 5.52364 3.62933 5.87773 2.24539 5.72468ZM14.7449 9.09049C14.44 9.08036 14.151 8.95211 13.9389 8.73284C13.7268 8.51357 13.6082 8.22045 13.6082 7.91537C13.6082 7.6103 13.7268 7.31718 13.9389 7.09791C14.151 6.87864 14.44 6.75039 14.7449 6.74026C15.0498 6.75048 15.3388 6.8788 15.5509 7.09813C15.7629 7.31746 15.8814 7.61062 15.8813 7.91569C15.8812 8.22076 15.7626 8.51385 15.5504 8.73307C15.3382 8.95228 15.0498 9.08044 14.7449 9.09049Z" fill="#009EAA"/>
</g>
<defs>
<clipPath id="clip0_2045_16994">
<rect width="18" height="13" fill="white"/>
</clipPath>
</defs>
</svg>
