<svg width="98" height="98" viewBox="0 0 98 98" fill="none" xmlns="http://www.w3.org/2000/svg">
<circle cx="49" cy="49" r="49" fill="#009EAA" fill-opacity="0.06"/>
<circle cx="49" cy="49" r="37" fill="#009EAA" fill-opacity="0.15"/>
<g clip-path="url(#clip0_3249_30019)">
<path fill-rule="evenodd" clip-rule="evenodd" d="M48.3101 71.3711C37.5019 66.6633 30.9702 57.4902 30.9702 52.2434V33.8164L37.996 30.9055L48.3101 26.6289L58.6241 30.9055L65.6499 33.8164V52.2434C65.6499 57.4902 59.1183 66.6633 48.3101 71.3711Z" fill="#009EAA"/>
<path fill-rule="evenodd" clip-rule="evenodd" d="M48.3102 45.9871C51.9309 45.9871 54.8868 43.0312 54.8868 39.4105C54.8868 35.7898 51.9309 32.834 48.3102 32.834C44.6895 32.834 41.7336 35.7898 41.7336 39.4105C41.7336 43.0312 44.6805 45.9871 48.3102 45.9871Z" fill="white"/>
<path fill-rule="evenodd" clip-rule="evenodd" d="M48.31 47.2842C54.2486 47.2842 59.0643 52.0998 59.0643 58.0385H37.5557C37.5557 52.0908 42.3713 47.2842 48.31 47.2842Z" fill="white"/>
<path fill-rule="evenodd" clip-rule="evenodd" d="M65.6499 45.1191V52.2438C65.6499 56.0352 62.2269 61.884 56.2433 66.6187C53.6108 64.3637 51.9487 61.0305 51.9487 57.293C51.9487 50.5187 57.4382 45.0293 64.2124 45.0293C64.6976 45.0293 65.1737 45.0563 65.6499 45.1191Z" fill="#009EAA" fill-opacity="0.7"/>
<path fill-rule="evenodd" clip-rule="evenodd" d="M65.6499 45.1191V52.2438C65.6499 56.0352 62.2269 61.884 56.2433 66.6187C53.6108 64.3637 51.9487 61.0305 51.9487 57.293C51.9487 50.5187 57.4382 45.0293 64.2124 45.0293C64.6976 45.0293 65.1737 45.0563 65.6499 45.1191Z" fill="white"/>
<path fill-rule="evenodd" clip-rule="evenodd" d="M64.2124 68.1191C70.178 68.1191 75.0386 63.2586 75.0386 57.293C75.0386 51.3273 70.178 46.4668 64.2124 46.4668C58.2468 46.4668 53.3862 51.3273 53.3862 57.293C53.3862 63.2586 58.2468 68.1191 64.2124 68.1191Z" fill="#FFE045"/>
<path d="M59.4328 56.7536C59.2441 56.4661 59.325 56.0708 59.6215 55.8821C59.909 55.6934 60.2953 55.7743 60.484 56.0618L62.6941 59.4579L67.9859 53.6809C68.2195 53.4294 68.6148 53.4114 68.8664 53.645C69.1179 53.8786 69.1359 54.2739 68.9113 54.5255L63.0984 60.8684C63.0535 60.9223 63.0086 60.9583 62.9547 60.9942C62.6672 61.1829 62.2808 61.102 62.0922 60.8145L59.4328 56.7536Z" fill="white"/>
</g>
<defs>
<clipPath id="clip0_3249_30019">
<rect width="46" height="46" fill="white" transform="translate(30 26)"/>
</clipPath>
</defs>
</svg>
