<svg width="25" height="24" viewBox="0 0 25 24" fill="none" xmlns="http://www.w3.org/2000/svg">
<path fill-rule="evenodd" clip-rule="evenodd" d="M20.7434 9.86015C20.6851 9.85745 20.6268 9.85645 20.5684 9.85715H18.1334C16.1414 9.85715 14.4354 11.4382 14.4354 13.5002C14.4354 15.5622 16.1414 17.1432 18.1344 17.1432H20.5674C20.6288 17.1438 20.6871 17.1425 20.7424 17.1392C21.1535 17.1125 21.5408 16.9375 21.8325 16.6467C22.1242 16.3559 22.3005 15.9691 22.3284 15.5582C22.3324 15.4992 22.3324 15.4362 22.3324 15.3782V11.6222C22.3324 11.5642 22.3324 11.5012 22.3284 11.4422C22.3005 11.0314 22.1244 10.6447 21.8329 10.3539C21.5414 10.0631 21.1543 9.88805 20.7434 9.86115M17.9204 14.4722C18.4334 14.4722 18.8504 14.0382 18.8504 13.5012C18.8504 12.9642 18.4334 12.5302 17.9204 12.5302C17.4074 12.5302 16.9914 12.9642 16.9914 13.5012C16.9914 14.0382 17.4064 14.4722 17.9204 14.4722Z" fill="#009EAA"/>
<path fill-rule="evenodd" clip-rule="evenodd" d="M20.5674 18.6C20.6009 18.5988 20.6342 18.6055 20.6646 18.6196C20.695 18.6337 20.7218 18.6547 20.7426 18.6809C20.7634 18.7072 20.7778 18.738 20.7845 18.7708C20.7912 18.8037 20.7902 18.8377 20.7814 18.87C20.5874 19.562 20.2804 20.152 19.7874 20.648C19.0664 21.375 18.1514 21.698 17.0214 21.851C15.9234 22 14.5214 22 12.7494 22H10.7124C8.94137 22 7.53837 22 6.44037 21.851C5.31037 21.698 4.39537 21.375 3.67437 20.648C2.95337 19.923 2.63337 19 2.48137 17.862C2.33337 16.754 2.33337 15.34 2.33337 13.555V13.445C2.33337 11.66 2.33337 10.245 2.48137 9.139C2.63337 8 2.95337 7.08 3.67337 6.351C4.39437 5.625 5.30937 5.301 6.43937 5.149C7.53837 5 8.94137 5 10.7124 5H12.7494C14.5204 5 15.9234 5 17.0214 5.149C18.1514 5.302 19.0664 5.625 19.7874 6.351C20.2804 6.848 20.5874 7.438 20.7814 8.131C20.79 8.16328 20.7909 8.19714 20.7841 8.22984C20.7773 8.26255 20.7629 8.2932 20.7421 8.31935C20.7213 8.3455 20.6946 8.36641 20.6643 8.38042C20.634 8.39442 20.6008 8.40113 20.5674 8.4H18.1344C15.4004 8.4 12.9914 10.577 12.9914 13.5C12.9914 16.423 15.4014 18.6 18.1354 18.6H20.5674ZM5.94737 8.886C5.85217 8.88639 5.75797 8.90554 5.67016 8.94233C5.58235 8.97913 5.50264 9.03287 5.4356 9.10047C5.36855 9.16807 5.31548 9.24821 5.27941 9.33633C5.24334 9.42444 5.22498 9.51879 5.22537 9.614C5.22537 10.017 5.54837 10.343 5.94737 10.343H9.80337C10.2034 10.343 10.5264 10.017 10.5264 9.614C10.5269 9.42163 10.4511 9.2369 10.3155 9.10041C10.1799 8.96391 9.99575 8.88679 9.80337 8.886H5.94737Z" fill="#009EAA"/>
<path d="M8.11035 4.02386L10.0684 2.58086C10.5794 2.20327 11.198 1.99951 11.8334 1.99951C12.4687 1.99951 13.0873 2.20327 13.5984 2.58086L15.5674 4.03186C14.7434 3.99986 13.8234 3.99986 12.8164 3.99986H10.6464C9.72435 3.99986 8.87735 3.99986 8.11035 4.02386Z" fill="#009EAA"/>
</svg>
