<svg width="25" height="25" viewBox="0 0 25 25" fill="none" xmlns="http://www.w3.org/2000/svg">
<path d="M3.30022 4.90039H21.6997V9.70025H3.30022C1.97463 9.70025 0.900269 8.62589 0.900269 7.3003C0.900269 5.97475 1.97463 4.90039 3.30022 4.90039Z" fill="#FFA230"/>
<path d="M3.30022 4.90039C1.97625 4.89878 0.901884 5.97078 0.90027 7.29471C0.899876 7.71792 1.01147 8.13388 1.22384 8.50028C1.65185 7.75791 2.44342 7.3003 3.30018 7.3003H21.6997V4.90039H3.30022Z" fill="#FDB62F"/>
<path d="M21.6997 11.7002H22.8997C23.5625 11.7002 24.0997 12.2374 24.0997 12.9002C24.0997 13.5629 23.5625 14.1001 22.8997 14.1001H21.6997V11.7002Z" fill="#543221"/>
<path d="M19.2998 10.9001L4.10022 18.8999L1.30029 8.50018L12.9 0.900391L19.2998 10.9001Z" fill="#6B962A"/>
<path d="M21.2998 12.9003L4.10022 19.3001L1.30029 8.5004L18.0999 2.10059L21.2998 12.9003Z" fill="#80A834"/>
<path d="M3.68787 9.74017L15.7 5.30029C15.9452 5.79069 16.4464 6.10029 16.9943 6.10029H17.2999L19.2999 11.7001L5.46622 16.5996L3.68787 9.74017Z" fill="#6B962A"/>
<path d="M21.6997 24.0999H3.30022C1.97463 24.0999 0.900269 23.0255 0.900269 21.6999V7.30029C0.900269 8.62584 1.97463 9.70024 3.30022 9.70024H21.6997V24.0999Z" fill="#A75E39"/>
<path d="M2.59631 23.9946C2.82431 24.0642 3.06191 24.0998 3.3003 24.0998H21.6998V9.7002H19.7827C14.2532 17.4144 6.6814 21.9523 2.59631 23.9946Z" fill="#7E4B31"/>
<path d="M20.0999 12.1001H18.7287V11.3001H20.0999V12.1001ZM17.1287 12.1001H15.5288V11.3001H17.1287V12.1001ZM13.9288 12.1001H12.3289V11.3001H13.9288V12.1001ZM10.7289 12.1001H9.12894V11.3001H10.7289V12.1001ZM7.52899 12.1001H5.92904V11.3001H7.52899V12.1001ZM4.32908 12.1001H3.3003C3.07829 12.0993 2.8571 12.0725 2.64111 12.0201L2.82829 11.2441C2.98307 11.2809 3.14147 11.2997 3.30026 11.3002H4.32826L4.32908 12.1001Z" fill="#5C3724"/>
<path d="M20.0999 22.5H18.7287V21.7H20.0999V22.5ZM17.1287 22.5H15.5288V21.7H17.1287V22.5ZM13.9288 22.5H12.3289V21.7H13.9288V22.5ZM10.7289 22.5H9.12894V21.7H10.7289V22.5ZM7.52899 22.5H5.92904V21.7H7.52899V22.5ZM4.32908 22.5H3.3003C3.07829 22.4992 2.8571 22.4724 2.64111 22.42L2.82829 21.644C2.98307 21.6808 3.14147 21.6996 3.30026 21.7001H4.32826L4.32908 22.5Z" fill="#5C3724"/>
<path d="M22.8998 18.9003H16.8999C15.5744 18.9003 14.5 17.8259 14.5 16.5003C14.5 15.1748 15.5744 14.1004 16.8999 14.1004H22.8998C23.5626 14.1004 24.0998 13.5632 24.0998 12.9004V17.7002C24.0998 18.3631 23.5626 18.9003 22.8998 18.9003Z" fill="#875339"/>
<path d="M16.8998 17.3002C17.3417 17.3002 17.6998 16.942 17.6998 16.5002C17.6998 16.0584 17.3417 15.7002 16.8998 15.7002C16.458 15.7002 16.0999 16.0584 16.0999 16.5002C16.0999 16.942 16.458 17.3002 16.8998 17.3002Z" fill="#5C3724"/>
<path d="M22.8999 11.3003H22.0999V4.90051C22.0999 4.67972 21.9207 4.50053 21.6999 4.50053H19.2772L18.4816 1.9806C18.4152 1.76981 18.1908 1.65301 17.98 1.71942C17.9724 1.72182 17.9652 1.72422 17.9576 1.72702L14.7001 2.9686L13.237 0.68501C13.1794 0.595024 13.0882 0.531805 12.9838 0.509407C12.8794 0.486222 12.7698 0.506219 12.681 0.565816L6.67553 4.50053H3.30042C1.75486 4.50214 0.502102 5.75491 0.500488 7.30046V21.7001C0.502102 23.2456 1.75486 24.4984 3.30042 24.5H21.6999C21.9207 24.5 22.0999 24.3208 22.0999 24.1V19.3001H22.8999C23.7835 19.3001 24.4999 18.5837 24.4999 17.7002V12.9003C24.4999 12.0167 23.7835 11.3003 22.8999 11.3003ZM22.8999 12.1003C23.3419 12.1003 23.6999 12.4583 23.6999 12.9003C23.6999 13.3423 23.3419 13.7003 22.8999 13.7003H22.0999V12.1004L22.8999 12.1003ZM21.3 5.30049V9.30039H20.7932L19.53 5.30049H21.3ZM19.9544 9.30039H18.7884L17.6796 5.97408C17.6252 5.81049 17.4724 5.7005 17.3001 5.7005C16.8937 5.70169 16.5037 5.5401 16.2173 5.25211L15.9829 5.0177C15.8724 4.90728 15.7077 4.8713 15.5613 4.92531L3.72681 9.30039H3.30042C2.76723 9.30039 2.25605 9.0868 1.88126 8.70721L17.8464 2.62735L19.9544 9.30039ZM17.9452 9.30039H6.03315L15.5985 5.76447L15.6517 5.81765C16.0161 6.18445 16.4929 6.41803 17.0056 6.48204L17.9452 9.30039ZM12.7802 1.45698L13.9349 3.26052L4.60557 6.81325L12.7802 1.45698ZM3.30042 5.30049H5.45438L1.41684 7.94603C1.34245 7.73882 1.30285 7.52042 1.30045 7.30046C1.30167 6.19645 2.19645 5.30171 3.30042 5.30049ZM21.3 23.7H3.30042C2.19645 23.6988 1.30167 22.804 1.30048 21.7001V9.2604C1.30407 9.26398 1.30848 9.26721 1.3121 9.27118C1.34331 9.3024 1.3765 9.33117 1.40889 9.36077C1.44129 9.39038 1.47609 9.42439 1.51167 9.45399C1.54726 9.48359 1.58166 9.5076 1.61685 9.53397C1.65204 9.56039 1.68964 9.59078 1.72806 9.61719C1.76644 9.6436 1.80364 9.66399 1.84127 9.68718C1.87886 9.71037 1.91925 9.73678 1.96125 9.75918C2.00325 9.78157 2.04325 9.79917 2.08446 9.81956C2.12567 9.83995 2.16445 9.85956 2.20684 9.87877C2.24924 9.89797 2.29765 9.91278 2.34324 9.92915C2.38882 9.94553 2.42323 9.96115 2.46523 9.97395C2.51561 9.98993 2.56761 10.0011 2.61922 10.0139C2.65921 10.0235 2.69563 10.0356 2.73483 10.0435C2.79364 10.0559 2.85481 10.0631 2.91441 10.0715C2.94803 10.0759 2.98042 10.0831 3.0144 10.0867C3.10958 10.0959 3.2048 10.1007 3.30038 10.1003H3.82038L3.82636 10.1159L3.86915 10.1003H21.2999V13.7002H16.9001C15.3537 13.7002 14.1001 14.9538 14.1001 16.5002C14.1001 18.0465 15.3537 19.3001 16.9001 19.3001H21.3V23.7ZM23.6999 17.7002C23.6999 18.1421 23.3419 18.5002 22.8999 18.5002H16.9001C15.7957 18.5002 14.9001 17.6046 14.9001 16.5002C14.9001 15.3959 15.7957 14.5003 16.9001 14.5003H22.8999C22.9963 14.4995 23.0923 14.4895 23.1871 14.4711C23.2099 14.4671 23.2323 14.4627 23.2547 14.4575C23.3451 14.4379 23.4339 14.4103 23.5195 14.3751L23.5331 14.3687C23.5903 14.3443 23.6459 14.3163 23.6999 14.2855V17.7002Z" fill="black"/>
<path d="M10.7289 11.3003H9.12891V12.1003H10.7289V11.3003Z" fill="black"/>
<path d="M7.52891 11.3003H5.92896V12.1003H7.52891V11.3003Z" fill="black"/>
<path d="M20.0998 11.3003H18.7286V12.1003H20.0998V11.3003Z" fill="black"/>
<path d="M17.1286 11.3003H15.5287V12.1003H17.1286V11.3003Z" fill="black"/>
<path d="M2.82829 11.2441L2.64111 12.0201C2.8571 12.0725 3.07829 12.0993 3.3003 12.1001H4.32908V11.3001H3.30026C3.14108 11.2997 2.98268 11.2809 2.82829 11.2441Z" fill="black"/>
<path d="M13.9287 11.3003H12.3287V12.1003H13.9287V11.3003Z" fill="black"/>
<path d="M2.82829 21.644L2.64111 22.42C2.8571 22.4724 3.07829 22.4992 3.3003 22.5H4.32908V21.7H3.30026C3.14108 21.6997 2.98268 21.6808 2.82829 21.644Z" fill="black"/>
<path d="M20.0998 21.7002H18.7286V22.5002H20.0998V21.7002Z" fill="black"/>
<path d="M10.7289 21.7002H9.12891V22.5002H10.7289V21.7002Z" fill="black"/>
<path d="M17.1286 21.7002H15.5287V22.5002H17.1286V21.7002Z" fill="black"/>
<path d="M7.52891 21.7002H5.92896V22.5002H7.52891V21.7002Z" fill="black"/>
<path d="M13.9287 21.7002H12.3287V22.5002H13.9287V21.7002Z" fill="black"/>
<path d="M16.8999 15.3003C16.2372 15.3003 15.7 15.8375 15.7 16.5003C15.7 17.163 16.2372 17.7002 16.8999 17.7002C17.5627 17.7002 18.0999 17.163 18.0999 16.5003C18.0999 15.8375 17.5627 15.3003 16.8999 15.3003ZM16.8999 16.9003C16.6791 16.9003 16.4999 16.7211 16.4999 16.5003C16.4999 16.2795 16.6791 16.1003 16.8999 16.1003C17.1207 16.1003 17.2999 16.2795 17.2999 16.5003C17.2999 16.7211 17.1207 16.9003 16.8999 16.9003Z" fill="black"/>
</svg>
