<svg width="21" height="20" viewBox="0 0 21 20" fill="none" xmlns="http://www.w3.org/2000/svg">
<path d="M10.5 0.976562C5.51172 0.976562 1.47656 5.01172 1.47656 10C1.47656 14.9883 5.51172 19.0234 10.5 19.0234C15.4883 19.0234 19.5234 14.9883 19.5234 10C19.5234 5.01172 15.4883 0.976562 10.5 0.976562ZM10.5 2.14844C14.832 2.14844 18.3516 5.66797 18.3516 10C18.3516 14.332 14.832 17.8516 10.5 17.8516C6.16797 17.8516 2.64844 14.332 2.64844 10C2.64844 5.66797 6.16797 2.14844 10.5 2.14844ZM3.64531 7.96484C3.46133 8.71484 3.35156 9.41016 3.35156 10.0742C9.00391 11.2578 8.09766 12.5117 9.13281 17.0195C9.57812 17.1016 10.0312 17.1484 10.5 17.1484C10.9688 17.1484 11.4219 17.1016 11.8672 17.0195C12.9023 12.5117 11.9961 11.2578 17.6484 10.0742C17.625 9.33594 17.5312 8.57422 17.3555 7.96484C14.043 7.13672 12.2617 6.71875 10.5 6.71875C8.73828 6.71875 6.95703 7.13672 3.64531 7.96484ZM10.5 7.14844C12.0703 7.14844 13.3516 8.42969 13.3516 10C13.3516 11.5703 12.0703 12.8516 10.5 12.8516C8.92969 12.8516 7.64844 11.5703 7.64844 10C7.64844 8.42969 8.92969 7.14844 10.5 7.14844ZM10.5 7.85156C9.30859 7.85156 8.35156 8.80859 8.35156 10C8.35156 11.1914 9.30859 12.1484 10.5 12.1484C11.6914 12.1484 12.6484 11.1914 12.6484 10C12.6484 8.80859 11.6914 7.85156 10.5 7.85156Z" fill="#009EAA"/>
</svg>
