<svg width="16" height="16" viewBox="0 0 16 16" fill="none" xmlns="http://www.w3.org/2000/svg">
<g clip-path="url(#clip0_1813_22388)">
<path d="M10.0002 10.5C10.0002 10.7762 9.77649 11 9.50024 11H6.50024C6.22399 11 6.00024 10.7762 6.00024 10.5V9H0.000244141V13.5C0.000244141 14.3 0.700244 15 1.50024 15H14.5002C15.3002 15 16.0002 14.3 16.0002 13.5V9H10.0002V10.5ZM14.5002 4H12.0002V2.5C12.0002 1.7 11.3002 1 10.5002 1H5.50024C4.70024 1 4.00024 1.7 4.00024 2.5V4H1.50024C0.700244 4 0.000244141 4.7 0.000244141 5.5V8H16.0002V5.5C16.0002 4.7 15.3002 4 14.5002 4ZM10.0002 4H6.00024V3H10.0002V4Z" fill="#009EAA"/>
</g>
<defs>
<clipPath id="clip0_1813_22388">
<rect width="16" height="16" fill="white" transform="translate(0.000244141)"/>
</clipPath>
</defs>
</svg>
